<svg width="79" height="83" viewBox="0 0 79 83" fill="none" xmlns="http://www.w3.org/2000/svg">
<path d="M74.4339 79.9038C74.04 78.72 73.4492 77.7336 72.6614 76.8457C72.8583 76.2538 72.9568 75.6619 72.9568 75.07C72.9568 74.5768 72.8583 74.0836 72.6614 73.5903C72.366 72.7025 71.6767 71.9133 71.0858 71.2227C69.8057 69.743 68.2302 68.5592 67.9348 66.3889C66.3592 62.8376 64.0944 61.1606 63.2081 57.7079C60.8448 58.5957 60.1555 57.116 59.3677 55.4389C58.6784 53.7619 57.9891 51.7889 55.9212 51.8876C54.4441 50.9997 52.3762 51.6903 52.5732 53.0714C50.9976 51.5916 53.0655 50.6051 51.1946 49.8159L52.8686 49.1254C52.7701 48.4349 52.9671 47.3497 52.2777 46.9551L50.4068 47.4484C50.4068 44.4889 47.0588 45.9687 46.271 43.5024C46.3695 45.4754 45.0893 43.6997 44.2031 44.7849C44.4 44.0943 43.7107 42.8119 44.4 42.8119C43.4153 41.0362 39.9688 41.924 40.855 39.3592L39.7718 39.4578C38.1963 39.3592 38.2948 37.7808 37.704 36.7943L36.9162 37.3862C36.0299 37.2876 35.0452 36.3011 35.1437 35.2159C33.962 33.5389 30.8109 33.5389 28.5461 33.1443C27.6598 31.0727 26.5766 33.7362 24.8042 33.1443C24.3118 31.9605 21.9485 31.8619 22.2439 30.3821C23.524 31.27 25.395 29.297 26.2812 30.7767C26.2812 29.6916 29.1369 31.7632 28.743 29.8889C24.9026 29.4943 22.9332 25.5483 19.2897 25.4497C21.0622 23.4767 17.3203 21.997 16.0402 21.5037L16.4341 20.9118C15.7448 19.9254 15.1539 19.3335 13.283 19.0375C11.412 17.9524 9.54104 17.0645 8.95021 14.7956C7.86702 11.7375 3.63275 12.2308 1.76178 13.0199C3.04192 16.7686 7.67009 15.3875 7.17773 20.2213C5.79913 18.347 5.10983 19.0375 2.94345 19.1362L3.14039 20.32H2.25414C2.0572 21.3064 0.777065 21.3064 0.383179 22.1943L2.54956 23.7727C1.86026 22.2929 3.23886 21.997 4.12511 21.4051L5.01134 22.4902C5.01134 21.8983 4.519 21.1091 5.70066 21.3064C5.99607 21.7997 6.98078 21.7997 7.07926 22.6875L5.01134 23.674C7.27619 23.3781 5.99606 27.2254 8.26091 26.9294L7.47314 28.9024L8.85175 29.6916L8.26091 30.1848L9.54105 31.5659C10.5258 31.8619 11.2151 31.27 11.8059 30.7767C12.4952 31.1713 13.283 31.3686 13.283 31.9605L11.8059 32.4538L12.1998 33.2429C12.0028 32.5524 13.1845 33.0456 13.6769 32.7497C14.957 34.1308 14.6616 33.6375 14.957 35.2159C16.4341 35.3146 16.631 37.3862 17.7142 36.1038C18.8959 38.1754 20.6683 39.6551 22.2439 41.0362L23.6225 40.8389C24.8042 43.3051 26.5766 42.8119 28.6445 44.2916L28.1522 44.4889L30.0232 44.3903C30.8109 46.3632 32.9773 45.0808 33.5681 47.6457C34.8483 49.816 36.7192 49.3227 38.8856 48.2376C40.4612 48.3362 40.4612 50.4078 41.052 51.2957H40.0673V52.4795C41.3474 53.2687 40.9535 53.8605 42.8245 54.6497C43.9077 57.2146 46.271 54.6497 47.945 54.6497L48.0435 58.0038L48.3389 57.7079C51.1946 57.3133 49.9144 57.9051 52.1793 60.6673L53.164 59.6808C52.6716 61.5552 54.7395 60.766 55.5273 62.0484C55.7243 62.3443 55.7243 63.3308 55.8227 64.2187C55.9212 65.1065 56.3151 65.9944 57.3983 66.093C57.3983 66.8822 57.6937 67.3754 58.0876 67.77C58.4815 68.1646 59.0723 68.4606 59.5647 68.7565C60.7463 69.3484 61.928 69.8417 62.2234 71.1241C61.928 72.0119 62.5188 72.5052 62.8142 72.8998C63.1096 73.2944 63.2081 73.689 62.1249 74.0836L62.0265 73.7876C61.3372 74.1822 60.6478 74.4781 59.9585 74.8727L61.5341 74.5768C61.3372 75.07 61.4356 75.5633 61.3372 76.0565C61.2387 76.5498 61.0417 77.043 60.1555 77.5363C61.2387 78.0295 62.3219 78.5228 63.3066 79.2133C63.0112 78.72 63.1096 78.1282 63.3066 77.6349L62.8142 77.7336C62.7158 77.4376 62.6173 77.043 62.5188 76.5498C62.4203 76.0565 62.4203 75.6619 62.7158 75.2673L63.4051 75.8592C63.602 74.9714 64.4882 75.4646 64.7837 75.7606C64.2913 77.6349 65.7684 76.9444 66.2607 78.4241C66.0638 78.72 65.8668 79.4106 65.3745 79.2133C65.7684 80.1011 64.3898 82.1728 66.0638 82.3701C65.9653 82.4687 65.8668 82.4687 65.8668 82.5673C68.7225 82.4687 71.7751 81.5809 74.4339 79.9038Z" fill="#CB283A"/>
<path d="M35.2862 79.0169C34.8926 78.6227 34.4006 78.1299 33.6135 77.7357C34.2038 77.1444 34.3022 76.7501 34.2038 76.2574C34.1054 75.7646 33.7119 75.2718 33.3183 74.779C32.5311 73.6949 31.744 72.4137 32.7279 71.1325C33.4167 68.6687 33.2199 66.4019 35.483 64.4308C33.4167 62.8539 34.3022 61.7698 35.483 60.5872C36.6637 59.5031 38.1396 58.419 37.3525 56.5464C37.6477 54.9696 36.5653 53.1956 35.1878 53.6884C36.1717 51.8158 37.6477 53.4912 37.9428 51.6187L39.0252 53.097C39.714 52.8999 40.7963 52.8999 40.9931 52.1115L40.1075 50.436C42.8626 49.8447 40.8947 46.8881 43.1578 45.7054C41.2883 46.1982 42.7642 44.5228 41.5835 43.8329C42.3706 43.9314 43.453 43.0444 43.5514 43.7343C45.1257 42.4531 43.8465 39.2994 46.5032 39.8907L46.3064 38.9052C46.208 37.3283 47.8807 37.3283 48.7663 36.737L48.0775 36.0471C48.0775 35.1601 49.0615 34.1745 50.1438 34.1745C51.7181 32.9919 51.7181 29.8381 52.2101 27.5714C54.2764 26.6844 51.6197 25.6003 52.4069 23.7277C53.5876 23.235 53.9812 20.8696 55.4572 21.2639C54.4732 22.5451 56.1459 24.4176 54.67 25.3046C55.7523 25.4032 53.4893 28.0641 55.4572 27.7685C55.7523 25.8959 56.9331 24.5162 58.1138 23.1364C59.2946 21.7566 60.4753 20.574 60.8689 18.8C62.5416 20.8696 64.6079 17.4202 65.3951 16.3361L65.887 16.8289C66.9694 16.4347 67.6581 15.9419 68.5437 14.2665C70.0196 12.7882 71.5939 11.2113 73.857 11.4084C75.4313 11.507 76.4153 10.5214 77.2025 9.33875C77.8912 8.15609 78.2848 6.57922 78.3832 5.49512C76.4153 5.29801 75.1362 6.38211 73.9554 7.36766C72.7747 8.25465 71.5939 8.94453 69.3309 7.95898C71.6923 7.17055 71.2987 6.38211 72.0859 4.21391L70.8068 4.0168L71.2004 3.1298C70.4132 2.63703 70.9052 1.35582 70.3148 0.567383L67.7565 2.24282C69.5276 2.04571 69.2325 3.42547 69.3309 4.50957C68.8389 4.70668 68.3469 4.90379 67.8549 5.1009C68.3469 5.29801 69.3309 5.00235 68.8389 6.185C68.2485 6.38211 67.9533 7.26911 66.9694 7.17055L66.7726 4.90379C66.4774 6.08645 65.4934 6.08644 64.5095 6.08644C63.5255 6.08644 62.5416 6.185 62.2464 7.36766L60.4753 6.08644C59.9833 6.48066 59.5897 6.87488 59.1962 7.36766L58.901 6.67778L57.0315 7.86043C56.3427 8.84598 56.9331 9.73297 57.2283 10.3243C56.6379 11.0142 56.2443 11.8026 55.6539 11.7041L55.5556 10.1272L54.5716 10.5214C55.3588 10.4228 54.4732 11.6055 54.67 12.0983C52.9973 13.3795 53.5877 13.0838 51.8165 13.1824C51.423 14.6607 49.1599 14.8578 50.3406 16.0405C47.9791 17.1246 46.208 19.0957 44.6337 20.7711L44.7321 22.2494C42.0754 23.5306 42.469 25.5017 40.8947 27.7685L40.6979 27.2757L40.7963 29.2468C38.73 30.2323 40.1075 32.4005 37.5493 33.3861C35.483 35.0615 36.1717 37.0326 37.3525 38.9052C37.4509 40.482 35.3846 40.8763 34.5974 41.6647L34.4006 40.6791L33.2199 40.8762C32.6295 42.3546 31.9408 42.0589 31.4488 44.2271C28.9889 46.0011 32.1375 47.6765 32.4327 49.4505C31.3504 49.8447 30.268 50.1404 29.1857 50.5346L29.5793 50.7317C30.76 53.4912 29.7761 52.3086 27.8082 55.758L29.0873 56.3493C27.1194 56.7435 28.6937 58.2219 27.8082 59.7002C27.6114 60.0944 26.7258 60.4886 26.0371 61.1785C25.3483 61.8684 24.7579 62.7554 25.2499 63.7409C23.9708 64.825 24.2659 66.2048 24.7579 67.3874C25.2499 68.6687 25.8403 69.8513 25.4467 70.9354C24.7579 71.5268 24.9547 72.2166 25.0531 72.7094C25.1515 73.2022 25.1515 73.4979 23.9708 73.4979V73.2022C23.1836 73.3007 22.3964 73.3993 21.6093 73.4979L23.1836 73.7935C22.3964 74.6805 22.9868 75.9617 21.1173 76.7501C22.1013 77.5386 23.1836 78.2285 24.1675 78.9184C23.8724 78.4256 24.0692 77.8343 24.1675 77.3415L23.6756 77.44C23.6756 76.9473 23.3804 75.5675 24.0692 74.9762C24.2659 75.2718 24.3643 75.4689 24.5611 75.7646C24.9547 74.9762 25.7419 75.7646 25.9387 75.9617C25.0531 77.5386 26.6274 77.1444 27.021 78.327C26.8242 78.6227 26.6274 79.1155 26.1354 78.9184C26.2338 79.3126 26.1354 79.9039 26.1354 80.4952C26.1354 81.0866 26.3322 81.5793 27.1194 81.3822C27.021 81.4808 27.021 81.4808 26.9226 81.5793C29.8745 80.988 32.6295 79.9039 35.2862 79.0169Z" fill="#CB283A"/>
</svg>
