<svg width="50" height="50" viewBox="0 0 50 50" fill="none" xmlns="http://www.w3.org/2000/svg">
<g clip-path="url(#clip0_67_12)">
<path d="M25 50C38.8071 50 50 38.8071 50 25C50 11.1929 38.8071 0 25 0C11.1929 0 0 11.1929 0 25C0 38.8071 11.1929 50 25 50Z" fill="url(#paint0_radial_67_12)"/>
<path d="M43.7417 25C43.7417 28.2947 42.8808 31.4073 41.3907 34.0894C38.692 38.9404 33.9073 42.4669 28.245 43.4602C27.6655 43.5596 27.0861 43.6424 26.49 43.6755C25.9934 43.7086 25.4967 43.7417 25 43.7417C23.0298 43.7417 21.1424 43.4437 19.3708 42.8808C18.5265 42.6159 17.6987 42.2847 16.9039 41.904C13.5265 40.2814 10.7119 37.6821 8.82448 34.4702C7.18541 31.6887 6.2417 28.4437 6.2417 24.9834C6.2417 18.2119 9.81786 12.2847 15.1987 8.99004C17.9801 7.28474 21.2251 6.29137 24.7185 6.2417C24.8179 6.2417 24.9006 6.2417 25 6.2417C25.9106 6.2417 26.8046 6.30792 27.6821 6.44037C28.8576 6.60594 29.9834 6.88739 31.0761 7.25163C31.49 7.40064 31.9039 7.54965 32.3013 7.71521C32.5 7.79799 32.6987 7.88077 32.8973 7.98011C39.3046 10.9768 43.7417 17.4669 43.7417 25Z" fill="#FDFFD7"/>
<path d="M32.0363 23.1459C29.4536 21.4737 26.5728 22.0366 26.5728 22.0366L26.1754 18.6922C29.6026 15.6956 31.3906 12.8479 32.0363 11.1095C32.4337 10.0499 32.4171 8.75847 32.2847 7.73198C32.1522 6.68893 31.9204 5.91078 31.9204 5.91078C31.9204 5.91078 30.2483 -0.827626 25.9271 3.84125C25.3642 4.42072 24.9834 5.28165 24.7019 6.25847C23.6589 10.083 24.4536 15.9439 24.4536 15.9439C24.4536 15.9439 18.5595 20.828 17.4502 22.732C13.8575 28.7254 17.9138 33.4936 21.0595 35.6459C24.2218 37.7982 28.1622 36.8876 28.1622 36.8876C28.692 39.7187 28.3608 42.2684 26.4569 43.6922C27.0529 43.6426 27.6324 43.5763 28.2118 43.477C30.1158 40.6293 29.0231 36.7717 29.0231 36.7717C33.2615 35.6459 34.9834 32.3015 35.0827 29.7187C35.2317 27.136 34.6191 24.8181 32.0363 23.1459ZM29.7681 4.78496C30.5463 4.48694 31.192 5.57966 31.0595 7.2684C30.9105 9.37105 29.6026 12.434 25.9105 14.934C25.9105 14.934 25.4469 9.5035 27.6655 6.45714C28.2118 5.71211 28.8906 5.13264 29.7681 4.78496ZM19.0396 30.9936C18.4602 29.3048 18.3774 24.4869 23.543 20.7783C24.1555 20.3479 24.7185 19.9009 25.2483 19.4704L25.5959 22.2684C25.5959 22.3015 25.5794 22.3346 25.5463 22.3346C24.288 22.583 19.6688 25.5465 20.2648 29.7022C20.8443 33.8247 24.6853 33.8909 24.8675 33.8909C24.6688 33.8744 21.2251 33.626 21.6059 29.6194C21.9867 25.4969 26.1589 25.083 26.1589 25.083L27.9635 35.9605C21.788 37.2353 19.3211 31.8048 19.0396 30.9936ZM28.7582 35.7949L26.9204 24.9836C28.4602 24.636 32.0529 25.8942 32.2185 29.4373C32.4834 34.9836 28.7582 35.7949 28.7582 35.7949ZM19.6522 37.5333C18.9072 37.5167 15.7615 38.1624 16.9039 41.9373C17.6986 42.3181 18.5098 42.6492 19.3708 42.9141C19.2714 42.7485 19.2383 42.6492 19.2383 42.6492C19.2383 42.6492 21.1754 42.9141 21.8211 40.9108C22.4502 38.8744 21.0099 37.5664 19.6522 37.5333Z" fill="url(#paint1_radial_67_12)"/>
</g>
<defs>
<radialGradient id="paint0_radial_67_12" cx="0" cy="0" r="1" gradientUnits="userSpaceOnUse" gradientTransform="translate(25.5423 21.8555) scale(34.9443)">
<stop offset="0.5153" stop-color="#875353"/>
<stop offset="0.6138" stop-color="#784A4A"/>
<stop offset="0.7117" stop-color="#6D4444"/>
</radialGradient>
<radialGradient id="paint1_radial_67_12" cx="0" cy="0" r="1" gradientUnits="userSpaceOnUse" gradientTransform="translate(25.0979 23.0947) rotate(-3.4708) scale(13.5505 12.791)">
<stop stop-color="#FFDE5E"/>
<stop offset="1" stop-color="#FFBD50"/>
</radialGradient>
<clipPath id="clip0_67_12">
<rect width="50" height="50" fill="white"/>
</clipPath>
</defs>
</svg>
