<svg width="60" height="60" viewBox="0 0 60 60" fill="none" xmlns="http://www.w3.org/2000/svg">
<path d="M30 60C46.5685 60 60 46.5685 60 30C60 13.4315 46.5685 0 30 0C13.4315 0 0 13.4315 0 30C0 46.5685 13.4315 60 30 60Z" fill="url(#paint0_radial_29_2811)"/>
<path d="M52.5079 30.0307C52.5079 30.2162 52.5079 30.4326 52.5079 30.6182C52.4461 33.5862 51.7968 36.3688 50.6838 38.935C50.4983 39.3369 50.3128 39.7388 50.1273 40.1407C50.0036 40.419 49.849 40.6973 49.6944 40.9446C45.8607 47.8701 38.4714 52.5387 30 52.5387C21.7141 52.5387 14.4794 48.0865 10.5529 41.4084C9.31619 39.2751 8.38866 36.9253 7.89398 34.421C7.86306 34.2355 7.83215 34.0191 7.80123 33.8336C7.58481 32.5969 7.46114 31.2983 7.46114 29.9998C7.46114 28.7013 7.58481 27.4027 7.80123 26.166C7.83215 25.9805 7.86306 25.7641 7.9249 25.5786C9.1616 19.3333 12.9954 14.0155 18.2513 10.7691C21.6832 8.66672 25.7025 7.46094 30.0309 7.46094C33.4318 7.46094 36.6473 8.20296 39.5226 9.56333C44.253 11.7585 48.1177 15.5613 50.3746 20.2917C50.5601 20.6627 50.7147 21.0337 50.8693 21.4357C51.8896 23.9091 52.477 26.5989 52.5389 29.4433C52.5079 29.6597 52.5079 29.8452 52.5079 30.0307Z" fill="#FDFFD7"/>
<path d="M52.508 30.1556C52.508 30.3407 52.508 30.5566 52.508 30.7417C52.4463 33.7034 51.7981 36.48 50.687 39.0406C50.5019 39.4416 50.3167 39.8427 50.1315 40.2438H25.9653V46.3214L14.2062 38.6395L7.97179 34.5672L7.8792 34.5055L1.24352 30.1556L7.8792 25.8056L8.00266 25.7439L11.9841 23.1524L14.4531 21.5173L21.0271 17.2291L25.9961 13.9897V20.4993H50.3784C50.5636 20.8695 50.7179 21.2397 50.8722 21.6407C51.8907 24.1088 52.4771 26.7928 52.5389 29.6311C52.508 29.7853 52.508 29.9704 52.508 30.1556Z" fill="#6D4444"/>
<path d="M44.0651 26.8396C42.9325 29.7741 40.545 32.3688 37.4534 33.2337C33.9027 34.253 30.0152 32.9248 26.3727 33.5117C24.6585 33.7897 23.0362 34.4693 21.3221 34.7164C19.4243 34.9944 17.404 34.7164 15.7205 33.7588C14.0675 32.8012 12.7819 31.1641 12.5064 29.3417C12.2922 28.0134 12.5983 26.6543 12.935 25.357C13.3023 24.0287 13.7308 22.6387 14.4961 21.5267L21.016 17.2331L25.9441 13.9897V20.4765H45.0752C45.1058 22.6387 44.8609 24.8009 44.0651 26.8396Z" fill="#875353"/>
<path d="M23.2468 28.9952C22.9985 30.1663 22.6571 31.3375 22.0675 32.3546C21.4778 33.3408 20.702 34.1421 19.864 34.8818C18.1572 36.392 16.2951 37.6248 14.3089 38.5494L7.91587 34.3887L1.24352 30.0431L7.91587 25.6974L21.1364 17.0986C21.1985 17.4993 21.2916 17.8691 21.4157 18.239C21.8813 19.6259 22.6571 20.8587 23.1226 22.2764C23.8364 24.4646 23.7123 26.807 23.2468 28.9952Z" fill="#AA6D6D"/>
<defs>
<radialGradient id="paint0_radial_29_2811" cx="0" cy="0" r="1" gradientUnits="userSpaceOnUse" gradientTransform="translate(29.9948 30.0142) scale(29.9866)">
<stop stop-color="#FAE061"/>
<stop offset="0.3671" stop-color="#FBD65D"/>
<stop offset="0.9966" stop-color="#FFBA51"/>
<stop offset="1" stop-color="#FFBA51"/>
</radialGradient>
</defs>
</svg>
