<svg width="58" height="81" viewBox="0 0 58 81" fill="none" xmlns="http://www.w3.org/2000/svg">
<path d="M29.3645 25.5983C26.8093 -0.237786 19.2421 0.0638052 16.3921 1.37069C13.5421 2.67758 10.1024 9.51359 26.5145 23.0851L8.72656 14.2385" stroke="#6D4444" stroke-width="1.5123" stroke-miterlimit="10"/>
<path d="M29.3643 25.5983C31.9194 -0.14648 39.4867 0.054653 42.3367 1.36201C45.1867 2.66936 48.6263 9.50783 32.2143 23.0842L50.0022 14.2344" stroke="#6D4444" stroke-width="1.5123" stroke-miterlimit="10"/>
<path d="M53.9333 30.5366H4.79541V80.907H53.9333V30.5366Z" fill="#FCCE5A"/>
<path d="M57.8645 21.6477H0.864502V38.4378H57.8645V21.6477Z" fill="url(#paint0_radial_33_219)"/>
<path d="M57.8645 26.5862H0.864502V32.5121H57.8645V26.5862Z" fill="#6D4444"/>
<path d="M4.79541 38.4377H53.9333L4.79541 49.3019V38.4377Z" fill="url(#paint1_radial_33_219)"/>
<path d="M35.2611 21.6477H23.468V80.907H35.2611V21.6477Z" fill="#6D4444"/>
<path d="M35.2611 38.4377V42.7834L23.468 45.3513V38.4377H35.2611Z" fill="#5B3939"/>
<defs>
<radialGradient id="paint0_radial_33_219" cx="0" cy="0" r="1" gradientUnits="userSpaceOnUse" gradientTransform="translate(29.3645 29.9943) scale(21.0182 20.7796)">
<stop stop-color="#FAE061"/>
<stop offset="1" stop-color="#FFBA51"/>
</radialGradient>
<radialGradient id="paint1_radial_33_219" cx="0" cy="0" r="1" gradientUnits="userSpaceOnUse" gradientTransform="translate(29.3644 43.9012) scale(17.8282 17.6856)">
<stop stop-color="#FAE061"/>
<stop offset="1" stop-color="#FFBA51"/>
</radialGradient>
</defs>
</svg>
