<svg width="50" height="50" viewBox="0 0 50 50" fill="none" xmlns="http://www.w3.org/2000/svg">
<g clip-path="url(#clip0_67_2)">
<path d="M25.0662 49.9351C38.8733 49.9351 50.0662 38.7422 50.0662 24.9351C50.0662 11.1279 38.8733 -0.0649414 25.0662 -0.0649414C11.259 -0.0649414 0.0661621 11.1279 0.0661621 24.9351C0.0661621 38.7422 11.259 49.9351 25.0662 49.9351Z" fill="url(#paint0_radial_67_2)"/>
<path d="M43.808 24.935C43.808 28.2297 42.9471 31.3423 41.457 34.0244C38.7583 38.8754 33.9735 42.4019 28.3113 43.3953C27.7318 43.4946 27.1524 43.5774 26.5563 43.6105C26.0596 43.6436 25.5629 43.6768 25.0663 43.6768C23.0961 43.6768 21.2086 43.3787 19.4371 42.8158C18.5927 42.5509 17.7649 42.2198 16.9702 41.839C13.5928 40.2165 10.7782 37.6172 8.89076 34.4052C7.25169 31.6238 6.30798 28.3787 6.30798 24.9185C6.30798 18.147 9.88414 12.2198 15.2649 8.9251C18.0464 7.2198 21.2914 6.22643 24.7848 6.17676C24.8841 6.17676 24.9669 6.17676 25.0663 6.17676C25.9769 6.17676 26.8709 6.24298 27.7484 6.37543C28.9239 6.541 30.0497 6.82245 31.1424 7.18669C31.5563 7.3357 31.9702 7.4847 32.3676 7.65027C32.5663 7.73305 32.7649 7.81583 32.9636 7.91517C39.3709 10.9119 43.808 17.4019 43.808 24.935Z" fill="#FDFFD7"/>
<path d="M32.1027 23.0809C29.52 21.4088 26.6392 21.9717 26.6392 21.9717L26.2418 18.6273C29.669 15.6306 31.457 12.7829 32.1027 11.0445C32.5001 9.98492 32.4835 8.69353 32.3511 7.66704C32.2186 6.62399 31.9869 5.84584 31.9869 5.84584C31.9869 5.84584 30.3147 -0.892568 25.9935 3.77631C25.4306 4.35578 25.0498 5.2167 24.7683 6.19353C23.7253 10.018 24.52 15.879 24.52 15.879C24.52 15.879 18.6259 20.7631 17.5167 22.667C13.9239 28.6604 17.9802 33.4286 21.1259 35.5809C24.2882 37.7333 28.2286 36.8227 28.2286 36.8227C28.7584 39.6538 28.4272 42.2035 26.5233 43.6273C27.1193 43.5776 27.6988 43.5114 28.2782 43.4121C30.1822 40.5644 29.0895 36.7068 29.0895 36.7068C33.3279 35.5809 35.0498 32.2366 35.1491 29.6538C35.2981 27.071 34.6855 24.7531 32.1027 23.0809ZM29.8345 4.72002C30.6127 4.422 31.2584 5.51472 31.1259 7.20346C30.9769 9.30611 29.669 12.369 25.9769 14.869C25.9769 14.869 25.5133 9.43856 27.7319 6.3922C28.2782 5.64717 28.9571 5.0677 29.8345 4.72002ZM19.1061 30.9286C18.5266 29.2399 18.4438 24.422 23.6094 20.7134C24.222 20.2829 24.7849 19.8359 25.3147 19.4054L25.6623 22.2035C25.6623 22.2366 25.6458 22.2697 25.6127 22.2697C24.3544 22.518 19.7352 25.4816 20.3312 29.6372C20.9107 33.7598 24.7518 33.826 24.9339 33.826C24.7352 33.8094 21.2915 33.5611 21.6723 29.5545C22.0531 25.4319 26.2253 25.018 26.2253 25.018L28.0299 35.8955C21.8544 37.1703 19.3875 31.7399 19.1061 30.9286ZM28.8246 35.7299L26.9869 24.9187C28.5266 24.571 32.1193 25.8293 32.2849 29.3723C32.5498 34.9187 28.8246 35.7299 28.8246 35.7299ZM19.7186 37.4684C18.9736 37.4518 15.8279 38.0975 16.9703 41.8723C17.765 42.2531 18.5763 42.5843 19.4372 42.8492C19.3378 42.6836 19.3047 42.5843 19.3047 42.5843C19.3047 42.5843 21.2418 42.8492 21.8875 40.8458C22.5167 38.8094 21.0763 37.5015 19.7186 37.4684Z" fill="url(#paint1_radial_67_2)"/>
<path d="M43.808 2.08447L5.24841 48.1055" stroke="#9B0E0E" stroke-width="4" stroke-miterlimit="10" stroke-linecap="round" stroke-linejoin="round"/>
</g>
<defs>
<radialGradient id="paint0_radial_67_2" cx="0" cy="0" r="1" gradientUnits="userSpaceOnUse" gradientTransform="translate(25.6084 21.7905) scale(34.9443)">
<stop offset="0.5153" stop-color="#875353"/>
<stop offset="0.6138" stop-color="#784A4A"/>
<stop offset="0.7117" stop-color="#6D4444"/>
</radialGradient>
<radialGradient id="paint1_radial_67_2" cx="0" cy="0" r="1" gradientUnits="userSpaceOnUse" gradientTransform="translate(25.1644 23.0298) rotate(-3.4708) scale(13.5505 12.791)">
<stop stop-color="#FFDE5E"/>
<stop offset="1" stop-color="#FFBD50"/>
</radialGradient>
<clipPath id="clip0_67_2">
<rect width="50" height="50" fill="white"/>
</clipPath>
</defs>
</svg>
