<svg width="104" height="81" viewBox="0 0 104 81" fill="none" xmlns="http://www.w3.org/2000/svg">
<path d="M55.0074 79.7278C56.4943 79.1417 60.1618 77.9694 60.7566 77.8717C62.8382 77.5787 64.6224 77.1879 65.0189 76.8949C65.3163 76.6018 65.911 76.5041 66.6049 76.5041C67.5961 76.5041 68.3891 76.1134 67.6952 75.918C67.5961 75.8203 67.3979 75.7226 67.3979 75.6249C67.3979 75.5272 67.497 75.5272 67.6952 75.6249C68.0917 75.918 68.6865 75.918 69.5786 75.3319C70.0742 75.0388 70.2724 74.7457 70.2724 74.5504C70.1733 74.355 70.3716 74.2573 70.5698 74.1596C71.6602 74.0619 74.6339 73.2804 75.2286 73.0851C75.9225 72.792 76.1208 72.2059 75.526 72.4989C75.0304 72.6943 75.0304 72.4989 75.4269 72.0105C75.6251 71.8151 75.7243 71.6197 75.526 71.6197C75.4269 71.6197 75.2286 71.5221 75.2286 71.3267C75.2286 70.9359 75.6251 70.9359 75.7243 71.229C75.7243 71.3267 75.8234 71.3267 76.0216 71.1313C76.2199 70.8382 76.2199 70.6429 76.0216 70.6429C75.9225 70.5452 75.8234 70.3498 75.9225 70.0567C76.0216 69.7637 76.0216 69.4706 76.0216 69.3729C75.9225 69.2753 75.9225 69.2752 76.1208 69.2752C76.319 69.2752 76.4181 69.2752 76.4181 69.0799C76.4181 68.8845 76.2199 68.7868 75.9225 68.7868C75.3278 68.7868 75.2286 68.6891 75.6251 67.9076C75.7243 67.5169 75.7243 67.4192 75.6251 67.5169C75.526 67.6146 75.526 67.5169 75.6251 67.2238C75.7243 66.9308 75.7243 66.7354 75.6251 66.7354C75.3278 66.7354 75.2286 65.4654 75.526 64.977C75.8234 64.2932 75.8234 64.0978 75.526 64.4886C75.2286 64.7816 74.9313 64.4886 75.2286 64.0978C75.3278 64.0001 75.3278 63.7071 75.3278 63.6094C75.2286 63.5117 75.3278 63.3163 75.4269 63.3163C75.526 63.3163 75.7243 63.414 75.7243 63.6094C75.7243 63.7071 75.9225 63.9024 76.0216 63.9024C76.319 63.9024 76.319 64.0001 76.2199 64.1955C76.1207 64.3909 76.2199 64.6839 76.4181 64.8793C76.6164 65.0747 76.7155 65.3678 76.6164 65.4654C76.5173 65.5631 76.5172 65.8562 76.7155 66.0516C77.0129 66.54 77.2111 67.2238 77.2111 67.2238C77.2111 67.2238 77.3102 67.5169 77.5085 67.7123C77.8059 68.103 77.905 68.5914 77.905 69.7637C77.905 70.8382 78.0041 71.4244 78.2023 71.7174C78.4006 71.9128 78.4997 72.4012 78.4997 72.5966C78.4997 72.8897 78.5988 73.085 78.698 72.9874C78.7971 72.8897 78.9953 72.8897 78.9953 73.0851C79.0945 73.1827 79.1936 73.1827 79.2927 73.1827C79.3918 73.085 79.7883 73.2804 80.1848 73.4758C81.7708 74.355 83.7533 73.7689 84.0507 72.3036C84.1498 71.9128 84.0507 71.4244 83.9515 71.1313C83.7533 70.8382 83.7533 70.8382 83.7533 71.229C83.7533 71.6197 83.6542 71.7174 83.2577 71.7174C82.5638 71.7174 82.5638 70.8382 83.2577 70.7406C83.555 70.6429 83.7533 70.5452 83.7533 70.4475C83.7533 70.3498 83.555 70.3498 83.3568 70.3498C83.0594 70.4475 82.9603 70.4475 82.9603 69.8614C82.9603 69.5683 82.762 69.0799 82.4647 68.7868C82.1673 68.4937 82.1673 68.2984 82.2664 68.2984C82.3656 68.2984 82.5638 68.2007 82.5638 68.0053C82.5638 67.8099 82.6629 67.7123 82.762 67.7123C82.8612 67.7123 82.9603 67.6146 83.0594 67.4192C83.1585 67.1261 83.2577 67.3215 83.6542 67.8099C84.2489 68.6891 85.7358 69.2753 85.8349 68.8845C85.934 68.7868 85.934 68.7868 86.1322 68.8845C86.2314 68.9822 86.4296 69.0799 86.6279 68.9822C86.9252 68.8845 87.1235 68.4937 87.2226 67.3215C87.3217 66.6377 87.4209 66.6377 88.9077 66.8331C89.6016 66.9308 89.7007 66.9307 89.6016 66.54C89.5025 66.2469 89.5025 66.2469 89.7007 66.4423C89.7998 66.54 90.1963 66.7354 90.4937 66.7354C90.8902 66.7354 90.9893 66.6377 91.0884 66.0516C91.1876 65.7585 91.2867 65.3678 91.3858 65.3678C91.4849 65.3678 91.4849 64.8793 91.5841 64.2932C91.5841 63.2186 91.6832 62.8279 91.9806 63.2186C92.2779 63.6094 93.5665 63.5117 94.0622 63.1209C94.5578 62.8279 94.5578 62.6325 94.5578 61.0695C94.5578 60.1903 94.5578 59.3111 94.5578 59.0181C94.5578 58.8227 94.6569 58.6273 94.8551 58.6273C95.0534 58.6273 95.3508 58.432 95.549 58.2366C95.8464 57.9435 96.0446 57.8458 96.6394 57.9435C97.5315 58.1389 97.7297 58.0412 97.3332 57.4551C97.2341 57.162 97.135 57.0643 97.2341 57.0643C97.5315 57.0643 97.5315 56.4782 97.135 56.2828C96.5403 55.9898 96.2429 55.4037 96.2429 54.4268C96.1438 53.2545 95.9455 53.0592 95.2516 52.9615C94.3595 52.8638 93.963 52.6684 93.963 52.473C93.963 52.3754 93.7648 52.0823 93.4674 51.7892C93.17 51.4962 92.9718 51.2031 92.9718 51.0077C92.8727 50.3239 92.3771 49.7378 91.8814 49.8355C91.5841 49.9332 91.3858 49.8355 91.3858 49.6401C91.3858 49.5424 91.2867 49.347 91.1876 49.347C91.0884 49.347 90.7911 49.2494 90.4937 49.2494C90.1963 49.1517 89.7998 49.3471 89.4033 49.6401C88.9077 50.1286 88.7095 50.1285 88.2139 49.8355C87.9165 49.6401 87.6191 49.4447 87.7182 49.2494C87.8174 49.054 87.6191 48.9563 87.4209 48.9563C87.2226 48.9563 86.9252 48.8586 86.727 48.6632C86.5288 48.4679 86.1323 48.1748 85.7358 48.0771C85.3393 47.9794 85.0419 47.6864 85.0419 47.5887C85.141 47.1979 84.6454 47.1979 84.2489 47.491C83.9515 47.784 83.8524 47.784 83.7533 47.491C83.6542 47.2956 83.2577 47.1979 83.0594 47.1979C82.6629 47.1979 82.5638 47.2956 82.5638 47.8817C82.5638 48.2725 82.4647 48.5655 82.2664 48.5655C81.4734 48.5655 82.3656 50.2262 83.555 51.3008C83.8524 51.5939 84.0507 51.9846 84.1498 52.3753C84.2489 52.6684 84.5463 53.5476 84.9428 54.2314C85.6366 55.5013 86.1323 56.7713 86.2314 57.8458C86.4296 59.3111 86.5287 60.6788 86.4296 60.6788C86.2314 60.6788 85.7358 60.0926 85.8349 59.995C85.934 59.8973 85.8349 59.8973 85.6366 59.8973C85.3393 59.8973 83.9515 57.162 83.3568 55.4037C83.1585 54.9152 82.6629 53.9384 82.2664 53.2545C81.8699 52.5707 81.4734 51.9846 81.4734 51.8869C81.4734 51.7892 81.1761 51.2031 80.9778 50.617C80.6804 49.9332 80.4822 49.4447 80.4822 49.347C80.5813 49.1517 79.7883 48.2725 79.491 48.2725C79.3918 48.2725 79.2927 48.0771 79.2927 47.8817C79.2927 47.5887 79.1936 47.491 79.0945 47.5887C78.9953 47.6864 78.8962 47.491 78.9953 47.2956C79.0945 46.9049 78.8962 46.8072 78.4997 46.8072C78.1032 46.7095 77.905 46.7095 78.0041 46.5141C78.1032 46.1234 77.7067 46.2211 77.5085 46.6118C77.4094 46.9049 77.2111 46.9049 76.9138 46.7095C76.7155 46.6118 76.6164 46.5141 76.8146 46.4164C77.7067 46.3187 76.5172 45.3419 75.0304 44.7558C74.1383 44.365 73.5435 44.4627 72.9488 45.2442C72.4532 45.8303 72.354 46.3187 72.7505 46.7095C72.8497 46.8072 72.9488 47.3933 73.0479 47.9794C73.0479 48.9563 73.147 49.1517 73.6427 49.6401C74.2374 50.1286 74.2374 50.2262 74.1383 51.8869C74.0392 53.0592 74.1383 53.743 74.3365 54.036C74.4357 54.3291 74.6339 54.6222 74.5348 54.7198C74.4356 54.8175 74.2374 54.6222 74.0392 54.2314C73.8409 53.9384 73.5435 53.4499 73.3453 53.2545C72.8497 52.8638 72.2549 51.3008 72.2549 50.7147C72.2549 50.2262 71.7593 48.8586 71.5611 48.6632C71.4619 48.5656 71.3628 48.3702 71.2637 48.1748C71.1646 47.8817 70.8672 47.7841 70.669 47.8817C70.2725 47.9794 69.1821 48.9563 68.7856 49.6401C68.5873 49.9332 68.4882 49.9332 67.8935 49.7378C67.497 49.5424 67.1996 49.2494 67.1005 49.1517C67.0014 48.8586 66.9022 48.8586 66.6049 49.2494C66.3075 49.5424 66.1093 49.5424 65.911 49.347C65.6136 49.1517 65.4154 49.2494 64.9198 49.7378C64.5233 50.0309 63.8294 50.5193 63.3338 50.7147C62.8382 50.91 62.1443 51.3985 61.8469 51.7892C61.5496 52.18 61.1531 52.473 61.1531 52.473C61.1531 52.473 61.0539 51.9846 60.9548 51.4962C60.8557 50.4216 60.6574 50.2262 60.1618 50.3239C59.7653 50.4216 59.0715 51.5939 59.2697 51.9846C59.468 52.473 59.0715 53.1568 58.5759 53.1568C58.0802 53.1568 56.8907 52.2777 56.8907 51.7892C56.8907 51.6915 56.7916 51.5939 56.5934 51.6915C56.296 51.7892 56.1969 51.5939 56.296 51.1054C56.3951 50.8124 54.4127 51.1054 54.1153 51.3985C53.8179 51.5938 53.8179 51.5939 53.5205 51.3008C53.3223 51.1054 53.2232 50.8124 53.2232 50.617C53.2232 50.2262 52.331 50.3239 51.9346 50.7147C51.5381 51.2031 51.0425 51.1054 51.1416 50.5193C51.2407 49.9332 50.9433 49.8355 50.2495 50.3239C49.7538 50.7147 49.06 50.617 49.1591 50.2262C49.2582 50.1285 49.1591 49.7378 49.06 49.5424C48.9608 49.2494 48.9609 49.054 49.1591 48.8586C49.4565 48.4679 49.06 48.5655 48.4652 48.9563C48.1678 49.1517 47.9696 49.2494 47.9696 49.054C47.9696 48.8586 47.7714 48.9563 47.474 48.9563C46.9784 49.054 45.4915 50.617 45.4915 51.0077C45.4915 51.1054 45.3924 51.3008 45.2933 51.3008C45.1941 51.3008 45.095 51.3985 45.095 51.5939C45.095 51.9846 44.302 53.4499 43.8064 53.8407C43.6082 54.036 43.4099 54.3291 43.4099 54.5245C43.4099 54.7199 43.3108 54.8175 43.2117 54.8175C43.1125 54.7198 43.1125 54.5245 43.3108 54.1337C43.7073 53.4499 43.7073 53.4499 43.2117 52.8638C42.9143 52.5707 42.7161 52.0823 42.7161 51.4962C42.7161 50.7147 42.6169 50.5193 41.2292 49.2494C40.3371 48.3702 39.7423 47.5887 39.5441 47.1979C39.445 46.9049 39.2467 46.5141 39.1476 46.4164C38.8502 46.2211 37.4625 46.8072 37.4625 47.1002C37.4625 47.1979 37.3634 47.3933 37.2642 47.3933C36.9669 47.3933 36.5704 48.8586 36.7686 49.6401C36.8677 50.0309 36.8677 50.617 36.8677 50.8124C36.8677 51.1054 36.9669 51.3985 37.1651 51.6915C37.6607 52.3753 37.5616 52.9615 37.066 54.3291C36.6695 55.2083 36.3721 55.599 35.7774 55.8921C34.4888 56.5759 33.9932 57.7482 33.894 60.288C33.7949 61.9487 33.7949 62.3395 33.4975 62.3395C33.2993 62.2418 32.9028 62.2418 32.6054 62.2418C32.2089 62.2418 32.0107 62.1441 31.9116 61.7533C31.8124 61.4603 31.7133 61.3626 31.5151 61.558C31.2177 61.851 30.9203 61.851 30.9203 61.6556C30.9203 61.5579 31.1186 61.3626 31.4159 61.3626C31.7133 61.2649 31.9116 61.1672 31.9116 61.0695C31.8124 60.9718 32.0107 59.995 32.2089 58.8227C32.4072 57.6505 32.5063 56.4782 32.4072 56.1852C32.308 55.8921 32.4072 55.6967 32.5063 55.6967C32.6054 55.6967 32.7045 55.599 32.6054 55.5013C32.5063 55.4037 32.6054 55.2083 32.8037 55.0129C33.0019 54.9152 33.101 54.5245 33.101 54.2314C33.101 53.9384 33.2002 53.743 33.3984 53.743C33.894 53.8407 34.5879 53.3522 34.7861 53.0592C34.8853 52.9615 34.7861 52.7661 34.5879 52.7661C34.4888 52.7661 34.2905 52.9615 34.1914 53.1568C34.0923 53.6453 33.5967 53.4499 33.4975 52.8638C33.3984 52.3753 33.5967 52.3753 34.2905 52.18C35.3809 51.9846 36.0748 51.2031 35.7774 50.617C35.6783 50.3239 35.6783 50.1285 35.8765 49.7378C36.1739 49.054 36.1739 48.9563 35.8765 49.054C35.7774 49.1517 35.3809 48.9563 35.1826 48.5655C34.8853 48.1748 34.8853 47.9794 35.0835 47.8817C35.1826 47.7841 35.1826 47.6864 35.0835 47.491C34.9844 47.2956 34.8853 47.1979 34.8853 47.1002C34.8853 47.0026 34.687 46.7095 34.4888 46.3187C34.1914 45.8303 33.9932 45.6349 33.6958 45.8303C32.8037 46.1234 31.3168 47.8817 30.6229 49.2494C30.3256 49.9332 29.83 51.1054 29.6317 51.5939C29.3343 52.0823 29.2352 52.6684 29.2352 52.7661C29.2352 53.0592 28.4422 53.6453 28.0457 53.6453C27.5501 53.6453 27.8475 52.3753 28.4422 51.8869C29.037 51.3985 29.83 49.7378 29.7308 49.1517C29.7308 48.8586 29.83 48.6632 30.0282 48.5655C30.2265 48.4679 30.2265 48.4679 30.1273 48.6632C30.0282 48.9563 30.0282 48.9563 30.3256 48.6632C30.8212 48.3702 30.8212 47.784 30.3256 47.784C30.1273 47.784 30.0282 47.6864 30.0282 47.491C30.0282 47.2956 30.2265 47.1979 30.6229 47.1979C31.1186 47.1979 31.1186 47.1002 30.8212 46.9049C30.6229 46.8072 30.3256 46.221 30.3256 45.5372C30.2264 44.9511 30.1273 44.2673 30.1273 44.0719C30.0282 43.5835 29.4335 43.5835 28.9378 44.1696C28.3431 44.7557 27.6492 44.8534 27.5501 44.2673C27.451 43.9743 27.6492 43.9742 27.8475 43.8766C28.1449 43.8766 28.3431 43.7789 28.3431 43.5835C28.3431 43.3881 28.1448 43.2904 27.9466 43.2904C27.6492 43.2904 27.5501 43.1927 27.451 42.4112C27.3519 40.7506 26.7571 40.4575 22.693 40.3598C21.1071 40.3598 19.6202 40.2621 19.6202 40.2621C19.5211 40.1644 19.422 39.9691 19.422 39.7737C19.422 39.4806 19.2237 39.4806 18.5298 39.5783C17.6377 39.676 16.25 40.7506 15.0605 42.1182C14.2675 43.0951 13.7719 42.9974 13.871 41.8251C13.9702 41.3367 13.871 41.0436 13.7719 41.1413C13.6728 41.239 13.6728 41.0436 13.6728 40.8483C13.7719 40.3598 13.3754 40.2621 13.1772 40.6529C13.078 40.9459 12.0868 40.7506 11.5912 40.3598C11.3929 40.2621 11.1947 40.0668 11.0956 40.1644C10.9964 40.2621 9.60871 40.5552 8.91484 40.6529C8.61747 40.6529 8.22098 40.9459 7.82448 41.239C6.93237 42.1182 6.13938 42.4113 5.84201 42.0205C5.74288 41.8251 5.54463 41.7274 5.34639 41.9228C5.24726 42.0205 4.85077 42.1182 4.45427 42.1182C3.95865 42.1182 3.26479 42.7043 2.86829 43.5835C2.17443 45.0488 2.37268 47.784 3.26479 48.9563C3.76041 49.4447 4.05777 51.2031 4.1569 52.8638C4.1569 53.0592 4.45427 53.743 4.85077 54.1337C5.24726 54.5245 5.64376 55.306 5.74288 55.6967C5.84201 55.9898 6.04025 57.0643 6.13937 57.9435C6.33762 59.3112 6.83324 60.5811 6.83324 59.995C6.83324 59.8973 7.03149 59.8973 7.32886 60.0926C7.72536 60.288 7.82448 60.288 7.72536 59.995C7.72536 59.7996 7.62623 58.9204 7.62623 57.9435C7.62623 56.2828 7.62623 56.2828 8.12185 56.4782C8.51834 56.5759 8.81572 56.3805 9.21222 55.7944L9.80696 55.0129L9.70783 56.5759C9.60871 59.0181 9.60871 59.3111 9.80696 60.1903C9.90608 60.6788 10.1043 61.2649 10.1043 61.558C10.2034 61.851 10.3026 62.4371 10.4017 62.7302C10.5008 63.2186 10.6991 63.414 10.9964 63.5117C11.2938 63.6094 11.5912 63.8048 11.6903 63.9024C11.9877 64.0978 14.0693 64.7816 14.664 64.7816C14.8623 64.7816 15.1596 66.0516 15.2588 67.2238C15.2588 67.5169 15.5561 67.7123 15.7544 67.7123C16.0518 67.8099 16.25 67.8099 16.25 67.8099C16.25 67.8099 16.4482 67.9076 16.5474 68.103C16.6465 68.2984 17.2412 68.4937 17.6377 68.5914C18.4307 68.6891 18.629 68.5914 18.2325 68.2007C17.9351 67.9076 18.5298 67.2238 18.9263 67.3215C19.0255 67.4192 19.2237 67.5169 19.2237 67.7123C19.5211 70.3498 19.7193 70.7406 21.1071 71.1313C21.7018 71.3267 22.2965 71.6197 22.4948 71.6197C23.0895 71.9128 24.7746 72.1082 24.7746 71.8151C24.7746 71.7174 25.072 71.6197 25.2703 71.7174C25.6668 71.8151 25.865 71.7174 25.9641 71.4244C26.1624 70.6429 26.5589 71.0336 26.658 72.1082C26.7571 73.3781 27.0545 73.6712 28.4422 74.1596C29.1361 74.4527 29.9291 74.9411 30.7221 75.6249C31.4159 76.211 32.1098 76.6995 32.308 76.6995C32.5063 76.6995 32.8037 76.7972 32.9028 76.8949C33.2002 77.1879 35.9756 77.6764 36.5704 77.481C36.8677 77.3833 37.1651 77.481 37.4625 77.774C37.6607 78.0671 38.1564 78.2625 38.5529 78.2625C38.9493 78.2625 39.445 78.5555 39.445 78.6532C39.5441 78.7509 39.9406 78.8486 40.1388 78.8486C40.4362 78.7509 40.8327 78.8486 41.2292 79.044C41.8239 79.337 42.3196 79.337 42.7161 78.9463C43.0134 78.7509 44.302 78.8486 44.8968 79.2393C45.095 79.337 45.2933 79.337 45.3924 79.1417C45.4915 79.044 45.6898 78.9463 45.7889 79.044C46.2845 79.1417 46.681 78.4579 46.7801 77.481C46.8792 76.9925 46.8792 75.4295 46.7801 74.1596C46.681 72.4012 46.8792 71.5221 47.0775 71.0336C47.1766 70.7406 47.3749 70.1544 47.3749 69.9591C47.3749 69.7637 47.3749 68.4937 47.474 67.1261C47.5731 64.6839 47.3749 64.0001 46.9784 64.7816C46.7801 65.0747 46.7801 65.0747 46.681 64.5863C46.681 64.0978 46.7801 64.0001 46.9784 64.0978C47.2757 64.1955 47.3749 64.0001 47.2757 63.0233C47.2757 62.7302 47.3749 62.0464 47.3749 61.3626C47.474 60.6788 47.5731 59.8973 47.5731 59.7019C47.6722 59.1158 47.7714 59.0181 48.0687 59.1158C48.1679 59.2135 48.267 59.4088 48.1679 59.5065C48.0687 59.6042 48.0687 60.288 48.0687 60.8741C48.1679 63.0233 48.1679 63.5117 47.7714 64.0978C47.5731 64.3909 47.5731 64.7816 47.7714 65.4654C47.8705 66.0516 47.8705 66.4423 47.7714 66.6377C47.6722 66.7354 47.6722 67.0284 47.6722 67.1261C47.8705 67.4192 47.9696 68.2984 48.1679 72.2059C48.267 73.5735 48.3661 74.8434 48.4652 74.8434C48.5643 74.9411 48.4652 75.3319 48.267 75.6249C48.0687 75.918 47.9696 76.7972 47.8705 77.481L47.7714 78.7509L48.6635 79.2393C50.7451 79.9232 53.4214 80.3139 55.0074 79.7278ZM64.5233 76.5041C64.6224 76.4064 64.8206 76.3087 64.8206 76.3087C64.9198 76.3087 64.9198 76.4064 64.8206 76.6018C64.6224 76.8948 64.325 76.8949 64.5233 76.5041ZM45.888 76.0157C45.888 75.918 45.9871 75.8203 46.0863 75.8203C46.1854 75.8203 46.2845 75.918 46.2845 76.0157C46.2845 76.1134 46.1854 76.211 46.0863 76.211C45.9871 76.211 45.888 76.1134 45.888 76.0157ZM68.8847 74.7457C68.9838 74.648 69.1821 74.648 69.2812 74.648C69.4795 74.7457 69.5786 74.648 69.5786 74.4527C69.5786 74.2573 69.6777 74.0619 69.7768 73.9642C69.876 73.8665 69.9751 74.0619 69.9751 74.355C69.9751 74.8434 69.876 74.8434 69.2812 74.8434C69.083 74.9411 68.8847 74.8434 68.8847 74.7457ZM53.2232 74.9411C53.124 74.8434 53.0249 74.4527 53.1241 74.1596C53.2232 73.6712 53.2232 73.6712 53.0249 74.0619C52.9258 74.2573 52.8267 74.5504 52.9258 74.7457C53.124 75.1365 52.6284 75.1365 52.3311 74.648C52.1328 74.4527 52.0337 74.355 52.0337 74.5504C52.0337 74.6481 51.9346 74.8434 51.7363 74.8434C51.5381 74.8434 51.6372 74.7457 51.8354 74.5504C52.1328 74.2573 52.1328 74.1596 51.8354 73.9642C51.4389 73.6712 51.6372 73.2804 52.1328 73.3781C52.4302 73.4758 52.4302 73.2804 52.4302 72.6943C52.4302 71.8151 52.5293 71.8151 52.7275 72.6943L52.8267 73.1827L53.1241 72.6943L53.4214 72.2059L54.1153 72.6943C55.1065 73.3781 55.4039 74.2573 54.9083 74.8434C54.6109 75.3319 53.6197 75.3319 53.2232 74.9411ZM45.7889 74.9411C45.9871 74.648 46.1854 74.5504 46.2845 74.648C46.3836 74.7457 45.888 75.3319 45.6898 75.3319C45.4915 75.4295 45.5906 75.2342 45.7889 74.9411ZM45.7889 74.2573C45.7889 74.1596 45.888 74.1596 45.9871 73.9642C46.0863 73.8665 46.1854 73.9642 46.1854 74.0619C46.1854 74.1596 46.0863 74.355 45.9871 74.355C45.9871 74.355 45.7889 74.355 45.7889 74.2573ZM81.7708 71.3267C81.7708 71.0336 81.7708 70.7406 81.7708 70.6429C81.7708 70.5452 81.7708 70.1544 81.7708 69.8614C81.7708 69.5683 81.8699 69.1776 81.9691 69.1776C82.0682 69.0799 82.1673 69.0799 82.0682 69.2752C81.9691 69.3729 81.9691 69.9591 82.1673 70.3498C82.2664 70.8382 82.2664 71.4244 82.2664 71.5221C82.1673 72.0105 81.8699 71.8151 81.7708 71.3267ZM75.3278 69.4706C75.4269 69.2752 75.526 69.1776 75.6251 69.1776C75.7243 69.1776 75.7243 69.4706 75.6251 69.666C75.526 69.8614 75.4269 69.9591 75.3278 69.9591C75.2286 69.8614 75.2286 69.666 75.3278 69.4706ZM67.5961 68.5914C67.497 67.3215 67.5961 65.5631 67.6952 65.4654C67.8935 65.2701 67.9926 65.7585 68.5873 68.4937C68.6865 68.7868 68.5874 69.1776 68.4882 69.3729C68.1909 69.666 68.1909 69.666 67.9926 69.2752C67.7944 69.0799 67.6952 68.6891 67.5961 68.5914ZM32.308 67.4192C31.9116 67.4192 31.6142 66.3446 31.6142 64.8793C31.6142 63.6094 31.6142 63.5117 31.8124 64.0001C31.9116 64.2932 32.2089 64.8793 32.5063 65.0747C32.8037 65.3678 33.0019 65.6608 33.0019 65.8562C33.0019 66.0516 33.101 66.1493 33.2002 66.1493C33.4975 66.1493 33.7949 66.9308 33.894 68.103C34.0923 69.7637 33.894 69.8614 33.2002 68.5914C32.8037 67.9076 32.4072 67.4192 32.308 67.4192ZM81.2752 65.6608C81.2752 65.3678 81.3743 65.1724 81.4734 65.1724C81.5726 65.1724 81.6717 65.2701 81.6717 65.4654C81.6717 65.6608 81.7708 65.7585 81.8699 65.7585C81.9691 65.7585 82.0682 66.0516 82.0682 66.54L82.1673 67.3215L81.6717 66.7354C81.4734 66.3446 81.2752 65.8562 81.2752 65.6608ZM71.8584 65.5631C71.5611 64.4886 71.3628 63.0233 71.6602 63.414C71.7593 63.5117 72.0567 63.7071 72.3541 63.9024C72.8497 64.0978 72.9488 64.2932 72.9488 64.7816C73.2462 67.2238 72.6514 67.6146 71.8584 65.5631ZM17.1421 66.8331C17.1421 66.54 17.2412 66.54 17.4395 66.54C17.6377 66.6377 17.6377 66.7354 17.5386 66.9308C17.1421 67.3215 17.1421 67.3215 17.1421 66.8331ZM50.0512 65.0747C50.2495 64.6839 50.3486 64.3909 50.1503 64.1955C49.853 63.7071 50.0512 62.5348 50.4477 62.5348C50.5468 62.5348 50.5468 62.8279 50.5468 63.2186C50.4477 63.6094 50.5468 63.9024 50.646 63.9024C50.7451 63.8048 50.8442 64.0978 50.8442 64.4886C50.8442 64.977 50.7451 65.1724 50.4477 65.3678C49.7538 65.6608 49.6547 65.6608 50.0512 65.0747ZM18.1334 65.8562C18.1334 65.6608 18.2325 65.4654 18.3316 65.3678C18.4307 65.2701 18.5298 65.4654 18.5298 65.6608C18.5298 65.9539 18.4307 66.1493 18.3316 66.1493C18.2325 66.2469 18.1334 66.0516 18.1334 65.8562ZM46.4827 65.0747C46.4827 64.8793 46.4828 64.7816 46.5819 64.7816C46.681 64.7816 46.681 64.8793 46.7801 65.0747C46.8792 65.2701 46.8793 65.3678 46.681 65.3678C46.5819 65.4654 46.4827 65.2701 46.4827 65.0747ZM16.9439 65.2701C16.7456 64.3909 17.043 64.1955 17.6377 64.7816C18.1334 65.2701 18.1334 65.2701 17.7369 65.5631C17.2412 65.8562 17.1421 65.8562 16.9439 65.2701ZM80.9778 62.7302C81.1761 62.6325 80.8787 62.0464 80.3831 61.4603C80.1848 61.2649 80.0857 60.9718 80.284 60.4834C80.3831 59.995 80.3831 59.7996 80.1848 59.7996C80.0857 59.7996 79.8875 59.7019 79.8875 59.6042C79.8875 59.5065 80.0857 59.4088 80.3831 59.4088C80.8787 59.4088 81.1761 59.8973 81.2752 61.1672C81.3743 61.4603 81.3743 62.0464 81.4734 62.3395C81.5726 62.6325 81.5726 63.0233 81.4734 63.2186C81.3743 63.5117 81.3743 63.5117 80.9778 63.1209C80.8787 62.9256 80.8787 62.7302 80.9778 62.7302ZM18.3316 64.4886C18.3316 64.3909 18.4307 64.2932 18.5298 64.2932C18.629 64.2932 18.7281 64.3909 18.7281 64.4886C18.7281 64.5863 18.629 64.6839 18.5298 64.6839C18.4307 64.6839 18.3316 64.6839 18.3316 64.4886ZM77.5085 62.2418C77.4094 61.7533 77.2111 61.3626 77.112 61.1672C77.0129 61.0695 76.9137 60.6788 76.8146 60.1903C76.7155 59.5065 76.7155 59.4088 76.9138 59.5065C77.112 59.6042 77.3102 59.6042 77.3102 59.4088C77.4094 59.1158 77.0129 57.2597 76.7155 56.9667C76.6164 56.869 76.6164 56.6736 76.7155 56.5759C76.8146 56.4782 76.9137 56.3805 76.8146 56.2828C76.7155 56.1851 76.8146 56.0875 76.9138 56.0875C77.0129 56.0875 77.112 55.7944 77.112 55.599C77.112 55.4037 77.112 55.1106 77.2111 55.1106C77.5085 55.1106 78.0041 55.4037 78.0041 55.599C78.0041 55.6967 78.1032 56.0875 78.3015 56.4782C78.4997 56.7713 78.5988 57.3574 78.4997 57.7481C78.4006 58.1389 78.4997 58.432 78.5989 58.5296C78.698 58.6273 78.7971 58.8227 78.698 59.0181C78.5988 59.2135 78.4006 60.288 78.4006 61.2649C78.3015 62.9256 78.3015 63.1209 77.905 63.1209C77.905 63.1209 77.7067 62.7302 77.5085 62.2418ZM18.4307 63.6094C18.8272 63.3163 18.8272 63.3163 18.4307 63.2186C18.2325 63.121 18.1334 62.9256 18.1334 62.8279C18.2325 62.7302 18.0342 62.4371 17.9351 62.3395C17.6377 62.1441 17.6377 62.2418 17.7369 62.4371C17.836 62.6325 17.836 62.9256 18.0342 63.1209C18.1333 63.414 18.1334 63.5117 17.7369 63.5117C17.4395 63.5117 17.3404 63.414 17.3404 62.7302C17.3404 62.2418 17.2412 61.6556 17.2412 61.3626C17.2412 61.0695 17.1421 60.7765 17.3404 60.7765C17.6377 60.7765 18.629 61.7533 18.629 62.0464C18.629 62.1441 18.8272 62.5348 19.0255 62.7302C19.2237 62.9256 19.422 63.2186 19.3228 63.414C19.0255 64.2932 19.0255 64.2932 18.629 64.0978C18.0342 63.9024 18.0342 63.9024 18.4307 63.6094ZM30.6229 62.1441C30.9203 61.851 31.3168 62.1441 31.1186 62.5348C31.0194 62.8279 30.9203 62.8279 30.7221 62.6325C30.6229 62.4371 30.5238 62.2418 30.6229 62.1441ZM50.0512 61.4603C50.0512 61.2649 50.1503 60.9718 50.3486 60.9718C50.5468 60.8741 50.646 60.9718 50.646 61.2649C50.646 61.558 50.5468 61.7533 50.5468 61.851C50.3486 62.1441 50.0512 61.851 50.0512 61.4603ZM45.888 61.0695C45.9871 60.9718 45.9871 60.9718 45.9871 61.1672C45.9871 61.3626 45.888 61.4603 45.888 61.4603C45.888 61.4603 45.7889 61.1672 45.888 61.0695ZM65.7128 59.1158C65.6136 57.9435 65.8119 57.4551 66.0101 58.3343C66.1093 58.6273 66.2084 58.8227 66.3075 58.8227C66.6049 58.8227 66.5058 59.8973 66.2084 60.288C66.0101 60.6788 65.8119 60.288 65.7128 59.1158ZM38.1564 58.1389C38.0572 57.0643 37.859 56.2828 37.6607 56.0875C37.3634 55.7944 37.3634 55.6967 37.6607 55.6967C37.859 55.6967 37.9581 55.5013 37.9581 55.2083C37.9581 54.9152 38.0572 54.7198 38.1564 54.7198C38.2555 54.7198 38.3546 54.6222 38.3546 54.4268C38.3546 54.2314 38.5528 54.036 38.7511 53.9383C39.1476 53.8407 39.1476 53.8407 38.8502 53.3522C38.652 53.0592 38.5528 52.8638 38.7511 52.7661C38.8502 52.6684 38.9493 52.7661 38.9493 52.9615C38.9493 53.1568 39.0485 53.2545 39.1476 53.2545C39.445 53.2545 39.2467 58.3343 38.7511 59.995C38.652 60.5811 38.3546 59.7996 38.1564 58.1389ZM50.3486 58.5296C50.4477 58.0412 50.4477 58.0412 51.1416 58.2366C51.5381 58.3343 51.5381 58.432 51.2407 58.5296C51.0424 58.6273 50.9433 58.9204 50.9433 59.2135C50.9433 59.7019 50.9433 59.7019 50.646 59.3111C50.3486 59.1158 50.2495 58.725 50.3486 58.5296ZM88.6103 56.869C88.4121 56.3805 88.313 55.8921 88.5112 55.8921C88.8086 55.8921 88.5112 55.306 88.0156 54.6222C87.8174 54.3291 87.6191 53.9384 87.6191 53.743C87.6191 53.5476 87.4209 53.0592 87.2226 52.6684C87.0244 52.2777 86.9252 51.8869 86.9252 51.7892C87.1235 51.6915 88.0156 52.6684 88.4121 53.3522C88.5112 53.6453 88.9077 53.9384 89.106 54.036C89.6016 54.1337 90.1963 55.1106 90.1963 55.7944C90.1963 56.0875 90.0972 56.1852 89.899 56.0875C89.7007 55.9898 89.6016 56.0875 89.6016 56.3805C89.6016 56.5759 89.5025 56.7713 89.3042 56.869C89.106 56.9667 89.0068 57.0643 89.2051 57.3574C89.3042 57.5528 89.4033 57.8458 89.4033 58.0412C89.3042 58.432 88.9077 57.9435 88.6103 56.869ZM62.0452 57.7481C61.7478 56.869 62.1443 55.8921 62.9373 55.6967C63.2347 55.599 63.6312 55.599 63.8294 55.5013C64.4241 55.4037 64.5233 55.7944 63.9285 56.1852C63.4329 56.5759 62.9373 57.4551 62.6399 58.432C62.5408 58.8227 62.3426 58.6273 62.0452 57.7481ZM41.6257 57.9435C41.7248 57.6505 42.1213 57.4551 42.1213 57.6505C42.1213 57.9435 41.8239 58.3343 41.7248 58.3343C41.6257 58.3343 41.6257 58.1389 41.6257 57.9435ZM13.3754 58.725C13.2763 58.8227 13.078 58.6273 13.078 58.432C12.9789 58.1389 13.078 57.9435 13.5737 57.4551C14.2675 56.9667 14.3666 56.5759 13.9702 56.5759C13.871 56.5759 13.6728 56.7713 13.6728 56.9667C13.4745 57.5528 12.7807 57.2597 12.8798 56.6736C12.9789 56.3805 13.078 56.1852 13.1772 56.0875C13.3754 55.9898 14.4658 53.6453 14.4658 53.1568C14.4658 52.9615 14.5649 52.6684 14.664 52.473C15.1596 51.3985 15.2588 50.91 15.1596 50.5193C15.0605 50.2262 15.2588 50.0309 15.5561 49.8355C15.8535 49.6401 16.1509 49.1517 16.25 48.7609C16.3491 48.3702 16.5474 48.0771 16.7456 48.0771C17.043 48.0771 17.3404 48.7609 17.2412 49.2494C17.1421 49.4447 17.1421 49.9332 17.043 50.4216C16.9439 50.91 16.8447 51.4962 16.7456 51.6915C16.25 52.2777 15.6553 53.9383 15.5561 55.1106C15.457 56.0875 15.457 56.3805 15.8535 56.5759C16.0518 56.7713 16.1509 56.9666 16.0517 57.0643C15.9526 57.162 15.8535 57.162 15.8535 56.9667C15.7544 56.6736 14.7631 56.869 14.7631 57.2597C14.7631 57.6505 13.871 59.3111 13.7719 59.1158C13.5737 58.725 13.4745 58.6273 13.3754 58.725ZM73.4444 56.9667C73.4444 56.869 73.5435 56.869 73.6427 56.7713C73.7418 56.6736 73.8409 56.6736 73.8409 56.869C73.8409 56.9667 73.7418 57.0643 73.6427 57.0643C73.6427 56.9666 73.4444 56.9667 73.4444 56.9667ZM42.0222 56.5759C42.1213 56.2828 42.2204 55.9898 42.3196 55.9898C42.6169 55.9898 42.6169 56.0875 42.2204 56.6736C42.0222 57.3574 41.8239 57.2597 42.0222 56.5759ZM74.2374 55.7944C74.0391 55.1106 74.2374 54.9152 74.5348 55.599C74.8321 56.2828 74.8321 56.2828 74.6339 56.2828C74.4357 56.3805 74.2374 56.1851 74.2374 55.7944ZM67.6952 51.8869C67.6952 51.5938 67.9926 51.2031 68.0917 51.2031C68.3891 51.3985 68.3891 51.8869 67.9926 51.8869C67.8935 51.9846 67.6952 51.8869 67.6952 51.8869ZM8.51834 52.8638C8.51834 52.7661 8.61747 52.6684 8.61747 52.6684C8.71659 52.6684 8.7166 52.7661 8.81572 52.8638C8.91484 52.9615 8.91484 53.0592 8.7166 53.0592C8.7166 53.1569 8.51834 53.0592 8.51834 52.8638ZM22.5939 52.2777C22.4948 51.9846 22.7922 51.2031 23.1887 50.91C23.2878 50.8123 23.486 50.617 23.486 50.4216C23.486 50.3239 23.5852 50.1285 23.6843 49.9332C23.9817 49.7378 23.7834 51.0077 23.3869 51.7892C23.0895 52.473 22.7922 52.5707 22.5939 52.2777ZM8.41922 52.3753C8.3201 52.473 8.12185 52.3753 7.9236 52.18C7.72536 51.9846 7.72536 51.8869 7.9236 51.6915C8.02273 51.5939 8.22098 51.5939 8.3201 51.7892C8.41922 51.9846 8.51834 51.9846 8.61747 51.7892C8.71659 51.6915 8.71659 51.4962 8.51834 51.4962C8.41922 51.3985 8.22098 51.3008 8.22098 51.1054C8.22098 50.8124 8.12185 50.8124 8.02273 51.0077C7.9236 51.3008 7.72536 51.3008 7.32886 51.1054C7.03149 51.0077 6.93236 50.8124 7.03149 50.8124C7.22974 50.8124 7.22974 50.7147 7.03149 50.2262C6.83324 49.7378 6.83324 49.5424 7.13061 49.1517C7.42798 48.7609 7.42799 48.6632 7.22974 48.6632C6.83325 48.6632 7.72535 47.9794 8.02273 47.9794C8.41922 47.9794 9.90608 46.7095 9.80696 46.5141C9.70783 46.4164 9.90608 46.3187 10.1043 46.3187C10.3026 46.3187 10.6991 46.0257 10.9964 45.8303C11.7894 45.0488 11.8886 45.4396 11.0956 47.1002C10.3026 48.7609 9.41046 51.3008 9.41046 51.9846C9.41046 52.5707 9.01397 52.9615 8.7166 52.6684C8.7166 52.3753 8.51835 52.2777 8.41922 52.3753ZM86.0331 50.3239C86.0331 49.9332 86.0331 49.9332 86.3305 50.2262C86.5288 50.4216 86.6279 50.617 86.5288 50.7147C86.3305 51.1054 86.0331 50.8124 86.0331 50.3239ZM67.6952 50.4216C67.6952 50.1285 67.9926 50.2262 68.0917 50.5193C68.1909 50.617 68.0917 50.7147 67.9926 50.7147C67.7944 50.617 67.6952 50.5193 67.6952 50.4216ZM23.1887 49.054C23.0895 48.9563 23.0895 48.8586 23.1887 48.8586C23.2878 48.8586 23.486 48.7609 23.6843 48.7609C23.9817 48.6632 23.9817 48.6632 23.8825 48.9563C23.5852 49.347 23.3869 49.347 23.1887 49.054ZM17.9351 48.4679C17.836 48.0771 17.6377 47.784 17.6377 47.784C17.4395 47.784 17.5386 46.3187 17.836 46.0257C17.9351 45.928 17.9351 45.6349 17.9351 45.4396C17.836 45.1465 17.836 45.1465 18.5298 45.3419C18.9263 45.4396 19.422 45.4396 19.5211 45.4396C20.0167 45.1465 20.0167 45.928 19.422 47.1002C19.1246 47.7841 18.9263 48.4679 18.9263 48.6632C18.9263 48.9563 18.7281 49.1517 18.3316 49.2494C18.1334 49.1517 17.9351 48.8586 17.9351 48.4679ZM23.9817 47.8817C24.0808 47.5887 24.1799 47.2956 24.279 47.1979C24.3781 47.1002 24.4773 46.9049 24.4773 46.7095C24.4773 46.4164 24.5764 46.3187 24.6755 46.4164C24.7746 46.5141 24.8738 46.5141 24.8738 46.3187C24.8738 46.0257 25.865 45.0488 26.0633 45.0488C26.5589 45.0488 26.4597 45.4396 25.9641 45.928C25.6668 46.2211 25.4685 46.4164 25.4685 46.6118C25.4685 46.8072 24.1799 48.4679 23.9817 48.4679C23.9817 48.4679 23.9817 48.2725 23.9817 47.8817ZM23.5852 47.2956C23.5852 47.0025 23.9817 46.5141 24.0808 46.6118C24.279 46.7095 23.9817 47.3933 23.7834 47.3933C23.6843 47.3933 23.5852 47.3933 23.5852 47.2956ZM15.6553 47.1002C15.6553 47.0026 15.7544 46.9049 15.7544 46.9049C15.8535 46.9049 15.8535 47.0026 15.9526 47.1002C16.0518 47.1979 16.0518 47.2956 15.8535 47.2956C15.7544 47.2956 15.6553 47.2956 15.6553 47.1002Z" fill="#CB283A"/>
<path d="M84.0849 69.7274C84.0849 69.3807 83.9855 69.1495 83.8862 69.1495C83.5881 69.1495 83.5881 69.3807 83.8862 69.8429C83.9855 70.3052 84.0849 70.1896 84.0849 69.7274Z" fill="#CB283A"/>
<path d="M99.4067 45.2861C100.003 45.1886 100.698 44.9935 101.096 45.0911C101.791 45.1886 101.791 45.1886 101.593 44.6034C101.493 44.3108 101.493 43.9207 101.692 43.8232C101.791 43.7257 101.891 43.8232 101.791 43.9207C101.493 44.6034 102.09 44.4084 102.487 43.6281C102.686 43.238 102.984 42.8479 103.183 42.8479C103.679 42.8479 103.481 40.8974 102.984 40.6048C102.686 40.4097 102.686 40.2146 102.686 39.727C102.984 38.5567 102.785 37.6789 101.99 36.5086C101.593 35.8259 101.096 35.1432 100.897 34.9481C100.798 34.7531 100.5 34.0704 100.301 33.3877C100.202 32.705 99.9035 32.1198 99.8042 32.1198C99.7048 32.1198 99.6055 31.9247 99.6055 31.6321C99.6055 31.3396 99.4067 30.9494 99.208 30.8519C99.0093 30.7544 98.7112 30.3643 98.7112 30.1692C98.6118 29.8766 98.4131 29.6816 98.115 29.6816C97.8169 29.6816 97.6182 29.4865 97.6182 29.1939C97.6182 28.9013 97.5188 28.8038 97.3201 28.8038C97.1214 28.8038 96.9226 28.7063 96.8233 28.6088C96.7239 28.5112 96.5252 28.4137 96.4258 28.3162C96.3264 28.3162 96.1277 28.3162 95.929 28.2187C95.8296 28.2187 95.7303 27.9261 95.7303 27.5359C95.7303 27.2434 95.6309 26.9508 95.5315 26.9508C95.4322 26.9508 94.5379 27.731 93.6436 28.7063C91.4576 30.9494 89.9672 32.2173 89.7684 32.2173C89.6691 32.2173 89.371 32.3148 89.1722 32.5099C88.8741 32.8025 88.6754 32.8025 88.576 32.6074C88.4767 32.5099 88.5761 32.2173 88.9735 31.7297C89.2716 31.4371 89.7684 30.7544 90.0665 30.2667C90.3646 29.7791 90.9608 28.9989 91.557 28.4137C92.0538 27.8285 92.5506 27.1458 92.65 26.7557C92.7493 26.4631 92.8487 26.1706 92.9481 26.1706C93.0474 26.1706 93.1468 26.073 93.1468 25.9755C93.1468 25.878 93.0474 25.7804 92.8487 25.7804C92.5506 25.7804 92.5506 25.6829 92.7493 25.3903C92.8487 25.0977 92.8487 25.0002 92.7493 25.0002C92.4513 25.0002 92.0538 23.9274 92.0538 22.9521C92.0538 22.4645 91.9544 22.0744 91.7557 22.0744C91.6563 22.0744 91.6563 21.9768 91.6563 21.7818C91.6563 21.5867 91.6563 21.2941 91.4576 21.0991C91.2589 20.8065 90.9608 20.8065 90.464 20.904C90.0665 21.0015 89.5697 21.1966 89.4703 21.3917C89.2716 21.4892 88.9735 21.6842 88.576 21.7818C88.0792 21.8793 88.0792 21.8793 88.4767 21.6842C88.7748 21.5867 88.9735 21.3917 88.9735 21.1966C89.1722 20.904 88.4767 20.0263 88.0792 20.0263C87.7811 20.0263 87.6818 18.4658 87.9799 18.3683C88.0792 18.2707 88.0792 18.1732 88.0792 18.0757C87.8805 17.7831 86.7875 17.7831 86.5888 18.0757C86.4894 18.1732 86.2907 18.2707 86.0919 18.2707C85.7939 18.2707 85.297 18.6609 84.8002 19.1485C84.0053 19.9287 84.0053 20.0263 84.0053 19.4411C84.0053 18.9534 83.9059 18.9534 83.7072 19.1485C83.4091 19.4411 83.4091 19.3436 83.4091 18.8559C83.4091 18.2707 83.9059 17.7831 84.0053 18.2707C84.1047 18.3683 84.204 18.4658 84.3034 18.3683C84.4028 18.2707 84.4028 18.0757 84.1047 17.8806C83.8066 17.588 83.8066 17.4905 84.1047 17.4905C84.4028 17.4905 84.4028 17.2955 84.4028 16.7103C84.4028 16.2226 84.3034 16.1251 84.3034 16.4177C84.204 16.7103 84.1047 16.9054 84.0053 16.9054C83.9059 16.9054 83.8066 16.6128 83.9059 15.9301C84.0053 15.2474 83.9059 14.8573 83.7072 14.5647C83.5085 14.3696 83.4091 13.882 83.4091 13.5894C83.4091 13.2968 83.3098 13.0042 83.2104 12.9067C83.111 12.8091 82.9123 12.5166 82.9123 12.224C82.8129 11.9314 82.7136 11.6388 82.6142 11.6388C82.3161 11.6388 81.3225 9.98083 81.4218 9.78577C81.5212 9.68824 81.4218 9.49318 81.2231 9.49318C81.0244 9.39565 80.925 9.2006 80.925 8.90801C80.925 8.61543 80.8257 8.42037 80.6269 8.42037C80.5276 8.42037 80.2295 8.22531 80.0308 8.03025C79.832 7.73767 79.5339 7.64015 79.3352 7.64015C79.1365 7.64015 79.0371 7.54262 79.0371 7.34756C79.0371 7.1525 78.8384 7.05497 78.6397 7.05497C78.4409 7.05497 78.1428 6.95744 78.1428 6.85992C78.0435 6.76239 77.8447 6.66486 77.4473 6.66486C77.1492 6.66486 76.9505 6.76239 76.8511 6.85992C76.553 7.34756 76.3543 6.95744 76.3543 5.98216C76.3543 5.39699 76.2549 4.81182 76.1556 4.71429C75.7581 4.51924 74.4664 5.20193 74.0689 5.98216C73.5721 6.66486 73.5721 6.76239 73.3734 6.37227C73.274 6.07969 73.0753 5.49452 73.0753 4.90935L72.9759 3.93406L72.0816 4.03159C71.3861 4.12912 71.1874 4.03159 70.7899 3.54395C70.3924 3.15383 70.0944 3.0563 69.6969 3.15383C69.2994 3.25136 69.1007 3.25136 69.1007 3.05631C69.1007 2.86125 68.902 2.86125 68.5045 2.95878C68.2064 3.05631 67.809 3.05631 67.809 2.86125C67.7096 2.47114 63.2382 2.76372 61.3503 3.15383C59.6611 3.64147 58.7669 3.64147 56.084 3.64147C53.9974 3.64147 53.2025 3.54395 52.9044 3.34889C52.7057 3.15384 52.4076 3.05631 52.1095 3.05631C51.6127 3.05631 49.7248 2.76372 50.0228 2.66619C50.1222 2.66619 49.7247 2.56867 49.1286 2.37361C48.433 2.27608 47.9362 2.17855 47.7375 2.27608C47.5387 2.37361 47.2406 2.3736 46.9426 2.17855C46.6445 1.98349 46.3464 1.88597 46.247 1.98349C46.1476 2.08102 45.7502 1.88596 45.5515 1.69091C45.3527 1.49585 45.0546 1.39832 44.9553 1.39832C44.8559 1.49585 44.7565 1.39833 44.7565 1.3008C44.7565 1.20327 44.6572 1.10573 44.3591 1.20326C44.061 1.30079 43.9616 1.30079 43.9616 1.00821C43.9616 0.813152 43.7629 0.618095 43.5642 0.520567C42.7693 0.227981 40.6826 -0.0646041 40.0864 0.0329244C39.7884 0.130453 39.0928 0.130451 38.6953 0.130451C38.2979 0.130451 37.8011 0.227984 37.8011 0.325513C37.7017 0.423041 37.503 0.423041 37.3043 0.325513C37.0062 0.130456 36.8074 0.130456 36.5093 0.325513C36.2112 0.423041 35.5157 0.618092 34.9195 0.715621C34.224 0.813149 33.4291 1.00821 33.0316 1.10574C32.1373 1.39832 29.3551 4.22665 29.057 5.1044C28.8583 5.7871 28.3615 5.78711 28.3615 5.20194C28.1628 4.32418 28.0634 4.22665 27.6659 4.61676C27.3679 4.90934 27.3679 5.29946 27.3679 6.85992C27.4672 9.10307 27.6659 9.8833 28.0634 9.98082C28.5602 10.0784 28.4609 10.4685 27.964 10.566C27.6659 10.6635 27.5666 10.7611 27.6659 11.0536C27.7653 11.2487 27.6659 11.3462 27.5666 11.3462C27.4672 11.3462 27.3679 11.2487 27.4672 11.2487C27.5666 11.1512 27.3679 10.9561 27.1691 10.9561C26.871 10.8586 26.6723 10.566 26.6723 10.2734C26.5729 9.78577 26.1755 8.22531 25.8774 7.05497C25.6787 6.37227 25.5793 6.27475 25.0825 6.27475C24.3869 6.27475 23.592 7.34756 23.3933 8.42037C23.2939 8.81048 23.2939 9.49318 23.0952 9.8833C22.9958 10.2734 22.9958 11.5413 23.0952 12.7116L23.1946 14.7597L22.6977 14.3696C22.3997 14.077 22.3003 13.882 22.3997 13.6869C22.499 13.5894 22.499 13.3943 22.499 13.2968C22.3997 13.1993 22.3003 12.6141 22.2009 12.0289C22.1016 10.8586 21.7041 10.1759 21.5054 10.6635C21.2073 11.5413 20.313 10.3709 20.2136 8.90801C20.1143 8.22531 20.1143 8.03026 19.7168 8.22532C19.4187 8.32284 19.22 8.42037 19.0213 8.42037C18.9219 8.5179 18.5245 8.71296 18.2264 9.10307C17.9283 9.39566 17.7295 9.59071 17.7295 9.49318C17.7295 9.00554 17.1334 10.7611 17.1334 11.3462C17.1334 11.9314 16.7359 12.419 16.7359 11.7363C16.7359 11.4438 16.2391 11.4438 15.8416 11.8339C15.7423 11.9314 15.5435 12.3215 15.5435 12.6141C15.5435 12.9067 15.2455 13.3943 15.0467 13.6869C14.6493 14.1746 14.5499 14.3696 14.7486 15.1498C14.848 15.6375 15.0467 16.3202 15.3448 16.6128C15.7423 17.1004 15.941 18.0757 15.6429 17.8806C15.5435 17.7831 15.3448 17.8806 15.3448 17.9782C15.2454 18.3683 14.2518 15.9301 14.1524 14.8572C13.8544 13.0042 12.1652 12.3215 11.4696 13.7844C11.1715 14.3696 11.1715 14.8573 11.3703 16.9054C11.6683 19.246 11.569 19.9287 11.0722 19.9287C10.6747 19.9287 8.38934 17.4905 8.78679 17.4905C8.88616 17.4905 8.7868 17.393 8.4887 17.2955C7.59443 17.0029 6.70015 17.8806 6.79951 18.9534C6.79951 19.6361 6.79952 19.6361 6.50143 19.246C6.20333 18.9534 6.20333 18.8559 6.00461 19.1485C5.80588 19.4411 5.80587 19.4411 5.90524 19.051C6.0046 18.5633 5.70651 18.3683 4.61351 18.3683C3.91796 18.3683 3.61986 18.5633 2.92432 19.246C2.1294 20.0263 2.03005 20.2213 2.12941 20.8065C2.22877 21.3917 2.12941 21.6842 1.53323 22.2694C0.539587 23.3422 0.34086 24.1225 0.539587 26.6582C0.638951 28.6088 0.837673 28.9989 1.43386 29.9742C1.53322 30.1692 1.73195 30.4618 1.73195 30.5593C2.03004 31.242 2.92432 31.8272 4.9116 32.6074C5.50778 32.9 6.20333 33.1926 6.60079 33.2901C6.89888 33.3877 7.49506 33.5827 7.89251 33.5827C8.28997 33.6802 9.08488 33.6802 9.78043 33.8753C11.4696 34.1679 12.8607 33.9728 14.4505 33.1926C15.2455 32.8025 16.3385 32.3148 16.9346 32.1198C17.5308 31.9247 18.0276 31.7297 18.0276 31.6321C18.0276 31.5346 17.7295 31.3396 17.3321 30.9494C16.9346 30.5593 16.8353 30.2667 16.9346 30.2667C17.034 30.1692 17.2327 30.1692 17.4315 30.3643C17.6302 30.4618 17.7296 30.4618 17.9283 30.2667C18.127 29.9742 18.2264 29.9742 18.4251 30.1692C18.5245 30.2667 18.5245 30.3643 18.5245 30.2667C18.3257 30.1692 17.8289 30.5593 17.8289 30.8519C17.8289 30.9494 18.127 30.9494 18.4251 30.9494C18.8226 30.8519 19.1206 30.8519 19.3194 31.047C19.4187 31.242 19.7168 31.3396 19.8162 31.3396C19.9156 31.3396 20.1143 31.4371 20.2136 31.6321C20.313 31.8272 20.5117 31.9247 20.7105 31.9247C20.9092 31.9247 21.2073 32.0223 21.2073 32.1198C21.2073 32.4124 23.0952 33.2901 23.592 33.2901C23.6914 33.2901 23.9895 33.3877 24.0888 33.5827C24.1882 33.7778 24.7844 33.8753 25.3806 33.8753C25.8774 33.8753 26.6723 33.9728 27.0698 34.2654C27.7653 34.558 27.7653 34.558 28.8583 34.0704C29.5539 33.7778 30.0507 33.4852 30.0507 33.3877C30.0507 33.0951 29.5539 32.3148 28.8583 31.6321C28.1628 30.8519 27.7653 29.9742 27.964 29.6816C28.0634 29.584 28.2621 29.6816 28.3615 29.8766C28.4609 30.0717 28.9577 30.3643 29.4545 30.5593C30.15 30.8519 30.3488 30.8519 30.5475 30.6569C30.945 30.3643 30.945 30.1692 30.4481 29.6816C30.2494 29.4865 30.0507 28.9989 30.0507 28.7063C30.0507 28.4137 30.15 28.2187 30.15 28.2187C30.2494 28.2187 31.8392 29.8766 32.1373 30.2667C32.3361 30.5593 32.8329 31.047 33.4291 31.3396C34.3233 31.8272 34.5221 31.8272 35.0189 31.6321C35.317 31.5346 35.6151 31.3396 35.7144 31.4371C36.0125 31.5346 36.2112 31.3396 36.2112 31.1445C36.2112 30.8519 35.5157 30.1692 35.317 30.2667C35.2176 30.3643 35.2176 30.1692 35.2176 29.9742C35.2176 29.6816 34.9195 28.6088 34.4227 27.5359C34.0252 26.4631 33.7272 25.4879 33.8265 25.4879C33.9259 25.4879 34.0252 25.5854 34.0252 25.6829C34.0252 26.073 34.7208 26.5607 35.9132 27.1458C37.0062 27.6335 37.7017 28.6088 37.8011 29.584C37.8011 30.0717 38.2979 31.047 38.4966 31.047C38.8941 31.047 39.9871 32.3148 39.8877 32.5099C39.7884 32.705 39.9871 32.9975 40.6826 33.1926C42.1731 33.7778 44.2597 34.2654 44.7565 34.0704C45.3527 33.7778 45.6508 33.7778 47.9362 33.5827C49.1286 33.4852 50.2216 33.2901 50.4203 33.1926C50.619 32.9975 51.1158 32.9975 52.1095 33.0951C52.9044 33.1926 53.5999 33.1926 53.6993 33.1926C53.7987 33.0951 53.9974 33.0951 54.1961 33.2901C54.6929 33.6802 57.8726 33.6802 57.5745 33.2901C57.4751 33.0951 59.065 33.1926 59.4624 33.3877C59.7605 33.5827 61.9465 33.8753 62.5427 33.8753C62.8408 33.7778 62.8408 33.9728 62.8408 34.2654C62.7414 34.6555 62.8408 34.6555 63.2382 34.558C63.6357 34.4605 63.7351 34.4605 63.9338 34.7531C64.0332 35.1432 65.3249 35.6308 66.6166 35.9234C66.9147 36.0209 67.9083 36.216 68.7033 36.3135C69.5975 36.5086 70.5912 36.6061 71.088 36.6061C71.4855 36.6061 71.8829 36.7036 71.8829 36.7036C71.8829 36.7036 72.181 36.8011 72.3797 36.8011C72.6778 36.8011 73.274 36.9962 73.8702 37.1913C74.7645 37.4839 75.8575 37.6789 77.3479 37.6789C77.4473 37.6789 77.5467 37.7764 77.4473 37.9715C77.3479 38.2641 78.739 39.727 79.1365 39.727C79.2358 39.727 79.6333 39.9221 80.0308 40.2146C80.7263 40.7023 81.1237 40.7998 84.1047 41.5801C85.9926 42.0677 89.6691 42.2628 91.0601 42.0677C92.65 41.7751 92.5506 41.6776 93.0474 42.7504C93.4449 43.6281 93.9417 44.0183 93.9417 43.4331C93.9417 43.3356 94.0411 43.238 94.2398 43.3356C94.3392 43.4331 94.5379 43.5306 94.4385 43.6281C94.3392 43.9207 95.4322 44.701 96.0283 44.701C96.3264 44.701 96.7239 44.7985 97.022 44.896C97.2207 45.4812 98.3137 45.5787 99.4067 45.2861ZM100.003 40.4097C100.102 39.9221 100.5 39.8245 100.599 40.3122C100.599 40.7023 100.5 40.8973 100.202 40.8973C99.9036 40.7998 99.8042 40.7023 100.003 40.4097ZM84.4028 37.5814C84.3034 37.4839 84.3034 37.2888 84.5021 37.1913C84.8002 36.9962 85.4958 37.2888 85.5951 37.5814C85.5951 37.874 84.6015 37.874 84.4028 37.5814ZM75.2613 36.9962C74.9632 36.6061 75.0626 36.6061 75.46 36.6061C75.9568 36.6061 76.3543 36.1185 76.0562 35.7283C75.9568 35.6308 76.0562 35.5333 76.1556 35.6308C76.4536 35.7283 76.6524 35.3382 76.8511 34.7531C76.9505 34.558 77.1492 34.3629 77.3479 34.3629C77.646 34.3629 77.646 34.4605 77.5467 34.7531C77.4473 34.9481 77.3479 35.3382 77.3479 35.6308C77.2486 35.9234 77.1492 36.1185 77.0498 36.1185C76.9505 36.0209 76.7517 36.3135 76.553 36.6061C76.3543 36.8987 76.1556 37.1913 76.0562 37.0937C75.9568 36.9962 75.8575 37.0937 75.8575 37.1913C75.8575 37.4839 75.5594 37.3863 75.2613 36.9962ZM84.6015 36.1185C84.7009 36.0209 84.8996 35.9234 85.0983 35.9234C85.3964 35.9234 85.3964 36.0209 84.999 36.1185C84.5021 36.411 84.5021 36.411 84.6015 36.1185ZM70.9886 35.7283C70.8893 35.2407 70.9886 35.0456 71.2867 35.0456C71.4855 35.0456 71.5848 35.1432 71.5848 35.3382C71.5848 35.5333 71.6842 35.8259 71.6842 36.0209C71.7835 36.411 71.7835 36.5086 71.3861 36.411C71.2867 36.3135 71.088 36.1185 70.9886 35.7283ZM74.0689 35.4358C73.7708 35.1432 73.6715 35.1432 73.9695 34.6555C74.0689 34.3629 74.1683 34.0704 74.0689 33.9728C73.9696 33.7778 74.4664 33.0951 75.9568 31.9247C76.7517 31.242 77.4473 30.2667 77.5467 29.6816C77.5467 29.584 77.646 29.4865 77.646 29.389C77.646 29.2915 77.7454 29.1939 77.646 29.0964C77.646 28.9989 77.7454 28.9989 77.8448 28.9989C77.9441 28.9989 78.0435 28.7063 78.0435 28.5112C78.0435 28.2186 78.1428 27.9261 78.3416 27.8285C78.8384 27.6335 79.2358 27.1458 79.1365 26.9508C79.0371 26.8532 79.2358 26.6582 79.6333 26.6582C80.0307 26.6582 80.3289 26.3656 80.3289 26.073C80.4282 25.7804 80.6269 25.4879 80.8257 25.2928C81.0244 25.0977 81.3225 24.8052 81.4218 24.5126C81.6206 24.22 81.7199 24.22 81.8193 24.415C82.018 24.9027 80.7263 27.0483 80.3289 27.1458C80.0308 27.1458 76.2549 32.6074 76.1556 33.2901C76.1556 33.3877 76.0562 33.7778 75.8575 34.1679C75.7581 34.4605 75.6587 35.0456 75.6587 35.3382C75.6587 35.8259 75.5594 35.9234 75.0626 35.9234C74.6651 35.7283 74.2676 35.6308 74.0689 35.4358ZM94.4385 33.3877C94.9353 32.9975 95.2334 32.5099 95.1341 32.4124C95.0347 32.3148 95.2334 32.1198 95.3328 32.1198C95.6309 32.1198 96.1277 32.705 96.2271 33.1926C96.2271 33.5827 96.1277 33.6802 94.836 33.8753C94.4385 33.9728 94.1404 34.1679 94.0411 34.3629C93.9417 34.6555 93.9417 34.6555 93.8423 34.4605C93.743 34.1679 94.0411 33.7778 94.4385 33.3877ZM70.4918 34.2654C70.4918 33.9728 70.2931 33.6802 70.0944 33.5827C69.7963 33.3877 69.7963 33.2901 70.1937 32.8025C70.8893 31.7297 71.088 31.9247 71.088 33.3877C71.088 34.2654 70.9886 34.6555 70.7899 34.6555C70.6905 34.7531 70.4918 34.558 70.4918 34.2654ZM91.7557 34.0704C91.7557 33.9728 91.8551 33.9728 91.9544 33.7778C92.0538 33.6802 92.1532 33.7778 92.1532 33.8753C92.1532 33.9728 92.0538 34.1679 91.9544 34.1679C91.9544 34.1679 91.7557 34.1679 91.7557 34.0704ZM85.7939 34.0704C85.6945 33.9728 85.7939 33.8753 85.9926 33.8753C86.1913 33.8753 86.2907 33.9728 86.2907 34.0704C86.2907 34.1679 86.1913 34.2654 86.0919 34.2654C86.0919 34.2654 85.8932 34.1679 85.7939 34.0704ZM93.2462 33.5827C93.4449 33.2901 93.6436 33.1926 93.743 33.0951C93.8423 33.0951 93.743 33.2901 93.5442 33.4852C93.3455 33.7778 93.1468 33.8753 93.0474 33.9728C92.9481 33.9728 93.0474 33.7778 93.2462 33.5827ZM86.1913 33.4852C86.1913 33.3877 86.2907 33.1926 86.39 33.1926C86.4894 33.0951 86.5888 33.1926 86.5888 33.3877C86.5888 33.5827 86.4894 33.6802 86.39 33.6802C86.1913 33.6802 86.1913 33.5827 86.1913 33.4852ZM86.9862 32.1198C86.9862 32.0223 87.0856 32.0223 87.185 31.8272C87.2843 31.7297 87.3837 31.8272 87.3837 31.9247C87.3837 32.0223 87.2843 32.2173 87.185 32.2173C86.9862 32.2173 86.9862 32.2173 86.9862 32.1198ZM56.3821 32.2173C56.4815 32.0223 57.0777 31.9247 57.0777 32.1198C57.0777 32.2173 56.9783 32.4124 56.7796 32.5099C56.5809 32.8025 56.1834 32.6074 56.3821 32.2173ZM63.9338 31.9247C63.9338 31.8272 64.0332 31.8272 64.1325 31.7297C64.2319 31.6321 64.3312 31.6321 64.3312 31.8272C64.3312 31.9247 64.2319 32.0223 64.1325 32.0223C64.0332 32.0223 63.9338 31.9247 63.9338 31.9247ZM76.6524 29.7791C76.7517 29.6816 76.9505 29.6816 77.0498 29.7791C77.1492 29.8766 77.1492 29.8766 76.9505 29.8766C76.6524 29.8766 76.553 29.8766 76.6524 29.7791ZM47.7375 28.2187C47.7375 28.0236 47.6381 27.8285 47.4394 27.8285C47.34 27.8285 47.1413 27.731 47.0419 27.5359C46.8432 27.0483 46.8432 26.4631 47.1413 26.4631C47.2406 26.4631 47.34 26.3656 47.34 26.1706C47.34 25.6829 47.6381 25.7804 48.433 26.4631C48.8305 26.7557 49.0292 27.0483 48.9298 27.0483C48.8305 27.0483 48.9298 27.2434 49.0292 27.4384C49.1286 27.731 49.3273 27.8285 49.526 27.731C49.6254 27.6335 49.7247 27.8285 49.7247 28.1211C49.7247 28.4137 49.8241 28.6088 50.2216 28.8038C50.7184 28.9013 50.7184 28.9014 50.0228 29.584L49.3273 30.2667L48.6317 29.4865C48.1349 28.9013 47.8368 28.4137 47.7375 28.2187ZM62.7414 29.1939C62.8408 29.0964 62.9401 28.9013 63.0395 28.9989C63.1389 29.0964 63.1389 29.1939 62.9402 29.2915C62.6421 29.584 62.6421 29.584 62.7414 29.1939ZM16.8353 29.7791C16.9346 29.6816 16.7359 29.389 16.4378 29.0964C16.1397 28.8038 15.941 28.4137 15.941 28.2187C15.941 28.1211 15.8416 27.9261 15.6429 27.9261C15.4442 27.8285 15.3448 27.6335 15.3448 27.2434C15.3448 26.9508 15.2455 26.7557 15.0467 26.7557C14.848 26.7557 14.6493 26.4631 14.4505 26.1706C13.9537 25.3903 13.4569 25.3903 13.3575 26.073C13.2582 26.7557 12.7613 26.7557 12.2645 25.9755C11.9664 25.4879 11.8671 25.2928 12.0658 25.0977C12.2645 24.9027 12.1652 24.7076 11.9664 24.22C11.4696 23.5373 11.6683 23.4398 12.662 23.9274C13.0594 24.1225 13.6556 24.415 13.9537 24.5126C14.9474 24.9027 15.1461 25.0977 15.2454 25.6829C15.3448 25.9755 15.5435 26.4631 15.7423 26.6582C15.941 26.8533 16.5372 27.3409 17.1334 27.8285C17.7296 28.3162 18.2264 28.9014 18.4251 29.0964C18.7232 29.4865 18.7232 29.4865 18.2264 29.389C17.9283 29.2915 17.7295 29.389 17.6302 29.4865C17.5308 29.584 17.3321 29.6816 17.3321 29.6816C16.8353 29.9742 16.8353 29.8766 16.8353 29.7791ZM26.9704 29.0964C26.5729 28.0236 26.4736 27.536 26.6723 27.6335C26.9704 27.731 27.5666 29.0964 27.5666 29.389C27.5666 29.7791 27.2685 29.584 26.9704 29.0964ZM56.4815 27.6335C56.4815 27.536 56.5809 27.4384 56.6802 27.4384C56.7796 27.4384 56.8789 27.536 56.8789 27.6335C56.8789 27.731 56.7796 27.8285 56.6802 27.8285C56.5809 27.8285 56.4815 27.731 56.4815 27.6335ZM39.0928 24.7076C38.9934 24.22 38.7947 23.4398 38.596 22.9521C38.4966 22.4645 38.2979 21.7818 38.2979 21.4892C38.1985 21.0991 38.1985 21.0015 38.4966 21.1966C38.6953 21.2941 38.8941 21.8793 39.0928 22.4645C39.1922 22.9521 39.3909 23.5373 39.5896 23.7323C39.689 23.9274 39.689 24.22 39.689 24.5126C39.689 24.8052 39.7883 25.0002 39.9871 25.0977C40.1858 25.1953 40.2852 25.2928 40.1858 25.3903C40.0864 25.4879 40.1858 25.7804 40.3845 26.073C40.5833 26.3656 40.6826 26.9508 40.5833 27.3409C40.4839 28.0236 40.4839 28.0236 39.8877 26.8533C39.4903 26.073 39.1922 25.1953 39.0928 24.7076ZM26.2748 27.0483C26.2748 26.8532 26.3742 26.7557 26.4736 26.7557C26.5729 26.7557 26.6723 26.8532 26.6723 27.0483C26.6723 27.2434 26.5729 27.3409 26.4736 27.3409C26.3742 27.3409 26.2748 27.2434 26.2748 27.0483ZM70.9886 24.415C71.8829 23.0496 71.8829 22.562 71.5848 22.2694C71.4855 22.1719 71.4855 21.9768 71.5848 21.7818C71.7835 21.4892 71.7835 21.4892 71.6842 21.8793C71.5848 22.3669 71.7835 22.3669 72.0816 21.6842C72.4791 21.0991 72.5785 19.9287 72.2804 19.9287C72.181 19.9287 72.181 19.8312 72.181 19.7337C72.2804 19.6361 72.2804 19.5386 72.0816 19.5386C71.9823 19.5386 71.7835 19.6361 71.7835 19.7337C71.5848 20.0263 71.2867 20.0263 71.2867 19.6361C71.2867 19.3436 72.6778 18.5633 72.9759 18.7584C73.3734 18.9534 73.1746 18.4658 72.6778 18.0757C72.3797 17.8806 72.2804 17.7831 72.2804 17.9782C72.2804 18.1732 72.181 18.2707 72.0816 18.2707C71.9823 18.2707 71.9823 17.9782 71.9823 17.588C71.9823 17.1979 72.0816 16.8078 72.0816 16.8078C71.9823 16.7103 72.181 16.7103 72.3797 16.5152C72.6778 16.4177 72.6778 16.4177 72.5785 16.8078C72.4791 17.1004 72.4791 17.393 72.6778 17.4905C72.7772 17.588 72.7772 17.7831 72.7772 17.8806C72.7772 17.9782 72.8766 18.1732 73.0753 18.1732C73.1746 18.2707 73.3734 18.1732 73.3734 18.0757C73.3734 17.9782 73.5721 17.4905 73.7708 17.0029C74.2676 16.1251 74.2676 15.735 73.9695 15.9301C73.8702 16.0276 73.8702 15.8325 73.9695 15.4424C74.0689 15.1498 74.2676 14.7597 74.4664 14.7597C74.6651 14.7597 74.7645 14.5647 74.9632 14.2721C75.1619 13.9795 75.2613 13.5894 75.46 13.4919C75.8575 12.9067 76.553 11.1512 76.3543 11.0536C76.2549 10.9561 76.4536 10.7611 76.6524 10.566C76.8511 10.2734 76.9505 10.0784 76.9505 9.8833C76.8511 9.49318 77.4473 9.29813 77.9441 9.59072C78.5403 9.8833 78.4409 10.2734 77.646 11.5413C77.1492 12.1265 76.7517 13.0042 76.553 13.3943C76.0562 14.4671 75.0626 18.0757 75.2613 18.6609C75.3606 18.9534 75.2613 19.3436 75.1619 19.5386C75.0625 19.6361 74.8638 20.2213 74.7645 20.709C74.6651 21.1966 74.367 21.7818 74.2676 21.9768C74.1683 22.1719 73.9695 22.4645 73.9695 22.6595C73.9695 23.0496 70.6905 26.4631 70.4918 26.1706C70.1937 25.7804 70.4918 25.0977 70.9886 24.415ZM55.7859 25.2928C55.7859 25.1953 55.8853 25.1953 55.9847 25.3903C56.084 25.5854 56.1834 25.878 56.1834 25.9755C56.1834 26.2681 55.7859 25.6829 55.7859 25.2928ZM16.5372 26.2681C15.941 25.7804 16.0404 25.5854 16.8353 25.2928L17.5308 25.0002V25.7804C17.6302 26.8533 17.2327 26.9508 16.5372 26.2681ZM58.6675 24.9027C58.7669 24.7076 58.7669 24.22 58.8662 24.0249C58.9656 23.7323 59.1643 23.4398 59.2637 23.4398C59.363 23.4398 59.5618 23.2447 59.5618 22.9521C59.6611 22.4645 59.6611 22.4645 60.9529 22.3669C61.251 22.3669 61.4497 22.1719 61.5491 21.8793C61.6484 21.5867 61.8472 21.1966 62.1452 21.0015C62.6421 20.709 62.6421 20.709 62.5427 21.1966C62.4433 21.4892 62.2446 21.7818 62.0459 21.8793C61.8471 21.9768 61.6484 22.1719 61.6484 22.3669C61.6484 22.6595 59.1643 25.1953 58.7669 25.1953C58.6675 25.2928 58.5681 25.0977 58.6675 24.9027ZM64.1325 24.7076C64.0332 24.6101 64.1325 24.5126 64.3312 24.5126C64.53 24.5126 64.6293 24.6101 64.6293 24.7076C64.6293 24.8052 64.53 24.9027 64.4306 24.9027C64.3313 25.0002 64.2319 24.9027 64.1325 24.7076ZM56.5809 24.7076C56.6802 24.5126 56.5809 24.5126 56.3821 24.6101C56.1834 24.7076 56.084 24.7076 56.084 24.5126C56.2828 24.22 56.7796 24.22 56.7796 24.6101C56.7796 24.8051 56.6802 24.9027 56.5809 24.9027C56.4815 24.9027 56.3821 24.8052 56.5809 24.7076ZM56.9783 23.0496C56.9783 22.7571 57.0777 22.6595 57.2764 22.6595C57.5745 22.6595 57.6739 22.6595 57.4751 23.1472C57.3758 23.5373 56.9783 23.5373 56.9783 23.0496ZM24.685 23.7323C24.685 23.6348 24.7844 23.5373 24.8838 23.5373C24.9831 23.5373 25.0825 23.6348 25.0825 23.8299C25.0825 24.0249 24.9831 24.1225 24.8838 24.0249C24.8838 23.9274 24.685 23.7323 24.685 23.7323ZM23.9895 21.5867C23.7908 20.904 23.3933 20.1238 23.1946 19.6361C22.9958 19.1485 22.6977 18.1732 22.499 17.4905C22.3997 16.8078 22.2009 16.1251 22.0022 16.0276C21.6047 15.9301 21.8035 15.54 22.3003 15.54C22.7971 15.54 22.7971 15.735 23.2939 17.588C23.592 18.6609 23.7907 19.7337 23.7907 19.9287C23.7907 20.1238 23.8901 20.3188 23.9895 20.3188C24.0888 20.4164 24.2876 20.8065 24.2876 21.1966C24.3869 21.6842 24.4863 21.9768 24.5857 21.9768C24.685 21.8793 24.685 22.0744 24.685 22.3669C24.5857 22.6595 24.5857 22.9521 24.5857 23.0496C24.685 23.5373 24.3869 22.8546 23.9895 21.5867ZM65.4243 21.8793C65.5236 21.5867 65.7223 21.2941 65.8217 21.0015C65.9211 20.709 66.0204 20.4164 66.0204 20.1238C66.0204 19.8312 66.1198 19.7337 66.3185 19.7337C66.8153 19.7337 66.8154 20.0263 66.4179 20.6114C66.2192 20.904 66.0204 21.2941 66.0204 21.4892C66.0204 21.7818 65.623 22.3669 65.3249 22.3669C65.2255 22.2694 65.3249 22.0744 65.4243 21.8793ZM57.3758 21.9768C57.3758 21.8793 57.4751 21.7818 57.5745 21.7818C57.6739 21.7818 57.7732 21.8793 57.7732 22.0744C57.7732 22.2694 57.6739 22.3669 57.5745 22.2694C57.4751 22.2694 57.3758 22.0744 57.3758 21.9768ZM81.8193 20.709C81.8193 20.6114 81.9187 20.5139 82.018 20.5139C82.1174 20.5139 82.2168 20.6114 82.2168 20.709C82.2168 20.8065 82.1174 20.904 82.018 20.904C81.9187 20.904 81.8193 20.8065 81.8193 20.709ZM71.088 20.3188C71.4855 20.0263 71.5848 20.2213 71.3861 20.6114C71.2867 20.904 71.1874 20.904 70.9886 20.709C70.8893 20.5139 70.8893 20.4164 71.088 20.3188ZM62.4433 19.9287C62.4433 19.7337 62.5427 19.6361 62.6421 19.7337C62.7414 19.8312 62.8408 19.9287 62.7414 20.0263C62.5427 20.3188 62.4433 20.3188 62.4433 19.9287ZM38.1985 20.0263C38.2979 19.9287 38.2979 19.9287 38.2979 20.3188C38.2979 20.6114 38.1985 20.709 38.1985 20.6114C38.1985 20.4164 38.1985 20.1238 38.1985 20.0263ZM27.6659 19.9287C27.7653 18.7584 27.7653 18.7584 27.964 19.051C28.1628 19.3436 28.2621 20.1238 28.2621 20.709C28.2621 21.1966 27.6659 20.5139 27.6659 19.9287ZM31.5411 20.2213C31.4418 20.2213 31.4418 20.3188 31.4418 20.4164C31.4418 20.5139 31.5411 20.6114 31.3424 20.6114C31.0443 20.6114 31.0443 20.3188 31.3424 20.1238C31.6405 19.9287 31.6405 19.3436 31.243 19.4411C31.0443 19.5386 30.945 19.4411 30.945 19.246C30.945 18.8559 31.0443 18.8559 31.6405 19.1485C31.9386 19.246 32.038 19.5386 32.038 20.0263C32.038 20.3188 31.9386 20.5139 31.9386 20.4164C31.8392 20.3188 31.7399 20.2213 31.5411 20.2213ZM15.4442 20.1238C15.5435 20.0263 15.941 20.3188 15.8416 20.5139C15.7423 20.6114 15.6429 20.6114 15.5435 20.4164C15.4442 20.3188 15.4442 20.2213 15.4442 20.1238ZM11.2709 20.4164C11.3703 20.3188 11.569 20.2213 11.7677 20.2213C11.9664 20.2213 12.0658 20.3188 11.9664 20.4164C11.8671 20.5139 11.6684 20.6114 11.4696 20.6114C11.2709 20.6114 11.1715 20.5139 11.2709 20.4164ZM83.0117 18.5633C83.111 18.4658 83.3098 18.3683 83.3098 18.4658C83.3098 18.7584 83.0117 18.9534 82.9123 18.8559C82.8129 18.8559 82.9123 18.6609 83.0117 18.5633ZM63.3376 18.0757C63.5363 17.2955 63.6357 17.2955 63.9338 18.1732C64.0332 18.6609 64.0332 18.6609 63.6357 18.6609C63.3376 18.5633 63.2382 18.3683 63.3376 18.0757ZM66.8153 18.0757C66.8153 17.9782 66.9147 17.8806 67.1134 17.8806C67.3122 17.8806 67.4115 17.9782 67.3122 18.1732C67.2128 18.4658 66.8153 18.3683 66.8153 18.0757ZM15.2454 19.1485C15.1461 18.8559 15.1461 18.7584 15.3448 18.7584C15.4442 18.7584 15.5435 18.9534 15.5435 19.1485C15.5435 19.4411 15.5435 19.5386 15.4442 19.5386C15.3448 19.5386 15.3448 19.3436 15.2454 19.1485ZM64.0332 16.7103C64.0332 16.4177 64.1325 16.0276 64.2319 16.0276C64.3312 16.0276 64.3312 16.1251 64.3312 16.3202C64.3312 16.5152 64.2319 16.8078 64.2319 17.0029C64.2319 17.1004 64.1325 17.2955 64.1325 17.2955C64.0332 17.2955 64.0332 17.0029 64.0332 16.7103ZM37.7017 17.1979C37.7017 16.8078 37.6023 15.5399 37.6023 14.2721C37.503 12.3215 37.6023 12.0289 37.9004 11.7363C38.0992 11.6388 38.3973 11.4438 38.3973 11.4438C38.6953 11.4438 38.596 12.419 38.3973 13.2968C38.2979 13.6869 38.1985 14.7597 38.1985 15.735C38.1985 16.7103 38.1985 17.588 38.0992 17.588C37.9004 17.9782 37.7017 17.7831 37.7017 17.1979ZM37.0062 17.1979C37.0062 17.1004 37.1055 17.1004 37.2049 17.1004C37.3042 17.1979 37.4036 17.2955 37.4036 17.393C37.4036 17.4905 37.3042 17.4905 37.2049 17.4905C37.1055 17.393 37.0062 17.2955 37.0062 17.1979ZM28.3615 16.6128C28.2621 16.1251 28.0634 15.3449 27.964 14.9548C27.8647 14.6622 27.7653 14.077 27.6659 13.882C27.5666 13.2968 27.5666 13.2968 27.6659 11.9314L27.7653 10.8586L28.0634 12.224C28.2621 12.9067 28.3615 13.6869 28.4609 13.7844C28.4609 13.882 28.5602 14.077 28.6596 14.1746C28.9577 14.6622 29.1564 16.2226 28.8583 16.8078C28.759 17.1979 28.5602 17.4905 28.5602 17.4905C28.6596 17.588 28.4609 17.1979 28.3615 16.6128ZM67.9084 15.6375C68.0077 15.3449 68.1071 14.9548 68.2064 14.9548C68.5045 14.9548 68.5045 15.2474 68.2064 15.4424C68.1071 15.54 68.0077 15.735 68.0077 16.0276C68.0077 16.3202 67.9084 16.4177 67.9084 16.3202C67.9084 16.2226 67.9084 15.9301 67.9084 15.6375ZM64.8281 16.0276C64.8281 15.9301 64.9274 15.8325 65.0268 15.8325C65.1262 15.8325 65.2255 15.9301 65.1262 16.0276C65.0268 16.1251 64.9274 16.2226 64.9274 16.2226C64.9274 16.2226 64.8281 16.2226 64.8281 16.0276ZM72.6778 15.54C72.6778 15.4424 72.7772 15.2474 72.9759 15.2474C73.274 15.1498 73.274 15.0523 73.0753 14.9548C72.8766 14.8573 72.9759 14.6622 73.1746 14.4671C73.4727 14.2721 73.5721 13.9795 73.5721 13.7844C73.5721 13.5894 73.6715 13.4919 73.7708 13.4919C74.0689 13.4919 74.0689 13.9795 73.6715 14.9548C73.4727 15.4424 73.1746 15.8325 72.9759 15.8325C72.8765 15.6375 72.6778 15.6375 72.6778 15.54ZM64.7287 14.9548C64.8281 14.5647 64.9274 14.077 65.0268 13.882C65.1262 13.6869 65.3249 13.1993 65.3249 12.8092C65.3249 12.419 65.4243 12.0289 65.4243 11.9314C65.4243 11.8339 65.5236 11.6388 65.5236 11.4438C65.5236 11.2487 65.623 11.0536 65.8217 11.0536C65.9211 11.0536 66.0204 10.8586 65.9211 10.6635C65.8217 10.3709 65.9211 10.2734 66.1198 10.2734C66.4179 10.2734 66.4179 10.1759 66.2192 9.8833C65.9211 9.39565 66.3185 9.00554 67.1134 8.81049C68.0077 8.61543 68.4052 8.90802 68.0077 9.68824C67.3122 11.7363 66.5173 13.0042 66.3185 12.9067C66.1198 12.8091 66.0204 13.0042 66.0204 13.2968C66.0204 13.5894 65.9211 13.7844 65.8217 13.7844C65.7223 13.7844 65.623 13.882 65.7223 13.882C65.8217 13.9795 65.623 14.2721 65.3249 14.5647C65.0268 14.8573 64.8281 15.2474 64.8281 15.3449C64.8281 15.4424 64.7287 15.6375 64.7287 15.6375C64.6293 15.6375 64.6293 15.3449 64.7287 14.9548ZM68.3058 14.3696C68.2064 14.2721 68.2064 14.1746 68.4052 14.1746C68.5045 14.1746 68.6039 14.2721 68.6039 14.3696C68.6039 14.4671 68.5045 14.5647 68.5045 14.5647C68.5045 14.5647 68.4052 14.4671 68.3058 14.3696ZM36.9068 14.3696C36.8074 14.2721 36.8074 14.077 37.0062 14.077C37.1055 13.9795 37.2049 14.077 37.2049 14.2721C37.2049 14.5647 37.1055 14.6622 36.9068 14.3696ZM68.2064 13.3943C68.2064 13.1993 68.3058 13.1017 68.4052 13.1017C68.5045 13.1017 68.5045 13.0042 68.5045 12.8092C68.5045 12.6141 68.5045 12.5166 68.6039 12.5166C68.902 12.5166 69.2994 13.1993 69.1007 13.4919C69.0014 13.7844 68.2064 13.7844 68.2064 13.3943ZM74.1683 12.9067C74.2676 12.5166 74.7645 12.419 74.7645 12.8092C74.7645 13.0042 74.6651 13.1017 74.4664 13.1017C74.2676 13.1017 74.0689 13.0042 74.1683 12.9067ZM31.6405 13.6869C31.4418 13.5894 31.7399 13.0042 31.9386 13.0042C32.038 13.0042 32.1373 13.1993 32.1373 13.3943C32.1373 13.7844 31.9386 13.882 31.6405 13.6869ZM27.0698 12.7116C27.1691 12.5166 27.1691 12.6141 27.1691 13.0042C27.1691 13.3943 27.1691 13.4918 27.0698 13.3943C27.0698 13.1993 27.0698 12.9067 27.0698 12.7116ZM68.902 11.9314C68.8026 11.7363 68.8026 11.6388 69.0013 11.6388C69.2001 11.6388 69.2001 11.7363 69.2001 11.9314C69.2001 12.1265 69.2001 12.224 69.1007 12.224C69.1007 12.224 69.0014 12.1265 68.902 11.9314ZM36.9068 12.6141C36.8074 12.419 36.8074 12.3215 37.0062 12.3215C37.1055 12.3215 37.2049 12.419 37.2049 12.6141C37.2049 12.8092 37.2049 12.9067 37.1055 12.9067C37.0062 12.8091 36.9068 12.7116 36.9068 12.6141ZM75.0626 11.4438C75.0626 11.3462 75.1619 11.3462 75.2613 11.3462C75.3606 11.4438 75.46 11.5413 75.46 11.6388C75.46 11.7363 75.3606 11.7363 75.2613 11.7363C75.2613 11.7363 75.0626 11.6388 75.0626 11.4438ZM36.2112 12.224C36.2112 11.9314 36.3106 11.8339 36.3106 11.8339C36.41 11.8339 36.41 12.0289 36.5093 12.224C36.5093 12.5166 36.41 12.6141 36.41 12.6141C36.3106 12.6141 36.2112 12.5166 36.2112 12.224ZM63.0395 10.7611C63.3376 10.3709 63.437 10.2734 63.2382 10.0784C63.0395 9.98083 63.1389 9.8833 63.437 9.78577C63.7351 9.68824 63.9338 9.68824 63.9338 9.68824C64.0332 9.78577 63.8344 10.1759 63.6357 10.7611C63.3376 11.5413 63.1389 11.6388 62.9402 11.4438C62.6421 11.2487 62.7414 11.2487 63.0395 10.7611ZM75.2613 10.6635C75.3606 10.4685 75.46 10.1759 75.46 10.0784C75.46 9.98083 75.5594 9.78577 75.7581 9.78577C75.8575 9.68824 75.9568 9.78577 75.8575 9.8833C75.7581 9.98083 75.7581 10.1759 75.9568 10.1759C76.0562 10.1759 76.0562 10.3709 75.6587 10.566C75.0625 11.1512 75.0626 11.1512 75.2613 10.6635ZM69.1007 10.566C69.2001 10.4685 69.2995 10.4685 69.3988 10.4685C69.4982 10.566 69.4982 10.6635 69.4982 10.7611C69.3988 10.8586 69.2994 10.8586 69.2001 10.8586C69.1007 10.8586 69.1007 10.6635 69.1007 10.566ZM31.0443 10.6635C31.1437 10.566 31.243 10.566 31.243 10.8586C31.243 11.1512 31.1437 11.1512 31.0443 11.0536C30.945 10.9561 30.945 10.8586 31.0443 10.6635ZM31.243 10.0784C30.8456 9.78577 30.8456 9.78577 31.3424 9.39565C31.9386 8.90801 32.2367 9.00554 31.7399 9.49318C31.4418 9.78577 31.6405 10.1759 32.038 9.98082C32.1373 9.8833 32.2367 9.98083 32.2367 10.0784C32.2367 10.2734 31.7399 10.2734 31.243 10.0784ZM76.0562 8.71296C76.1556 8.5179 76.2549 8.42037 76.3543 8.42037C76.4537 8.42037 76.4536 8.61543 76.2549 8.90801C76.0562 9.29813 75.8575 9.29813 76.0562 8.71296ZM38.2979 9.49318C38.2979 9.2006 38.3973 9.10307 38.596 9.10307C38.7947 9.10307 38.8941 9.2006 38.7947 9.49318C38.6953 9.78577 38.596 9.8833 38.4966 9.8833C38.4966 9.98083 38.2979 9.78577 38.2979 9.49318ZM27.8647 9.68824C27.8647 9.49319 27.964 9.39565 28.0634 9.39565C28.1628 9.39565 28.1628 9.49319 28.1628 9.68824C28.1628 9.8833 28.0634 9.98082 27.964 9.98082C27.8647 9.8833 27.8647 9.78577 27.8647 9.68824ZM77.5467 7.73767C77.5467 7.64015 77.646 7.54261 77.646 7.54261C77.7454 7.54261 77.7454 7.64015 77.8448 7.73767C77.9441 7.8352 77.9441 7.93273 77.7454 7.93273C77.7454 7.93273 77.5467 7.8352 77.5467 7.73767ZM76.0562 7.73767C76.0562 7.64015 76.1556 7.54261 76.1556 7.54261C76.2549 7.54261 76.2549 7.64015 76.4536 7.73767C76.553 7.8352 76.4537 7.93273 76.3543 7.93273C76.2549 7.93273 76.0562 7.93273 76.0562 7.73767ZM31.9386 8.42037C31.8392 8.42037 31.8392 8.5179 31.8392 8.61543C31.9386 8.71296 31.9386 8.81049 31.7399 8.71296C31.6405 8.61543 31.4418 8.32284 31.4418 8.03025C31.3424 7.54261 31.4418 7.34756 31.7399 7.34756C32.2367 7.34756 32.3361 7.73767 31.8392 7.8352C31.7399 7.8352 31.7399 7.93273 31.9386 8.03025C32.1373 8.12778 32.336 8.42037 32.2367 8.61543C32.2367 8.81049 32.1373 8.90802 32.1373 8.71296C32.2367 8.5179 32.1373 8.42037 31.9386 8.42037ZM71.7835 4.51923C71.7835 4.4217 71.8829 4.4217 71.9823 4.4217C72.0816 4.51923 72.181 4.61676 72.181 4.71429C72.181 4.81182 72.0816 4.81182 71.9823 4.81182C71.8829 4.71429 71.7835 4.61676 71.7835 4.51923Z" fill="#CB283A"/>
<path d="M14.7333 54.4336C14.7333 54.3348 14.6339 54.3348 14.5345 54.3348C14.4351 54.4336 14.3357 54.5323 14.3357 54.5323C14.3357 54.6311 14.4351 54.6311 14.5345 54.6311C14.5345 54.7299 14.7333 54.6311 14.7333 54.4336Z" fill="#CB283A"/>
</svg>
