<svg width="32" height="31" viewBox="0 0 32 31" fill="none" xmlns="http://www.w3.org/2000/svg">
<g filter="url(#filter0_d_34_39545)">
<path d="M23.9966 15.5781C23.9966 21.3768 19.5899 26.0781 14.1546 26.0781C8.71919 26.0781 4.3125 21.3768 4.3125 15.5781C4.3125 9.7794 8.72258 5.07812 14.1579 5.07812C19.5933 5.07812 24 9.7794 24 15.5781H23.9966Z" fill="#E3B400"/>
<path d="M23.3438 15.5781C23.3438 21.3768 18.9363 26.0781 13.5 26.0781C8.0637 26.0781 3.65625 21.3768 3.65625 15.5781C3.65625 9.7794 8.0637 5.07812 13.5 5.07812C18.9363 5.07812 23.3438 9.7794 23.3438 15.5781Z" fill="#FFEF4A"/>
<path d="M22.6875 15.5781C22.6875 21.3768 18.2801 26.0781 12.8438 26.0781C7.40745 26.0781 3 21.3768 3 15.5781C3 9.7794 7.40745 5.07812 12.8438 5.07812C18.2801 5.07812 22.6875 9.7794 22.6875 15.5781Z" fill="#FFDD00"/>
<path d="M21.0469 15.3971C21.0469 20.2957 17.3003 24.2677 12.6797 24.2677C8.0591 24.2677 4.3125 20.2957 4.3125 15.3971C4.3125 10.4984 8.0591 6.52637 12.6797 6.52637C17.3003 6.52637 21.0469 10.4984 21.0469 15.3971Z" fill="#FDC800"/>
<path d="M13.3842 23.3458C8.84667 23.3458 5.16744 19.3782 5.16744 14.4851C5.16744 12.2717 5.92258 10.252 7.16341 8.69873C5.41694 10.3238 4.3125 12.7237 4.3125 15.407C4.3125 20.3001 7.99173 24.2677 12.5292 24.2677C15.0175 24.2677 17.243 23.0731 18.75 21.1934C17.3096 22.535 15.4367 23.3458 13.3842 23.3458Z" fill="#F5A20A"/>
<path d="M15.1303 16.8356C15.1337 16.7959 15.1303 16.7563 15.1268 16.7203C15.1095 16.5041 15.0508 16.3096 14.9645 16.1366C14.9472 16.097 14.9265 16.0574 14.9023 16.0214C14.8816 15.9817 14.8574 15.9421 14.8332 15.9061C14.4567 15.3657 13.7936 15.0522 13.203 14.9297V14.9081C14.1839 14.6019 14.7814 13.9426 14.7849 13.1933C14.7469 13.1933 14.7089 13.1969 14.6743 13.2041C14.2979 13.2401 13.9559 13.3374 13.6554 13.4887C13.6105 13.5031 13.5691 13.5247 13.5276 13.5535C13.4309 13.9426 13.1166 14.256 12.6123 14.4362C12.564 14.4542 12.5122 14.4722 12.4604 14.4866C12.412 14.501 12.3602 14.5154 12.3084 14.5226C12.0804 14.5767 11.8214 14.6055 11.5382 14.6055H10.4398V12.0836C10.6367 12.0476 10.9579 12.0116 11.514 12.0116C12.2704 12.0116 12.8817 12.1485 13.2306 12.4763C13.2651 12.4619 13.3066 12.4439 13.3446 12.4295C13.6382 12.3106 13.9525 12.2241 14.2875 12.1701C14.3324 12.1593 14.3808 12.1557 14.4222 12.1521C14.3117 12.0188 14.1735 11.9071 14.0146 11.8062C13.4275 11.4099 12.6538 11.2334 11.4449 11.2334C10.5952 11.2334 9.76283 11.3018 9.23438 11.3919V19.1088C9.63849 19.1557 10.2775 19.1989 11.1133 19.1989C11.3965 19.1989 11.6625 19.1881 11.9146 19.1773C11.963 19.1737 12.0079 19.1665 12.0563 19.1629C12.1081 19.1629 12.1564 19.1593 12.2048 19.1485C12.5674 19.1161 12.8956 19.062 13.1857 18.99C13.2375 18.9792 13.2893 18.9683 13.3377 18.9539C13.3895 18.9359 13.4378 18.9215 13.4862 18.9071C13.8281 18.7918 14.1183 18.6513 14.3497 18.4676C14.809 18.0929 15.1234 17.5993 15.1372 16.9508C15.1406 16.9328 15.1406 16.9148 15.1406 16.8968C15.1406 16.8788 15.1406 16.8572 15.1372 16.8356H15.1303ZM12.7332 18.2334C12.6952 18.2478 12.6572 18.255 12.6192 18.2658C12.5812 18.2802 12.5398 18.2874 12.5018 18.2982C12.2359 18.3631 11.9423 18.3955 11.6383 18.4027C11.5934 18.4063 11.5554 18.4063 11.5105 18.4063H11.3827C10.9786 18.4063 10.6574 18.3919 10.4329 18.3595V15.3657H11.4345C11.6314 15.3657 11.8283 15.3765 12.0113 15.3981C12.0493 15.4017 12.0908 15.4089 12.1253 15.4125L12.2289 15.4269C13.165 15.5818 13.8488 16.0358 13.8488 16.8788C13.8488 17.5993 13.386 18.0208 12.7263 18.2298L12.7332 18.2334ZM14.7711 12.9663C14.7434 12.7393 14.6743 12.5376 14.5638 12.3574C14.5465 12.3214 14.5258 12.2854 14.4982 12.253C14.4533 12.253 14.4118 12.2638 14.3704 12.2674C14.0285 12.3178 13.7107 12.4007 13.4171 12.5123C13.3826 12.5268 13.3411 12.5412 13.3066 12.5592C13.3342 12.5916 13.3584 12.624 13.3826 12.6565C13.4965 12.8258 13.5587 13.0275 13.5622 13.2725V13.2905C13.5622 13.3302 13.5622 13.3698 13.5518 13.4058C13.5863 13.3878 13.6278 13.3698 13.6658 13.3554C13.9697 13.2149 14.3013 13.1284 14.6674 13.0888C14.702 13.0852 14.7434 13.078 14.778 13.078C14.778 13.0383 14.7745 12.9987 14.7676 12.9627L14.7711 12.9663Z" fill="#F39411"/>
<path d="M13.6727 13.2329C13.6692 13.0275 13.6209 12.8186 13.4896 12.6204C13.4758 12.5844 13.4516 12.552 13.424 12.5196C13.3895 12.534 13.348 12.5484 13.3135 12.5664C13.2789 12.5808 13.2444 12.5952 13.2099 12.6132C13.241 12.6456 13.2617 12.6781 13.2859 12.7105C13.4033 12.8762 13.462 13.0708 13.462 13.3013C13.462 13.3157 13.462 13.323 13.4586 13.3374C13.4586 13.3878 13.4551 13.4382 13.4413 13.4887C13.4793 13.4599 13.5207 13.4382 13.5622 13.4166C13.5967 13.3986 13.6382 13.3806 13.6762 13.3662C13.6796 13.3482 13.6796 13.3266 13.6796 13.3013C13.6796 13.2761 13.6796 13.2617 13.6762 13.2365L13.6727 13.2329ZM13.5345 13.5571C13.4378 13.9462 13.1235 14.2596 12.6192 14.4398C12.5709 14.4578 12.5191 14.4758 12.4673 14.4902C12.4189 14.5046 12.3671 14.519 12.3153 14.5262C12.0873 14.5803 11.8283 14.6091 11.5451 14.6091H10.4467V12.0872C10.6436 12.0512 10.9648 12.0152 11.5209 12.0152C12.2773 12.0152 12.8887 12.1521 13.2375 12.4799C13.272 12.4655 13.3135 12.4475 13.3515 12.4331C13.051 12.1233 12.4914 11.8999 11.5209 11.8999C11.0615 11.8999 10.6919 11.9287 10.4294 11.9719L10.3362 11.99V14.7208H11.5451C11.8007 14.7208 12.039 14.6992 12.26 14.6523C12.3084 14.6487 12.3533 14.6343 12.3947 14.6235C12.4465 14.6091 12.4949 14.5947 12.5433 14.5767C13.1753 14.3857 13.5829 13.9967 13.6658 13.4887C13.6209 13.5031 13.5794 13.5247 13.538 13.5535L13.5345 13.5571ZM12.2669 15.326C12.2324 15.3152 12.191 15.3116 12.1564 15.3116C12.1219 15.3008 12.0804 15.2972 12.0459 15.2936C11.8559 15.272 11.6556 15.2612 11.4414 15.2612H10.3293V18.4676L10.426 18.482C10.6436 18.5144 10.9683 18.5288 11.4449 18.5288H11.4553C11.4933 18.5288 11.5382 18.5288 11.5796 18.5252C11.6245 18.5288 11.6625 18.5252 11.7074 18.5216C12.0286 18.5108 12.3153 18.4712 12.5743 18.4063C12.6123 18.3955 12.6572 18.3883 12.6987 18.3739C12.7367 18.3595 12.7781 18.3523 12.8161 18.3379C13.5622 18.0821 13.9732 17.5849 13.9732 16.8896C13.9732 16.061 13.348 15.5062 12.2704 15.326H12.2669ZM12.7401 18.2406C12.7021 18.255 12.6641 18.2622 12.6262 18.273C12.5882 18.2874 12.5467 18.2946 12.5087 18.3055C12.2428 18.3703 11.9492 18.4027 11.6452 18.4099C11.6003 18.4135 11.5623 18.4135 11.5174 18.4135H11.3896C10.9855 18.4135 10.6643 18.3991 10.4398 18.3667V15.3729H11.4414C11.6383 15.3729 11.8352 15.3837 12.0183 15.4053C12.0563 15.4089 12.0977 15.4161 12.1322 15.4197L12.2359 15.4341C13.1719 15.589 13.8558 16.043 13.8558 16.886C13.8558 17.6065 13.3929 18.028 12.7332 18.237L12.7401 18.2406ZM15.1372 16.8428H15.0266C15.0301 16.8608 15.0301 16.8824 15.0301 16.904C15.0301 16.9256 15.0301 16.94 15.0266 16.9581C15.0128 17.5165 14.7607 17.9956 14.2806 18.3847C14.0354 18.5721 13.728 18.7198 13.3515 18.8314C13.3066 18.8459 13.2582 18.8603 13.2099 18.8711C13.2479 18.9035 13.2893 18.9323 13.3342 18.9575C13.386 18.9395 13.4344 18.9251 13.4827 18.9107C13.8247 18.7954 14.1148 18.6549 14.3462 18.4712C14.8056 18.0965 15.1199 17.6029 15.1337 16.9544C15.1372 16.9364 15.1372 16.9184 15.1372 16.9004C15.1372 16.8824 15.1372 16.8608 15.1337 16.8392L15.1372 16.8428ZM12.2669 15.326C12.2324 15.3152 12.191 15.3116 12.1564 15.3116C12.1219 15.3008 12.0804 15.2972 12.0459 15.2936C11.8559 15.272 11.6556 15.2612 11.4414 15.2612H10.3293V18.4676L10.426 18.482C10.6436 18.5144 10.9683 18.5288 11.4449 18.5288H11.4553C11.4933 18.5288 11.5382 18.5288 11.5796 18.5252C11.6245 18.5288 11.6625 18.5252 11.7074 18.5216C12.0286 18.5108 12.3153 18.4712 12.5743 18.4063C12.6123 18.3955 12.6572 18.3883 12.6987 18.3739C12.7367 18.3595 12.7781 18.3523 12.8161 18.3379C13.5622 18.0821 13.9732 17.5849 13.9732 16.8896C13.9732 16.061 13.348 15.5062 12.2704 15.326H12.2669ZM12.7401 18.2406C12.7021 18.255 12.6641 18.2622 12.6262 18.273C12.5882 18.2874 12.5467 18.2946 12.5087 18.3055C12.2428 18.3703 11.9492 18.4027 11.6452 18.4099C11.6003 18.4135 11.5623 18.4135 11.5174 18.4135H11.3896C10.9855 18.4135 10.6643 18.3991 10.4398 18.3667V15.3729H11.4414C11.6383 15.3729 11.8352 15.3837 12.0183 15.4053C12.0563 15.4089 12.0977 15.4161 12.1322 15.4197L12.2359 15.4341C13.1719 15.589 13.8558 16.043 13.8558 16.886C13.8558 17.6065 13.3929 18.028 12.7332 18.237L12.7401 18.2406ZM13.6727 13.2329C13.6692 13.0275 13.6209 12.8186 13.4896 12.6204C13.4758 12.5844 13.4516 12.552 13.424 12.5196C13.3895 12.534 13.348 12.5484 13.3135 12.5664C13.2789 12.5808 13.2444 12.5952 13.2099 12.6132C13.241 12.6456 13.2617 12.6781 13.2859 12.7105C13.4033 12.8762 13.462 13.0708 13.462 13.3013C13.462 13.3157 13.462 13.323 13.4586 13.3374C13.4586 13.3878 13.4551 13.4382 13.4413 13.4887C13.4793 13.4599 13.5207 13.4382 13.5622 13.4166C13.5967 13.3986 13.6382 13.3806 13.6762 13.3662C13.6796 13.3482 13.6796 13.3266 13.6796 13.3013C13.6796 13.2761 13.6796 13.2617 13.6762 13.2365L13.6727 13.2329ZM13.5345 13.5571C13.4378 13.9462 13.1235 14.2596 12.6192 14.4398C12.5709 14.4578 12.5191 14.4758 12.4673 14.4902C12.4189 14.5046 12.3671 14.519 12.3153 14.5262C12.0873 14.5803 11.8283 14.6091 11.5451 14.6091H10.4467V12.0872C10.6436 12.0512 10.9648 12.0152 11.5209 12.0152C12.2773 12.0152 12.8887 12.1521 13.2375 12.4799C13.272 12.4655 13.3135 12.4475 13.3515 12.4331C13.051 12.1233 12.4914 11.8999 11.5209 11.8999C11.0615 11.8999 10.6919 11.9287 10.4294 11.9719L10.3362 11.99V14.7208H11.5451C11.8007 14.7208 12.039 14.6992 12.26 14.6523C12.3084 14.6487 12.3533 14.6343 12.3947 14.6235C12.4465 14.6091 12.4949 14.5947 12.5433 14.5767C13.1753 14.3857 13.5829 13.9967 13.6658 13.4887C13.6209 13.5031 13.5794 13.5247 13.538 13.5535L13.5345 13.5571ZM12.2669 15.326C12.2324 15.3152 12.191 15.3116 12.1564 15.3116C12.1219 15.3008 12.0804 15.2972 12.0459 15.2936C11.8559 15.272 11.6556 15.2612 11.4414 15.2612H10.3293V18.4676L10.426 18.482C10.6436 18.5144 10.9683 18.5288 11.4449 18.5288H11.4553C11.4933 18.5288 11.5382 18.5288 11.5796 18.5252C11.6245 18.5288 11.6625 18.5252 11.7074 18.5216C12.0286 18.5108 12.3153 18.4712 12.5743 18.4063C12.6123 18.3955 12.6572 18.3883 12.6987 18.3739C12.7367 18.3595 12.7781 18.3523 12.8161 18.3379C13.5622 18.0821 13.9732 17.5849 13.9732 16.8896C13.9732 16.061 13.348 15.5062 12.2704 15.326H12.2669ZM12.7401 18.2406C12.7021 18.255 12.6641 18.2622 12.6262 18.273C12.5882 18.2874 12.5467 18.2946 12.5087 18.3055C12.2428 18.3703 11.9492 18.4027 11.6452 18.4099C11.6003 18.4135 11.5623 18.4135 11.5174 18.4135H11.3896C10.9855 18.4135 10.6643 18.3991 10.4398 18.3667V15.3729H11.4414C11.6383 15.3729 11.8352 15.3837 12.0183 15.4053C12.0563 15.4089 12.0977 15.4161 12.1322 15.4197L12.2359 15.4341C13.1719 15.589 13.8558 16.043 13.8558 16.886C13.8558 17.6065 13.3929 18.028 12.7332 18.237L12.7401 18.2406ZM13.6727 13.2329C13.6692 13.0275 13.6209 12.8186 13.4896 12.6204C13.4758 12.5844 13.4516 12.552 13.424 12.5196C13.3895 12.534 13.348 12.5484 13.3135 12.5664C13.2789 12.5808 13.2444 12.5952 13.2099 12.6132C13.241 12.6456 13.2617 12.6781 13.2859 12.7105C13.4033 12.8762 13.462 13.0708 13.462 13.3013C13.462 13.3157 13.462 13.323 13.4586 13.3374C13.4586 13.3878 13.4551 13.4382 13.4413 13.4887C13.4793 13.4599 13.5207 13.4382 13.5622 13.4166C13.5967 13.3986 13.6382 13.3806 13.6762 13.3662C13.6796 13.3482 13.6796 13.3266 13.6796 13.3013C13.6796 13.2761 13.6796 13.2617 13.6762 13.2365L13.6727 13.2329ZM13.5345 13.5571C13.4378 13.9462 13.1235 14.2596 12.6192 14.4398C12.5709 14.4578 12.5191 14.4758 12.4673 14.4902C12.4189 14.5046 12.3671 14.519 12.3153 14.5262C12.0873 14.5803 11.8283 14.6091 11.5451 14.6091H10.4467V12.0872C10.6436 12.0512 10.9648 12.0152 11.5209 12.0152C12.2773 12.0152 12.8887 12.1521 13.2375 12.4799C13.272 12.4655 13.3135 12.4475 13.3515 12.4331C13.051 12.1233 12.4914 11.8999 11.5209 11.8999C11.0615 11.8999 10.6919 11.9287 10.4294 11.9719L10.3362 11.99V14.7208H11.5451C11.8007 14.7208 12.039 14.6992 12.26 14.6523C12.3084 14.6487 12.3533 14.6343 12.3947 14.6235C12.4465 14.6091 12.4949 14.5947 12.5433 14.5767C13.1753 14.3857 13.5829 13.9967 13.6658 13.4887C13.6209 13.5031 13.5794 13.5247 13.538 13.5535L13.5345 13.5571ZM15.1372 16.8428C15.1406 16.8031 15.1372 16.7635 15.1337 16.7275C15.1164 16.5113 15.0577 16.3168 14.9714 16.1438C14.9541 16.1042 14.9334 16.0646 14.9092 16.0286C14.8885 15.9889 14.8643 15.9493 14.8401 15.9133C14.4637 15.3729 13.8005 15.0594 13.2099 14.9369V14.9153C14.1908 14.6091 14.7883 13.9498 14.7918 13.2005C14.7538 13.2005 14.7158 13.2041 14.6813 13.2113C14.6709 13.9102 14.0975 14.5226 13.1788 14.8L13.0993 14.8505V15.027L13.1857 15.045C13.728 15.1603 14.3289 15.4413 14.6882 15.9133C14.7192 15.9493 14.7434 15.9853 14.7711 16.0286C14.7987 16.0646 14.8194 16.1006 14.8367 16.1438C14.9334 16.3168 14.999 16.5077 15.0163 16.7275C15.0266 16.7635 15.0266 16.7995 15.0266 16.8428C15.0301 16.8608 15.0301 16.8824 15.0301 16.904C15.0301 16.9256 15.0301 16.94 15.0266 16.9581C15.0128 17.5165 14.7607 17.9956 14.2806 18.3847C14.0354 18.5721 13.728 18.7198 13.3515 18.8314C13.3066 18.8459 13.2582 18.8603 13.2099 18.8711C13.1615 18.8819 13.1132 18.8927 13.0613 18.9071C12.7781 18.9719 12.4535 19.0224 12.0942 19.0476C12.0493 19.0512 12.001 19.0584 11.9526 19.062C11.9077 19.0656 11.8663 19.0656 11.8179 19.0728C11.5934 19.0872 11.3586 19.0908 11.1099 19.0908C10.274 19.0908 9.67303 19.044 9.34145 19.008V11.4964C9.90099 11.4063 10.6954 11.3487 11.4449 11.3487C12.6331 11.3487 13.386 11.5144 13.9594 11.8999C14.0872 11.9792 14.1942 12.0692 14.2875 12.1701C14.3324 12.1593 14.3808 12.1557 14.4222 12.1521C14.3117 12.0188 14.1735 11.9071 14.0146 11.8062C13.4275 11.4099 12.6538 11.2334 11.4449 11.2334C10.5952 11.2334 9.76283 11.3018 9.23438 11.3919V19.1088C9.63849 19.1557 10.2775 19.1989 11.1133 19.1989C11.3965 19.1989 11.6625 19.1881 11.9146 19.1773C11.963 19.1737 12.0079 19.1665 12.0563 19.1629C12.1081 19.1629 12.1564 19.1593 12.2048 19.1485C12.5674 19.1161 12.8956 19.062 13.1857 18.99C13.2375 18.9792 13.2893 18.9683 13.3377 18.9539C13.3895 18.9359 13.4378 18.9215 13.4862 18.9071C13.8281 18.7918 14.1183 18.6513 14.3497 18.4676C14.809 18.0929 15.1234 17.5993 15.1372 16.9508C15.1406 16.9328 15.1406 16.9148 15.1406 16.8968C15.1406 16.8788 15.1406 16.8572 15.1372 16.8356V16.8428ZM14.8885 12.9699C14.8609 12.7465 14.8021 12.5412 14.6985 12.3574C14.6778 12.3178 14.6536 12.2782 14.6294 12.2421C14.5845 12.2458 14.5465 12.253 14.5086 12.2602C14.4637 12.2602 14.4222 12.271 14.3808 12.2746C14.4084 12.307 14.4291 12.343 14.4498 12.379C14.5673 12.5556 14.6433 12.7573 14.6674 12.9807C14.6709 13.0167 14.6778 13.0527 14.6778 13.096C14.7123 13.0924 14.7538 13.0852 14.7883 13.0852C14.8229 13.0816 14.8574 13.0744 14.8988 13.0816C14.8988 13.0419 14.8954 13.0023 14.8885 12.9663V12.9699ZM13.6727 13.2329C13.6382 13.2437 13.6036 13.2545 13.5691 13.2797V13.2977C13.5691 13.3374 13.5691 13.377 13.5587 13.413C13.5933 13.395 13.6347 13.377 13.6727 13.3626C13.6762 13.3446 13.6762 13.323 13.6762 13.2977C13.6762 13.2725 13.6762 13.2581 13.6727 13.2329ZM12.2669 15.326C12.2324 15.3152 12.191 15.3116 12.1564 15.3116C12.1219 15.3008 12.0804 15.2972 12.0459 15.2936C12.0321 15.3296 12.0252 15.3657 12.0183 15.4089C12.0563 15.4125 12.0977 15.4197 12.1322 15.4233L12.2359 15.4377C13.1719 15.5926 13.8558 16.0466 13.8558 16.8896C13.8558 17.6101 13.3929 18.0316 12.7332 18.2406C12.6952 18.255 12.6572 18.2622 12.6192 18.273C12.5812 18.2874 12.5398 18.2946 12.5018 18.3055C12.5191 18.3415 12.5467 18.3739 12.5674 18.4063C12.6054 18.3955 12.6503 18.3883 12.6918 18.3739C12.7298 18.3595 12.7712 18.3523 12.8092 18.3379C13.5553 18.0821 13.9663 17.5849 13.9663 16.8896C13.9663 16.061 13.3411 15.5062 12.2635 15.326H12.2669ZM13.5345 13.5571C13.4378 13.9462 13.1235 14.2596 12.6192 14.4398C12.5709 14.4578 12.5191 14.4758 12.4673 14.4902C12.4189 14.5046 12.3671 14.519 12.3153 14.5262C12.2877 14.5659 12.2704 14.6127 12.2566 14.6559C12.3049 14.6523 12.3498 14.6379 12.3913 14.6271C12.4431 14.6127 12.4914 14.5983 12.5398 14.5803C13.1719 14.3893 13.5794 14.0003 13.6623 13.4923C13.6174 13.5067 13.576 13.5283 13.5345 13.5571ZM13.6727 13.2329C13.6692 13.0275 13.6209 12.8186 13.4896 12.6204C13.4758 12.5844 13.4516 12.552 13.424 12.5196C13.3895 12.534 13.348 12.5484 13.3135 12.5664C13.2789 12.5808 13.2444 12.5952 13.2099 12.6132C13.241 12.6456 13.2617 12.6781 13.2859 12.7105C13.4033 12.8762 13.462 13.0708 13.462 13.3013C13.462 13.3157 13.462 13.323 13.4586 13.3374C13.4586 13.3878 13.4551 13.4382 13.4413 13.4887C13.4793 13.4599 13.5207 13.4382 13.5622 13.4166C13.5967 13.3986 13.6382 13.3806 13.6762 13.3662C13.6796 13.3482 13.6796 13.3266 13.6796 13.3013C13.6796 13.2761 13.6796 13.2617 13.6762 13.2365L13.6727 13.2329ZM13.5345 13.5571C13.4378 13.9462 13.1235 14.2596 12.6192 14.4398C12.5709 14.4578 12.5191 14.4758 12.4673 14.4902C12.4189 14.5046 12.3671 14.519 12.3153 14.5262C12.0873 14.5803 11.8283 14.6091 11.5451 14.6091H10.4467V12.0872C10.6436 12.0512 10.9648 12.0152 11.5209 12.0152C12.2773 12.0152 12.8887 12.1521 13.2375 12.4799C13.272 12.4655 13.3135 12.4475 13.3515 12.4331C13.051 12.1233 12.4914 11.8999 11.5209 11.8999C11.0615 11.8999 10.6919 11.9287 10.4294 11.9719L10.3362 11.99V14.7208H11.5451C11.8007 14.7208 12.039 14.6992 12.26 14.6523C12.3084 14.6487 12.3533 14.6343 12.3947 14.6235C12.4465 14.6091 12.4949 14.5947 12.5433 14.5767C13.1753 14.3857 13.5829 13.9967 13.6658 13.4887C13.6209 13.5031 13.5794 13.5247 13.538 13.5535L13.5345 13.5571ZM12.2669 15.326C12.2324 15.3152 12.191 15.3116 12.1564 15.3116C12.1219 15.3008 12.0804 15.2972 12.0459 15.2936C11.8559 15.272 11.6556 15.2612 11.4414 15.2612H10.3293V18.4676L10.426 18.482C10.6436 18.5144 10.9683 18.5288 11.4449 18.5288H11.4553C11.4933 18.5288 11.5382 18.5288 11.5796 18.5252C11.6245 18.5288 11.6625 18.5252 11.7074 18.5216C12.0286 18.5108 12.3153 18.4712 12.5743 18.4063C12.6123 18.3955 12.6572 18.3883 12.6987 18.3739C12.7367 18.3595 12.7781 18.3523 12.8161 18.3379C13.5622 18.0821 13.9732 17.5849 13.9732 16.8896C13.9732 16.061 13.348 15.5062 12.2704 15.326H12.2669ZM12.7401 18.2406C12.7021 18.255 12.6641 18.2622 12.6262 18.273C12.5882 18.2874 12.5467 18.2946 12.5087 18.3055C12.2428 18.3703 11.9492 18.4027 11.6452 18.4099C11.6003 18.4135 11.5623 18.4135 11.5174 18.4135H11.3896C10.9855 18.4135 10.6643 18.3991 10.4398 18.3667V15.3729H11.4414C11.6383 15.3729 11.8352 15.3837 12.0183 15.4053C12.0563 15.4089 12.0977 15.4161 12.1322 15.4197L12.2359 15.4341C13.1719 15.589 13.8558 16.043 13.8558 16.886C13.8558 17.6065 13.3929 18.028 12.7332 18.237L12.7401 18.2406ZM15.1372 16.8428H15.0266C15.0301 16.8608 15.0301 16.8824 15.0301 16.904C15.0301 16.9256 15.0301 16.94 15.0266 16.9581C15.0128 17.5165 14.7607 17.9956 14.2806 18.3847C14.0354 18.5721 13.728 18.7198 13.3515 18.8314C13.3066 18.8459 13.2582 18.8603 13.2099 18.8711C13.2479 18.9035 13.2893 18.9323 13.3342 18.9575C13.386 18.9395 13.4344 18.9251 13.4827 18.9107C13.8247 18.7954 14.1148 18.6549 14.3462 18.4712C14.8056 18.0965 15.1199 17.6029 15.1337 16.9544C15.1372 16.9364 15.1372 16.9184 15.1372 16.9004C15.1372 16.8824 15.1372 16.8608 15.1337 16.8392L15.1372 16.8428ZM12.2669 15.326C12.2324 15.3152 12.191 15.3116 12.1564 15.3116C12.1219 15.3008 12.0804 15.2972 12.0459 15.2936C11.8559 15.272 11.6556 15.2612 11.4414 15.2612H10.3293V18.4676L10.426 18.482C10.6436 18.5144 10.9683 18.5288 11.4449 18.5288H11.4553C11.4933 18.5288 11.5382 18.5288 11.5796 18.5252C11.6245 18.5288 11.6625 18.5252 11.7074 18.5216C12.0286 18.5108 12.3153 18.4712 12.5743 18.4063C12.6123 18.3955 12.6572 18.3883 12.6987 18.3739C12.7367 18.3595 12.7781 18.3523 12.8161 18.3379C13.5622 18.0821 13.9732 17.5849 13.9732 16.8896C13.9732 16.061 13.348 15.5062 12.2704 15.326H12.2669ZM12.7401 18.2406C12.7021 18.255 12.6641 18.2622 12.6262 18.273C12.5882 18.2874 12.5467 18.2946 12.5087 18.3055C12.2428 18.3703 11.9492 18.4027 11.6452 18.4099C11.6003 18.4135 11.5623 18.4135 11.5174 18.4135H11.3896C10.9855 18.4135 10.6643 18.3991 10.4398 18.3667V15.3729H11.4414C11.6383 15.3729 11.8352 15.3837 12.0183 15.4053C12.0563 15.4089 12.0977 15.4161 12.1322 15.4197L12.2359 15.4341C13.1719 15.589 13.8558 16.043 13.8558 16.886C13.8558 17.6065 13.3929 18.028 12.7332 18.237L12.7401 18.2406ZM13.6727 13.2329C13.6692 13.0275 13.6209 12.8186 13.4896 12.6204C13.4758 12.5844 13.4516 12.552 13.424 12.5196C13.3895 12.534 13.348 12.5484 13.3135 12.5664C13.2789 12.5808 13.2444 12.5952 13.2099 12.6132C13.241 12.6456 13.2617 12.6781 13.2859 12.7105C13.4033 12.8762 13.462 13.0708 13.462 13.3013C13.462 13.3157 13.462 13.323 13.4586 13.3374C13.4586 13.3878 13.4551 13.4382 13.4413 13.4887C13.4793 13.4599 13.5207 13.4382 13.5622 13.4166C13.5967 13.3986 13.6382 13.3806 13.6762 13.3662C13.6796 13.3482 13.6796 13.3266 13.6796 13.3013C13.6796 13.2761 13.6796 13.2617 13.6762 13.2365L13.6727 13.2329ZM13.5345 13.5571C13.4378 13.9462 13.1235 14.2596 12.6192 14.4398C12.5709 14.4578 12.5191 14.4758 12.4673 14.4902C12.4189 14.5046 12.3671 14.519 12.3153 14.5262C12.0873 14.5803 11.8283 14.6091 11.5451 14.6091H10.4467V12.0872C10.6436 12.0512 10.9648 12.0152 11.5209 12.0152C12.2773 12.0152 12.8887 12.1521 13.2375 12.4799C13.272 12.4655 13.3135 12.4475 13.3515 12.4331C13.051 12.1233 12.4914 11.8999 11.5209 11.8999C11.0615 11.8999 10.6919 11.9287 10.4294 11.9719L10.3362 11.99V14.7208H11.5451C11.8007 14.7208 12.039 14.6992 12.26 14.6523C12.3084 14.6487 12.3533 14.6343 12.3947 14.6235C12.4465 14.6091 12.4949 14.5947 12.5433 14.5767C13.1753 14.3857 13.5829 13.9967 13.6658 13.4887C13.6209 13.5031 13.5794 13.5247 13.538 13.5535L13.5345 13.5571ZM13.6727 13.2329C13.6692 13.0275 13.6209 12.8186 13.4896 12.6204C13.4758 12.5844 13.4516 12.552 13.424 12.5196C13.3895 12.534 13.348 12.5484 13.3135 12.5664C13.2789 12.5808 13.2444 12.5952 13.2099 12.6132C13.241 12.6456 13.2617 12.6781 13.2859 12.7105C13.4033 12.8762 13.462 13.0708 13.462 13.3013C13.462 13.3157 13.462 13.323 13.4586 13.3374C13.4586 13.3878 13.4551 13.4382 13.4413 13.4887C13.4793 13.4599 13.5207 13.4382 13.5622 13.4166C13.5967 13.3986 13.6382 13.3806 13.6762 13.3662C13.6796 13.3482 13.6796 13.3266 13.6796 13.3013C13.6796 13.2761 13.6796 13.2617 13.6762 13.2365L13.6727 13.2329ZM13.5345 13.5571C13.4378 13.9462 13.1235 14.2596 12.6192 14.4398C12.5709 14.4578 12.5191 14.4758 12.4673 14.4902C12.4189 14.5046 12.3671 14.519 12.3153 14.5262C12.0873 14.5803 11.8283 14.6091 11.5451 14.6091H10.4467V12.0872C10.6436 12.0512 10.9648 12.0152 11.5209 12.0152C12.2773 12.0152 12.8887 12.1521 13.2375 12.4799C13.272 12.4655 13.3135 12.4475 13.3515 12.4331C13.051 12.1233 12.4914 11.8999 11.5209 11.8999C11.0615 11.8999 10.6919 11.9287 10.4294 11.9719L10.3362 11.99V14.7208H11.5451C11.8007 14.7208 12.039 14.6992 12.26 14.6523C12.3084 14.6487 12.3533 14.6343 12.3947 14.6235C12.4465 14.6091 12.4949 14.5947 12.5433 14.5767C13.1753 14.3857 13.5829 13.9967 13.6658 13.4887C13.6209 13.5031 13.5794 13.5247 13.538 13.5535L13.5345 13.5571ZM12.2669 15.326C12.2324 15.3152 12.191 15.3116 12.1564 15.3116C12.1219 15.3008 12.0804 15.2972 12.0459 15.2936C11.8559 15.272 11.6556 15.2612 11.4414 15.2612H10.3293V18.4676L10.426 18.482C10.6436 18.5144 10.9683 18.5288 11.4449 18.5288H11.4553C11.4933 18.5288 11.5382 18.5288 11.5796 18.5252C11.6245 18.5288 11.6625 18.5252 11.7074 18.5216C12.0286 18.5108 12.3153 18.4712 12.5743 18.4063C12.6123 18.3955 12.6572 18.3883 12.6987 18.3739C12.7367 18.3595 12.7781 18.3523 12.8161 18.3379C13.5622 18.0821 13.9732 17.5849 13.9732 16.8896C13.9732 16.061 13.348 15.5062 12.2704 15.326H12.2669ZM12.7401 18.2406C12.7021 18.255 12.6641 18.2622 12.6262 18.273C12.5882 18.2874 12.5467 18.2946 12.5087 18.3055C12.2428 18.3703 11.9492 18.4027 11.6452 18.4099C11.6003 18.4135 11.5623 18.4135 11.5174 18.4135H11.3896C10.9855 18.4135 10.6643 18.3991 10.4398 18.3667V15.3729H11.4414C11.6383 15.3729 11.8352 15.3837 12.0183 15.4053C12.0563 15.4089 12.0977 15.4161 12.1322 15.4197L12.2359 15.4341C13.1719 15.589 13.8558 16.043 13.8558 16.886C13.8558 17.6065 13.3929 18.028 12.7332 18.237L12.7401 18.2406ZM15.1372 16.8428H15.0266C15.0301 16.8608 15.0301 16.8824 15.0301 16.904C15.0301 16.9256 15.0301 16.94 15.0266 16.9581C15.0128 17.5165 14.7607 17.9956 14.2806 18.3847C14.0354 18.5721 13.728 18.7198 13.3515 18.8314C13.3066 18.8459 13.2582 18.8603 13.2099 18.8711C13.2479 18.9035 13.2893 18.9323 13.3342 18.9575C13.386 18.9395 13.4344 18.9251 13.4827 18.9107C13.8247 18.7954 14.1148 18.6549 14.3462 18.4712C14.8056 18.0965 15.1199 17.6029 15.1337 16.9544C15.1372 16.9364 15.1372 16.9184 15.1372 16.9004C15.1372 16.8824 15.1372 16.8608 15.1337 16.8392L15.1372 16.8428ZM12.2669 15.326C12.2324 15.3152 12.191 15.3116 12.1564 15.3116C12.1219 15.3008 12.0804 15.2972 12.0459 15.2936C11.8559 15.272 11.6556 15.2612 11.4414 15.2612H10.3293V18.4676L10.426 18.482C10.6436 18.5144 10.9683 18.5288 11.4449 18.5288H11.4553C11.4933 18.5288 11.5382 18.5288 11.5796 18.5252C11.6245 18.5288 11.6625 18.5252 11.7074 18.5216C12.0286 18.5108 12.3153 18.4712 12.5743 18.4063C12.6123 18.3955 12.6572 18.3883 12.6987 18.3739C12.7367 18.3595 12.7781 18.3523 12.8161 18.3379C13.5622 18.0821 13.9732 17.5849 13.9732 16.8896C13.9732 16.061 13.348 15.5062 12.2704 15.326H12.2669ZM12.7401 18.2406C12.7021 18.255 12.6641 18.2622 12.6262 18.273C12.5882 18.2874 12.5467 18.2946 12.5087 18.3055C12.2428 18.3703 11.9492 18.4027 11.6452 18.4099C11.6003 18.4135 11.5623 18.4135 11.5174 18.4135H11.3896C10.9855 18.4135 10.6643 18.3991 10.4398 18.3667V15.3729H11.4414C11.6383 15.3729 11.8352 15.3837 12.0183 15.4053C12.0563 15.4089 12.0977 15.4161 12.1322 15.4197L12.2359 15.4341C13.1719 15.589 13.8558 16.043 13.8558 16.886C13.8558 17.6065 13.3929 18.028 12.7332 18.237L12.7401 18.2406ZM13.6727 13.2329C13.6692 13.0275 13.6209 12.8186 13.4896 12.6204C13.4758 12.5844 13.4516 12.552 13.424 12.5196C13.3895 12.534 13.348 12.5484 13.3135 12.5664C13.2789 12.5808 13.2444 12.5952 13.2099 12.6132C13.241 12.6456 13.2617 12.6781 13.2859 12.7105C13.4033 12.8762 13.462 13.0708 13.462 13.3013C13.462 13.3157 13.462 13.323 13.4586 13.3374C13.4586 13.3878 13.4551 13.4382 13.4413 13.4887C13.4793 13.4599 13.5207 13.4382 13.5622 13.4166C13.5967 13.3986 13.6382 13.3806 13.6762 13.3662C13.6796 13.3482 13.6796 13.3266 13.6796 13.3013C13.6796 13.2761 13.6796 13.2617 13.6762 13.2365L13.6727 13.2329ZM13.5345 13.5571C13.4378 13.9462 13.1235 14.2596 12.6192 14.4398C12.5709 14.4578 12.5191 14.4758 12.4673 14.4902C12.4189 14.5046 12.3671 14.519 12.3153 14.5262C12.0873 14.5803 11.8283 14.6091 11.5451 14.6091H10.4467V12.0872C10.6436 12.0512 10.9648 12.0152 11.5209 12.0152C12.2773 12.0152 12.8887 12.1521 13.2375 12.4799C13.272 12.4655 13.3135 12.4475 13.3515 12.4331C13.051 12.1233 12.4914 11.8999 11.5209 11.8999C11.0615 11.8999 10.6919 11.9287 10.4294 11.9719L10.3362 11.99V14.7208H11.5451C11.8007 14.7208 12.039 14.6992 12.26 14.6523C12.3084 14.6487 12.3533 14.6343 12.3947 14.6235C12.4465 14.6091 12.4949 14.5947 12.5433 14.5767C13.1753 14.3857 13.5829 13.9967 13.6658 13.4887C13.6209 13.5031 13.5794 13.5247 13.538 13.5535L13.5345 13.5571Z" fill="#F39411"/>
<path d="M12.1693 14.6116C11.9391 14.6653 11.6774 14.6939 11.3913 14.6939H11.182C11.1646 14.7298 11.1506 14.7656 11.1436 14.8086C11.0773 14.9805 11.025 15.1596 10.9832 15.3458C10.9727 15.3816 10.9657 15.4246 10.9622 15.4604H11.2936C11.4925 15.4604 11.6914 15.4712 11.8763 15.4926C11.9146 15.4962 11.9565 15.5034 11.9914 15.507C11.9914 15.4712 12.0019 15.4353 12.0123 15.3995C12.0647 15.156 12.1449 14.9268 12.2461 14.719C12.267 14.6725 12.2914 14.6295 12.3228 14.5829C12.274 14.5972 12.2217 14.6116 12.1693 14.6187V14.6116ZM14.9219 16.1087C14.9394 16.1445 14.9603 16.1803 14.9743 16.2233C15.058 16.3952 15.1103 16.5922 15.1278 16.8035C15.1313 16.8393 15.1382 16.8752 15.1313 16.9181H16.143V19.2426C15.9162 19.3608 15.4801 19.4503 14.8382 19.4503C14.2626 19.4503 13.7532 19.3286 13.3311 19.0922C13.2822 19.1101 13.2334 19.1244 13.1811 19.1387C12.881 19.2211 12.5496 19.2784 12.1728 19.3214C12.124 19.325 12.0716 19.3321 12.0193 19.3357C12.7485 20.0091 13.6695 20.2849 14.7719 20.2849C15.7976 20.2849 16.6663 20.0198 17.1094 19.8586V16.1123H14.9254L14.9219 16.1087ZM15.0231 16.9146C15.0266 16.8752 15.0231 16.8358 15.0196 16.7999C15.0022 16.585 14.9429 16.3916 14.8557 16.2197C14.8382 16.1803 14.8173 16.1409 14.7929 16.1051H14.601V16.9146H15.0196H15.0231ZM13.0799 18.931C12.881 18.7949 12.7066 18.6301 12.5566 18.4367C12.5287 18.4045 12.5042 18.3723 12.4868 18.3365C12.4484 18.3508 12.4066 18.3579 12.3682 18.3687C12.0995 18.4332 11.803 18.4654 11.496 18.4726C11.4506 18.4761 11.4123 18.4761 11.3669 18.4761C11.3844 18.512 11.4053 18.5478 11.4297 18.5836C11.5413 18.7842 11.6669 18.9597 11.81 19.1208C11.8414 19.1566 11.8763 19.1925 11.9077 19.2247C11.96 19.2247 12.0088 19.2211 12.0577 19.2104C12.424 19.1781 12.7554 19.1244 13.0485 19.0528C13.1008 19.042 13.1531 19.0313 13.202 19.017C13.1566 18.9883 13.1183 18.9632 13.0764 18.931H13.0799ZM11.9146 16.3021C11.9146 16.0621 11.9321 15.8329 11.9705 15.6216C11.9321 15.6108 11.8902 15.6073 11.8553 15.6037C11.6251 15.575 11.4227 15.5714 11.2936 15.5714H10.9413C10.8959 15.8222 10.875 16.08 10.875 16.3487C10.875 17.108 11.0355 17.7992 11.3076 18.3651H11.3111C11.3495 18.3651 11.3913 18.3651 11.4367 18.3615C11.7018 18.3579 12.0019 18.3329 12.2984 18.272C12.3438 18.2612 12.3821 18.2541 12.424 18.2433C12.0926 17.7383 11.9146 17.0865 11.9146 16.3057V16.3021ZM14.9882 12.3229C14.8243 12.3229 14.6638 12.3337 14.5103 12.3408C14.4649 12.3444 14.4265 12.3516 14.3882 12.3587C14.3428 12.3587 14.3009 12.3695 14.2591 12.3731C13.9137 12.4232 13.5927 12.5056 13.2962 12.6166C13.2613 12.6309 13.2194 12.6453 13.1845 12.6632C13.1497 12.6775 13.1148 12.6918 13.0799 12.7097C12.2251 13.093 11.5972 13.7448 11.2343 14.5793H11.3948C11.7088 14.5793 12.0019 14.5435 12.2496 14.4755C12.3054 14.4647 12.3612 14.4468 12.41 14.4289C12.6403 14.0707 12.9438 13.7806 13.3136 13.5765C13.352 13.5478 13.3939 13.5263 13.4357 13.5049C13.4706 13.4869 13.5125 13.469 13.5509 13.4547C13.8579 13.315 14.1928 13.2291 14.5626 13.1897C14.5975 13.1861 14.6393 13.1789 14.6742 13.1789C14.7091 13.1753 14.744 13.1682 14.7859 13.1753C14.8487 13.1646 14.9115 13.1646 14.9708 13.1646C15.7348 13.1646 16.2407 13.315 16.6489 13.5013L16.8861 12.6775C16.5582 12.5127 15.8674 12.3193 14.9917 12.3193L14.9882 12.3229Z" fill="#F39411"/>
<path d="M15.1353 16.802C15.1388 16.8378 15.1457 16.8736 15.1388 16.9166H16.1449V19.2421C15.9194 19.3604 15.4857 19.45 14.8474 19.45C14.2749 19.45 13.7684 19.3281 13.3486 19.0916C13.3001 19.1096 13.2515 19.1239 13.1994 19.1382C13.6539 19.4213 14.2125 19.5646 14.8508 19.5646C15.4372 19.5646 15.9298 19.4822 16.1969 19.346L16.2594 19.3138V16.802H15.1388H15.1353ZM15.0312 16.913C15.0347 16.8736 15.0312 16.8342 15.0278 16.7984H14.9133C14.9237 16.8342 14.9237 16.87 14.9237 16.913H15.0347H15.0312ZM13.0988 18.9304C13.0503 18.9447 13.0017 18.9519 12.9497 18.9662C12.9878 18.9985 13.0294 19.0307 13.0676 19.0522C13.1197 19.0415 13.1717 19.0307 13.2203 19.0164C13.1752 18.9877 13.137 18.9626 13.0954 18.9304H13.0988ZM15.1353 16.802C15.1388 16.8378 15.1457 16.8736 15.1388 16.9166H16.1449V19.2421C15.9194 19.3604 15.4857 19.45 14.8474 19.45C14.2749 19.45 13.7684 19.3281 13.3486 19.0916C13.3001 19.1096 13.2515 19.1239 13.1994 19.1382C13.6539 19.4213 14.2125 19.5646 14.8508 19.5646C15.4372 19.5646 15.9298 19.4822 16.1969 19.346L16.2594 19.3138V16.802H15.1388H15.1353ZM15.0312 16.913C15.0347 16.8736 15.0312 16.8342 15.0278 16.7984H14.9133C14.9237 16.8342 14.9237 16.87 14.9237 16.913H15.0347H15.0312ZM13.0988 18.9304C13.0503 18.9447 13.0017 18.9519 12.9497 18.9662C12.9878 18.9985 13.0294 19.0307 13.0676 19.0522C13.1197 19.0415 13.1717 19.0307 13.2203 19.0164C13.1752 18.9877 13.137 18.9626 13.0954 18.9304H13.0988ZM13.3417 13.423C12.8837 13.663 12.5195 14.0178 12.2697 14.4729C12.3252 14.4621 12.3807 14.4442 12.4293 14.4263C12.6582 14.068 12.9601 13.7777 13.3278 13.5735C13.366 13.5448 13.4076 13.5233 13.4492 13.5018C13.4596 13.466 13.4596 13.4301 13.4596 13.3871V13.3692C13.4215 13.3836 13.3833 13.4015 13.3452 13.423H13.3417ZM15.1353 16.802C15.1388 16.8378 15.1457 16.8736 15.1388 16.9166H16.1449V19.2421C15.9194 19.3604 15.4857 19.45 14.8474 19.45C14.2749 19.45 13.7684 19.3281 13.3486 19.0916C13.3001 19.1096 13.2515 19.1239 13.1994 19.1382C13.6539 19.4213 14.2125 19.5646 14.8508 19.5646C15.4372 19.5646 15.9298 19.4822 16.1969 19.346L16.2594 19.3138V16.802H15.1388H15.1353ZM11.9401 16.3003C11.9401 16.0602 11.9574 15.8309 11.9956 15.6195C11.9574 15.6087 11.9158 15.6052 11.8811 15.6016C11.8464 15.8237 11.8291 16.0566 11.8291 16.3003C11.8291 17.0779 12.006 17.7443 12.3217 18.2675C12.3668 18.2567 12.405 18.2496 12.4466 18.2388C12.117 17.7336 11.9401 17.0814 11.9401 16.3003ZM11.0901 14.6914C11.0762 14.7273 11.0623 14.7631 11.045 14.8061C10.9895 14.9781 10.934 15.1573 10.8958 15.3436C10.8923 15.3794 10.8819 15.4224 10.875 15.4582H11.104C11.1074 15.4188 11.1179 15.3794 11.1248 15.3436C11.1699 15.1573 11.2219 14.9817 11.2878 14.8061C11.3017 14.7703 11.3156 14.7273 11.3364 14.6914H11.0901ZM12.346 14.5732C12.2974 14.5875 12.2454 14.6019 12.1933 14.609C12.1656 14.6484 12.1482 14.695 12.1344 14.738C12.0407 14.9351 11.9713 15.1465 11.9262 15.3758C11.9123 15.4117 11.9054 15.4475 11.8985 15.4905C11.9366 15.4941 11.9782 15.5012 12.0129 15.5048L12.117 15.5192C12.1205 15.4833 12.1309 15.4475 12.1448 15.4117C12.2038 15.1429 12.294 14.8921 12.4188 14.6699C12.4397 14.6198 12.4674 14.5732 12.4986 14.5302C12.4501 14.5481 12.398 14.566 12.346 14.5804V14.5732ZM14.9306 16.1068C14.948 16.1426 14.9688 16.1785 14.9827 16.2215H16.9949V19.776C16.471 19.9624 15.687 20.1702 14.7815 20.1702C13.7025 20.1702 12.8595 19.8979 12.2003 19.321C12.1517 19.3245 12.0997 19.3317 12.0476 19.3353C12.7727 20.0089 13.6886 20.2849 14.7849 20.2849C15.8049 20.2849 16.6688 20.0197 17.1094 19.8584V16.1104H14.9376L14.9306 16.1068ZM16.1969 19.346L16.2594 19.3138V16.802H15.1388C15.1423 16.8378 15.1492 16.8736 15.1423 16.9166H16.1484V19.2421C15.9229 19.3604 15.4892 19.45 14.8508 19.45C14.2784 19.45 13.7719 19.3281 13.3521 19.0916C13.3035 19.1096 13.255 19.1239 13.2029 19.1382C13.6574 19.4213 14.216 19.5646 14.8543 19.5646C15.4406 19.5646 15.9333 19.4822 16.2004 19.346H16.1969ZM15.0312 17.0277C15.0347 17.0098 15.0347 16.9919 15.0347 16.9739C15.0347 16.956 15.0347 16.9345 15.0312 16.913C15.0347 16.8736 15.0312 16.8342 15.0278 16.7984H14.7259V16.2179H14.8682C14.8508 16.1785 14.83 16.1391 14.8057 16.1032C14.7849 16.0638 14.7606 16.0244 14.7364 15.9886H14.5074V17.0241H15.0347L15.0312 17.0277ZM13.2411 18.891C13.0329 18.7584 12.8525 18.59 12.6999 18.4001C12.6686 18.3678 12.6478 18.3356 12.6235 18.3033C12.5854 18.3177 12.5472 18.3248 12.5091 18.3356C12.4709 18.3499 12.4293 18.3571 12.3911 18.3678C12.4084 18.4037 12.4362 18.4359 12.457 18.4682C12.6027 18.6581 12.7658 18.8265 12.9497 18.9698C12.9878 19.0021 13.0294 19.0343 13.0676 19.0558C13.1197 19.0451 13.1717 19.0343 13.2203 19.02C13.2723 19.0021 13.3209 18.9877 13.3694 18.9734C13.3243 18.9519 13.2827 18.9232 13.2376 18.891H13.2411ZM12.0338 19.1741C12.0129 19.1526 11.9956 19.1346 11.9782 19.1096C11.8291 18.9555 11.6972 18.7763 11.5862 18.5828C11.5585 18.547 11.5376 18.5112 11.5238 18.4753C11.4787 18.4789 11.4405 18.4789 11.3954 18.4789H11.267C11.2878 18.5147 11.3052 18.5577 11.326 18.5936C11.437 18.7906 11.5585 18.9698 11.7007 19.1346C11.7285 19.1741 11.7597 19.2063 11.7944 19.2421C11.8429 19.2386 11.888 19.2314 11.9366 19.2278C11.9887 19.2278 12.0372 19.2242 12.0858 19.2135C12.0684 19.2027 12.0546 19.1848 12.0372 19.1741H12.0338ZM11.9401 16.3003C11.9401 16.0602 11.9574 15.8309 11.9956 15.6195C11.9574 15.6087 11.9158 15.6052 11.8811 15.6016C11.8464 15.8237 11.8291 16.0566 11.8291 16.3003C11.8291 17.0779 12.006 17.7443 12.3217 18.2675C12.3668 18.2567 12.405 18.2496 12.4466 18.2388C12.117 17.7336 11.9401 17.0814 11.9401 16.3003ZM11.0138 16.3505C11.0138 16.0781 11.0346 15.8202 11.0797 15.5693H10.9687C10.9236 15.8202 10.9028 16.0781 10.9028 16.3469C10.9028 17.1065 11.0623 17.7981 11.333 18.3642H11.3364C11.3746 18.3642 11.4162 18.3642 11.4613 18.3607C11.1699 17.7873 11.0138 17.0922 11.0138 16.3505ZM14.9966 12.3193C14.8335 12.3193 14.6739 12.3301 14.5213 12.3373C14.4762 12.3408 14.438 12.348 14.3998 12.3552C14.3547 12.3552 14.3131 12.3659 14.2715 12.3695C13.928 12.4197 13.6088 12.5021 13.3139 12.6132C13.2792 12.6275 13.2376 12.6418 13.2029 12.6597C13.1682 12.6741 13.1335 12.6884 13.0988 12.7063C12.2489 13.0897 11.6244 13.7419 11.2636 14.5768H11.3885C11.7493 13.7777 12.3668 13.1578 13.1752 12.7995C13.2099 12.7816 13.2445 12.7672 13.2792 12.7529C13.3139 12.7386 13.3452 12.7242 13.3799 12.7135C13.6782 12.5988 14.0009 12.5164 14.3443 12.4734C14.3825 12.4698 14.4241 12.4627 14.4692 12.4591C14.5074 12.4555 14.5525 12.4483 14.5976 12.4483C14.7294 12.434 14.8647 12.4304 15.0035 12.4304C15.7737 12.4304 16.4086 12.5881 16.7486 12.7386L16.5786 13.3441C16.0929 13.1399 15.5967 13.0503 14.9827 13.0503C14.9168 13.0503 14.8508 13.0503 14.7884 13.0611C14.7502 13.0575 14.7121 13.0611 14.6774 13.0646C14.6392 13.0646 14.6011 13.0682 14.5664 13.0754C14.2021 13.1076 13.8656 13.1901 13.5672 13.3262C13.5325 13.337 13.4978 13.3477 13.4631 13.3728C13.425 13.3871 13.3868 13.4051 13.3486 13.4266C12.8907 13.6666 12.5264 14.0214 12.2766 14.4764C12.3321 14.4657 12.3876 14.4478 12.4362 14.4299C12.6652 14.0715 12.967 13.7813 13.3348 13.577C13.3729 13.5484 13.4145 13.5269 13.4562 13.5054C13.4909 13.4875 13.5325 13.4696 13.5707 13.4552C13.876 13.3155 14.209 13.2295 14.5768 13.1901C14.6115 13.1865 14.6531 13.1793 14.6878 13.1793C14.7225 13.1757 14.7572 13.1686 14.7988 13.1757C14.8613 13.165 14.9237 13.165 14.9827 13.165C15.7425 13.165 16.2455 13.3155 16.6514 13.5018L16.8873 12.6777C16.5612 12.5128 15.8743 12.3193 15.0035 12.3193H14.9966ZM11.9401 16.3003C11.9401 16.0602 11.9574 15.8309 11.9956 15.6195C11.9574 15.6087 11.9158 15.6052 11.8811 15.6016C11.8464 15.8237 11.8291 16.0566 11.8291 16.3003C11.8291 17.0779 12.006 17.7443 12.3217 18.2675C12.3668 18.2567 12.405 18.2496 12.4466 18.2388C12.117 17.7336 11.9401 17.0814 11.9401 16.3003ZM15.1353 16.802C15.1388 16.8378 15.1457 16.8736 15.1388 16.9166H16.1449V19.2421C15.9194 19.3604 15.4857 19.45 14.8474 19.45C14.2749 19.45 13.7684 19.3281 13.3486 19.0916C13.3001 19.1096 13.2515 19.1239 13.1994 19.1382C13.6539 19.4213 14.2125 19.5646 14.8508 19.5646C15.4372 19.5646 15.9298 19.4822 16.1969 19.346L16.2594 19.3138V16.802H15.1388H15.1353ZM15.1353 16.802C15.1388 16.8378 15.1457 16.8736 15.1388 16.9166H16.1449V19.2421C15.9194 19.3604 15.4857 19.45 14.8474 19.45C14.2749 19.45 13.7684 19.3281 13.3486 19.0916C13.3001 19.1096 13.2515 19.1239 13.1994 19.1382C13.6539 19.4213 14.2125 19.5646 14.8508 19.5646C15.4372 19.5646 15.9298 19.4822 16.1969 19.346L16.2594 19.3138V16.802H15.1388H15.1353ZM15.0312 16.913C15.0347 16.8736 15.0312 16.8342 15.0278 16.7984H14.9133C14.9237 16.8342 14.9237 16.87 14.9237 16.913H15.0347H15.0312ZM13.0988 18.9304C13.0503 18.9447 13.0017 18.9519 12.9497 18.9662C12.9878 18.9985 13.0294 19.0307 13.0676 19.0522C13.1197 19.0415 13.1717 19.0307 13.2203 19.0164C13.1752 18.9877 13.137 18.9626 13.0954 18.9304H13.0988ZM15.1353 16.802C15.1388 16.8378 15.1457 16.8736 15.1388 16.9166H16.1449V19.2421C15.9194 19.3604 15.4857 19.45 14.8474 19.45C14.2749 19.45 13.7684 19.3281 13.3486 19.0916C13.3001 19.1096 13.2515 19.1239 13.1994 19.1382C13.6539 19.4213 14.2125 19.5646 14.8508 19.5646C15.4372 19.5646 15.9298 19.4822 16.1969 19.346L16.2594 19.3138V16.802H15.1388H15.1353ZM15.0312 16.913C15.0347 16.8736 15.0312 16.8342 15.0278 16.7984H14.9133C14.9237 16.8342 14.9237 16.87 14.9237 16.913H15.0347H15.0312ZM13.0988 18.9304C13.0503 18.9447 13.0017 18.9519 12.9497 18.9662C12.9878 18.9985 13.0294 19.0307 13.0676 19.0522C13.1197 19.0415 13.1717 19.0307 13.2203 19.0164C13.1752 18.9877 13.137 18.9626 13.0954 18.9304H13.0988Z" fill="#F39411"/>
<g style="mix-blend-mode:soft-light">
<path d="M20.3906 8.64896L4.53326 21.0091C3.98857 20.0886 3.57664 19.0706 3.32812 17.9877L18.028 6.52637C18.9166 7.09673 19.7132 7.81509 20.3906 8.64896Z" fill="white"/>
<path d="M21.7031 11.2153L6.32877 23.5438C5.95567 23.1807 5.60946 22.7847 5.29687 22.3593L20.9771 9.78516C21.2527 10.2362 21.4981 10.7129 21.7031 11.2116V11.2153Z" fill="white"/>
<path d="M22.3594 13.6348L8.04923 24.992L7.26562 24.5043L22.1678 12.6816C22.2465 12.9957 22.308 13.3134 22.3594 13.6348Z" fill="white"/>
</g>
</g>
<defs>
<filter id="filter0_d_34_39545" x="0.56" y="0.198125" width="30.76" height="30.76" filterUnits="userSpaceOnUse" color-interpolation-filters="sRGB">
<feFlood flood-opacity="0" result="BackgroundImageFix"/>
<feColorMatrix in="SourceAlpha" type="matrix" values="0 0 0 0 0 0 0 0 0 0 0 0 0 0 0 0 0 0 127 0" result="hardAlpha"/>
<feOffset dx="2.44"/>
<feGaussianBlur stdDeviation="2.44"/>
<feColorMatrix type="matrix" values="0 0 0 0 0 0 0 0 0 0 0 0 0 0 0 0 0 0 0.65 0"/>
<feBlend mode="normal" in2="BackgroundImageFix" result="effect1_dropShadow_34_39545"/>
<feBlend mode="normal" in="SourceGraphic" in2="effect1_dropShadow_34_39545" result="shape"/>
</filter>
</defs>
</svg>
