<svg width="69" height="69" viewBox="0 0 69 69" fill="none" xmlns="http://www.w3.org/2000/svg">
<path d="M68.9695 33.5149L66.1219 66.8796H51.5811C50.7935 68.1581 49.4606 69 47.9459 69C46.4313 69 45.0984 68.1581 44.3107 66.8796H24.711C23.9234 68.1581 22.5905 69 21.0758 69C19.5612 69 18.2283 68.1581 17.4406 66.8796H2.86958L0.0220103 33.5149C-0.129456 31.5816 0.506706 29.6795 1.74873 28.2451C3.02105 26.8107 4.83864 26 6.71682 26H62.2746C64.1528 26 65.9401 26.8107 67.2427 28.2451C68.5151 29.6795 69.1512 31.5816 68.9695 33.5149Z" fill="#878787"/>
<path d="M68.9693 33.5258L66.1143 66.8765H51.5657C50.776 68.1569 49.4396 69 47.9209 69C46.4023 69 45.0659 68.1569 44.2762 66.8765H24.6553C23.8656 68.1569 22.5292 69 21.0105 69C19.4919 69 18.1555 68.1569 17.3962 66.8765H2.84755L0.0228718 33.5258C-0.128993 31.5897 0.47846 29.6848 1.75412 28.2484C3.02978 26.8119 4.82179 26 6.73528 26H62.3177C64.2008 26 65.9928 26.8119 67.2685 28.2484C68.5137 29.6848 69.1516 31.5897 68.9693 33.5258Z" fill="#8D8D8D"/>
<path d="M68.9693 33.496L66.1384 66.8986H51.5881C50.7967 68.1845 49.4573 69 47.9353 69C46.4133 69 45.1044 68.1532 44.2826 66.8986H24.6792C23.8878 68.1845 22.5485 69 21.0265 69C19.5045 69 18.1956 68.1532 17.4041 66.8986H2.85384L0.022922 33.496C-0.129278 31.5514 0.479524 29.6382 1.758 28.2268C3.03648 26.7841 4.83243 26 6.7197 26H62.2725C64.1598 26 65.9558 26.8155 67.2342 28.2268C68.5127 29.6696 69.1519 31.5828 68.9693 33.496Z" fill="#929292"/>
<path d="M67.9696 33.5124L65.1711 66.894H50.8475C50.0651 68.1827 48.741 69 47.2666 69C45.762 69 44.468 68.1513 43.6856 66.894H24.3668C23.5844 68.1827 22.2604 69 20.7859 69C19.2813 69 17.9874 68.1513 17.205 66.894H2.82118L0.02266 33.5124C-0.127798 31.595 0.474029 29.6776 1.73788 28.2317C3.00173 26.7858 4.77714 26 6.64282 26H61.4096C63.2753 26 65.0206 26.8173 66.2845 28.2317C67.5182 29.6776 68.1502 31.5636 67.9696 33.5124Z" fill="#989898"/>
<path d="M67.9695 33.5029L65.1636 66.8878H50.832C50.0475 68.1488 48.7199 69 47.2415 69C45.7329 69 44.4355 68.1488 43.6511 66.8878H24.311C23.5265 68.1488 22.199 69 20.7205 69C19.212 69 17.9146 68.1488 17.1301 66.8878H2.76835L0.0227201 33.5029C-0.128139 31.5799 0.4753 29.6569 1.74251 28.2383C3.00973 26.8197 4.75968 26 6.63033 26H61.3921C63.2326 26 65.0127 26.8197 66.2799 28.2383C67.5169 29.6569 68.1506 31.5799 67.9695 33.5029Z" fill="#9E9E9E"/>
<path d="M67.9695 33.3137L65.1875 65.9324H50.8543C50.0681 67.1668 48.7678 68 47.2559 68C45.7439 68 44.4437 67.1668 43.6575 65.9324H24.3348C23.5486 67.1668 22.2483 68 20.7364 68C19.2547 68 17.9242 67.1668 17.1682 65.9324H2.83498L0.0227708 33.3446C-0.128423 31.4622 0.476348 29.5797 1.74638 28.191C2.98617 26.8023 4.77027 26 6.64508 26H61.3774C63.222 26 65.0061 26.8023 66.2459 28.191C67.5159 29.5797 68.1509 31.4313 67.9695 33.3137Z" fill="#A4A4A4"/>
<path d="M68.9694 33.3608L66.1775 65.9278H51.8234C51.0344 67.1649 49.7295 68 48.2425 68C46.7555 68 45.4506 67.1959 44.6616 65.9278H25.3307C24.5416 67.1649 23.2367 68 21.7497 68C20.2628 68 18.9578 67.1959 18.1688 65.9278H3.81478L1.02288 33.3608C0.871149 31.4742 1.47808 29.6186 2.7223 28.1959C3.96652 26.8041 5.75698 26 7.60813 26H62.3841C64.2353 26 66.0257 26.8041 67.2699 28.1959C68.5142 29.5876 69.1514 31.4742 68.9694 33.3608Z" fill="#A9A9A9"/>
<path d="M68.9693 33.3461L66.1724 65.9233H51.8535C51.0631 67.1631 49.7559 68 48.2662 68C46.7766 68 45.4693 67.1941 44.6789 65.9233H25.3438C24.5534 67.1631 23.2461 68 21.7565 68C20.2668 68 18.9596 67.1941 18.1691 65.9233H3.81983L1.02292 33.3461C0.870918 31.4554 1.47894 29.5956 2.72539 28.2007C3.97183 26.8059 5.7655 26 7.61996 26H62.3419C64.1964 26 65.9596 26.8059 67.2365 28.2007C68.5133 29.5956 69.1518 31.4554 68.9693 33.3461Z" fill="#AFAFAF"/>
<path d="M68.9693 33.3422L66.1649 65.9467H51.8379C51.0759 67.1911 49.7346 68 48.241 68C46.7473 68 45.4365 67.1911 44.644 65.9467H25.3178C24.5558 67.1911 23.2145 68 21.7209 68C20.2272 68 18.9164 67.1911 18.1544 65.9467H3.8274L1.02299 33.3422C0.870571 31.4444 1.48023 29.5778 2.73003 28.1778C3.97983 26.7778 5.74783 26 7.60729 26H62.324C64.1835 26 65.9515 26.7778 67.2013 28.1778C68.5121 29.6089 69.1522 31.4756 68.9693 33.3422Z" fill="#B5B5B5"/>
<path d="M67.9695 34.3328L65.1977 66.9406H51.0671C50.3139 68.1887 48.9882 69 47.542 69C46.0657 69 44.7701 68.1887 44.0169 66.9406H24.9753C24.2221 68.1887 22.8964 69 21.4502 69C19.9739 69 18.6784 68.1887 17.9251 66.9406H3.7946L1.02272 34.3328C0.872073 32.4606 1.47466 30.5884 2.70995 29.1842C3.94524 27.7801 5.69273 27 7.5306 27H61.4918C63.3297 27 65.0771 27.7801 66.3124 29.1842C67.5176 30.5572 68.1503 32.4294 67.9695 34.3328Z" fill="#BABABA"/>
<path d="M67.9695 34.3492L65.2203 66.936H51.0817C50.3265 68.1869 49.0274 69 47.5471 69C46.0668 69 44.7677 68.1869 44.0124 66.936H24.9496C24.1943 68.1869 22.8952 69 21.4149 69C19.9346 69 18.6355 68.1869 17.8803 66.936H3.74173L1.02278 34.3492C0.871727 32.4728 1.47594 30.5964 2.71457 29.1891C3.95321 27.7818 5.70542 27 7.54827 27H61.5044C63.317 27 65.0692 27.7818 66.3079 29.1891C67.5163 30.5964 68.1507 32.4728 67.9695 34.3492Z" fill="#C0C0C0"/>
<path d="M67.9694 34.3084L65.2141 66.9298H51.1041C50.3471 68.1845 49.0451 69 47.5615 69C46.0778 69 44.8061 68.1845 44.0188 66.9298H24.9734C24.2164 68.1845 22.9145 69 21.4611 69C19.9774 69 18.7057 68.1845 17.9184 66.9298H3.77821L1.02283 34.3398C0.871437 32.4578 1.47702 30.5758 2.71845 29.1957C3.95988 27.8155 5.71606 27 7.53279 27H61.4595C63.2762 27 65.0324 27.7842 66.2738 29.1957C67.5152 30.5758 68.1511 32.4264 67.9694 34.3084Z" fill="#C6C6C6"/>
<path d="M67.9692 34.3508L65.2039 66.9267H51.0731C50.3134 68.1832 49.0067 69 47.548 69C46.0894 69 44.7826 68.1832 44.0229 66.9267H24.9692C24.2095 68.1832 22.9028 69 21.4441 69C19.9551 69 18.6787 68.1832 17.919 66.9267H3.78829L1.02291 34.3508C0.870971 32.466 1.47875 30.6126 2.72468 29.199C3.97062 27.8168 5.70278 27 7.55649 27H61.5268C63.3501 27 65.1127 27.7853 66.3282 29.199C67.5134 30.5812 68.1516 32.466 67.9692 34.3508Z" fill="#CCCCCC"/>
<path d="M67.9771 34.3153L65.2064 66.9189H51.0787C50.3175 68.1802 49.0083 69 47.5468 69C46.0853 69 44.7761 68.1802 44.0149 66.9189H24.9852C24.224 68.1802 22.9148 69 21.4533 69C19.9918 69 18.6825 68.1802 17.9214 66.9189H3.79372L1.02299 34.3153C0.870753 32.4234 1.4797 30.5631 2.6976 29.1757C3.94595 27.7883 5.68146 27 7.50831 27H61.4309C63.2577 27 64.9932 27.7883 66.2416 29.1757C67.5204 30.5631 68.1293 32.4234 67.9771 34.3153Z" fill="#D1D1D1"/>
<path d="M66.9773 34.1626L64.2693 65.9932H50.3382C49.586 67.1973 48.2922 68 46.8479 68C45.4036 68 44.1098 67.1973 43.3576 65.9932H24.5822C23.83 67.1973 22.5362 68 21.122 68C19.6777 68 18.3839 67.1973 17.6317 65.9932H3.73071L1.02272 34.1626C0.872276 32.3102 1.47405 30.4887 2.6776 29.1303C3.88115 27.7718 5.6263 27 7.43162 27H60.5684C62.3737 27 64.0888 27.7718 65.3224 29.1303C66.5259 30.5196 67.1277 32.3411 66.9773 34.1626Z" fill="#D7D7D7"/>
<path d="M66.9763 34.1789L64.2584 65.9887H50.3369C49.582 67.1955 48.3136 68 46.8641 68C45.4146 68 44.1462 67.1955 43.3913 65.9887H24.6078C23.8529 67.1955 22.5845 68 21.135 68C19.6855 68 18.4171 67.1955 17.6622 65.9887H3.74067L1.0228 34.1789C0.87181 32.3532 1.47578 30.5275 2.68372 29.1351C3.89166 27.7736 5.61298 27 7.42489 27H60.6044C62.4163 27 64.1376 27.7736 65.3456 29.1351C66.5535 30.4966 67.1273 32.3223 66.9763 34.1789Z" fill="#DDDDDD"/>
<path d="M66.9763 34.1696L64.2534 65.9826H50.3369C49.5805 67.193 48.3099 68 46.8577 68C45.4055 68 44.1349 67.193 43.3786 65.9826H24.6214C23.8651 67.193 22.5944 68 21.1423 68C19.6901 68 18.4194 67.193 17.6631 65.9826H3.74652L1.0237 34.1696C0.872437 32.3384 1.44725 30.5072 2.68765 29.1416C3.89778 27.7759 5.62223 27 7.43743 27H60.5928C62.408 27 64.1022 27.7759 65.3426 29.1416C66.5527 30.5072 67.1275 32.3384 66.9763 34.1696Z" fill="#E2E2E2"/>
<path d="M66.9763 34.1859L64.2485 65.978H50.3366C49.5789 67.1912 48.3059 68 46.8511 68C45.3963 68 44.1233 67.1912 43.3656 65.978H24.6042C23.8465 67.1912 22.5735 68 21.149 68C19.6941 68 18.4212 67.1912 17.6634 65.978H3.75157L1.02375 34.1859C0.872202 32.3505 1.44808 30.5152 2.69075 29.1464C3.90311 27.7777 5.63072 27 7.41896 27H60.5205C62.3087 27 64.0363 27.7777 65.2487 29.1464C66.552 30.5463 67.1279 32.3505 66.9763 34.1859Z" fill="#E8E8E8"/>
<path d="M67.9761 34.1711L65.2687 65.9734H51.3664C50.6059 67.1894 49.3282 68 47.868 68C46.4078 68 45.1301 67.1894 44.3696 65.9734H25.6C24.8394 67.1894 23.5618 68 22.132 68C20.6718 68 19.3941 67.1894 18.664 65.9734H4.73129L2.02384 34.1711C1.87173 32.3316 2.44973 30.5232 3.69698 29.1513C4.91381 27.7795 6.64779 27 8.44262 27H61.5878C63.3826 27 65.1166 27.7795 66.3334 29.1513C67.5502 30.492 68.1282 32.3316 67.9761 34.1711Z" fill="#EEEEEE"/>
<path d="M67.976 34.1617L65.2598 65.9672H51.343C50.5801 67.1869 49.2982 68 47.8638 68C46.4294 68 45.1171 67.1869 44.3846 65.9672H25.6153C24.8523 67.1869 23.5705 68 22.1361 68C20.6712 68 19.3894 67.1869 18.6569 65.9672H4.74016L2.02395 34.1617C1.87135 32.3166 2.45122 30.5027 3.67198 29.1266C4.89275 27.7818 6.60183 27 8.43299 27H61.5975C63.3981 27 65.1072 27.7818 66.3585 29.1266C67.5487 30.5027 68.1286 32.3166 67.976 34.1617Z" fill="#F4F4F4"/>
<path d="M66.9764 34.1577L64.2964 65.9908H50.5952C49.8424 67.2152 48.6078 68 47.1624 68C45.717 68 44.4823 67.1838 43.7295 65.9908H25.2404C24.4876 67.2152 23.253 68 21.8377 68C20.3923 68 19.1577 67.1838 18.4049 65.9908H4.70365L2.02363 34.1577C1.87307 32.3055 2.4452 30.4847 3.64971 29.1348C4.85421 27.7848 6.54051 27 8.31715 27H60.6227C62.3993 27 64.0856 27.7848 65.2901 29.1348C66.5549 30.5161 67.127 32.3369 66.9764 34.1577Z" fill="#F9F9F9"/>
<path d="M66.9772 34.1742L64.2884 65.9862H50.5726C49.8476 67.2134 48.5787 68 47.1286 68C45.6785 68 44.4398 67.1819 43.6845 65.9862H25.2559C24.5308 67.2134 23.262 68 21.8421 68C20.4222 68 19.1533 67.1819 18.398 65.9862H4.71248L2.02371 34.1742C1.87265 32.3492 2.44666 30.5242 3.65509 29.1397C4.86353 27.7866 6.55534 27 8.33778 27H60.6631C62.4455 27 64.1373 27.7866 65.3458 29.1397C66.524 30.4927 67.1282 32.3177 66.9772 34.1742Z" fill="url(#paint0_linear_89_3576)"/>
<path d="M13 67.8444C13 67.8444 13.6502 67.8444 14.8578 67.8444C15.4462 67.8444 16.2203 67.8444 17.0873 67.8444C17.5208 67.8444 18.0162 67.8444 18.5116 67.8444C18.7593 67.8444 19.038 67.8444 19.2857 67.8444C19.4096 67.8444 19.5644 67.8444 19.6883 67.8444C19.905 67.8133 20.1217 67.8133 20.3385 67.7822C21.2055 67.5955 22.0415 67.0043 22.475 66.1331C22.5989 65.9153 22.6608 65.6664 22.7227 65.4174C22.7537 65.2307 22.7847 65.1063 22.8156 64.9196C22.8776 64.6084 22.9395 64.2662 23.0014 63.9239C23.2491 62.5859 23.4968 61.1235 23.7755 59.5677C24.3329 56.4562 24.9212 52.9402 25.6024 49.0819C26.2836 45.2547 26.9958 41.0852 27.7699 36.6979C28.1724 34.4888 28.575 32.2484 28.9775 29.9459C29.1942 28.7946 29.38 27.6123 29.5968 26.461C29.7206 25.8698 29.8135 25.2786 29.9064 24.6874C29.9683 24.4074 29.9993 24.0962 30.0612 23.7228C30.1232 23.3806 30.1541 23.0383 30.1541 22.6649C30.1851 21.2336 29.7826 19.8023 29.0394 18.5577C28.8536 18.2465 28.6369 17.9354 28.4201 17.6865C28.1724 17.4064 27.9557 17.1264 27.677 16.9086C27.0887 16.3796 26.7171 16.1307 26.2836 15.7262C24.6425 14.2015 23.7445 12.0235 24.1471 9.90762C24.5186 7.79177 26.1597 5.92485 28.1724 4.77358C30.1851 3.56008 32.6313 3.03112 35.0155 3C37.4307 3.03112 39.8459 3.56008 41.8585 4.77358C43.8712 5.95596 45.5123 7.79177 45.8839 9.90762C46.3174 12.0235 45.3885 14.2327 43.7474 15.7262C43.3139 16.1307 42.9423 16.3796 42.354 16.9086C42.0753 17.1264 41.8276 17.4064 41.6108 17.6865C41.3631 17.9665 41.1773 18.2776 40.9916 18.5577C40.2484 19.8023 39.8459 21.2336 39.8459 22.6649C39.8149 23.0383 39.9078 23.3806 39.9388 23.7228C40.0007 24.0962 40.0317 24.3763 40.0936 24.6874C40.2174 25.2786 40.3103 25.8698 40.4032 26.461C40.589 27.6434 40.8058 28.7946 41.0225 29.9459C41.425 32.2484 41.8276 34.5199 42.2301 36.6979C42.9733 41.0852 43.7164 45.2547 44.3976 49.0819C45.0479 52.9091 45.6981 56.4251 46.2245 59.5677C46.5032 61.1235 46.7509 62.5859 46.9676 63.9239C47.0296 64.2662 47.0915 64.6084 47.1534 64.9196C47.1844 65.0752 47.2153 65.2307 47.2463 65.4174C47.3082 65.6664 47.4011 65.9153 47.494 66.1331C47.9275 67.0354 48.7636 67.5955 49.6305 67.7822C49.8473 67.8444 50.064 67.8444 50.2808 67.8444C50.4356 67.8444 50.5595 67.8444 50.7143 67.8444C50.962 67.8444 51.2407 67.8444 51.4884 67.8444C51.9838 67.8444 52.4792 67.8444 52.9127 67.8444C53.7797 67.8444 54.5538 67.8444 55.1422 67.8444C56.3498 67.8444 57 67.8444 57 67.8444V67.9689C57 67.9689 56.3498 67.9689 55.1422 67.9689C54.5538 67.9689 53.7797 67.9689 52.9127 67.9689C52.4792 67.9689 51.9838 67.9689 51.4884 67.9689C51.2407 67.9689 50.962 67.9689 50.7143 67.9689C50.5595 67.9689 50.4356 67.9689 50.2808 67.9689C50.064 67.9378 49.8163 67.9378 49.6305 67.9067C48.7326 67.72 47.8346 67.0977 47.4011 66.1953C47.2773 65.9775 47.2153 65.6975 47.1534 65.4485C47.0915 65.2619 47.0915 65.1374 47.0605 64.9507C46.9986 64.6395 46.9367 64.2973 46.8747 63.955C46.627 62.617 46.3793 61.1546 46.1316 59.5989C45.5742 56.4873 44.955 52.9713 44.2737 49.113C43.5925 45.2858 42.8804 41.1163 42.1063 36.7291C41.7347 34.5199 41.3322 32.2796 40.8987 29.977C40.7129 28.8258 40.4961 27.6745 40.2794 26.461C40.1865 25.8698 40.0626 25.2786 39.9697 24.6874L39.8769 24.2518L39.7839 23.7228C39.722 23.3806 39.6911 23.0383 39.6911 22.6649C39.6601 21.2025 40.0936 19.7401 40.8367 18.4955C41.0535 18.1843 41.2393 17.8731 41.487 17.5931C41.7347 17.3131 41.9824 17.033 42.2611 16.7841C42.8804 16.224 43.2519 15.9751 43.6545 15.5706C45.2646 14.0771 46.1626 11.9612 45.76 9.8765C45.3885 7.82288 43.8093 5.98708 41.7966 4.83581C39.7839 3.65343 37.3688 3.12446 35.0155 3.09335C32.6313 3.12446 30.216 3.65343 28.2343 4.83581C26.2217 5.98708 24.6425 7.82288 24.2709 9.8765C23.8684 11.9612 24.7664 14.0771 26.3765 15.5706C26.779 15.9751 27.1506 16.224 27.7699 16.7841C28.0486 17.0019 28.2963 17.3131 28.513 17.5931C28.7607 17.8731 28.9775 18.1843 29.1633 18.4955C29.9374 19.7401 30.3399 21.2336 30.3399 22.6649C30.3709 23.0383 30.3089 23.3806 30.247 23.7228L30.1541 24.2518L30.0612 24.6874C29.9374 25.2786 29.8445 25.8698 29.7516 26.461C29.5348 27.6434 29.3181 28.8258 29.1323 29.977C28.7298 32.2796 28.3272 34.551 27.9557 36.7291C27.1816 41.1163 26.4384 45.2858 25.7572 49.113C25.107 52.9402 24.4567 56.4562 23.9303 59.5989C23.6517 61.1546 23.4039 62.617 23.1872 63.955C23.1253 64.2973 23.0633 64.6084 23.0014 64.9507C22.9705 65.1374 22.9395 65.2619 22.9085 65.4485C22.8466 65.6975 22.7537 65.9775 22.6298 66.1953C22.1654 67.1288 21.2984 67.72 20.4004 67.9378C20.1837 68 19.936 68 19.7192 68C19.5954 68 19.4405 68 19.3167 68C19.069 68 18.7903 68 18.5426 68C18.0472 68 17.5517 68 17.1182 68C16.2512 68 15.4771 68 14.8888 68C13.6503 68 13.031 68 13.031 68L13 67.8444Z" fill="#A39D9D"/>
<path d="M13 67.8423C13 67.8423 13.6493 67.8423 14.8552 67.8423C15.4427 67.8423 16.2157 67.8423 17.0815 67.8423C17.5144 67.8423 18.0091 67.8423 18.5039 67.8423C18.7512 67.8423 19.0295 67.8423 19.2769 67.8423C19.4006 67.8423 19.5552 67.8423 19.6789 67.8423C19.8953 67.8107 20.1117 67.8107 20.2973 67.7792C21.1321 67.5899 21.9361 67.022 22.338 66.1702C22.4617 65.9493 22.5235 65.7285 22.5854 65.4761C22.6472 65.2868 22.6472 65.1606 22.6782 64.9713C22.74 64.6558 22.8018 64.3088 22.8637 63.9618C23.111 62.6052 23.3584 61.1224 23.6367 59.5134C24.1933 56.3585 24.8117 52.7935 25.461 48.913C26.1413 45.0325 26.8524 40.805 27.6254 36.3566C27.9965 34.1166 28.4294 31.8451 28.8313 29.5105C29.0169 28.3432 29.2333 27.1444 29.4498 25.9455C29.5425 25.3461 29.6662 24.7467 29.759 24.1472C29.8208 23.8633 29.8826 23.5478 29.9136 23.1692C29.9754 22.8222 30.0063 22.4751 30.0063 22.1281C30.0372 20.7084 29.6353 19.2572 28.8932 18.0583C28.7077 17.7428 28.5221 17.4273 28.2748 17.175C28.0583 16.891 27.811 16.6071 27.5327 16.3862C26.9452 15.8499 26.5741 15.566 26.1412 15.1558C25.3064 14.3671 24.6571 13.4207 24.286 12.3795C23.884 11.3384 23.7913 10.2027 23.9768 9.09847C24.3788 6.89006 26.0176 4.99713 28.0583 3.79828C30.13 2.56788 32.5727 2.03155 34.9845 2C37.3963 2.03155 39.8391 2.56788 41.8798 3.79828C43.9206 4.99713 45.5594 6.92161 45.9613 9.09847C46.1778 10.2027 46.0541 11.3384 45.6831 12.3795C45.312 13.4207 44.6318 14.3671 43.8278 15.1558C43.3949 15.566 42.993 15.8499 42.4364 16.3862C42.1581 16.6071 41.9417 16.891 41.6943 17.175C41.4469 17.4273 41.2614 17.7428 41.0759 18.0583C40.3338 19.2887 39.9627 20.7084 39.9627 22.1281C39.9318 22.4751 39.9937 22.8222 40.0555 23.1692C40.1173 23.5163 40.1483 23.8317 40.2101 24.1157C40.3029 24.7151 40.4266 25.3145 40.5193 25.914C40.7358 27.1128 40.9522 28.2801 41.1377 29.479C41.5397 31.8136 41.9417 34.1166 42.3436 36.325C43.1167 40.7734 43.8278 45.001 44.5081 48.8814C45.1883 52.7619 45.8068 56.327 46.3324 59.5134C46.6107 61.0908 46.8581 62.5736 47.1054 63.9302C47.1673 64.2772 47.2291 64.5927 47.2909 64.9398C47.3219 65.0975 47.3528 65.2553 47.3837 65.4445C47.4765 65.6969 47.5074 65.9178 47.631 66.1386C48.033 66.9904 48.837 67.5583 49.6718 67.7476C49.8883 67.8107 50.1047 67.8107 50.2902 67.8107C50.4448 67.8107 50.5685 67.8107 50.7231 67.8107C50.9705 67.8107 51.2488 67.8107 51.4961 67.8107C51.9909 67.8107 52.4856 67.8107 52.9185 67.8107C53.7843 67.8107 54.5573 67.8107 55.1448 67.8107C56.3507 67.8107 57 67.8107 57 67.8107V67.9684C57 67.9684 56.3507 67.9684 55.1448 67.9684C54.5573 67.9684 53.7843 67.9684 52.9185 67.9684C52.4856 67.9684 51.9909 67.9684 51.4961 67.9684C51.2488 67.9684 50.9705 67.9684 50.7231 67.9684C50.5685 67.9684 50.4448 67.9684 50.2902 67.9684C50.0738 67.9369 49.8573 67.9369 49.6409 67.8738C48.7751 67.6845 47.9403 67.1166 47.5074 66.1702C47.3837 65.9493 47.3218 65.6969 47.2291 65.4445C47.1982 65.2553 47.1672 65.0975 47.1363 64.9398C47.0745 64.6243 47.0127 64.2772 46.9508 63.9302C46.7034 62.5736 46.4561 61.0908 46.1778 59.4818C45.6212 56.327 45.0028 52.7619 44.3535 48.8814C43.6732 45.001 42.962 40.7734 42.189 36.325C41.818 34.0851 41.3851 31.8136 40.9831 29.479C40.7976 28.3117 40.5812 27.1128 40.3647 25.914C40.272 25.3145 40.1483 24.7151 40.0555 24.1157C39.9937 23.8317 39.9318 23.5163 39.9009 23.1692C39.8391 22.8222 39.8081 22.4751 39.8081 22.0966C39.7772 20.6453 40.1792 19.1941 40.9213 17.9321C41.1068 17.6166 41.2923 17.3011 41.5706 17.0172C41.7871 16.7333 42.0344 16.4493 42.3127 16.2285C42.9002 15.6922 43.2713 15.4082 43.7042 14.9981C45.3429 13.4837 46.2396 11.2753 45.8067 9.13002C45.4357 6.98471 43.8278 5.09178 41.818 3.92448C39.8081 2.69407 37.3963 2.15775 34.9845 2.1262C32.5727 2.15775 30.1609 2.69407 28.1511 3.92448C26.1412 5.09178 24.5025 6.98471 24.1314 9.13002C23.7294 11.2753 24.6261 13.4837 26.2649 14.9981C26.6978 15.4082 27.0689 15.6606 27.6564 16.2285C27.9346 16.4493 28.182 16.7333 28.3985 17.0172C28.6458 17.3011 28.8314 17.6166 29.0169 17.9321C29.7899 19.1941 30.1918 20.6453 30.1609 22.0966C30.1918 22.4751 30.13 22.8222 30.0682 23.1692C30.0063 23.5478 29.9445 23.8633 29.9136 24.1472C29.8208 24.7467 29.6971 25.3461 29.6044 25.9455C29.3879 27.1444 29.1715 28.3432 28.9859 29.479C28.5531 31.8136 28.182 34.1166 27.7801 36.3566C27.007 40.805 26.2649 45.0325 25.6156 48.913C24.9354 52.7935 24.3169 56.3585 23.7604 59.5134C23.4821 61.0908 23.2347 62.5736 23.0183 63.9618C22.9564 64.3088 22.8946 64.6243 22.8328 64.9713C22.8018 65.1291 22.7709 65.2868 22.74 65.4761C22.6781 65.7285 22.6163 65.9809 22.4926 66.2017C22.0597 67.1166 21.2249 67.7161 20.3591 67.9054C20.1427 67.9685 19.9262 67.9684 19.7098 68C19.5861 68 19.4315 68 19.3078 68C19.0604 68 18.7822 68 18.5348 68C18.0401 68 17.5453 68 17.1125 68C16.2467 68 15.4737 68 14.8862 68C13.6493 68 13.0309 68 13.0309 68L13 67.8423Z" fill="#746A6B"/>
<path d="M13 66.8134C13 66.8134 13.6489 66.8134 14.8539 66.8134C15.441 66.8134 16.2135 66.8134 17.0787 66.8134C17.5112 66.8134 18.0056 66.8134 18.5 66.8134C18.7472 66.8134 19.0253 66.8134 19.2725 66.8134C19.3961 66.8134 19.5506 66.8134 19.6742 66.8134C19.8596 66.7823 20.0758 66.7823 20.2612 66.7512C21.0646 66.5957 21.8371 66.067 22.2388 65.2273C22.3315 65.0407 22.3933 64.7919 22.4551 64.5742C22.5169 64.3876 22.5169 64.2632 22.5478 64.0766C22.6096 63.7656 22.6713 63.4234 22.7331 63.0813C22.9494 61.744 23.2275 60.2823 23.4747 58.7273C24.0309 55.6172 24.6489 52.1029 25.3287 48.2464C25.9775 44.421 26.7191 40.2536 27.4916 35.8684C27.8933 33.6603 28.264 31.4211 28.6657 29.1196C28.882 27.9689 29.0983 26.7871 29.2837 25.6364C29.3764 25.0455 29.5 24.4545 29.5927 23.8636C29.6545 23.5837 29.7163 23.2727 29.7472 22.9306C29.809 22.5885 29.8708 22.2775 29.8399 21.9043C29.8708 20.5359 29.5 19.1364 28.7584 17.9545C28.573 17.6435 28.3876 17.3636 28.1404 17.1148C27.8933 16.8349 27.677 16.5861 27.3989 16.3684C26.8427 15.8708 26.441 15.5909 26.0084 15.1555C25.1742 14.3469 24.5253 13.4139 24.1236 12.3876C23.7219 11.3301 23.6292 10.2105 23.8146 9.12201C24.2163 6.88277 25.8848 4.98564 27.9551 3.80382C30.0253 2.5598 32.4663 2.0311 34.9382 2C37.3792 2.0311 39.8511 2.5598 41.9214 3.80382C43.9916 4.98564 45.6601 6.88277 46.0618 9.12201C46.2472 10.2105 46.1545 11.3612 45.7528 12.3876C45.3511 13.445 44.6714 14.378 43.868 15.1555C43.4354 15.5598 43.0337 15.8397 42.4775 16.3684C42.1994 16.5861 41.9832 16.866 41.7669 17.1148C41.5197 17.3636 41.3343 17.6746 41.1489 17.9545C40.4382 19.1364 40.0365 20.5359 40.0674 21.9043C40.0365 22.2464 40.0983 22.5885 40.1601 22.9306C40.2219 23.2727 40.2837 23.5837 40.3146 23.8636C40.4073 24.4545 40.5309 25.0455 40.6236 25.6364C40.8399 26.8182 41.0562 27.9689 41.2416 29.1196C41.6433 31.4211 42.045 33.6914 42.4466 35.8684C43.2191 40.2536 43.9298 44.421 44.6096 48.2464C45.2893 52.0718 45.9073 55.5861 46.4326 58.7273C46.7107 60.2823 46.9579 61.744 47.2051 63.0813C47.2669 63.4234 47.3287 63.7345 47.3905 64.0766C47.4214 64.2321 47.4523 64.3876 47.4832 64.5742C47.5758 64.7919 47.6067 65.0407 47.7303 65.2273C48.132 66.0359 48.9045 66.5646 49.7079 66.7512C49.8933 66.8134 50.1095 66.8134 50.2949 66.8134C50.4494 66.8134 50.573 66.8134 50.7275 66.8134C50.9747 66.8134 51.2528 66.8134 51.5 66.8134C51.9944 66.8134 52.4888 66.8134 52.9213 66.8134C53.7865 66.8134 54.559 66.8134 55.1461 66.8134C56.3511 66.8134 57 66.8134 57 66.8134V67C57 67 56.3511 67 55.1461 67C54.559 67 53.7865 67 52.9213 67C52.4888 67 51.9944 67 51.5 67C51.2528 67 50.9747 67 50.7275 67C50.573 67 50.4494 67 50.2949 67C50.1095 66.9689 49.8624 66.9689 49.677 66.9378C48.8427 66.7512 48.0393 66.1914 47.6067 65.3206C47.4831 65.1029 47.4213 64.8541 47.3595 64.6364C47.3287 64.4498 47.2978 64.2943 47.2669 64.1388C47.2051 63.8277 47.1433 63.4856 47.1124 63.1435C46.8652 61.8062 46.618 60.3445 46.3399 58.7895C45.7837 55.6794 45.1657 52.1651 44.5168 48.3086C43.8371 44.4833 43.1264 40.3158 42.3539 35.9306C41.9831 33.7225 41.5506 31.4833 41.1489 29.1818C40.9326 28.0311 40.7472 26.8493 40.5309 25.6986C40.4073 25.1077 40.3146 24.5167 40.2219 23.9258C40.1601 23.6459 40.1292 23.3349 40.0674 22.9928C40.0056 22.6507 39.9747 22.3086 39.9747 21.9354C39.9438 20.5359 40.3455 19.1053 41.0871 17.8923C41.2725 17.5813 41.4579 17.2703 41.7051 17.0215C41.9523 16.7416 42.1686 16.4617 42.4466 16.244C43.0337 15.7153 43.4354 15.4665 43.8371 15.0311C44.6405 14.2536 45.2893 13.3517 45.691 12.3254C46.0618 11.299 46.1854 10.2105 45.9691 9.12201C45.5983 6.97607 43.9607 5.11005 41.9214 3.92823C39.882 2.71531 37.441 2.1866 35.0309 2.1555C32.6208 2.1866 30.1798 2.71531 28.1404 3.92823C26.1011 5.11005 24.4635 6.97607 24.0927 9.12201C23.9073 10.1794 24 11.299 24.4017 12.3254C24.7725 13.3517 25.4523 14.2536 26.2556 15.0311C26.6882 15.4354 27.059 15.7153 27.6461 16.244C27.9242 16.4617 28.1714 16.7416 28.3877 17.0215C28.6348 17.2703 28.8202 17.5813 29.0056 17.8923C29.7472 19.1053 30.118 20.5359 30.118 21.9354C30.1489 22.2775 30.0871 22.6196 30.0253 22.9617C29.9635 23.3349 29.9326 23.6148 29.8708 23.9258C29.7781 24.5167 29.6545 25.1077 29.5618 25.6986C29.3455 26.8804 29.1292 28.0311 28.9438 29.1818C28.5421 31.4833 28.1405 33.7536 27.7388 35.9306C26.9663 40.3158 26.2556 44.4833 25.5758 48.3086C24.8961 52.134 24.2781 55.6483 23.7528 58.7895C23.4747 60.3445 23.2275 61.8062 22.9804 63.1435C22.9186 63.4856 22.8567 63.7966 22.7949 64.1388C22.764 64.2943 22.7332 64.4498 22.7023 64.6364C22.6096 64.8852 22.5478 65.134 22.4551 65.3206C22.0225 66.1914 21.2191 66.7512 20.3848 66.9378C20.1685 67 19.9523 67 19.7669 67C19.6433 67 19.4888 67 19.3652 67C19.118 67 18.8399 67 18.5927 67C18.0983 67 17.6039 67 17.1713 67C16.3062 67 15.5337 67 14.9466 67C13.7107 67 13.0927 67 13.0927 67V66.8134H13Z" fill="#746A6B"/>
<path d="M13.0927 67.748C13.0927 67.748 13.7416 67.748 14.9466 67.748C15.5337 67.748 16.3062 67.748 17.1713 67.748C17.6039 67.748 18.0983 67.748 18.5927 67.748C18.8399 67.748 19.118 67.748 19.3652 67.748C19.4888 67.748 19.6433 67.748 19.7669 67.748C19.9523 67.7165 20.1376 67.7165 20.323 67.685C21.0646 67.5274 21.7753 67.0234 22.1152 66.2673C22.2388 66.0783 22.2697 65.8893 22.3315 65.6687C22.3624 65.4797 22.3933 65.3537 22.4242 65.1647C22.486 64.8496 22.5478 64.5031 22.5787 64.1566C22.8258 62.8019 23.073 61.3212 23.3511 59.7146C23.9073 56.5642 24.4944 53.0043 25.1742 49.1294C25.8539 45.2544 26.5646 41.0329 27.3371 36.5909C27.7388 34.3542 28.1404 32.0859 28.5421 29.7547C28.7584 28.589 28.9747 27.3919 29.1601 26.2263C29.2837 25.6277 29.3764 25.0291 29.4691 24.4305C29.5309 24.147 29.5618 23.832 29.6236 23.4854C29.6854 23.1389 29.7163 22.8239 29.7163 22.4773C29.7472 21.1227 29.3764 19.768 28.6657 18.5709C28.4803 18.2873 28.3258 17.9723 28.0786 17.7203C27.8624 17.4683 27.6461 17.1847 27.368 16.9642C26.8427 16.4601 26.4101 16.1766 25.9775 15.7356C25.1433 14.9165 24.4635 13.9399 24.0309 12.8372C23.5983 11.7346 23.5056 10.5375 23.7219 9.40334C24.1236 7.07208 25.8539 5.08735 27.9551 3.85871C30.0562 2.59857 32.559 2.0315 35.0309 2C37.5028 2.0315 40.0056 2.56706 42.1067 3.85871C44.2079 5.08735 45.9073 7.07208 46.3399 9.40334C46.5562 10.569 46.4326 11.7661 46.0309 12.8372C45.6292 13.9399 44.9494 14.9165 44.0843 15.7356C43.6517 16.1766 43.2191 16.4601 42.6938 16.9642C42.4466 17.1847 42.1994 17.4368 41.9831 17.7203C41.7668 17.9723 41.5815 18.2558 41.3961 18.5709C40.6854 19.7365 40.3146 21.1227 40.3455 22.4773C40.3146 22.8239 40.3764 23.1389 40.4382 23.4854C40.4691 23.832 40.5309 24.1155 40.5927 24.4305C40.7163 25.0291 40.809 25.6277 40.9017 26.2263C41.118 27.4234 41.3343 28.589 41.5197 29.7547C41.9213 32.0859 42.323 34.3857 42.6938 36.5909C43.4663 41.0329 44.2079 45.2544 44.8567 49.1294C45.5365 53.0043 46.1545 56.5642 46.7107 59.7461C46.9888 61.3212 47.236 62.8019 47.4522 64.1566C47.514 64.5031 47.5758 64.8181 47.6376 65.1647C47.6685 65.3222 47.6994 65.4797 47.7303 65.6687C47.7921 65.8893 47.8539 66.1098 47.9466 66.2988C48.3174 67.0549 49.0281 67.5589 49.7388 67.7165C49.9242 67.7795 50.1095 67.7795 50.2949 67.7795C50.4494 67.7795 50.573 67.7795 50.7275 67.7795C50.9747 67.7795 51.2528 67.7795 51.5 67.7795C51.9944 67.7795 52.4888 67.7795 52.9213 67.7795C53.7865 67.7795 54.559 67.7795 55.1461 67.7795C56.3511 67.7795 57 67.7795 57 67.7795V68C57 68 56.3511 68 55.1461 68C54.559 68 53.7865 68 52.9213 68C52.4888 68 51.9944 68 51.5 68C51.2528 68 50.9747 68 50.7275 68C50.573 68 50.4494 68 50.2949 68C50.1095 67.9685 49.9241 67.9685 49.7079 67.937C48.9045 67.7795 48.132 67.2439 47.7303 66.3933C47.6067 66.2043 47.5758 65.9523 47.4832 65.7317C47.4523 65.5427 47.4213 65.4167 47.3904 65.2277C47.3286 64.9126 47.2669 64.5661 47.2051 64.2196C46.9579 62.8649 46.7107 61.3842 46.4326 59.8091C45.8764 56.6587 45.2584 53.0988 44.6095 49.1924C43.9298 45.3174 43.2191 41.0959 42.4466 36.6539C42.0758 34.4172 41.6433 32.1489 41.2416 29.8177C41.0562 28.652 40.8399 27.4549 40.6236 26.2893C40.5309 25.6907 40.4073 25.0921 40.3146 24.4936C40.2528 24.21 40.191 23.895 40.1601 23.5484C40.0983 23.2019 40.0674 22.8554 40.0674 22.5088C40.0365 21.1227 40.4382 19.705 41.1489 18.5079C41.3343 18.2243 41.5197 17.9093 41.7669 17.6573C41.9832 17.3737 42.2303 17.1217 42.4775 16.9012C43.0337 16.3971 43.4663 16.1136 43.868 15.6726C44.7023 14.8535 45.3511 13.9084 45.7528 12.8687C46.1236 11.8291 46.2472 10.6635 46.0618 9.56086C45.6601 7.2926 43.9916 5.37088 41.9214 4.17375C39.8511 2.9136 37.3792 2.37804 34.9382 2.34654C32.4972 2.37804 30.0253 2.9136 27.9551 4.17375C25.8848 5.37088 24.2163 7.2926 23.8146 9.56086C23.6292 10.6635 23.7219 11.8291 24.1236 12.8687C24.5253 13.9399 25.2051 14.885 26.0084 15.6726C26.441 16.0821 26.8427 16.3656 27.3989 16.9012C27.677 17.1217 27.8933 17.4052 28.1404 17.6573C28.3876 17.9093 28.573 18.2243 28.7584 18.5079C29.4691 19.705 29.8708 21.1227 29.8399 22.5088C29.8708 22.8554 29.809 23.2019 29.7472 23.5484C29.7163 23.895 29.6545 24.21 29.5927 24.4936C29.5 25.0921 29.3764 25.6907 29.2837 26.2893C29.0674 27.4864 28.8511 28.652 28.6657 29.8177C28.264 32.1489 27.8624 34.4487 27.4916 36.6539C26.7191 41.0959 25.9775 45.3174 25.3287 49.1924C24.6489 53.0673 24.0309 56.6272 23.4747 59.8091C23.1966 61.3842 22.9494 62.8649 22.7331 64.2196C22.6713 64.5661 22.6096 64.8811 22.5478 65.2277C22.5169 65.3852 22.486 65.5427 22.4551 65.7317C22.3933 65.9523 22.3315 66.2043 22.2388 66.3933C21.8371 67.2439 21.0646 67.7795 20.2612 67.937C20.0758 68 19.8596 68 19.6742 68C19.5506 68 19.3961 68 19.2725 68C19.0253 68 18.7472 68 18.5 68C18.0056 68 17.5112 68 17.0787 68C16.2135 68 15.441 68 14.8539 68C13.618 68 13 68 13 68V67.748H13.0927Z" fill="#B7B1B1"/>
<path d="M13 67.7792C13 67.7792 13.6484 67.7792 14.8526 67.7792C15.4393 67.7792 16.2112 67.7792 17.0758 67.7792C17.5081 67.7792 18.0021 67.7792 18.4962 67.7792C18.7432 67.7792 19.0211 67.7792 19.2681 67.7792C19.3916 67.7792 19.546 67.7792 19.6695 67.7792C19.8547 67.7476 20.0091 67.7476 20.1944 67.7161C20.8737 67.5583 21.553 67.0851 21.8926 66.3595C21.9853 66.2017 22.047 65.9809 22.0779 65.7916C22.1397 65.6338 22.1397 65.4761 22.1705 65.2868C22.2323 64.9713 22.2941 64.6243 22.3558 64.2772C22.5719 62.9206 22.8498 61.4379 23.0968 59.8604C23.6526 56.7055 24.2702 53.1405 24.9495 49.2285C25.5979 45.348 26.339 41.1205 27.1109 36.6721C27.4814 34.4321 27.8828 32.1606 28.3151 29.826C28.5004 28.6587 28.7165 27.4914 28.9326 26.2925C29.0253 25.6931 29.1488 25.0937 29.2414 24.4943C29.3032 24.2103 29.3649 23.8948 29.3958 23.5478C29.4576 23.2323 29.4884 22.8853 29.4884 22.5698C29.5193 21.2447 29.1488 19.8881 28.4695 18.7524C28.2842 18.4685 28.1298 18.1845 27.8828 17.9321C27.6667 17.6797 27.4505 17.4273 27.2035 17.2065C26.6786 16.7333 26.2463 16.4178 25.814 15.9761C24.9495 15.1558 24.2393 14.1463 23.8379 13.0421C23.4056 11.9379 23.313 10.7075 23.5291 9.5086C23.9614 7.1109 25.7214 5.09178 27.8519 3.86138C29.9825 2.56788 32.5144 2 34.9846 2C37.4856 2.03155 40.0176 2.59943 42.1172 3.86138C44.2477 5.09178 46.0077 7.1109 46.44 9.5086C46.6562 10.6759 46.5326 11.9063 46.1004 13.0421C45.6681 14.1463 44.9888 15.1558 44.1242 15.9761C43.6919 16.4178 43.2597 16.7333 42.7348 17.2065C42.4877 17.4273 42.2716 17.6797 42.0555 17.9321C41.8393 18.1845 41.654 18.4685 41.4688 18.7524C40.7895 19.8881 40.419 21.2447 40.4498 22.5698C40.419 22.8853 40.4807 23.2323 40.5425 23.5478C40.5733 23.8948 40.6351 24.1788 40.6968 24.4943C40.7895 25.0937 40.913 25.6931 41.0056 26.2925C41.2218 27.4914 41.4379 28.6903 41.6232 29.826C42.0246 32.1606 42.426 34.4637 42.8274 36.7036C43.5993 41.152 44.3095 45.3795 44.9888 49.26C45.6681 53.1405 46.2856 56.7055 46.8105 59.892C47.0884 61.4694 47.3354 62.9522 47.5825 64.3088C47.6442 64.6558 47.706 65.0029 47.7677 65.3184C47.7986 65.4761 47.8295 65.6338 47.8604 65.8231C47.9221 66.0124 47.9839 66.2333 48.0765 66.391C48.4162 67.1166 49.0955 67.5899 49.7747 67.7476C49.96 67.7792 50.1144 67.7792 50.2997 67.8107C50.4541 67.8107 50.5775 67.8107 50.7319 67.8107C50.979 67.8107 51.2568 67.8107 51.5039 67.8107C51.9979 67.8107 52.4919 67.8107 52.9242 67.8107C53.7888 67.8107 54.5607 67.8107 55.1474 67.8107C56.3516 67.8107 57 67.8107 57 67.8107V68C57 68 56.3516 68 55.1474 68C54.5607 68 53.7888 68 52.9242 68C52.4919 68 51.9979 68 51.5039 68C51.2568 68 50.979 68 50.7319 68C50.5775 68 50.4541 68 50.2997 68C50.1144 67.9685 49.9291 67.9684 49.7439 67.9369C49.0028 67.7792 48.2926 67.2744 47.9221 66.4857C47.7986 66.2964 47.7677 66.0755 47.706 65.8547C47.6442 65.6654 47.6442 65.5392 47.6133 65.3499C47.5516 65.0344 47.4898 64.6874 47.4281 64.3403C47.2119 62.9837 46.934 61.501 46.687 59.9235C46.1312 56.7686 45.5137 53.2036 44.8653 49.2916C44.186 45.4111 43.4449 41.1836 42.673 36.7352C42.3025 34.4952 41.9011 32.2237 41.4997 29.8891C41.2835 28.7218 41.0674 27.5229 40.8821 26.3241C40.7586 25.7247 40.666 25.1252 40.5733 24.5258C40.5116 24.2419 40.4807 23.9264 40.419 23.5794C40.3572 23.2323 40.3263 22.9168 40.3263 22.5698C40.2954 21.2132 40.666 19.825 41.3761 18.6577C41.5614 18.3738 41.7158 18.0583 41.9628 17.8059C42.179 17.5535 42.3951 17.2696 42.673 17.0488C43.2288 16.544 43.6611 16.2285 44.0625 15.8184C44.8962 14.9981 45.5755 14.0201 45.9769 12.9474C46.4091 11.8748 46.5018 10.6759 46.2856 9.5086C45.8842 7.174 44.1551 5.21797 42.0863 3.98757C39.9867 2.72562 37.5165 2.15775 35.0463 2.1262C32.5761 2.15775 30.106 2.69407 27.9754 3.98757C25.9067 5.21797 24.1776 7.174 23.7761 9.5086C23.56 10.6444 23.6835 11.8432 24.0849 12.9474C24.4863 14.0201 25.1656 14.9981 26.0302 15.8184C26.4625 16.2285 26.8947 16.544 27.4197 17.0488C27.6975 17.2696 27.9137 17.522 28.1298 17.8059C28.3768 18.0583 28.5621 18.3423 28.7474 18.6577C29.4575 19.825 29.8281 21.2132 29.7972 22.5698C29.8281 22.9168 29.7663 23.2323 29.7046 23.5794C29.6428 23.9264 29.6119 24.2419 29.5502 24.5258C29.4267 25.1252 29.334 25.7247 29.2414 26.3241C29.0253 27.5229 28.84 28.6903 28.6239 29.8891C28.2225 32.2237 27.8211 34.5268 27.4197 36.7352C26.6477 41.1836 25.9375 45.4111 25.2582 49.2916C24.579 53.1721 23.9614 56.7371 23.4365 59.9235C23.1586 61.501 22.9116 62.9837 22.6646 64.3403C22.6028 64.6874 22.5411 65.0029 22.4793 65.3499C22.4484 65.5077 22.4176 65.6654 22.3867 65.8547C22.3249 66.0755 22.2632 66.2964 22.1705 66.4857C21.8 67.2744 21.0898 67.7792 20.3488 67.9369C20.1635 68 19.9782 68 19.793 68C19.6695 68 19.5151 68 19.3916 68C19.1446 68 18.8667 68 18.6197 68C18.1256 68 17.6316 68 17.1993 68C16.3347 68 15.5628 68 14.9761 68C13.7411 68 13.1235 68 13.1235 68V67.7792H13Z" fill="#E7E6E6"/>
<path d="M13.031 66.6854C13.031 66.6854 13.6812 66.6854 14.8888 66.6854C15.5081 66.6854 16.2512 66.6854 17.1182 66.6854C17.5517 66.6854 18.0162 66.6854 18.5116 66.6854C18.7593 66.6854 19.038 66.6854 19.3167 66.6854C19.5644 66.6854 19.874 66.6854 20.1837 66.6225C20.772 66.4967 21.3293 66.0877 21.639 65.4271C21.7319 65.2698 21.7628 65.1125 21.8248 64.9237C21.8557 64.7664 21.8867 64.6092 21.9177 64.4519C21.9796 64.1373 22.0415 63.7912 22.1034 63.4452C22.3512 62.0925 22.5989 60.6139 22.8775 59.041C23.4349 55.8951 24.0542 52.3403 24.7044 48.4395C25.3856 44.5701 26.0978 40.3546 26.8719 35.919C27.2435 33.6854 27.646 31.4204 28.0795 29.0925C28.2653 27.9285 28.4821 26.7331 28.6988 25.5377C28.8846 24.3422 29.1942 23.1468 29.2252 21.8885C29.2252 20.6301 28.8846 19.3718 28.2343 18.2707C28.0486 17.9876 27.8937 17.7359 27.677 17.4843C27.4912 17.2326 27.2745 16.9809 27.0267 16.7922C26.5623 16.3518 26.0669 16.0057 25.6334 15.5653C24.7354 14.7159 23.9923 13.6778 23.5588 12.4824C23.1253 11.3184 23.0014 9.99714 23.2182 8.77026C23.6826 6.25358 25.5095 4.17731 27.708 2.91897C29.9064 1.59771 32.5074 1.03146 35.0465 1C37.5855 1.03146 40.1865 1.59771 42.3849 2.91897C44.5524 4.17731 46.4103 6.28503 46.8438 8.80172C47.0605 10.0601 46.9367 11.3499 46.5032 12.5138C46.0697 13.6778 45.3265 14.7159 44.4286 15.5653C43.9641 16.0057 43.4996 16.3518 43.0042 16.7922C42.7565 16.9809 42.5398 17.2326 42.354 17.4843C42.1372 17.7045 41.9824 17.9876 41.7966 18.2707C41.1464 19.3718 40.8058 20.6301 40.8058 21.8885C40.8677 23.1468 41.1464 24.3422 41.3322 25.5377C41.5489 26.7331 41.7657 27.9285 41.9514 29.0925C42.3849 31.4204 42.7565 33.7169 43.159 35.919C43.9331 40.3546 44.6453 44.5701 45.3265 48.4395C46.0077 52.3089 46.627 55.8637 47.1844 59.0095C47.4321 60.5825 47.7108 62.061 47.9275 63.4137C47.9894 63.7598 48.0514 64.1058 48.1133 64.4204C48.1752 64.735 48.2062 65.081 48.361 65.3956C48.6707 66.0248 49.259 66.4337 49.8473 66.5596C50.1569 66.6225 50.4356 66.6225 50.7143 66.6225C50.962 66.6225 51.2407 66.6225 51.4884 66.6225C51.9838 66.6225 52.4792 66.6225 52.9127 66.6225C53.7797 66.6225 54.5538 66.6225 55.1422 66.6225C56.3498 66.6225 57 66.6225 57 66.6225V67C57 67 56.3498 67 55.1422 67C54.5538 67 53.7797 67 52.9127 67C52.4792 67 51.9838 67 51.4884 67C51.2407 67 50.962 67 50.7143 67C50.5595 67 50.4356 67 50.2808 67C50.126 66.9685 49.9402 66.9685 49.7544 66.9371C49.0732 66.7798 48.392 66.3079 48.0204 65.5844C47.9275 65.4271 47.8656 65.2069 47.8037 65.0181C47.7727 64.8294 47.7417 64.7035 47.7108 64.5148C47.6488 64.2002 47.5869 63.8541 47.525 63.5081C47.2773 62.1554 47.0296 60.6768 46.7509 59.1039C46.1935 55.9581 45.5742 52.4032 44.924 48.5024C44.2428 44.633 43.5306 40.4175 42.7565 35.9819C42.3849 33.7483 41.9515 31.4833 41.5489 29.1554C41.3631 27.9914 41.1464 26.796 40.9296 25.632C40.8367 25.0343 40.7129 24.4366 40.62 23.8389C40.5581 23.5243 40.4961 23.2412 40.4652 22.8951C40.4032 22.5806 40.3413 22.2345 40.3723 21.9199C40.3413 20.5987 40.7129 19.2459 41.4251 18.082C41.6108 17.7989 41.7657 17.5157 42.0134 17.2641C42.2301 17.0124 42.4469 16.7293 42.6946 16.5405C43.221 16.0686 43.6545 15.7541 44.088 15.3136C44.955 14.4957 45.6671 13.489 46.0697 12.388C46.5032 11.2869 46.627 10.0601 46.4103 8.89609C45.9768 6.50524 44.2428 4.52336 42.1063 3.26502C39.9697 1.97522 37.4307 1.40896 34.9535 1.37751C32.4455 1.40896 29.9374 1.94376 27.8008 3.23356C25.6643 4.46044 23.8994 6.47379 23.4659 8.83318C23.2491 9.99714 23.373 11.224 23.7755 12.3565C24.209 13.4576 24.8902 14.4643 25.7572 15.2822C26.1907 15.7226 26.6242 16.0057 27.1506 16.5091C27.4293 16.7293 27.646 16.9809 27.8628 17.2326C28.0795 17.4843 28.2653 17.7674 28.4511 18.0505C29.1323 19.183 29.5039 20.5357 29.5039 21.857C29.5348 22.2031 29.4729 22.5176 29.4419 22.8322C29.38 23.1783 29.349 23.4614 29.2871 23.776C29.1942 24.3737 29.0704 24.9714 28.9775 25.5691C28.7607 26.7645 28.544 27.96 28.3582 29.0925C27.9557 31.4204 27.5531 33.7169 27.1506 35.919C26.3765 40.3546 25.6643 44.5701 24.9831 48.4395C24.3019 52.3089 23.6826 55.8637 23.1562 59.0095C22.8775 60.5825 22.6298 62.061 22.3821 63.4452C22.3202 63.7912 22.2583 64.1058 22.1963 64.4519C22.1654 64.6092 22.1344 64.7664 22.1034 64.9237C22.0415 65.1439 22.0106 65.3327 21.9177 65.49C21.5771 66.2135 20.8958 66.7169 20.2146 66.8742C20.0289 66.9371 19.874 66.9371 19.6882 66.9371C19.5644 66.9371 19.4096 66.9371 19.2857 66.9371C19.007 66.9371 18.7593 66.9371 18.4807 66.9371C17.9852 66.9371 17.5208 66.9371 17.0873 66.9371C16.1893 66.9371 15.4462 66.9371 14.8578 66.9371C13.6502 66.9371 13 66.9371 13 66.9371L13.031 66.6854Z" fill="white"/>
<path d="M13.031 66.748C13.031 66.748 13.6817 66.748 14.8901 66.748C15.4789 66.748 16.2535 66.748 17.1211 66.748C17.5549 66.748 18.0507 66.748 18.5465 66.748C18.7944 66.748 19.0732 66.748 19.3211 66.748C19.6 66.748 19.8789 66.748 20.1577 66.685C20.6845 66.5589 21.2113 66.2124 21.4901 65.6138C21.6451 65.3303 21.6761 65.0153 21.738 64.7002C21.8 64.3852 21.862 64.0387 21.893 63.6921C22.1408 62.3375 22.3887 60.8568 22.6676 59.2501C23.2254 56.0998 23.8451 52.5399 24.4958 48.6649C25.1775 44.79 25.8901 40.5685 26.6648 36.1265C27.0366 33.8897 27.4704 31.6215 27.8732 29.2902C28.0901 28.1246 28.307 26.9274 28.493 25.7303C28.6789 24.5332 28.9887 23.336 29.0197 22.1074C29.0507 20.8788 28.7099 19.6501 28.0591 18.579C27.9042 18.327 27.7493 18.0434 27.5324 17.8229C27.3465 17.6024 27.1606 17.3504 26.8817 17.1613C26.4169 16.7518 25.9211 16.3737 25.4873 15.9327C24.5577 15.0506 23.8141 14.011 23.3803 12.7823C22.9155 11.5852 22.7916 10.2305 23.0394 8.97041C23.5042 6.35561 25.3944 4.24487 27.5944 2.95323C29.8253 1.63008 32.4591 1.0315 35.031 1C37.6028 1.0315 40.2366 1.59857 42.4676 2.95323C44.6676 4.24487 46.5577 6.35561 47.0225 8.97041C47.2394 10.2305 47.1155 11.5852 46.6817 12.7823C46.2169 13.9795 45.4732 15.0506 44.5747 15.9327C44.1099 16.3737 43.6141 16.7518 43.1493 17.1613C42.9014 17.3504 42.7155 17.6024 42.5296 17.8544C42.3127 18.0749 42.1577 18.3585 41.9718 18.6105C41.3211 19.6816 41.0113 20.9103 41.0113 22.1389C41.0732 23.3675 41.3521 24.5647 41.538 25.7618C41.7549 26.959 41.9718 28.1246 42.1577 29.3217C42.5606 31.653 42.9634 33.9527 43.3352 36.158C44.1099 40.6 44.8535 44.8215 45.5042 48.6964C46.1859 52.5714 46.8056 56.1313 47.3634 59.2816C47.6423 60.8568 47.8901 62.3375 48.107 63.7236C48.169 64.0702 48.231 64.3852 48.293 64.7317C48.3549 65.0468 48.3859 65.3933 48.5408 65.6453C48.7887 66.2124 49.3465 66.5905 49.8732 66.7165C50.1521 66.7795 50.431 66.7795 50.7099 66.7795C50.9578 66.7795 51.2366 66.7795 51.4845 66.7795C51.9803 66.7795 52.4761 66.7795 52.9099 66.7795C53.7775 66.7795 54.5521 66.7795 55.1408 66.7795C56.3493 66.7795 57 66.7795 57 66.7795V67C57 67 56.3493 67 55.1408 67C54.5521 67 53.7775 67 52.9099 67C52.4761 67 51.9803 67 51.4845 67C51.2366 67 50.9578 67 50.7099 67C50.462 67 50.1521 67 49.8423 66.937C49.2535 66.811 48.6648 66.4014 48.3549 65.7714C48.262 65.6138 48.231 65.4563 48.169 65.2673C48.138 65.1098 48.107 64.9523 48.0761 64.7947C48.0141 64.4797 47.9521 64.1332 47.9211 63.7866C47.6732 62.432 47.4254 60.9513 47.1465 59.3761C46.5887 56.2258 45.969 52.6344 45.3183 48.7594C44.6366 44.8845 43.9239 40.663 43.1493 36.221C42.7775 33.9843 42.3437 31.716 41.9409 29.3847C41.724 28.2191 41.538 27.022 41.3211 25.8248C41.1352 24.6277 40.8254 23.4306 40.7944 22.1704C40.7634 20.9103 41.1042 19.6186 41.7859 18.5475C41.9718 18.264 42.1268 17.9804 42.3437 17.7599C42.5606 17.5079 42.7465 17.2558 42.9944 17.0668C43.4592 16.6258 43.9549 16.2792 44.3887 15.8382C45.2873 14.9876 46.031 13.948 46.4648 12.7823C46.9296 11.6167 47.0225 10.3251 46.8056 9.09642C46.3718 6.57614 44.5127 4.4969 42.3437 3.23676C40.1437 1.91361 37.5718 1.34654 35.031 1.31504C32.4901 1.34654 29.8873 1.91361 27.6873 3.23676C25.5183 4.5284 23.6592 6.60764 23.2254 9.09642C23.0085 10.3251 23.1324 11.6167 23.5662 12.7823C24 13.948 24.7437 14.9876 25.6422 15.8382C26.0761 16.2792 26.5718 16.6258 27.0366 17.0668C27.2845 17.2558 27.5014 17.5079 27.6873 17.7599C27.9042 17.9804 28.0592 18.264 28.2451 18.5475C28.9268 19.6501 29.2676 20.9418 29.2366 22.2019C29.1747 23.4936 28.8958 24.6592 28.7099 25.8563C28.493 27.0535 28.2761 28.2191 28.0901 29.3847C27.6873 31.716 27.2845 34.0157 26.8817 36.2525C26.107 40.6945 25.3944 44.916 24.7127 48.7909C24.031 52.6659 23.4113 56.2258 22.8845 59.3761C22.6056 60.9513 22.3578 62.432 22.1099 63.7866C22.0479 64.1332 21.9859 64.4797 21.9239 64.7947C21.893 64.9523 21.862 65.1098 21.831 65.2673C21.769 65.4248 21.738 65.6138 21.6451 65.7714C21.3352 66.4014 20.7465 66.811 20.1577 66.937C19.8479 67 19.569 67 19.2901 67C19.0422 67 18.7634 67 18.5155 67C18.0197 67 17.5239 67 17.0901 67C16.2225 67 15.4479 67 14.8592 67C13.6197 67 13 67 13 67L13.031 66.748Z" fill="#F0EFEF"/>
<path d="M13 66.7166C13 66.7166 13.6498 66.7166 14.8565 66.7166C15.4444 66.7166 16.218 66.7166 17.0844 66.7166C17.5176 66.7166 18.0127 66.7166 18.5078 66.7166C18.7553 66.7166 19.0338 66.7166 19.2813 66.7166C19.4051 66.7166 19.5598 66.7166 19.6836 66.7166C19.8073 66.6851 19.9311 66.6851 20.0549 66.6536C20.5499 66.5592 21.0141 66.2128 21.2926 65.709C21.3544 65.583 21.3854 65.4256 21.4473 65.2996C21.4782 65.1422 21.5092 64.9847 21.5401 64.8273C21.602 64.5124 21.6639 64.166 21.7257 63.8197C21.9733 62.4656 22.2208 60.9857 22.4993 59.3798C23.0563 56.2309 23.6442 52.6727 24.3249 48.7681C25.0056 44.895 25.7173 40.6756 26.4909 36.2357C26.8931 34 27.2954 31.7328 27.6976 29.3712C27.8833 28.2061 28.0999 27.041 28.3165 25.8445C28.5021 24.6479 28.8115 23.4198 28.8425 22.2548C28.8734 21.0582 28.5331 19.8616 27.9142 18.8225C27.7595 18.5706 27.6048 18.3187 27.3882 18.0983C27.2025 17.8779 26.9859 17.626 26.7693 17.437C26.3361 17.0277 25.8101 16.6498 25.346 16.209C24.4177 15.3273 23.6442 14.2567 23.211 12.9971C22.7468 11.7691 22.5921 10.3836 22.8397 9.09256C23.0872 7.77004 23.6751 6.54199 24.5106 5.50286C25.346 4.46374 26.3671 3.61355 27.512 2.95229C29.7708 1.59829 32.4008 1.03149 35.0309 1C37.6301 1.03149 40.2911 1.59829 42.5499 2.95229C43.6639 3.61355 44.7159 4.46374 45.5204 5.50286C46.3558 6.54199 46.9437 7.77004 47.1913 9.09256C47.4079 10.3836 47.2841 11.7691 46.82 12.9971C46.3558 14.2252 45.5823 15.3273 44.654 16.209C44.1899 16.6498 43.6639 17.0592 43.2307 17.437C43.0141 17.626 42.7975 17.8779 42.6118 18.0983C42.3952 18.3187 42.2405 18.5706 42.0858 18.8225C41.4669 19.8616 41.1266 21.0582 41.1575 22.2548C41.2194 23.4198 41.4979 24.6479 41.6835 25.8445C41.9001 27.041 42.1167 28.2061 42.3024 29.4027C42.7046 31.7328 43.1069 34.0315 43.5092 36.2357C44.2827 40.6756 44.9944 44.895 45.6751 48.7681C46.3558 52.6412 46.9747 56.1994 47.5007 59.3483C47.7792 60.9227 48.0267 62.4027 48.2743 63.7882C48.3361 64.1345 48.398 64.4494 48.4599 64.7958C48.5218 65.1422 48.5528 65.4256 48.6765 65.6775C48.9241 66.1813 49.4191 66.5277 49.9142 66.6221C50.1618 66.6851 50.4402 66.6851 50.7187 66.6851C50.9662 66.6851 51.2447 66.6851 51.4923 66.6851C51.9873 66.6851 52.4824 66.6851 52.9156 66.6851C53.782 66.6851 54.5556 66.6851 55.1435 66.6851C56.3502 66.6851 57 66.6851 57 66.6851V66.9055C57 66.9055 56.3502 66.9055 55.1435 66.9055C54.5556 66.9055 53.782 66.9055 52.9156 66.9055C52.4824 66.9055 51.9873 66.9055 51.4923 66.9055C51.2447 66.9055 50.9662 66.9055 50.7187 66.9055C50.4402 66.9055 50.1617 66.937 49.8833 66.8426C49.3263 66.7166 48.8003 66.3387 48.5218 65.772C48.3671 65.4886 48.3052 65.1737 48.2743 64.8273C48.2124 64.5124 48.1505 64.166 48.0886 63.8197C47.8411 62.4656 47.5935 60.9857 47.3151 59.4113C46.789 56.2624 46.1392 52.6727 45.4894 48.7996C44.8087 44.9265 44.097 40.7071 43.3235 36.2672C42.9522 34.0315 42.5499 31.7643 42.1167 29.4342C41.9311 28.2691 41.7145 27.0725 41.4979 25.9074C41.3122 24.7109 41.0028 23.5143 40.9719 22.2863C40.9409 21.0582 41.2813 19.7987 41.9311 18.7595C42.1167 18.5076 42.2405 18.2242 42.4881 18.0038C42.6737 17.7519 42.8594 17.5315 43.1378 17.3111C43.602 16.8702 44.097 16.5239 44.5612 16.083C45.4585 15.2013 46.2011 14.1622 46.6653 12.9656C47.1294 11.7691 47.2532 10.4466 47.0056 9.18702C46.5415 6.60496 44.654 4.49523 42.4571 3.2042C40.2293 1.88168 37.6301 1.2834 35.0309 1.25191C32.4627 1.2834 29.8326 1.85019 27.6048 3.2042C25.4079 4.49523 23.5204 6.60496 23.0563 9.18702C22.8087 10.4466 22.9325 11.8006 23.3966 12.9971C23.8298 14.1937 24.6034 15.2643 25.5007 16.1145C25.9648 16.5553 26.4599 16.9332 26.924 17.3426C27.1716 17.5315 27.3573 17.7834 27.5739 18.0353C27.7904 18.2557 27.9452 18.5391 28.0999 18.791C28.7497 19.8616 29.09 21.0897 29.0591 22.3178C28.9972 23.5458 28.7187 24.7424 28.5331 25.9389C28.3165 27.1355 28.0999 28.3321 27.9142 29.4971C27.512 31.8273 27.1097 34.126 26.7384 36.3616C25.9648 40.8015 25.2222 45.021 24.5415 48.8941C23.8917 52.7672 23.2419 56.3254 22.7159 59.5057C22.4374 61.0802 22.1899 62.5601 21.9733 63.9141C21.9114 64.2605 21.8495 64.6069 21.7876 64.9218C21.7257 65.2366 21.6948 65.583 21.5401 65.8664C21.2616 66.4332 20.7046 66.8111 20.1786 66.937C19.9001 67 19.6217 67 19.3432 67C19.0956 67 18.8172 67 18.5696 67C18.0745 67 17.5795 67 17.1463 67C16.2799 67 15.5063 67 14.9184 67C13.6807 67 13.0619 67 13.0619 67V66.7166H13Z" fill="#CBC8C8"/>
<path d="M13.062 66.7586C13.062 66.7586 13.7127 66.7586 14.9211 66.7586C15.5098 66.7586 16.2845 66.7586 17.1521 66.7586C17.5859 66.7586 18.0817 66.7586 18.5775 66.7586C18.8254 66.7586 19.1042 66.7586 19.3521 66.7586C19.4761 66.7586 19.631 66.7586 19.7549 66.7586C19.8789 66.7271 19.9718 66.7586 20.0958 66.7271C20.5606 66.6325 20.9944 66.3173 21.2113 65.8444C21.2732 65.7183 21.3042 65.5922 21.3352 65.4977C21.3662 65.3401 21.3972 65.1824 21.4282 65.0248C21.4901 64.7096 21.5521 64.3628 21.5831 64.0161C21.831 62.6605 22.0789 61.1789 22.3577 59.6027C22.9155 56.4503 23.5042 52.8882 24.1859 48.9792C24.8676 45.1018 25.6113 40.8776 26.3549 36.4327C26.7268 34.1945 27.1606 31.9248 27.5634 29.5606C27.7803 28.3942 27.9972 27.2278 28.1831 26.0299C28.369 24.832 28.6789 23.6026 28.7098 22.4677C28.7408 21.3013 28.4 20.1349 27.7803 19.1262C27.6253 18.874 27.4704 18.6218 27.2845 18.4011C27.0986 18.1805 26.9127 17.9283 26.6648 17.7707C26.262 17.3924 25.7042 16.9826 25.2394 16.5412C24.3099 15.627 23.5042 14.5237 23.0394 13.2628C22.5437 12.0018 22.4197 10.5832 22.6676 9.25924C22.9155 7.90371 23.5352 6.64276 24.3718 5.60247C25.2084 4.53067 26.262 3.67952 27.4085 2.986C29.7014 1.59895 32.3662 1.03152 35.031 1C37.6648 1.03152 40.3296 1.63048 42.6535 2.986C43.769 3.67952 44.8535 4.53067 45.6901 5.60247C46.5268 6.64276 47.1465 7.90371 47.3944 9.25924C47.6423 10.5832 47.5183 12.0018 47.0225 13.2628C46.5577 14.5237 45.7521 15.627 44.8225 16.5412C44.3577 16.9826 43.8 17.3924 43.3972 17.7707C43.1493 17.9598 42.9634 18.1805 42.7775 18.4011C42.5606 18.6218 42.4366 18.874 42.2507 19.1262C41.662 20.1349 41.3211 21.3013 41.3521 22.4677C41.3831 23.6026 41.6929 24.832 41.8789 26.0299C42.0958 27.2278 42.3127 28.4257 42.4986 29.5606C42.9014 31.8933 43.3042 34.1945 43.6761 36.4327C44.4507 40.8776 45.1944 45.1018 45.8451 48.9792C46.5268 52.8566 47.1465 56.4188 47.7042 59.5712C47.9831 61.1474 48.231 62.629 48.4479 64.0161C48.5098 64.3628 48.5718 64.6781 48.6338 65.0248C48.6648 65.1824 48.6958 65.3401 48.7268 65.4977C48.7577 65.6238 48.7887 65.7499 48.8507 65.8444C49.0676 66.3173 49.5014 66.601 49.9352 66.7271C50.0591 66.7586 50.1521 66.7586 50.2761 66.7586C50.431 66.7586 50.5549 66.7586 50.7098 66.7586C50.9577 66.7586 51.2366 66.7586 51.4845 66.7586C51.9803 66.7586 52.4761 66.7586 52.9099 66.7586C53.7775 66.7586 54.5521 66.7586 55.1408 66.7586C56.3493 66.7586 57 66.7586 57 66.7586V66.9793C57 66.9793 56.3493 66.9793 55.1408 66.9793C54.5521 66.9793 53.7775 66.9793 52.9099 66.9793C52.4761 66.9793 51.9803 66.9793 51.4845 66.9793C51.2366 66.9793 50.9577 66.9793 50.7098 66.9793C50.431 66.9793 50.1521 66.9793 49.9042 66.9478C49.4084 66.8217 48.9127 66.4749 48.6338 65.9705C48.5099 65.7183 48.4479 65.4031 48.3859 65.0879C48.3239 64.7726 48.262 64.4259 48.231 64.0791C47.9831 62.7236 47.7352 61.242 47.4563 59.6658C46.8986 56.5134 46.2789 52.9512 45.6282 49.0423C44.9465 45.1648 44.2338 40.9406 43.4592 36.4958C43.0873 34.2576 42.6535 31.9879 42.2507 29.6236C42.0338 28.4572 41.8479 27.2908 41.631 26.0614C41.4451 24.8635 41.1352 23.6656 41.1042 22.4677C41.0732 21.2698 41.4141 20.0404 42.0648 19.0316C42.2197 18.7794 42.3746 18.4957 42.5915 18.275C42.7775 18.0544 42.9634 17.8022 43.2113 17.613C43.6451 17.2032 44.1718 16.8249 44.6366 16.3836C45.5662 15.5009 46.3408 14.4291 46.7746 13.1997C47.2394 11.9703 47.3634 10.6148 47.1155 9.32228C46.8986 7.99828 46.2789 6.80038 45.4732 5.76009C44.6366 4.71981 43.6141 3.86866 42.4986 3.20667C40.2366 1.85114 37.6028 1.28372 35 1.25219C32.3972 1.28372 29.7634 1.85114 27.5014 3.20667C26.3859 3.86866 25.3324 4.71981 24.5267 5.76009C23.6901 6.80038 23.1014 7.99828 22.8535 9.32228C22.6366 10.6148 22.7606 11.9703 23.2254 13.1997C23.6901 14.4291 24.4648 15.5009 25.3634 16.3836C25.8282 16.8249 26.3549 17.2032 26.7887 17.613C27.0366 17.8022 27.2225 18.0544 27.4085 18.275C27.6254 18.4957 27.7493 18.7794 27.9352 19.0316C28.5549 20.0719 28.8958 21.2698 28.8958 22.4677C28.8338 23.6656 28.5549 24.8635 28.369 26.0614C28.1521 27.2593 27.9352 28.4572 27.7493 29.6236C27.3465 31.9564 26.9436 34.2576 26.5408 36.4958C25.7662 40.9406 25.0535 45.1648 24.3718 49.0423C23.6901 52.9197 23.0704 56.4819 22.5437 59.6658C22.2648 61.242 22.0169 62.7236 21.769 64.0791C21.707 64.4259 21.6451 64.7726 21.5831 65.0879C21.5211 65.4346 21.4901 65.7183 21.3662 65.9705C21.1183 66.5064 20.6225 66.8532 20.0958 66.9478C19.8479 67.0108 19.569 67.0108 19.2901 66.9793C19.0422 66.9793 18.7634 66.9793 18.5155 66.9793C18.0197 66.9793 17.5239 66.9793 17.0901 66.9793C16.2225 66.9793 15.4479 66.9793 14.8592 66.9793C13.6197 66.9793 13 66.9793 13 66.9793V66.7586H13.062Z" fill="#958D8E"/>
<path d="M13 66.8107C13 66.8107 13.6502 66.8107 14.8578 66.8107C15.4462 66.8107 16.2203 66.8107 17.0873 66.8107C17.5208 66.8107 18.0162 66.8107 18.5116 66.8107C18.7593 66.8107 19.038 66.8107 19.2857 66.8107C19.4096 66.8107 19.5644 66.8107 19.6883 66.8107C19.8121 66.7792 19.905 66.8107 19.9979 66.7792C20.4004 66.6845 20.803 66.4321 20.9888 65.9904C21.0507 65.8958 21.0816 65.7696 21.1126 65.675C21.1436 65.5488 21.1745 65.3595 21.2055 65.2017C21.2674 64.8862 21.3294 64.5392 21.3913 64.1922C21.639 62.8356 21.8867 61.3528 22.1654 59.7438C22.7227 56.5889 23.342 53.0239 23.9923 49.1434C24.6735 45.2629 25.3856 41.0354 26.1597 36.587C26.5313 34.347 26.9648 32.0755 27.3674 29.7409C27.5531 28.5736 27.7699 27.3748 27.9866 26.1759C28.1724 24.9771 28.4821 23.7467 28.513 22.6424C28.544 21.5067 28.2343 20.3709 27.6151 19.3929C27.4602 19.1405 27.3364 18.8881 27.1196 18.6989C26.9339 18.478 26.779 18.2572 26.5313 18.0679C26.1597 17.6893 25.5714 17.2792 25.107 16.8375C24.1471 15.9226 23.373 14.7868 22.8776 13.4933C22.3821 12.1998 22.2583 10.7801 22.506 9.39197C22.7537 8.03537 23.404 6.74187 24.24 5.66922C25.107 4.59656 26.1597 3.7132 27.3054 3.01912C29.6277 1.63098 32.3526 1.03155 34.9845 1C37.6474 1.03155 40.3413 1.63098 42.6636 3.01912C43.8403 3.7132 44.893 4.59656 45.7291 5.66922C46.5961 6.74187 47.2153 8.00383 47.4631 9.39197C47.7108 10.7486 47.5869 12.1998 47.0915 13.4933C46.5961 14.7868 45.791 15.9226 44.8621 16.8375C44.3976 17.2792 43.8403 17.7208 43.4377 18.0679C43.221 18.2572 43.0352 18.478 42.8494 18.6989C42.6636 18.9197 42.5088 19.1721 42.354 19.3929C41.7657 20.3709 41.456 21.5067 41.456 22.6424C41.487 23.7467 41.7657 24.9771 41.9824 26.1759C42.1992 27.3748 42.3849 28.5421 42.6017 29.7409C43.0042 32.0755 43.4067 34.3786 43.8093 36.587C44.5834 41.0354 45.2956 45.2629 45.9768 49.1434C46.658 53.0239 47.2773 56.5889 47.8037 59.7753C48.0823 61.3528 48.33 62.8356 48.5778 64.1922C48.6397 64.5392 48.7016 64.8547 48.7635 65.2017C48.7945 65.3595 48.8255 65.5488 48.8564 65.675C48.8874 65.8011 48.9184 65.8958 48.9803 65.9904C49.197 66.4321 49.5996 66.6845 49.9711 66.7792C50.095 66.8107 50.1879 66.8107 50.2808 66.8107C50.4356 66.8107 50.5595 66.8107 50.7143 66.8107C50.962 66.8107 51.2407 66.8107 51.4884 66.8107C51.9838 66.8107 52.4792 66.8107 52.9127 66.8107C53.7797 66.8107 54.5538 66.8107 55.1422 66.8107C56.3498 66.8107 57 66.8107 57 66.8107V67C57 67 56.3498 67 55.1422 67C54.5538 67 53.7797 67 52.9127 67C52.4792 67 51.9838 67 51.4884 67C51.2407 67 50.962 67 50.7143 67C50.5595 67 50.4356 67 50.2808 67C50.1569 66.9685 50.064 66.9685 49.9402 66.9685C49.4757 66.8738 49.0422 66.5583 48.8255 66.0851C48.7326 65.9589 48.7326 65.8327 48.6706 65.7065C48.6397 65.5488 48.6087 65.391 48.5778 65.2333C48.5158 64.9178 48.4539 64.5707 48.392 64.2237C48.1443 62.8671 47.8965 61.3843 47.6488 59.8069C47.0915 56.652 46.4722 53.087 45.791 49.175C45.1098 45.2945 44.3976 41.0669 43.6235 36.6185C43.2519 34.3786 42.8494 32.1071 42.4159 29.7409C42.2301 28.5736 42.0134 27.4063 41.7966 26.1759C41.6108 24.9771 41.3012 23.7467 41.2702 22.6109C41.2393 21.4436 41.5489 20.2763 42.1992 19.2352C42.354 18.9828 42.5088 18.7304 42.6946 18.5096C42.8804 18.2887 43.0661 18.0363 43.3139 17.8786C43.7474 17.5 44.2737 17.0899 44.7382 16.6482C45.6671 15.7333 46.4722 14.6291 46.9367 13.3671C47.4321 12.1052 47.556 10.717 47.3082 9.39197C47.0605 8.06692 46.4412 6.80497 45.6052 5.73231C44.7692 4.6912 43.7164 3.80784 42.5707 3.14532C40.2794 1.78872 37.6165 1.18929 34.9845 1.15774C32.3526 1.18929 29.6897 1.75717 27.3983 3.14532C26.2836 3.80784 25.2308 4.6912 24.3948 5.73231C23.5588 6.77342 22.9395 8.03537 22.6918 9.39197C22.4441 10.717 22.5679 12.1367 23.0633 13.3671C23.5278 14.6291 24.3329 15.7333 25.2308 16.6166C25.6953 17.0899 26.2526 17.4685 26.6552 17.8786C26.8719 18.0679 27.0887 18.2887 27.2435 18.5096C27.4602 18.7304 27.5841 18.9828 27.7699 19.2352C28.3892 20.2447 28.6988 21.4436 28.6988 22.6109C28.6678 23.7467 28.3582 24.9771 28.1724 26.1759C27.9557 27.3748 27.7389 28.5736 27.5531 29.7409C27.1506 32.0755 26.7481 34.3786 26.3765 36.587C25.6024 41.0354 24.8593 45.2629 24.1781 49.1434C23.5278 53.0239 22.8776 56.5889 22.3512 59.7753C22.0725 61.3528 21.8248 62.8356 21.608 64.1922C21.5461 64.5392 21.4842 64.8862 21.4222 65.2017C21.3913 65.3595 21.3603 65.5488 21.3294 65.675C21.2984 65.8011 21.2674 65.9273 21.2055 66.0535C20.9887 66.5268 20.5243 66.8423 20.0908 66.9369C19.9669 66.9684 19.874 66.9685 19.7502 67C19.6263 67 19.4715 67 19.3476 67C19.0999 67 18.8213 67 18.5735 67C18.0781 67 17.5827 67 17.1492 67C16.2822 67 15.5081 67 14.9198 67C13.6812 67 13.0619 67 13.0619 67V66.8107H13Z" fill="#4E4242"/>
<path d="M13 66.7478C13 66.7478 13.6489 66.7478 14.8539 66.7478C15.441 66.7478 16.2135 66.7478 17.0787 66.7478C17.5112 66.7478 18.0056 66.7478 18.5 66.7478C18.7472 66.7478 19.0253 66.7478 19.2725 66.7478C19.3961 66.7478 19.5506 66.7478 19.6742 66.7478C19.7669 66.7163 19.8595 66.7479 19.9522 66.7163C20.2921 66.6533 20.632 66.4011 20.7865 66.0544C20.8483 65.9599 20.8483 65.8653 20.9101 65.7708C20.941 65.6447 20.9719 65.4556 21.0028 65.298C21.0646 64.9828 21.1264 64.6361 21.1882 64.2894C21.4045 62.9341 21.6826 61.4527 21.9298 59.8768C22.486 56.7249 23.1039 53.1633 23.7837 49.255C24.4326 45.3782 25.1742 41.1547 25.9466 36.7106C26.3483 34.4728 26.7191 32.2034 27.1517 29.8395C27.3371 28.6734 27.5534 27.5072 27.7697 26.3095C27.9551 25.1117 28.264 23.851 28.2949 22.8109C28.3258 21.7077 28.0169 20.6046 27.4298 19.6905C27.2753 19.4384 27.1517 19.2178 26.9354 19.0287C26.75 18.808 26.5955 18.5874 26.3792 18.4298C26.0084 18.0831 25.4214 17.6418 24.9579 17.1691C24 16.2235 23.1657 15.0888 22.6714 13.765C22.177 12.4413 22.0225 10.9599 22.3006 9.57306C22.5478 8.15473 23.1966 6.83095 24.0618 5.72779C24.927 4.62464 26.0393 3.74212 27.2135 3.04871C29.5618 1.63037 32.3118 1.03152 35 1C37.6882 1.03152 40.4382 1.63037 42.7865 3.04871C43.9607 3.74212 45.0421 4.65616 45.9382 5.72779C46.8034 6.83095 47.4523 8.12321 47.6994 9.54155C47.9466 10.9599 47.823 12.4413 47.3287 13.765C46.8343 15.0888 46 16.2235 45.0421 17.1691C44.5787 17.6418 43.9607 18.0831 43.6208 18.4298C43.4045 18.5874 43.25 18.808 43.0646 19.0287C42.8792 19.2178 42.7247 19.4699 42.5702 19.6905C42.014 20.6361 41.7051 21.7393 41.7051 22.8109C41.736 23.851 42.045 25.1117 42.2303 26.3095C42.4466 27.5072 42.6629 28.6734 42.8483 29.8711C43.25 32.2034 43.6517 34.5043 44.0534 36.7106C44.8258 41.1547 45.5365 45.3782 46.2163 49.255C46.8961 53.1318 47.514 56.6934 48.0393 59.8768C48.3174 61.4527 48.5646 62.9341 48.8118 64.2894C48.8736 64.6361 48.9354 64.9828 48.9972 65.298C49.0281 65.4556 49.059 65.6447 49.0899 65.7708C49.1208 65.8653 49.1517 65.9599 49.1826 66.0544C49.368 66.4327 49.7079 66.6533 50.0478 66.7163C50.1405 66.7479 50.2331 66.7478 50.2949 66.7478C50.4494 66.7478 50.573 66.7478 50.7275 66.7478C50.9747 66.7478 51.2528 66.7478 51.5 66.7478C51.9944 66.7478 52.4888 66.7478 52.9213 66.7478C53.7865 66.7478 54.559 66.7478 55.1461 66.7478C56.3511 66.7478 57 66.7478 57 66.7478V67C57 67 56.3511 67 55.1461 67C54.559 67 53.7865 67 52.9213 67C52.4888 67 51.9944 67 51.5 67C51.2528 67 50.9747 67 50.7275 67C50.573 67 50.4494 67 50.2949 67C50.2022 66.9685 50.0787 67 49.986 66.9685C49.5843 66.8739 49.1826 66.5903 48.9663 66.149C48.9045 66.0544 48.8736 65.9284 48.8427 65.8338C48.8118 65.7077 48.7809 65.5186 48.75 65.361C48.6882 65.0458 48.6264 64.6991 48.5955 64.3524C48.3483 62.9971 48.1011 61.5158 47.823 59.9398C47.2669 56.788 46.6489 53.2264 46 49.3181C45.3202 45.4413 44.6096 41.2178 43.8371 36.7736C43.4663 34.5358 43.0337 32.2665 42.632 29.9341C42.4157 28.7679 42.2303 27.6017 42.014 26.3725C41.8287 25.1748 41.5197 23.9456 41.4888 22.8424C41.4888 21.7077 41.7978 20.5731 42.3848 19.5645C42.5393 19.3123 42.6629 19.0602 42.8792 18.8711C43.0646 18.6504 43.25 18.4298 43.4663 18.2407C43.868 17.8625 44.4242 17.4527 44.8876 16.9799C45.8455 16.0659 46.618 14.9312 47.1124 13.6705C47.6067 12.3782 47.7303 10.9599 47.4832 9.60459C47.236 8.24928 46.618 6.95702 45.7528 5.88539C44.8876 4.81375 43.868 3.93123 42.6938 3.23782C40.3764 1.851 37.6882 1.25215 35.0309 1.22063C32.3736 1.25215 29.6854 1.851 27.368 3.23782C26.2247 3.93123 25.1433 4.78223 24.309 5.88539C23.4747 6.95702 22.8567 8.21777 22.5787 9.60459C22.3315 10.9599 22.4551 12.4097 22.9494 13.6705C23.4438 14.9627 24.2163 16.0659 25.1742 16.9799C25.6376 17.4527 26.1938 17.8625 26.5955 18.2407C26.8427 18.3983 27.0281 18.6504 27.1826 18.8711C27.3989 19.0917 27.5225 19.3438 27.677 19.5645C28.264 20.5415 28.573 21.7077 28.573 22.8424C28.5421 23.9456 28.2331 25.1748 28.0478 26.3725C27.8315 27.5702 27.6461 28.7679 27.4298 29.9341C27.0281 32.2665 26.6264 34.5673 26.2247 36.7736C25.4523 41.2178 24.7416 45.4413 24.0618 49.3181C23.382 53.1948 22.7641 56.7564 22.2388 59.9398C21.9607 61.5158 21.7135 62.9971 21.4663 64.3524C21.4045 64.6991 21.3427 65.0143 21.2809 65.361C21.25 65.5186 21.2191 65.7077 21.1882 65.8338C21.1264 65.9599 21.1264 66.0544 21.0646 66.149C20.8792 66.5903 20.4775 66.8739 20.0758 66.9685C19.9523 67 19.8596 67 19.7669 67C19.6433 67 19.4888 67 19.3652 67C19.118 67 18.8399 67 18.5927 67C18.0983 67 17.6039 67 17.1713 67C16.3062 67 15.5337 67 14.9466 67C13.7107 67 13.0927 67 13.0927 67V66.7478H13Z" fill="#564A4C"/>
<path d="M13.2161 65.7793C13.2161 65.7793 13.8645 65.7793 15.0688 65.7793C15.6554 65.7793 16.4274 65.7793 17.2919 65.7793C17.7242 65.7793 18.2182 65.7793 18.7123 65.7793C18.9593 65.7793 19.2372 65.7793 19.4842 65.7793C19.6077 65.7793 19.7621 65.7793 19.8856 65.7793C19.9782 65.7477 20.04 65.7793 20.1018 65.7477C20.3796 65.6847 20.6884 65.4955 20.8119 65.1801C20.8737 65.1171 20.8737 65.0225 20.9046 64.9594C20.9354 64.8333 20.9663 64.6441 20.9972 64.4864C21.0589 64.171 21.1207 63.8242 21.1825 63.4773C21.3986 62.1214 21.6765 60.6393 21.9235 59.0626C22.4793 55.9092 23.0968 52.3459 23.7453 48.4357C24.4246 44.5571 25.1656 40.3316 25.9375 35.8853C26.3389 33.6464 26.7095 31.376 27.1109 29.0425C27.327 27.8758 27.5431 26.709 27.7284 25.5107C27.9137 24.3125 28.1916 23.0511 28.2225 22.042C28.2533 21.0014 27.9446 19.9293 27.3888 19.0148C27.2344 18.7941 27.1109 18.5418 26.9256 18.3526C26.7403 18.1319 26.586 17.9427 26.3698 17.785C26.0302 17.4697 25.4126 16.9967 24.9495 16.5236C23.9614 15.5776 23.1277 14.4109 22.6028 13.0549C22.1088 11.699 21.9544 10.1854 22.2014 8.73483C22.4484 7.28428 23.1277 5.92833 23.9923 4.82465C24.8877 3.72097 25.9993 2.8065 27.1726 2.08122C29.5502 0.662205 32.3291 0.0315337 35.0463 0C37.7635 0.0315337 40.5116 0.630671 42.92 2.08122C44.1242 2.8065 45.2049 3.68944 46.1003 4.82465C46.9958 5.92833 47.6442 7.28428 47.8912 8.73483C48.1382 10.1854 48.0147 11.699 47.4898 13.0549C46.9958 14.4109 46.1621 15.5776 45.174 16.5236C44.68 16.9967 44.0933 17.4381 43.7537 17.785C43.5375 17.9427 43.3832 18.1634 43.1979 18.3526C43.0126 18.5418 42.8891 18.7941 42.7347 19.0148C42.1789 19.9293 41.901 21.0014 41.901 22.042C41.9319 23.0511 42.2407 24.3125 42.426 25.4792C42.6421 26.6775 42.8582 27.8758 43.0435 29.011C43.4758 31.3445 43.8463 33.6464 44.2477 35.8538C45.0196 40.3 45.7607 44.5256 46.4091 48.4042C47.0884 52.2829 47.706 55.8462 48.2617 59.0311C48.5396 60.6077 48.7867 62.0898 49.0028 63.4458C49.0646 63.7926 49.1263 64.1395 49.1881 64.4549C49.2189 64.6125 49.2498 64.8017 49.2807 64.9279C49.3116 64.9909 49.3116 65.0855 49.3733 65.1486C49.4968 65.4639 49.8056 65.6531 50.0835 65.7162C50.1453 65.7477 50.2379 65.7162 50.2996 65.7477C50.454 65.7477 50.5775 65.7477 50.7319 65.7477C50.9789 65.7477 51.2568 65.7477 51.5038 65.7477C51.9979 65.7477 52.4919 65.7477 52.9242 65.7477C53.7888 65.7477 54.5607 65.7477 55.1474 65.7477C56.3516 65.7477 57 65.7477 57 65.7477V66C57 66 56.3516 66 55.1474 66C54.5607 66 53.7888 66 52.9242 66C52.4919 66 51.9979 66 51.5038 66C51.2568 66 50.9789 66 50.7319 66C50.5775 66 50.454 66 50.2996 66C50.207 65.9685 50.1144 66 50.0526 65.9685C49.713 65.8739 49.3424 65.6531 49.1572 65.2747C49.0954 65.1801 49.0645 65.0855 49.0337 64.9909C49.0028 64.8648 48.9719 64.6756 48.941 64.5179C48.8793 64.2026 48.8175 63.8557 48.7558 63.5088C48.5088 62.1529 48.2618 60.6708 47.9839 59.0626C47.4281 55.9092 46.8105 52.3459 46.1621 48.4673C45.4828 44.5886 44.7726 40.3631 44.0007 35.9169C43.6302 33.678 43.1979 31.4075 42.7965 29.0741C42.6112 27.9073 42.3951 26.709 42.1789 25.5423C41.9937 24.344 41.6849 23.1142 41.654 22.042C41.6232 20.9384 41.9319 19.8347 42.5186 18.8887C42.673 18.6364 42.7965 18.4157 42.9817 18.1949C43.167 17.9742 43.3214 17.7535 43.5684 17.5958C43.9389 17.2489 44.5256 16.8075 44.9888 16.3344C45.946 15.3884 46.7488 14.2532 47.2428 12.9288C47.7368 11.6359 47.8912 10.1538 47.6133 8.73483C47.3663 7.31581 46.7179 6.02293 45.8533 4.91925C44.9888 3.81557 43.9081 2.93263 42.7347 2.23889C40.3881 0.819873 37.64 0.220733 34.9845 0.189199C32.2982 0.220733 29.581 0.819873 27.2344 2.23889C26.061 2.93263 24.9804 3.81557 24.1158 4.91925C23.2512 6.02293 22.6028 7.31581 22.3558 8.73483C22.1088 10.1223 22.2323 11.6044 22.7572 12.9288C23.2512 14.2532 24.054 15.3884 25.0112 16.3344C25.4744 16.8075 26.0611 17.2174 26.4316 17.5958C26.6477 17.7535 26.8021 17.9742 26.9874 18.1949C27.1726 18.3841 27.327 18.6364 27.4814 18.8887C28.0681 19.8347 28.3768 20.9384 28.346 22.042C28.3151 23.1142 28.0063 24.344 27.8211 25.5423C27.6049 26.7406 27.3888 27.9073 27.2035 29.0741C26.7712 31.4075 26.4007 33.7095 25.9993 35.9169C25.2274 40.3631 24.4863 44.5886 23.8379 48.4673C23.1586 52.3459 22.541 55.9092 21.9853 59.0626C21.7074 60.6393 21.4603 62.1214 21.2442 63.5088C21.1824 63.8557 21.1207 64.1711 21.0589 64.5179C21.0281 64.6756 20.9972 64.8648 20.9663 64.9909C20.9046 65.0855 20.9046 65.1801 20.8428 65.2747C20.6575 65.6531 20.3179 65.9054 19.9474 65.9685C19.8547 66 19.7621 66 19.6695 66C19.546 66 19.3916 66 19.2681 66C19.021 66 18.7432 66 18.4961 66C18.0021 66 17.5081 66 17.0758 66C16.2112 66 15.4393 66 14.8526 66C13.6175 66 13 66 13 66V65.7793H13.2161Z" fill="#857B7B"/>
<path d="M13 65.7793C13 65.7793 13.6502 65.7793 14.8578 65.7793C15.4462 65.7793 16.2203 65.7793 17.0873 65.7793C17.5208 65.7793 18.0162 65.7793 18.5116 65.7793C18.7593 65.7793 19.038 65.7793 19.2857 65.7793C19.4096 65.7793 19.5644 65.7793 19.6883 65.7793C19.7502 65.7477 19.8121 65.7793 19.874 65.7477C20.1217 65.6847 20.3695 65.527 20.4933 65.2747C20.5243 65.2117 20.5243 65.1486 20.5552 65.0855C20.5862 64.9279 20.6172 64.7702 20.6481 64.6125C20.7101 64.2972 20.772 63.9503 20.8339 63.6034C21.0816 62.2475 21.3294 60.7654 21.608 59.1887C22.1654 56.0354 22.7847 52.4721 23.4349 48.5619C24.1161 44.6832 24.8283 40.4577 25.6024 36.0115C25.974 33.7726 26.4075 31.5022 26.81 29.1687C26.9958 28.0019 27.2125 26.8036 27.4293 25.6369C27.6151 24.4386 27.9247 23.1773 27.9247 22.1997C27.9557 21.1906 27.677 20.15 27.1196 19.2671C26.9648 19.0463 26.841 18.8256 26.6552 18.6364C26.5004 18.4472 26.3455 18.2265 26.1288 18.0688C25.8191 17.7535 25.1689 17.2805 24.7044 16.8075C23.7136 15.8614 22.8466 14.6632 22.3202 13.2757C21.7938 11.8882 21.639 10.343 21.9177 8.86096C22.1964 7.37888 22.8776 5.9914 23.7755 4.85619C24.6735 3.72097 25.7882 2.8065 26.9958 2.08122C29.4419 0.630671 32.2287 0 34.9845 0C37.7403 0.0315337 40.5271 0.630671 42.9423 2.08122C44.1499 2.8065 45.2956 3.72097 46.1935 4.85619C47.0915 5.9914 47.7727 7.34735 48.0514 8.86096C48.2991 10.343 48.1752 11.8882 47.6179 13.2757C47.0915 14.6632 46.2555 15.8614 45.2336 16.8075C44.7382 17.2805 44.1189 17.7535 43.8093 18.0688C43.5925 18.2265 43.4377 18.4472 43.2829 18.6364C43.0971 18.8256 42.9733 19.0463 42.8184 19.2671C42.2921 20.15 41.9824 21.1906 42.0134 22.1997C42.0443 23.1457 42.323 24.4386 42.5398 25.6369C42.7565 26.8352 42.9423 28.0334 43.159 29.1687C43.5616 31.5022 43.9641 33.8041 44.3666 36.0115C45.1408 40.4577 45.8529 44.6832 46.5341 48.5619C47.2153 52.4405 47.8346 56.0038 48.361 59.1887C48.6397 60.7654 48.8874 62.2475 49.1351 63.6034C49.197 63.9503 49.259 64.2656 49.3209 64.6125C49.3519 64.7702 49.3828 64.9594 49.4138 65.0855C49.4448 65.1486 49.4448 65.2117 49.4757 65.2747C49.5996 65.527 49.8473 65.6847 50.095 65.7477C50.1569 65.7793 50.2189 65.7477 50.2808 65.7793C50.4356 65.7793 50.5595 65.7793 50.7143 65.7793C50.962 65.7793 51.2407 65.7793 51.4884 65.7793C51.9838 65.7793 52.4792 65.7793 52.9127 65.7793C53.7797 65.7793 54.5538 65.7793 55.1422 65.7793C56.3498 65.7793 57 65.7793 57 65.7793V66C57 66 56.3498 66 55.1422 66C54.5538 66 53.7797 66 52.9127 66C52.4792 66 51.9838 66 51.4884 66C51.2407 66 50.962 66 50.7143 66C50.5595 66 50.4356 66 50.2808 66C50.1879 65.9685 50.126 66 50.064 65.9685C49.7544 65.9054 49.4448 65.6847 49.3209 65.3693C49.259 65.2747 49.259 65.2117 49.228 65.1171C49.197 64.9909 49.1661 64.8017 49.1351 64.6441C49.0732 64.3287 49.0113 63.9818 48.9493 63.635C48.7326 62.279 48.4539 60.7969 48.2062 59.1887C47.6488 56.0354 47.0296 52.4721 46.3793 48.5619C45.6981 44.6832 44.955 40.4577 44.1809 36.0115C43.8093 33.7726 43.4068 31.5021 43.0042 29.1371C42.7875 27.9704 42.5707 26.8036 42.3849 25.5738C42.1992 24.4071 41.8895 23.1142 41.8585 22.1051C41.8276 21.033 42.1372 19.9608 42.6946 19.0463C42.8494 18.8256 42.9733 18.5733 43.159 18.3841C43.3448 18.1634 43.4996 17.9427 43.7164 17.785C44.057 17.4697 44.6763 16.9967 45.1408 16.5236C46.1316 15.5776 46.9367 14.4109 47.4631 13.0549C47.9585 11.699 48.1133 10.1854 47.8346 8.76636C47.5869 7.31581 46.9057 5.9914 46.0387 4.88772C45.1407 3.78404 44.057 2.86956 42.8494 2.17582C40.4652 0.756807 37.7094 0.157667 34.9845 0.126133C32.2597 0.157667 29.5039 0.756807 27.1196 2.17582C25.912 2.86956 24.8283 3.78404 23.9303 4.88772C23.0324 5.9914 22.4131 7.34734 22.1344 8.76636C21.8557 10.2169 22.0106 11.699 22.537 13.0549C23.0324 14.4109 23.8684 15.5776 24.8593 16.5236C25.3237 16.9967 25.943 17.4381 26.2836 17.785C26.5004 17.9427 26.6861 18.1634 26.841 18.3841C27.0267 18.5733 27.1506 18.8256 27.3054 19.0463C27.8628 19.9608 28.1724 21.033 28.1415 22.1051C28.1105 23.1142 27.8318 24.3755 27.6151 25.5738C27.3983 26.7721 27.2125 27.9704 26.9958 29.1371C26.5932 31.4706 26.1907 33.7726 25.7882 35.9799C25.0141 40.4262 24.3019 44.6517 23.6207 48.5303C22.9395 52.409 22.3202 55.9723 21.7938 59.1572C21.5151 60.7339 21.2674 62.216 21.0197 63.5719C20.9578 63.9188 20.8959 64.2656 20.8649 64.581C20.8339 64.7387 20.803 64.9279 20.772 65.054C20.741 65.1171 20.741 65.2117 20.6791 65.3063C20.5243 65.6216 20.2146 65.8423 19.936 65.9054C19.8431 65.9369 19.7811 65.9369 19.6883 65.9369C19.5644 65.9369 19.4096 65.9369 19.2857 65.9369C19.038 65.9369 18.7593 65.9369 18.5116 65.9369C18.0162 65.9369 17.5208 65.9369 17.0873 65.9369C16.2203 65.9369 15.4462 65.9369 14.8578 65.9369C13.6193 65.9369 13 65.9369 13 65.9369V65.7793Z" fill="#C5BEBC"/>
<path d="M13 65.8737C13 65.8737 13.6507 65.8737 14.8592 65.8737C15.4479 65.8737 16.2225 65.8737 17.0901 65.8737C17.5239 65.8737 18.0197 65.8737 18.5155 65.8737C18.7634 65.8737 19.0423 65.8737 19.2902 65.8737C19.4141 65.8737 19.569 65.8737 19.693 65.8737C19.7549 65.8422 19.8169 65.8737 19.8789 65.8422C20.0958 65.7791 20.3127 65.6528 20.4366 65.4003C20.4676 65.3372 20.4676 65.3056 20.4986 65.2425C20.5296 65.0846 20.5606 64.9268 20.5915 64.769C20.6535 64.4534 20.7155 64.1062 20.7775 63.759C20.9944 62.4017 21.2732 60.9182 21.5211 59.34C22.0789 56.1836 22.6986 52.6169 23.3493 48.703C24.031 44.8207 24.7746 40.5911 25.5493 36.1406C25.9521 33.8996 26.324 31.627 26.7268 29.2912C26.9437 28.1234 27.1606 26.924 27.3465 25.7561C27.5324 24.5567 27.8113 23.2941 27.8423 22.3472C27.8732 21.3372 27.5944 20.3271 27.0366 19.4433C26.9127 19.2224 26.7887 19.0014 26.6028 18.8121C26.4169 18.6227 26.293 18.4017 26.0761 18.2755C25.7662 17.9598 25.1155 17.4864 24.6507 17.0129C23.6282 16.0344 22.7916 14.835 22.2338 13.4146C21.7071 12.0258 21.5521 10.4476 21.831 8.96413C22.0789 7.44907 22.7915 6.06026 23.6901 4.92396C24.6197 3.78766 25.7352 2.84075 26.9747 2.11478C29.4225 0.66284 32.2113 0.0315638 35 0C37.7577 0.0315638 40.5775 0.631276 43.0254 2.11478C44.2648 2.84075 45.3803 3.7561 46.2789 4.92396C47.2085 6.06026 47.8901 7.44907 48.138 8.96413C48.4169 10.4476 48.262 12.0258 47.7352 13.4146C47.2085 14.835 46.3409 16.0344 45.3183 17.0129C44.8226 17.4864 44.1718 17.9598 43.893 18.2755C43.6761 18.4333 43.5211 18.6227 43.3662 18.8121C43.1803 19.0014 43.0563 19.2224 42.9324 19.4433C42.4056 20.3271 42.1268 21.3372 42.1268 22.3472C42.1577 23.2941 42.4366 24.5882 42.6225 25.7561C42.8394 26.9555 43.0563 28.155 43.2423 29.2912C43.6761 31.627 44.0479 33.9311 44.4507 36.1406C45.2254 40.5911 45.938 44.8207 46.6197 48.703C47.3014 52.5854 47.9211 56.1521 48.4789 59.34C48.7577 60.9182 49.0056 62.4017 49.2225 63.759C49.2845 64.1062 49.3465 64.4218 49.4085 64.769C49.4394 64.9268 49.4704 65.1162 49.5014 65.2425C49.5324 65.3056 49.5324 65.3372 49.5634 65.4003C49.6873 65.6528 49.9042 65.7791 50.1211 65.8422C50.1831 65.8737 50.2451 65.8422 50.2761 65.8737C50.431 65.8737 50.5549 65.8737 50.7099 65.8737C50.9578 65.8737 51.2366 65.8737 51.4845 65.8737C51.9803 65.8737 52.4761 65.8737 52.9099 65.8737C53.7775 65.8737 54.5521 65.8737 55.1408 65.8737C56.3493 65.8737 57 65.8737 57 65.8737V66C57 66 56.3493 66 55.1408 66C54.5521 66 53.7775 66 52.9099 66C52.4761 66 51.9803 66 51.4845 66C51.2366 66 50.9578 66 50.7099 66C50.5549 66 50.431 66 50.2761 66C50.2141 65.9684 50.1521 66 50.0901 65.9684C49.8423 65.9053 49.5944 65.7475 49.4704 65.4634C49.4394 65.4003 49.4394 65.3372 49.4085 65.274C49.3775 65.1478 49.3465 64.9584 49.3155 64.8006C49.2535 64.4849 49.1916 64.1377 49.1296 63.7905C48.8817 62.4333 48.6338 60.9498 48.3549 59.3716C47.7972 56.2152 47.1775 52.6485 46.5268 48.7346C45.8451 44.8522 45.1324 40.6227 44.3578 36.1722C43.9859 33.9311 43.5521 31.6585 43.1493 29.3228C42.9324 28.155 42.7465 26.9555 42.5296 25.7561C42.3437 24.5882 42.0338 23.2941 42.0028 22.3156C41.9718 21.274 42.2817 20.2324 42.8085 19.3486C42.9634 19.1277 43.0873 18.9067 43.2732 18.7174C43.4592 18.528 43.5831 18.307 43.8 18.1492C44.1099 17.8336 44.7606 17.3601 45.2563 16.8867C46.2479 15.9397 47.0845 14.7403 47.6423 13.3515C48.169 11.9943 48.293 10.4161 48.0451 8.96413C47.7662 7.48063 47.0845 6.12339 46.1859 4.98709C45.2873 3.85079 44.1718 2.93544 42.9634 2.20947C40.5465 0.757532 37.7577 0.157822 35 0.126258C32.2423 0.157822 29.4535 0.757532 27.0366 2.20947C25.8282 2.93544 24.7127 3.85079 23.8141 4.98709C22.9155 6.12339 22.2338 7.48063 21.9859 8.96413C21.707 10.4476 21.862 11.9943 22.3887 13.3515C22.9155 14.7403 23.7521 15.9397 24.7746 16.8867C25.2704 17.3601 25.8902 17.8336 26.2 18.1492C26.4169 18.307 26.5718 18.528 26.7578 18.7174C26.9437 18.9067 27.0676 19.1277 27.1916 19.3486C27.7493 20.2324 28.0282 21.274 28.0282 22.3156C27.9972 23.2941 27.6873 24.5567 27.5014 25.7561C27.2845 26.9555 27.0676 28.1234 26.8817 29.3228C26.4789 31.6585 26.0761 33.9627 25.6732 36.1722C24.8986 40.6227 24.1859 44.8522 23.5042 48.7346C22.8225 52.6169 22.2028 56.1836 21.6761 59.3716C21.3972 60.9498 21.1493 62.4333 20.9014 63.7905C20.8394 64.1377 20.7775 64.4534 20.7155 64.8006C20.6845 64.9584 20.6535 65.1162 20.6225 65.274C20.5916 65.3372 20.5916 65.4003 20.5296 65.4634C20.4056 65.7475 20.1578 65.9053 19.9099 65.9684C19.8479 66 19.7859 65.9684 19.7239 66C19.6 66 19.4451 66 19.3211 66C19.0732 66 18.7944 66 18.5465 66C18.0507 66 17.5549 66 17.1211 66C16.2535 66 15.4789 66 14.8902 66C13.6507 66 13.031 66 13.031 66L13 65.8737Z" fill="#C5BEBC"/>
<path d="M13 65.9054C13 65.9054 13.6512 65.9054 14.8605 65.9054C15.4496 65.9054 16.2248 65.9054 17.093 65.9054C17.5271 65.9054 18.0233 65.9054 18.5194 65.9054C18.7675 65.9054 19.0465 65.9054 19.2946 65.9054C19.4186 65.9054 19.5737 65.9054 19.6977 65.9054C19.7597 65.8738 19.8217 65.9054 19.8527 65.8738C20.0388 65.8423 20.2558 65.6845 20.3488 65.4637C20.3798 65.4006 20.3799 65.369 20.4109 65.3059C20.4419 65.1482 20.4729 64.9904 20.5039 64.8327C20.5659 64.5172 20.6279 64.1702 20.6899 63.8231C20.907 62.4665 21.186 60.9837 21.4341 59.4063C21.9923 56.2514 22.6124 52.6864 23.2946 48.7744C23.9457 44.8939 24.6899 40.6663 25.4651 36.218C25.8682 33.978 26.2403 31.7065 26.6744 29.3403C26.8605 28.173 27.0775 27.0057 27.2946 25.7753C27.4806 24.608 27.7907 23.3145 27.7907 22.3681C27.8217 21.3585 27.5426 20.3805 27.0155 19.4971C26.8605 19.2763 26.7675 19.0554 26.5814 18.8662C26.4264 18.6769 26.2713 18.4876 26.0543 18.3298C25.7442 18.0459 25.093 17.5411 24.5969 17.0679C23.5736 16.0899 22.7054 14.8595 22.1783 13.4713C21.6512 12.0516 21.4961 10.4742 21.7752 8.9914C22.0543 7.47706 22.7364 6.08891 23.6357 4.9216C24.5659 3.7543 25.7132 2.83939 26.9225 2.11377C29.3721 0.630974 32.1938 0.0315488 34.9845 0C37.7752 0.0315488 40.5969 0.630974 43.0465 2.11377C44.2868 2.83939 45.4031 3.78585 46.3333 4.9216C47.2636 6.05736 47.9457 7.47706 48.2248 8.9914C48.5039 10.5057 48.3488 12.0832 47.7907 13.4713C47.2636 14.891 46.3953 16.0899 45.3721 17.0679C44.876 17.5411 44.2248 18.0459 43.9147 18.3298C43.7287 18.4876 43.5736 18.6769 43.3876 18.8662C43.2015 19.0554 43.0775 19.2763 42.9535 19.4971C42.4264 20.3489 42.1473 21.3585 42.1783 22.3681C42.2093 23.283 42.4884 24.5765 42.6744 25.7753C42.8915 26.9742 43.1085 28.173 43.2946 29.3403C43.7287 31.675 44.1008 33.978 44.5039 36.218C45.2791 40.6663 45.9923 44.8939 46.6744 48.7744C47.3566 52.6549 47.9767 56.2199 48.5039 59.4063C48.7829 60.9837 49.031 62.4665 49.2791 63.8231C49.3411 64.1702 49.4031 64.5172 49.4651 64.8327C49.4961 64.9904 49.5271 65.1797 49.5581 65.3059C49.5891 65.369 49.5892 65.4006 49.6202 65.4637C49.7132 65.6845 49.9302 65.8107 50.1163 65.8738C50.1783 65.9054 50.2093 65.8738 50.2713 65.9054C50.4264 65.9054 50.5504 65.9054 50.7054 65.9054C50.9535 65.9054 51.2326 65.9054 51.4806 65.9054C51.9767 65.9054 52.4729 65.9054 52.907 65.9054C53.7752 65.9054 54.5504 65.9054 55.1395 65.9054C56.3488 65.9054 57 65.9054 57 65.9054V66C57 66 56.3488 66 55.1395 66C54.5504 66 53.7752 66 52.907 66C52.4729 66 51.9767 66 51.4806 66C51.2326 66 50.9535 66 50.7054 66C50.5504 66 50.4264 66 50.2713 66C50.2093 65.9684 50.1473 66 50.1163 65.9684C49.8992 65.9053 49.6512 65.7792 49.5581 65.5268C49.4961 65.4637 49.4961 65.4006 49.4651 65.369C49.4341 65.2428 49.4031 65.0535 49.3721 64.8958C49.3101 64.5803 49.2481 64.2333 49.186 63.8862C48.969 62.5296 48.6899 61.0468 48.4419 59.4694C47.8837 56.3145 47.2636 52.718 46.6124 48.8375C45.9302 44.957 45.1861 40.7294 44.4109 36.2811C44.0388 34.0411 43.6357 31.7696 43.2326 29.435C43.0155 28.2677 42.7984 27.0688 42.6124 25.87C42.4264 24.7027 42.1163 23.4092 42.0853 22.4627C42.0543 21.4532 42.3333 20.412 42.8915 19.5602C43.0465 19.3394 43.1395 19.1185 43.3566 18.9293C43.5116 18.74 43.6667 18.5191 43.8837 18.3614C44.1938 18.0459 44.845 17.5727 45.3411 17.0994C46.3333 16.1214 47.2015 14.9226 47.7287 13.5344C48.2558 12.1463 48.4109 10.5688 48.1318 9.08604C47.8837 7.60325 47.1706 6.2151 46.2713 5.07935C45.3411 3.94359 44.2248 2.99713 43.0155 2.27151C40.5659 0.820267 37.7752 0.189293 35.0155 0.157744C32.2558 0.189293 29.4341 0.788718 27.0155 2.27151C25.7752 2.99713 24.6589 3.91204 23.7597 5.07935C22.8295 6.2151 22.1473 7.60325 21.8992 9.08604C21.6512 10.5688 21.7752 12.1463 22.3333 13.5344C22.8605 14.9226 23.7287 16.1214 24.7209 17.0994C25.2171 17.5727 25.8372 18.0459 26.1473 18.3614C26.3643 18.5191 26.5194 18.7084 26.6744 18.9293C26.8605 19.1185 26.9845 19.3394 27.1395 19.5602C27.6667 20.4436 27.9457 21.4532 27.9457 22.4627C27.9147 23.4092 27.6357 24.7027 27.4186 25.87C27.2015 27.0688 27.0155 28.2361 26.7984 29.435C26.3953 31.7696 25.9923 34.0727 25.5892 36.2811C24.814 40.7294 24.1008 44.957 23.4186 48.8375C22.7364 52.718 22.1163 56.283 21.5891 59.4694C21.3101 61.0468 21.062 62.5296 20.814 63.8862C20.7519 64.2333 20.6899 64.5803 20.6589 64.8958C20.6279 65.0535 20.5969 65.2113 20.5659 65.369C20.5349 65.4321 20.5349 65.4637 20.5039 65.5268C20.4109 65.7792 20.1628 65.9053 19.9457 65.9684C19.8837 66 19.8217 65.9684 19.7597 66C19.6357 66 19.4806 66 19.3566 66C19.1085 66 18.8295 66 18.5814 66C18.0853 66 17.5892 66 17.155 66C16.2868 66 15.5116 66 14.9225 66C13.6822 66 13.062 66 13.062 66V65.9054H13Z" fill="#E1DBDA"/>
<defs>
<linearGradient id="paint0_linear_89_3576" x1="1.99999" y1="47.5" x2="67" y2="47.5" gradientUnits="userSpaceOnUse">
<stop stop-color="#4B4B49"/>
<stop offset="0.0409235" stop-color="#424240"/>
<stop offset="0.1088" stop-color="#282826"/>
<stop offset="0.1342" stop-color="#1D1D1B"/>
<stop offset="0.193" stop-color="#222220"/>
<stop offset="0.2609" stop-color="#30302E"/>
<stop offset="0.3333" stop-color="#474745"/>
<stop offset="0.4089" stop-color="#676765"/>
<stop offset="0.487" stop-color="#90908F"/>
<stop offset="0.5659" stop-color="#C2C2C1"/>
<stop offset="0.6158" stop-color="#E5E5E5"/>
<stop offset="0.6499" stop-color="#E0E0E0"/>
<stop offset="0.6911" stop-color="#D1D1D1"/>
<stop offset="0.7361" stop-color="#B9B9B9"/>
<stop offset="0.7838" stop-color="#979796"/>
<stop offset="0.8336" stop-color="#6B6B6A"/>
<stop offset="0.8844" stop-color="#363635"/>
<stop offset="0.8883" stop-color="#323231"/>
<stop offset="1" stop-color="#727270"/>
</linearGradient>
</defs>
</svg>
