<svg width="41" height="27" viewBox="0 0 41 27" fill="none" xmlns="http://www.w3.org/2000/svg">
<path d="M27.2819 18.3103C19.7049 18.3103 13.5639 16.115 13.5639 13.4014C13.5639 12.7306 13.5639 9.89502 13.5639 9.89502L41 9.62061V13.4014C41 16.115 34.8589 18.3103 27.2819 18.3103Z" fill="#E3B400"/>
<path d="M27.1278 14.8965V17.9999C27.0329 17.9999 26.9144 17.9999 26.8195 17.9999V14.8965H27.1278Z" fill="#E0920B"/>
<path d="M28.6691 14.9258V17.9999C28.5743 17.9999 28.4557 17.9999 28.3609 17.9999V14.8965H28.6691V14.9258Z" fill="#E0920B"/>
<path d="M25.5864 14.5864V18.0002C25.4916 18.0002 25.373 18.0002 25.2782 17.9697V14.5864H25.5864Z" fill="#E0920B"/>
<path d="M24.0451 14.2754V17.9995C23.9502 17.9995 23.8317 17.9687 23.7368 17.9687V14.2754H24.0451Z" fill="#E0920B"/>
<path d="M20.9624 13.6851V17.3789C20.8675 17.3486 20.7489 17.3184 20.6541 17.2881V13.6548H20.9624V13.6851Z" fill="#E0920B"/>
<path d="M19.421 13.3447V17.0689C19.3262 17.0391 19.2076 17.0093 19.1127 16.9795V13.3447H19.421Z" fill="#E0920B"/>
<path d="M17.8797 13.065V16.7583C17.7611 16.7275 17.6662 16.666 17.5714 16.6044V13.0342H17.8797V13.065Z" fill="#E0920B"/>
<path d="M16.03 15.8274V12.4136H15.7218V15.5899L16.03 15.8274Z" fill="#E0920B"/>
<path d="M14.4887 14.8962V11.4824H14.1804V14.5069L14.4887 14.8962Z" fill="#E0920B"/>
<path d="M22.5037 13.6548V17.6893C22.4089 17.6582 22.2903 17.6582 22.1954 17.6272V13.6548H22.5037Z" fill="#E0920B"/>
<path d="M30.5188 14.5864V17.9705C30.4239 17.9705 30.3053 18.0002 30.2105 18.0002V14.5864H30.5188Z" fill="#E0920B"/>
<path d="M32.0601 14.2754V17.6313C31.9653 17.6603 31.8467 17.6603 31.7519 17.6892V14.3043H32.0601V14.2754Z" fill="#E0920B"/>
<path d="M33.6015 13.6548V17.3193C33.5066 17.3491 33.3881 17.3789 33.2932 17.3789V13.6548H33.6015Z" fill="#E0920B"/>
<path d="M35.1428 13.6548V16.9818C35.048 17.0107 34.9294 17.0396 34.8345 17.0686V13.6548H35.1428Z" fill="#E0920B"/>
<path d="M36.6842 13.0342V16.6372C36.5893 16.6675 36.4707 16.728 36.3759 16.7583V13.0342H36.6842Z" fill="#E0920B"/>
<path d="M38.8421 15.9205V12.4136H38.5338V16.1377L38.8421 15.9205Z" fill="#E0920B"/>
<path d="M40.3834 11.4824V14.8402C40.2886 14.9624 40.1937 15.0845 40.0751 15.2066V11.4824H40.3834Z" fill="#E0920B"/>
<path opacity="0.5" d="M29.3987 17.6724C21.7734 17.6724 17.5918 15.8205 17.5918 13.1184C17.5918 12.6327 17.5918 11.0843 17.5918 10.2343L13.5639 9.93066C13.5639 9.93066 13.5639 12.7541 13.5639 13.422C13.5639 16.1241 19.7441 18.31 27.3694 18.31C31.2743 18.31 34.7794 17.7331 37.3007 16.8223C35.0562 17.3385 32.3504 17.6724 29.3987 17.6724Z" fill="#D67D12"/>
<path opacity="0.3" d="M15.3764 13.5435C15.3764 13.0577 15.3764 10.9022 15.3764 10.0217L13.5639 9.93066C13.5639 9.93066 13.5639 12.7541 13.5639 13.422C13.5639 16.1241 19.6359 18.31 27.1278 18.31C22.0224 17.7028 15.3764 16.2455 15.3764 13.5435Z" fill="#844B0D"/>
<path opacity="0.3" d="M19.1127 13.2388C19.1127 13.2388 20.4199 15.9273 25.0101 16.6381C37.5041 18.585 41 13.3006 41 13.3006V10.2412L19.1127 13.2388Z" fill="white"/>
<path opacity="0.5" d="M21.8872 12.7185C21.8872 12.7185 23.0511 14.9172 27.0329 15.5055C37.937 17.1158 41 12.1611 41 12.1611V10.2412L21.8872 12.7185Z" fill="#FFF8C3"/>
<path d="M27.2819 15.5173C19.7049 15.5173 13.5639 13.2345 13.5639 10.3966C13.5639 7.55859 19.7049 5.27588 27.2819 5.27588C34.8589 5.27588 41 7.55859 41 10.3966C41 13.2345 34.8589 15.5173 27.2819 15.5173Z" fill="#FFEF4A"/>
<path d="M27.282 14.8964C34.8582 14.8964 41 12.6732 41 9.93085C41 7.18847 34.8582 4.96533 27.282 4.96533C19.7057 4.96533 13.5639 7.18847 13.5639 9.93085C13.5639 12.6732 19.7057 14.8964 27.282 14.8964Z" fill="#FDC800"/>
<path d="M27.4361 13.6552C20.9825 13.6552 15.7218 11.7897 15.7218 9.46553C15.7218 7.14134 20.9519 5.27588 27.4361 5.27588C33.8896 5.27588 39.1503 7.14134 39.1503 9.46553C39.1503 11.7897 33.8896 13.6552 27.4361 13.6552Z" fill="#FDC800"/>
<path d="M16.9494 9.97355C16.9494 7.62471 22.1973 5.73946 28.7035 5.73946C31.619 5.73946 34.3197 6.14124 36.3759 6.75935C34.2276 5.86308 31.0359 5.27588 27.4759 5.27588C21.0004 5.27588 15.7218 7.16113 15.7218 9.50996C15.7218 10.808 17.2869 11.9515 19.8035 12.7242C18.0235 11.9824 16.9494 11.0243 16.9494 9.97355Z" fill="#F5A20A"/>
<path d="M22.9944 8.07327C22.9944 8.07327 20.2381 10.1889 23.4231 10.6955C27.0981 11.2617 27.4349 8.19246 31.0486 8.07327C34.7542 7.95407 34.5705 10.2783 32.1511 11.1723" stroke="#F39411" stroke-width="3.4399" stroke-miterlimit="10"/>
<path d="M21.8872 9.62061H19.421" stroke="#F39411" stroke-width="3.4399" stroke-miterlimit="10"/>
<path d="M36.3759 9.62061H33.9098" stroke="#F39411" stroke-width="3.4399" stroke-miterlimit="10"/>
<g opacity="0.5">
<path opacity="0.5" d="M36.3233 13.3446L20.0375 5.566C21.2359 5.2957 22.5879 5.08547 24.0321 4.96533L39.1503 12.1733C38.3821 12.6238 37.4295 13.0143 36.3233 13.3446Z" fill="white"/>
<path opacity="0.5" d="M32.9881 14.2758L16.9548 6.42212C17.4164 6.2366 17.9396 6.05108 18.4935 5.89648L34.8345 13.9048C34.2498 14.0284 33.6343 14.1521 32.9881 14.2758Z" fill="white"/>
<path d="M29.6083 14.586L15.1052 7.53291L15.7146 7.1377L30.827 14.4948C30.4005 14.5252 30.0044 14.5556 29.6083 14.586Z" fill="white"/>
</g>
<path d="M25.7406 13.3449C18.1636 13.3449 12.0225 11.1497 12.0225 8.43604C12.0225 7.76526 12.0225 4.92969 12.0225 4.92969L39.4586 4.65527V8.43604C39.4586 11.1497 33.3176 13.3449 25.7406 13.3449Z" fill="#E3B400"/>
<path d="M25.2782 9.93115V13.0346C25.1596 13.0346 25.0648 13.0346 24.9699 13.0346V9.93115H25.2782Z" fill="#E0920B"/>
<path d="M27.1278 9.96043V13.0346C27.0329 13.0346 26.9144 13.0346 26.8195 13.0346V9.93115H27.1278V9.96043Z" fill="#E0920B"/>
<path d="M24.0451 9.62061V13.0344C23.9503 13.0344 23.8317 13.0344 23.7368 13.0039V9.62061H24.0451Z" fill="#E0920B"/>
<path d="M22.5038 9.31006V13.0342C22.4089 13.0342 22.2903 13.0034 22.1955 13.0034V9.31006H22.5038Z" fill="#E0920B"/>
<path d="M19.421 8.71973V12.4136C19.3262 12.3833 19.2076 12.353 19.1128 12.3228V8.68945H19.421V8.71973Z" fill="#E0920B"/>
<path d="M17.8797 8.37939V12.1035C17.7848 12.0737 17.6663 12.0439 17.5714 12.0142V8.37939H17.8797Z" fill="#E0920B"/>
<path d="M16.3383 8.09962V11.793C16.2198 11.7622 16.1249 11.7007 16.0301 11.6391V8.06885H16.3383V8.09962Z" fill="#E0920B"/>
<path d="M14.4887 10.862V7.44824H14.1805V10.6246L14.4887 10.862Z" fill="#E0920B"/>
<path d="M12.9473 9.93088V6.51709H12.6391V9.54159L12.9473 9.93088Z" fill="#E0920B"/>
<path d="M20.6541 9V13.0345C20.5593 13.0034 20.4407 13.0034 20.3459 12.9724V9H20.6541Z" fill="#E0920B"/>
<path d="M28.6691 9.62061V13.0047C28.5743 13.0047 28.4557 13.0344 28.3609 13.0344V9.62061H28.6691Z" fill="#E0920B"/>
<path d="M30.2105 9.31006V12.666C30.1156 12.6949 29.9971 12.6949 29.9022 12.7239V9.33899H30.2105V9.31006Z" fill="#E0920B"/>
<path d="M31.7519 9V12.6646C31.657 12.6943 31.5385 12.7241 31.4436 12.7241V9H31.7519Z" fill="#E0920B"/>
<path d="M33.2932 8.68945V12.0165C33.1984 12.0454 33.0798 12.0743 32.985 12.1032V8.68945H33.2932Z" fill="#E0920B"/>
<path d="M34.8346 8.06885V11.6719C34.7397 11.7022 34.6212 11.7627 34.5263 11.793V8.06885H34.8346Z" fill="#E0920B"/>
<path d="M36.9925 10.9551V7.44824H36.6842V11.1724L36.9925 10.9551Z" fill="#E0920B"/>
<path d="M38.5338 6.51709V9.87492C38.439 9.99702 38.3441 10.1191 38.2256 10.2412V6.51709H38.5338Z" fill="#E0920B"/>
<path opacity="0.5" d="M27.6517 12.7071C20.1254 12.7071 15.9981 10.8551 15.9981 8.15311C15.9981 7.66736 15.9981 6.119 15.9981 5.26893L12.0225 4.96533C12.0225 4.96533 12.0225 7.78879 12.0225 8.45671C12.0225 11.1587 18.1224 13.3446 25.6487 13.3446C29.5029 13.3446 32.9626 12.7678 35.4511 11.857C33.2357 12.3731 30.5347 12.7071 27.6517 12.7071Z" fill="#D67D12"/>
<path opacity="0.3" d="M13.8351 8.57815C13.8351 8.09239 13.8351 5.93684 13.8351 5.05641L12.0225 4.96533C12.0225 4.96533 12.0225 7.7888 12.0225 8.45671C12.0225 11.1587 18.0946 13.3446 25.5864 13.3446C20.4509 12.7374 13.8351 11.2802 13.8351 8.57815Z" fill="#844B0D"/>
<path opacity="0.3" d="M17.5714 8.27345C17.5714 8.27345 18.8786 10.962 23.4688 11.6727C35.9628 13.6196 39.4586 8.33526 39.4586 8.33526V5.27588L17.5714 8.27345Z" fill="white"/>
<path opacity="0.5" d="M20.3458 7.7532C20.3458 7.7532 21.5098 9.95182 25.4916 10.5402C36.3957 12.1504 39.4586 7.1958 39.4586 7.1958V5.27588L20.3458 7.7532Z" fill="#FFF8C3"/>
<path d="M25.7406 10.5514C18.1636 10.5514 12.0225 8.26872 12.0225 5.43075C12.0225 2.59278 18.1636 0.310059 25.7406 0.310059C33.3176 0.310059 39.4586 2.59278 39.4586 5.43075C39.4586 8.23788 33.3176 10.5514 25.7406 10.5514Z" fill="#FFEF4A"/>
<path d="M25.7406 9.93103C33.3169 9.93103 39.4586 7.70789 39.4586 4.96551C39.4586 2.22313 33.3169 0 25.7406 0C18.1643 0 12.0226 2.22313 12.0226 4.96551C12.0226 7.70789 18.1643 9.93103 25.7406 9.93103Z" fill="#FFDD00"/>
<path d="M25.8947 8.68937C19.4412 8.68937 14.1805 6.8239 14.1805 4.49971C14.1805 2.17552 19.4106 0.310059 25.8947 0.310059C32.3483 0.310059 37.609 2.17552 37.609 4.49971C37.609 6.8239 32.3789 8.68937 25.8947 8.68937Z" fill="#FDC800"/>
<path d="M15.408 5.00773C15.408 2.65889 20.656 0.773644 27.1622 0.773644C30.0777 0.773644 32.7784 1.17541 34.8346 1.79353C32.6863 0.897263 29.4946 0.310059 25.9346 0.310059C19.4591 0.310059 14.1805 2.19531 14.1805 4.54414C14.1805 5.84218 15.7456 6.98569 18.2622 7.75833C16.4822 7.0475 15.408 6.05852 15.408 5.00773Z" fill="#F5A20A"/>
<path d="M25.192 5.86539C25.2232 5.86539 25.2857 5.86539 25.317 5.86539C25.5671 5.86539 25.7859 5.83407 25.9734 5.77143C26.0047 5.77143 26.0672 5.74011 26.0984 5.74011C26.1297 5.74011 26.1922 5.70879 26.2235 5.70879C26.8174 5.48956 27.1925 5.11373 27.3175 4.76921H27.3488C27.6926 5.33296 28.4428 5.67747 29.2555 5.67747C29.2555 5.64615 29.2555 5.64615 29.2555 5.61483C29.2243 5.3956 29.0992 5.20768 28.9429 5.01976C28.9429 4.98844 28.9117 4.95713 28.8804 4.95713C28.4428 4.89449 28.099 4.70657 27.8802 4.4247C27.8489 4.39338 27.8489 4.36206 27.8176 4.33074C27.8176 4.29942 27.7864 4.2681 27.7864 4.23678C27.7239 4.11151 27.6926 3.95491 27.6926 3.79832V3.17193H30.5059C30.5371 3.29721 30.5996 3.4538 30.5996 3.79832C30.5996 4.23679 30.4433 4.5813 30.0682 4.76921C30.0682 4.80053 30.0995 4.80053 30.1308 4.83185C30.2558 4.98845 30.3496 5.17636 30.4121 5.36428C30.4121 5.3956 30.4121 5.42691 30.4433 5.42691C30.5996 5.36428 30.7247 5.27032 30.8184 5.20768C31.2561 4.86317 31.4436 4.4247 31.4436 3.73568C31.4436 3.26589 31.3811 2.76478 31.2561 2.48291H22.5975C22.535 2.70214 22.5038 3.07797 22.5038 3.54776C22.5038 3.70436 22.5038 3.86095 22.535 4.01755C22.535 4.04887 22.535 4.08019 22.535 4.11151C22.535 4.14283 22.535 4.17415 22.535 4.20547C22.5663 4.4247 22.6288 4.61262 22.7226 4.76921C22.7226 4.80053 22.7538 4.83185 22.7538 4.86317C22.7851 4.89449 22.7851 4.92581 22.8163 4.95713C22.9414 5.14504 23.0977 5.30164 23.3165 5.45824C23.7228 5.70879 24.2855 5.8967 25.0044 5.8967C25.0357 5.8967 25.0357 5.8967 25.0669 5.8967C25.1607 5.86538 25.192 5.86539 25.192 5.86539ZM23.6291 4.51866C23.6291 4.48734 23.5978 4.48734 23.5978 4.45602C23.5978 4.4247 23.5665 4.4247 23.5665 4.39338C23.504 4.23678 23.4728 4.08019 23.4415 3.89227C23.4415 3.86096 23.4415 3.82964 23.4415 3.82964V3.767C23.4415 3.54776 23.4415 3.35985 23.504 3.23457H26.8486V3.79832C26.8486 3.92359 26.8487 4.01755 26.8174 4.14283C26.8174 4.17415 26.8174 4.17415 26.8174 4.20547V4.2681C26.6298 4.80053 26.1297 5.20768 25.192 5.20768C24.348 5.14504 23.8791 4.89449 23.6291 4.51866ZM29.5369 5.67747C29.7869 5.67747 30.0057 5.61483 30.2245 5.55219C30.2558 5.55219 30.3183 5.52087 30.3496 5.52087C30.3496 5.48955 30.3496 5.45824 30.3496 5.45824C30.287 5.27032 30.1933 5.08241 30.0682 4.92581C30.0682 4.89449 30.037 4.89449 30.0057 4.86317C29.9745 4.86317 29.9432 4.89449 29.912 4.89449C29.7244 4.95713 29.5056 4.98845 29.2243 4.98845H29.193C29.1618 4.98845 29.0992 4.98845 29.068 4.98845C29.0992 5.01977 29.0992 5.01977 29.1305 5.05109C29.2868 5.239 29.3806 5.42692 29.4431 5.61483C29.4431 5.64615 29.4431 5.64615 29.4431 5.67747C29.4743 5.67747 29.5056 5.67747 29.5369 5.67747Z" fill="#F39411"/>
<path d="M29.2243 5.05109C29.4431 5.05109 29.6931 5.01976 29.912 4.95713C29.9432 4.95713 29.9745 4.92581 30.037 4.92581C30.037 4.89449 30.0057 4.89449 29.9745 4.86317C29.9745 4.83185 29.9432 4.83185 29.912 4.80053C29.8807 4.83185 29.8494 4.83185 29.8182 4.83185C29.6306 4.89449 29.4118 4.92581 29.1617 4.92581H29.1305C29.068 4.92581 29.0055 4.92581 28.9742 4.92581C29.0055 4.95713 29.0367 4.95713 29.068 4.98845C29.0992 5.01977 29.0992 5.01977 29.1305 5.05109C29.1618 5.05109 29.1618 5.05109 29.193 5.05109C29.2243 5.05109 29.193 5.05109 29.2243 5.05109ZM28.8492 4.95713C28.4116 4.89449 28.0677 4.70657 27.8489 4.4247C27.8177 4.39338 27.8176 4.36206 27.7864 4.33074C27.7864 4.29942 27.7551 4.2681 27.7551 4.23678C27.6926 4.11151 27.6614 3.95491 27.6614 3.79832V3.17193H30.4746C30.5059 3.29721 30.5684 3.4538 30.5684 3.79832C30.5684 4.23679 30.4121 4.5813 30.037 4.76921C30.037 4.80053 30.0682 4.80053 30.0995 4.83185C30.4433 4.64394 30.6934 4.33074 30.6934 3.79832C30.6934 3.54776 30.6621 3.32853 30.5996 3.17193L30.5684 3.10929H27.5051V3.79832C27.5051 3.95491 27.5363 4.08019 27.5676 4.20547C27.5676 4.23679 27.5988 4.2681 27.5988 4.2681C27.5988 4.29942 27.6301 4.33074 27.6614 4.36206C27.8802 4.70657 28.3178 4.95713 28.8804 4.98845C28.9117 4.98845 28.8804 4.98845 28.8492 4.95713ZM26.8799 4.23678C26.8799 4.20546 26.8799 4.20547 26.8799 4.17415C26.8799 4.14283 26.8799 4.14283 26.9112 4.11151C26.9424 4.01755 26.9424 3.89227 26.9424 3.767V3.14061H23.3477V3.20325C23.3165 3.32853 23.2852 3.51644 23.2852 3.79832C23.2852 3.82964 23.2852 3.86095 23.2852 3.86095C23.2852 3.89227 23.2852 3.92359 23.2852 3.92359C23.2852 4.11151 23.3477 4.2681 23.4102 4.4247C23.4102 4.45602 23.4415 4.48734 23.4415 4.48734C23.4415 4.51866 23.4728 4.51866 23.4728 4.54998C23.7541 4.98844 24.3167 5.20768 25.0982 5.20768C26.0672 5.20768 26.6611 4.86317 26.8799 4.23678ZM23.5978 4.51866C23.5978 4.48734 23.5665 4.48734 23.5665 4.45602C23.5665 4.4247 23.5353 4.4247 23.5353 4.39338C23.4728 4.23678 23.4415 4.08019 23.4102 3.89227C23.4102 3.86096 23.4102 3.82964 23.4102 3.82964V3.767C23.4102 3.54776 23.4102 3.35985 23.4728 3.23457H26.8174V3.79832C26.8174 3.92359 26.8174 4.01755 26.7861 4.14283C26.7861 4.17415 26.7861 4.17415 26.7861 4.20547V4.2681C26.5986 4.80053 26.0984 5.20768 25.1607 5.20768C24.3167 5.14504 23.8479 4.89449 23.5978 4.51866ZM25.1607 5.86539V5.80274C25.1294 5.80274 25.1294 5.80274 25.0982 5.80274C25.0669 5.80274 25.0669 5.80274 25.0357 5.80274C24.4105 5.80274 23.8791 5.64615 23.4415 5.36428C23.2227 5.239 23.0664 5.05109 22.9414 4.83185C22.9414 4.80053 22.9101 4.76921 22.9101 4.73789C22.8788 4.76921 22.8476 4.76921 22.8163 4.80053C22.8476 4.83185 22.8476 4.86317 22.8789 4.89449C23.0039 5.0824 23.1602 5.239 23.379 5.3956C23.7853 5.64615 24.348 5.83407 25.0669 5.83407C25.0982 5.83407 25.0982 5.83407 25.1294 5.83407C25.1294 5.86538 25.1607 5.86539 25.1607 5.86539ZM26.8799 4.23678C26.8799 4.20546 26.8799 4.20547 26.8799 4.17415C26.8799 4.14283 26.8799 4.14283 26.9112 4.11151C26.9424 4.01755 26.9424 3.89227 26.9424 3.767V3.14061H23.3477V3.20325C23.3165 3.32853 23.2852 3.51644 23.2852 3.79832C23.2852 3.82964 23.2852 3.86095 23.2852 3.86095C23.2852 3.89227 23.2852 3.92359 23.2852 3.92359C23.2852 4.11151 23.3477 4.2681 23.4102 4.4247C23.4102 4.45602 23.4415 4.48734 23.4415 4.48734C23.4415 4.51866 23.4728 4.51866 23.4728 4.54998C23.7541 4.98844 24.3167 5.20768 25.0982 5.20768C26.0672 5.20768 26.6611 4.86317 26.8799 4.23678ZM23.5978 4.51866C23.5978 4.48734 23.5665 4.48734 23.5665 4.45602C23.5665 4.4247 23.5353 4.4247 23.5353 4.39338C23.4728 4.23678 23.4415 4.08019 23.4102 3.89227C23.4102 3.86096 23.4102 3.82964 23.4102 3.82964V3.767C23.4102 3.54776 23.4102 3.35985 23.4728 3.23457H26.8174V3.79832C26.8174 3.92359 26.8174 4.01755 26.7861 4.14283C26.7861 4.17415 26.7861 4.17415 26.7861 4.20547V4.2681C26.5986 4.80053 26.0984 5.20768 25.1607 5.20768C24.3167 5.14504 23.8479 4.89449 23.5978 4.51866ZM29.2243 5.05109C29.4431 5.05109 29.6931 5.01976 29.912 4.95713C29.9432 4.95713 29.9745 4.92581 30.037 4.92581C30.037 4.89449 30.0057 4.89449 29.9745 4.86317C29.9745 4.83185 29.9432 4.83185 29.912 4.80053C29.8807 4.83185 29.8494 4.83185 29.8182 4.83185C29.6306 4.89449 29.4118 4.92581 29.1617 4.92581H29.1305C29.068 4.92581 29.0055 4.92581 28.9742 4.92581C29.0055 4.95713 29.0367 4.95713 29.068 4.98845C29.0992 5.01977 29.0992 5.01977 29.1305 5.05109C29.1618 5.05109 29.1618 5.05109 29.193 5.05109C29.2243 5.05109 29.193 5.05109 29.2243 5.05109ZM28.8492 4.95713C28.4116 4.89449 28.0677 4.70657 27.8489 4.4247C27.8177 4.39338 27.8176 4.36206 27.7864 4.33074C27.7864 4.29942 27.7551 4.2681 27.7551 4.23678C27.6926 4.11151 27.6614 3.95491 27.6614 3.79832V3.17193H30.4746C30.5059 3.29721 30.5684 3.4538 30.5684 3.79832C30.5684 4.23679 30.4121 4.5813 30.037 4.76921C30.037 4.80053 30.0682 4.80053 30.0995 4.83185C30.4433 4.64394 30.6934 4.33074 30.6934 3.79832C30.6934 3.54776 30.6621 3.32853 30.5996 3.17193L30.5684 3.10929H27.5051V3.79832C27.5051 3.95491 27.5363 4.08019 27.5676 4.20547C27.5676 4.23679 27.5988 4.2681 27.5988 4.2681C27.5988 4.29942 27.6301 4.33074 27.6614 4.36206C27.8802 4.70657 28.3178 4.95713 28.8804 4.98845C28.9117 4.98845 28.8804 4.98845 28.8492 4.95713ZM26.8799 4.23678C26.8799 4.20546 26.8799 4.20547 26.8799 4.17415C26.8799 4.14283 26.8799 4.14283 26.9112 4.11151C26.9424 4.01755 26.9424 3.89227 26.9424 3.767V3.14061H23.3477V3.20325C23.3165 3.32853 23.2852 3.51644 23.2852 3.79832C23.2852 3.82964 23.2852 3.86095 23.2852 3.86095C23.2852 3.89227 23.2852 3.92359 23.2852 3.92359C23.2852 4.11151 23.3477 4.2681 23.4102 4.4247C23.4102 4.45602 23.4415 4.48734 23.4415 4.48734C23.4415 4.51866 23.4728 4.51866 23.4728 4.54998C23.7541 4.98844 24.3167 5.20768 25.0982 5.20768C26.0672 5.20768 26.6611 4.86317 26.8799 4.23678ZM23.5978 4.51866C23.5978 4.48734 23.5665 4.48734 23.5665 4.45602C23.5665 4.4247 23.5353 4.4247 23.5353 4.39338C23.4728 4.23678 23.4415 4.08019 23.4102 3.89227C23.4102 3.86096 23.4102 3.82964 23.4102 3.82964V3.767C23.4102 3.54776 23.4102 3.35985 23.4728 3.23457H26.8174V3.79832C26.8174 3.92359 26.8174 4.01755 26.7861 4.14283C26.7861 4.17415 26.7861 4.17415 26.7861 4.20547V4.2681C26.5986 4.80053 26.0984 5.20768 25.1607 5.20768C24.3167 5.14504 23.8479 4.89449 23.5978 4.51866ZM29.2243 5.05109C29.4431 5.05109 29.6931 5.01976 29.912 4.95713C29.9432 4.95713 29.9745 4.92581 30.037 4.92581C30.037 4.89449 30.0057 4.89449 29.9745 4.86317C29.9745 4.83185 29.9432 4.83185 29.912 4.80053C29.8807 4.83185 29.8494 4.83185 29.8182 4.83185C29.6306 4.89449 29.4118 4.92581 29.1617 4.92581H29.1305C29.068 4.92581 29.0055 4.92581 28.9742 4.92581C29.0055 4.95713 29.0367 4.95713 29.068 4.98845C29.0992 5.01977 29.0992 5.01977 29.1305 5.05109C29.1618 5.05109 29.1618 5.05109 29.193 5.05109C29.2243 5.05109 29.193 5.05109 29.2243 5.05109ZM28.8492 4.95713C28.4116 4.89449 28.0677 4.70657 27.8489 4.4247C27.8177 4.39338 27.8176 4.36206 27.7864 4.33074C27.7864 4.29942 27.7551 4.2681 27.7551 4.23678C27.6926 4.11151 27.6614 3.95491 27.6614 3.79832V3.17193H30.4746C30.5059 3.29721 30.5684 3.4538 30.5684 3.79832C30.5684 4.23679 30.4121 4.5813 30.037 4.76921C30.037 4.80053 30.0682 4.80053 30.0995 4.83185C30.4433 4.64394 30.6934 4.33074 30.6934 3.79832C30.6934 3.54776 30.6621 3.32853 30.5996 3.17193L30.5684 3.10929H27.5051V3.79832C27.5051 3.95491 27.5363 4.08019 27.5676 4.20547C27.5676 4.23679 27.5988 4.2681 27.5988 4.2681C27.5988 4.29942 27.6301 4.33074 27.6614 4.36206C27.8802 4.70657 28.3178 4.95713 28.8804 4.98845C28.9117 4.98845 28.8804 4.98845 28.8492 4.95713ZM25.1607 5.86539C25.192 5.86539 25.2545 5.86539 25.2857 5.86539C25.5358 5.86539 25.7546 5.83407 25.9422 5.77143C25.9734 5.77143 26.0359 5.74011 26.0672 5.74011C26.0984 5.74011 26.161 5.70879 26.1922 5.70879C26.7861 5.48956 27.1612 5.11373 27.2863 4.76921H27.3175C27.6614 5.33296 28.4116 5.67747 29.2243 5.67747C29.2243 5.64615 29.2243 5.64615 29.2243 5.61483C28.4428 5.61483 27.7551 5.27032 27.4425 4.76921L27.38 4.73789H27.1925L27.1612 4.80053C27.0362 5.11372 26.7236 5.45823 26.1922 5.64615C26.161 5.67747 26.0984 5.67747 26.0672 5.70879C26.0359 5.70879 25.9734 5.74011 25.9422 5.74011C25.7546 5.80275 25.5358 5.83407 25.2857 5.83407C25.2545 5.83407 25.192 5.83407 25.1607 5.83407C25.1294 5.83407 25.1294 5.83407 25.0982 5.83407C25.0669 5.83407 25.0669 5.83407 25.0357 5.83407C24.4105 5.83407 23.8791 5.67747 23.4415 5.3956C23.2227 5.27032 23.0664 5.0824 22.9414 4.86317C22.9414 4.83185 22.9101 4.80053 22.9101 4.76921C22.9101 4.73789 22.8789 4.70657 22.8789 4.67526C22.8163 4.51866 22.7538 4.33074 22.7226 4.11151C22.7226 4.08019 22.7226 4.04887 22.7226 4.01755C22.7226 3.98623 22.7226 3.95491 22.7226 3.95491C22.7226 3.82964 22.6913 3.70436 22.6913 3.54776C22.6913 3.07797 22.7538 2.73346 22.7851 2.54555H31.1935C31.2873 2.85874 31.3498 3.32853 31.3498 3.73568C31.3498 4.4247 31.1623 4.83185 30.7247 5.17636C30.6309 5.239 30.5371 5.30164 30.4121 5.36428C30.4121 5.3956 30.4121 5.42691 30.4433 5.42691C30.5996 5.36428 30.7247 5.27032 30.8184 5.20768C31.2561 4.86317 31.4436 4.4247 31.4436 3.73568C31.4436 3.26589 31.3811 2.76478 31.2561 2.48291H22.5975C22.535 2.70214 22.5038 3.07797 22.5038 3.54776C22.5038 3.70436 22.5038 3.86095 22.535 4.01755C22.535 4.04887 22.535 4.08019 22.535 4.11151C22.535 4.14283 22.535 4.17415 22.535 4.20547C22.5663 4.4247 22.6288 4.61262 22.7226 4.76921C22.7226 4.80053 22.7538 4.83185 22.7538 4.86317C22.7851 4.89449 22.7851 4.92581 22.8163 4.95713C22.9414 5.14504 23.0977 5.30164 23.3165 5.45824C23.7228 5.70879 24.2855 5.8967 25.0044 5.8967C25.0357 5.8967 25.0357 5.8967 25.0669 5.8967C25.1294 5.86538 25.1607 5.86539 25.1607 5.86539ZM29.5056 5.74011C29.7557 5.74011 29.9745 5.67747 30.1933 5.64615C30.2245 5.64615 30.287 5.61483 30.3183 5.61483C30.3183 5.58351 30.3183 5.55219 30.287 5.55219C30.287 5.52088 30.287 5.48955 30.287 5.48955C30.2558 5.48955 30.2245 5.52087 30.162 5.52087C29.9745 5.58351 29.7244 5.64615 29.4743 5.64615C29.4431 5.64615 29.3806 5.64615 29.3493 5.64615C29.3493 5.67747 29.3493 5.67747 29.3493 5.70879C29.3493 5.74011 29.3493 5.74011 29.3493 5.77143C29.4431 5.74011 29.4743 5.74011 29.5056 5.74011ZM29.2243 5.05109C29.2243 5.01977 29.193 5.01977 29.1617 4.98845H29.1305C29.0992 4.98845 29.0367 4.98845 29.0055 4.98845C29.0367 5.01977 29.0367 5.01977 29.068 5.05109C29.0992 5.05109 29.0992 5.05109 29.1305 5.05109C29.1618 5.05109 29.193 5.05109 29.2243 5.05109ZM26.8799 4.23678C26.8799 4.20546 26.8799 4.20547 26.8799 4.17415C26.8799 4.14283 26.8799 4.14283 26.9112 4.11151C26.8799 4.11151 26.8174 4.11151 26.7861 4.11151C26.7861 4.14283 26.7861 4.14283 26.7861 4.17415V4.23678C26.5986 4.76921 26.0984 5.17636 25.1607 5.17636C24.348 5.17636 23.8791 4.92581 23.6603 4.54998C23.6603 4.51866 23.6291 4.51866 23.6291 4.48734C23.6291 4.45602 23.5978 4.45602 23.5978 4.4247C23.5665 4.4247 23.5353 4.45602 23.4728 4.45602C23.4728 4.48734 23.504 4.51866 23.504 4.51866C23.504 4.54998 23.5353 4.54998 23.5353 4.5813C23.8166 5.01977 24.3792 5.239 25.1607 5.239C26.0672 5.20768 26.6611 4.86317 26.8799 4.23678ZM28.8492 4.95713C28.4116 4.89449 28.0677 4.70657 27.8489 4.4247C27.8177 4.39338 27.8176 4.36206 27.7864 4.33074C27.7864 4.29942 27.7551 4.2681 27.7551 4.23678C27.7239 4.23678 27.6614 4.20547 27.5988 4.20547C27.5988 4.23679 27.6301 4.2681 27.6301 4.2681C27.6301 4.29942 27.6614 4.33074 27.6926 4.36206C27.9114 4.70657 28.349 4.95713 28.9117 4.98845C28.9117 4.98845 28.8804 4.98845 28.8492 4.95713ZM29.2243 5.05109C29.4431 5.05109 29.6931 5.01976 29.912 4.95713C29.9432 4.95713 29.9745 4.92581 30.037 4.92581C30.037 4.89449 30.0057 4.89449 29.9745 4.86317C29.9745 4.83185 29.9432 4.83185 29.912 4.80053C29.8807 4.83185 29.8494 4.83185 29.8182 4.83185C29.6306 4.89449 29.4118 4.92581 29.1617 4.92581H29.1305C29.068 4.92581 29.0055 4.92581 28.9742 4.92581C29.0055 4.95713 29.0367 4.95713 29.068 4.98845C29.0992 5.01977 29.0992 5.01977 29.1305 5.05109C29.1618 5.05109 29.1618 5.05109 29.193 5.05109C29.2243 5.05109 29.193 5.05109 29.2243 5.05109ZM28.8492 4.95713C28.4116 4.89449 28.0677 4.70657 27.8489 4.4247C27.8177 4.39338 27.8176 4.36206 27.7864 4.33074C27.7864 4.29942 27.7551 4.2681 27.7551 4.23678C27.6926 4.11151 27.6614 3.95491 27.6614 3.79832V3.17193H30.4746C30.5059 3.29721 30.5684 3.4538 30.5684 3.79832C30.5684 4.23679 30.4121 4.5813 30.037 4.76921C30.037 4.80053 30.0682 4.80053 30.0995 4.83185C30.4433 4.64394 30.6934 4.33074 30.6934 3.79832C30.6934 3.54776 30.6621 3.32853 30.5996 3.17193L30.5684 3.10929H27.5051V3.79832C27.5051 3.95491 27.5363 4.08019 27.5676 4.20547C27.5676 4.23679 27.5988 4.2681 27.5988 4.2681C27.5988 4.29942 27.6301 4.33074 27.6614 4.36206C27.8802 4.70657 28.3178 4.95713 28.8804 4.98845C28.9117 4.98845 28.8804 4.98845 28.8492 4.95713ZM26.8799 4.23678C26.8799 4.20546 26.8799 4.20547 26.8799 4.17415C26.8799 4.14283 26.8799 4.14283 26.9112 4.11151C26.9424 4.01755 26.9424 3.89227 26.9424 3.767V3.14061H23.3477V3.20325C23.3165 3.32853 23.2852 3.51644 23.2852 3.79832C23.2852 3.82964 23.2852 3.86095 23.2852 3.86095C23.2852 3.89227 23.2852 3.92359 23.2852 3.92359C23.2852 4.11151 23.3477 4.2681 23.4102 4.4247C23.4102 4.45602 23.4415 4.48734 23.4415 4.48734C23.4415 4.51866 23.4728 4.51866 23.4728 4.54998C23.7541 4.98844 24.3167 5.20768 25.0982 5.20768C26.0672 5.20768 26.6611 4.86317 26.8799 4.23678ZM23.5978 4.51866C23.5978 4.48734 23.5665 4.48734 23.5665 4.45602C23.5665 4.4247 23.5353 4.4247 23.5353 4.39338C23.4728 4.23678 23.4415 4.08019 23.4102 3.89227C23.4102 3.86096 23.4102 3.82964 23.4102 3.82964V3.767C23.4102 3.54776 23.4102 3.35985 23.4728 3.23457H26.8174V3.79832C26.8174 3.92359 26.8174 4.01755 26.7861 4.14283C26.7861 4.17415 26.7861 4.17415 26.7861 4.20547V4.2681C26.5986 4.80053 26.0984 5.20768 25.1607 5.20768C24.3167 5.14504 23.8479 4.89449 23.5978 4.51866ZM25.1607 5.86539V5.80274C25.1294 5.80274 25.1294 5.80274 25.0982 5.80274C25.0669 5.80274 25.0669 5.80274 25.0357 5.80274C24.4105 5.80274 23.8791 5.64615 23.4415 5.36428C23.2227 5.239 23.0664 5.05109 22.9414 4.83185C22.9414 4.80053 22.9101 4.76921 22.9101 4.73789C22.8788 4.76921 22.8476 4.76921 22.8163 4.80053C22.8476 4.83185 22.8476 4.86317 22.8789 4.89449C23.0039 5.0824 23.1602 5.239 23.379 5.3956C23.7853 5.64615 24.348 5.83407 25.0669 5.83407C25.0982 5.83407 25.0982 5.83407 25.1294 5.83407C25.1294 5.86538 25.1607 5.86539 25.1607 5.86539ZM26.8799 4.23678C26.8799 4.20546 26.8799 4.20547 26.8799 4.17415C26.8799 4.14283 26.8799 4.14283 26.9112 4.11151C26.9424 4.01755 26.9424 3.89227 26.9424 3.767V3.14061H23.3477V3.20325C23.3165 3.32853 23.2852 3.51644 23.2852 3.79832C23.2852 3.82964 23.2852 3.86095 23.2852 3.86095C23.2852 3.89227 23.2852 3.92359 23.2852 3.92359C23.2852 4.11151 23.3477 4.2681 23.4102 4.4247C23.4102 4.45602 23.4415 4.48734 23.4415 4.48734C23.4415 4.51866 23.4728 4.51866 23.4728 4.54998C23.7541 4.98844 24.3167 5.20768 25.0982 5.20768C26.0672 5.20768 26.6611 4.86317 26.8799 4.23678ZM23.5978 4.51866C23.5978 4.48734 23.5665 4.48734 23.5665 4.45602C23.5665 4.4247 23.5353 4.4247 23.5353 4.39338C23.4728 4.23678 23.4415 4.08019 23.4102 3.89227C23.4102 3.86096 23.4102 3.82964 23.4102 3.82964V3.767C23.4102 3.54776 23.4102 3.35985 23.4728 3.23457H26.8174V3.79832C26.8174 3.92359 26.8174 4.01755 26.7861 4.14283C26.7861 4.17415 26.7861 4.17415 26.7861 4.20547V4.2681C26.5986 4.80053 26.0984 5.20768 25.1607 5.20768C24.3167 5.14504 23.8479 4.89449 23.5978 4.51866ZM29.2243 5.05109C29.4431 5.05109 29.6931 5.01976 29.912 4.95713C29.9432 4.95713 29.9745 4.92581 30.037 4.92581C30.037 4.89449 30.0057 4.89449 29.9745 4.86317C29.9745 4.83185 29.9432 4.83185 29.912 4.80053C29.8807 4.83185 29.8494 4.83185 29.8182 4.83185C29.6306 4.89449 29.4118 4.92581 29.1617 4.92581H29.1305C29.068 4.92581 29.0055 4.92581 28.9742 4.92581C29.0055 4.95713 29.0367 4.95713 29.068 4.98845C29.0992 5.01977 29.0992 5.01977 29.1305 5.05109C29.1618 5.05109 29.1618 5.05109 29.193 5.05109C29.2243 5.05109 29.193 5.05109 29.2243 5.05109ZM28.8492 4.95713C28.4116 4.89449 28.0677 4.70657 27.8489 4.4247C27.8177 4.39338 27.8176 4.36206 27.7864 4.33074C27.7864 4.29942 27.7551 4.2681 27.7551 4.23678C27.6926 4.11151 27.6614 3.95491 27.6614 3.79832V3.17193H30.4746C30.5059 3.29721 30.5684 3.4538 30.5684 3.79832C30.5684 4.23679 30.4121 4.5813 30.037 4.76921C30.037 4.80053 30.0682 4.80053 30.0995 4.83185C30.4433 4.64394 30.6934 4.33074 30.6934 3.79832C30.6934 3.54776 30.6621 3.32853 30.5996 3.17193L30.5684 3.10929H27.5051V3.79832C27.5051 3.95491 27.5363 4.08019 27.5676 4.20547C27.5676 4.23679 27.5988 4.2681 27.5988 4.2681C27.5988 4.29942 27.6301 4.33074 27.6614 4.36206C27.8802 4.70657 28.3178 4.95713 28.8804 4.98845C28.9117 4.98845 28.8804 4.98845 28.8492 4.95713ZM29.2243 5.05109C29.4431 5.05109 29.6931 5.01976 29.912 4.95713C29.9432 4.95713 29.9745 4.92581 30.037 4.92581C30.037 4.89449 30.0057 4.89449 29.9745 4.86317C29.9745 4.83185 29.9432 4.83185 29.912 4.80053C29.8807 4.83185 29.8494 4.83185 29.8182 4.83185C29.6306 4.89449 29.4118 4.92581 29.1617 4.92581H29.1305C29.068 4.92581 29.0055 4.92581 28.9742 4.92581C29.0055 4.95713 29.0367 4.95713 29.068 4.98845C29.0992 5.01977 29.0992 5.01977 29.1305 5.05109C29.1618 5.05109 29.1618 5.05109 29.193 5.05109C29.2243 5.05109 29.193 5.05109 29.2243 5.05109ZM28.8492 4.95713C28.4116 4.89449 28.0677 4.70657 27.8489 4.4247C27.8177 4.39338 27.8176 4.36206 27.7864 4.33074C27.7864 4.29942 27.7551 4.2681 27.7551 4.23678C27.6926 4.11151 27.6614 3.95491 27.6614 3.79832V3.17193H30.4746C30.5059 3.29721 30.5684 3.4538 30.5684 3.79832C30.5684 4.23679 30.4121 4.5813 30.037 4.76921C30.037 4.80053 30.0682 4.80053 30.0995 4.83185C30.4433 4.64394 30.6934 4.33074 30.6934 3.79832C30.6934 3.54776 30.6621 3.32853 30.5996 3.17193L30.5684 3.10929H27.5051V3.79832C27.5051 3.95491 27.5363 4.08019 27.5676 4.20547C27.5676 4.23679 27.5988 4.2681 27.5988 4.2681C27.5988 4.29942 27.6301 4.33074 27.6614 4.36206C27.8802 4.70657 28.3178 4.95713 28.8804 4.98845C28.9117 4.98845 28.8804 4.98845 28.8492 4.95713ZM26.8799 4.23678C26.8799 4.20546 26.8799 4.20547 26.8799 4.17415C26.8799 4.14283 26.8799 4.14283 26.9112 4.11151C26.9424 4.01755 26.9424 3.89227 26.9424 3.767V3.14061H23.3477V3.20325C23.3165 3.32853 23.2852 3.51644 23.2852 3.79832C23.2852 3.82964 23.2852 3.86095 23.2852 3.86095C23.2852 3.89227 23.2852 3.92359 23.2852 3.92359C23.2852 4.11151 23.3477 4.2681 23.4102 4.4247C23.4102 4.45602 23.4415 4.48734 23.4415 4.48734C23.4415 4.51866 23.4728 4.51866 23.4728 4.54998C23.7541 4.98844 24.3167 5.20768 25.0982 5.20768C26.0672 5.20768 26.6611 4.86317 26.8799 4.23678ZM23.5978 4.51866C23.5978 4.48734 23.5665 4.48734 23.5665 4.45602C23.5665 4.4247 23.5353 4.4247 23.5353 4.39338C23.4728 4.23678 23.4415 4.08019 23.4102 3.89227C23.4102 3.86096 23.4102 3.82964 23.4102 3.82964V3.767C23.4102 3.54776 23.4102 3.35985 23.4728 3.23457H26.8174V3.79832C26.8174 3.92359 26.8174 4.01755 26.7861 4.14283C26.7861 4.17415 26.7861 4.17415 26.7861 4.20547V4.2681C26.5986 4.80053 26.0984 5.20768 25.1607 5.20768C24.3167 5.14504 23.8479 4.89449 23.5978 4.51866ZM25.1607 5.86539V5.80274C25.1294 5.80274 25.1294 5.80274 25.0982 5.80274C25.0669 5.80274 25.0669 5.80274 25.0357 5.80274C24.4105 5.80274 23.8791 5.64615 23.4415 5.36428C23.2227 5.239 23.0664 5.05109 22.9414 4.83185C22.9414 4.80053 22.9101 4.76921 22.9101 4.73789C22.8788 4.76921 22.8476 4.76921 22.8163 4.80053C22.8476 4.83185 22.8476 4.86317 22.8789 4.89449C23.0039 5.0824 23.1602 5.239 23.379 5.3956C23.7853 5.64615 24.348 5.83407 25.0669 5.83407C25.0982 5.83407 25.0982 5.83407 25.1294 5.83407C25.1294 5.86538 25.1607 5.86539 25.1607 5.86539ZM26.8799 4.23678C26.8799 4.20546 26.8799 4.20547 26.8799 4.17415C26.8799 4.14283 26.8799 4.14283 26.9112 4.11151C26.9424 4.01755 26.9424 3.89227 26.9424 3.767V3.14061H23.3477V3.20325C23.3165 3.32853 23.2852 3.51644 23.2852 3.79832C23.2852 3.82964 23.2852 3.86095 23.2852 3.86095C23.2852 3.89227 23.2852 3.92359 23.2852 3.92359C23.2852 4.11151 23.3477 4.2681 23.4102 4.4247C23.4102 4.45602 23.4415 4.48734 23.4415 4.48734C23.4415 4.51866 23.4728 4.51866 23.4728 4.54998C23.7541 4.98844 24.3167 5.20768 25.0982 5.20768C26.0672 5.20768 26.6611 4.86317 26.8799 4.23678ZM23.5978 4.51866C23.5978 4.48734 23.5665 4.48734 23.5665 4.45602C23.5665 4.4247 23.5353 4.4247 23.5353 4.39338C23.4728 4.23678 23.4415 4.08019 23.4102 3.89227C23.4102 3.86096 23.4102 3.82964 23.4102 3.82964V3.767C23.4102 3.54776 23.4102 3.35985 23.4728 3.23457H26.8174V3.79832C26.8174 3.92359 26.8174 4.01755 26.7861 4.14283C26.7861 4.17415 26.7861 4.17415 26.7861 4.20547V4.2681C26.5986 4.80053 26.0984 5.20768 25.1607 5.20768C24.3167 5.14504 23.8479 4.89449 23.5978 4.51866ZM29.2243 5.05109C29.4431 5.05109 29.6931 5.01976 29.912 4.95713C29.9432 4.95713 29.9745 4.92581 30.037 4.92581C30.037 4.89449 30.0057 4.89449 29.9745 4.86317C29.9745 4.83185 29.9432 4.83185 29.912 4.80053C29.8807 4.83185 29.8494 4.83185 29.8182 4.83185C29.6306 4.89449 29.4118 4.92581 29.1617 4.92581H29.1305C29.068 4.92581 29.0055 4.92581 28.9742 4.92581C29.0055 4.95713 29.0367 4.95713 29.068 4.98845C29.0992 5.01977 29.0992 5.01977 29.1305 5.05109C29.1618 5.05109 29.1618 5.05109 29.193 5.05109C29.2243 5.05109 29.193 5.05109 29.2243 5.05109ZM28.8492 4.95713C28.4116 4.89449 28.0677 4.70657 27.8489 4.4247C27.8177 4.39338 27.8176 4.36206 27.7864 4.33074C27.7864 4.29942 27.7551 4.2681 27.7551 4.23678C27.6926 4.11151 27.6614 3.95491 27.6614 3.79832V3.17193H30.4746C30.5059 3.29721 30.5684 3.4538 30.5684 3.79832C30.5684 4.23679 30.4121 4.5813 30.037 4.76921C30.037 4.80053 30.0682 4.80053 30.0995 4.83185C30.4433 4.64394 30.6934 4.33074 30.6934 3.79832C30.6934 3.54776 30.6621 3.32853 30.5996 3.17193L30.5684 3.10929H27.5051V3.79832C27.5051 3.95491 27.5363 4.08019 27.5676 4.20547C27.5676 4.23679 27.5988 4.2681 27.5988 4.2681C27.5988 4.29942 27.6301 4.33074 27.6614 4.36206C27.8802 4.70657 28.3178 4.95713 28.8804 4.98845C28.9117 4.98845 28.8804 4.98845 28.8492 4.95713Z" fill="#F39411"/>
<path d="M27.9645 4.12143C27.9022 3.99841 27.871 3.84463 27.871 3.69086V3.56784C27.8399 3.56784 27.7776 3.53708 27.7465 3.53708C27.5596 3.50633 27.3415 3.47557 27.1546 3.44482C27.1235 3.44482 27.0612 3.44482 27.03 3.44482V3.62935C27.03 3.75237 27.03 3.84463 26.9989 3.96765C26.9989 3.99841 26.9989 3.99841 26.9989 4.02916C27.03 4.02916 27.0923 4.02916 27.1235 4.02916C27.4038 4.05991 27.653 4.09067 27.9022 4.15218C27.9645 4.15218 27.9956 4.18293 28.0579 4.18293C27.9645 4.18293 27.9645 4.15218 27.9645 4.12143ZM26.2824 5.62841C26.2513 5.62841 26.189 5.65917 26.1578 5.65917C25.9709 5.72068 25.7529 5.72068 25.5037 5.75144C25.4726 5.75144 25.4103 5.75144 25.3791 5.75144V6.30502H22.7626C22.638 6.182 22.5134 5.93596 22.5134 5.5669C22.5134 5.25936 22.638 4.95181 22.9183 4.73652C22.8872 4.70577 22.8872 4.67501 22.856 4.64426C22.7626 4.49048 22.7003 4.30595 22.638 4.09067C22.638 4.05991 22.638 4.02916 22.638 3.99841C21.8904 4.39822 21.5789 4.92105 21.5789 5.53615C21.5789 6.12049 21.8904 6.58182 22.0461 6.82786H26.2513V5.62841H26.2824ZM25.348 5.68993C25.3791 5.68993 25.4414 5.68993 25.4725 5.68993C25.7217 5.68993 25.9398 5.65917 26.1267 5.59766C26.1578 5.59766 26.2201 5.5669 26.2513 5.5669V5.47464H25.348V5.68993ZM23.1052 4.61351C23.2609 4.49049 23.4478 4.39822 23.6659 4.33671C23.697 4.33671 23.7282 4.30596 23.7905 4.30596C23.7905 4.2752 23.7593 4.2752 23.7593 4.24444C23.697 4.09067 23.6659 3.9369 23.6347 3.75237C23.6347 3.72161 23.6347 3.69086 23.6347 3.69086C23.6036 3.69086 23.5413 3.72161 23.5101 3.72161C23.2921 3.78312 23.0741 3.84463 22.9183 3.93689C22.8872 3.96765 22.8249 3.96765 22.7937 3.99841C22.7937 4.02916 22.7937 4.05991 22.7937 4.09067C22.8249 4.30595 22.8872 4.49048 22.9806 4.64426C22.9806 4.67501 23.0118 4.70577 23.0118 4.73652C23.0429 4.67501 23.0741 4.64426 23.1052 4.61351ZM26.0644 3.96765C26.3447 3.96765 26.5939 3.96765 26.8431 3.99841C26.8431 3.96765 26.8431 3.96765 26.8743 3.93689C26.9054 3.81387 26.9054 3.69086 26.9054 3.62935V3.44482C26.6251 3.41406 26.3447 3.41406 26.0332 3.41406C25.1922 3.41406 24.4135 3.50633 23.7593 3.6601C23.7593 3.69086 23.7593 3.69086 23.7593 3.72161C23.7593 3.87539 23.7905 4.02916 23.8528 4.21369C23.8528 4.24445 23.8839 4.2752 23.8839 4.2752C24.4446 4.05992 25.1611 3.96765 26.0644 3.96765ZM30.5187 5.68993C30.5187 5.59766 30.5187 5.50539 30.4876 5.41313C30.4876 5.38237 30.4876 5.35162 30.4564 5.35162C30.4564 5.32087 30.4564 5.29011 30.4564 5.29011C30.3941 5.10558 30.3007 4.92105 30.1761 4.76728C30.1761 4.73652 30.1449 4.73652 30.1138 4.70577C30.1138 4.67501 30.0826 4.67501 30.0515 4.64426C29.6154 4.18293 28.899 3.81387 27.9333 3.62935V3.72161C27.9333 3.90614 27.9645 4.05991 28.0579 4.18293C28.0579 4.21369 28.0891 4.24445 28.1202 4.2752C28.5252 4.39822 28.8367 4.58275 29.0859 4.76728C29.117 4.79803 29.1482 4.79803 29.1793 4.82879C29.2105 4.85954 29.2105 4.85954 29.2416 4.8903C29.3974 5.07483 29.4908 5.25936 29.5531 5.44389C29.5531 5.47464 29.5531 5.47464 29.5531 5.50539C29.5531 5.53615 29.5531 5.53615 29.5531 5.5669C29.5531 5.59766 29.5531 5.62841 29.5531 5.65917C29.5531 6.08974 29.3974 6.36653 29.1793 6.58182L30.1138 6.70483C30.3007 6.55106 30.5187 6.15125 30.5187 5.68993Z" fill="#F39411"/>
<path d="M25.4685 5.76104C25.4371 5.76104 25.3744 5.76104 25.343 5.76104V6.30969H22.7081C22.5827 6.18777 22.4572 5.94392 22.4572 5.57816C22.4572 5.27336 22.5827 4.96856 22.865 4.75519C22.8336 4.72471 22.8336 4.69423 22.8022 4.66375C22.4886 4.90759 22.3317 5.2124 22.3317 5.57816C22.3317 5.91344 22.4258 6.18777 22.5827 6.30969L22.614 6.34017H25.4685V5.76104ZM25.3117 5.70009C25.343 5.70009 25.4058 5.70009 25.4371 5.70009V5.63912C25.4058 5.63912 25.343 5.63912 25.3117 5.63912V5.70009ZM23.0532 4.63327C23.0532 4.60279 23.0218 4.57231 23.0218 4.54183C22.9904 4.57231 22.9591 4.57231 22.9277 4.60279C22.9277 4.63327 22.9591 4.66375 22.9591 4.69423C22.9904 4.69423 23.0218 4.66375 23.0532 4.63327ZM25.4685 5.76104C25.4371 5.76104 25.3744 5.76104 25.343 5.76104V6.30969H22.7081C22.5827 6.18777 22.4572 5.94392 22.4572 5.57816C22.4572 5.27336 22.5827 4.96856 22.865 4.75519C22.8336 4.72471 22.8336 4.69423 22.8022 4.66375C22.4886 4.90759 22.3317 5.2124 22.3317 5.57816C22.3317 5.91344 22.4258 6.18777 22.5827 6.30969L22.614 6.34017H25.4685V5.76104ZM25.3117 5.70009C25.343 5.70009 25.4058 5.70009 25.4371 5.70009V5.63912C25.4058 5.63912 25.343 5.63912 25.3117 5.63912V5.70009ZM23.0532 4.63327C23.0532 4.60279 23.0218 4.57231 23.0218 4.54183C22.9904 4.57231 22.9591 4.57231 22.9277 4.60279C22.9277 4.63327 22.9591 4.66375 22.9591 4.69423C22.9904 4.69423 23.0218 4.66375 23.0532 4.63327ZM29.264 4.78568C28.9817 4.54183 28.6053 4.32847 28.072 4.20655C28.072 4.23703 28.1034 4.26751 28.1348 4.29799C28.5426 4.41991 28.8562 4.60279 29.1072 4.78568C29.1386 4.81616 29.1699 4.81616 29.2013 4.84664C29.2327 4.84664 29.2954 4.84664 29.3268 4.84664H29.3581C29.3268 4.81616 29.2954 4.78568 29.264 4.78568ZM25.4685 5.76104C25.4371 5.76104 25.3744 5.76104 25.343 5.76104V6.30969H22.7081C22.5827 6.18777 22.4572 5.94392 22.4572 5.57816C22.4572 5.27336 22.5827 4.96856 22.865 4.75519C22.8336 4.72471 22.8336 4.69423 22.8022 4.66375C22.4886 4.90759 22.3317 5.2124 22.3317 5.57816C22.3317 5.91344 22.4258 6.18777 22.5827 6.30969L22.614 6.34017H25.4685V5.76104ZM26.0331 3.99319C26.3154 3.99319 26.5664 3.99319 26.8173 4.02367C26.8173 3.99319 26.8173 3.99318 26.8487 3.9627C26.5977 3.93222 26.3468 3.93223 26.0645 3.93223C25.1862 3.93223 24.4334 4.02367 23.8374 4.20655C23.8374 4.23703 23.8687 4.26751 23.8687 4.26751C24.402 4.08463 25.1235 3.99319 26.0331 3.99319ZM27.8525 3.53598C27.8211 3.53598 27.7584 3.53598 27.727 3.5055C27.5388 3.47502 27.3192 3.44454 27.131 3.41406C27.0996 3.41406 27.0369 3.41406 27.0055 3.41406V3.53598C27.0369 3.53598 27.0996 3.53598 27.131 3.53598C27.3506 3.56646 27.5388 3.59694 27.727 3.62742C27.7584 3.62742 27.8211 3.62742 27.8525 3.6579V3.53598ZM27.9779 4.20655C27.9779 4.17607 27.9466 4.14559 27.9466 4.11511C27.9152 4.11511 27.8525 4.08463 27.7897 4.08463C27.5702 4.02367 27.3192 3.99318 27.0683 3.9627C27.0369 3.9627 26.9742 3.9627 26.9428 3.9627C26.9428 3.99318 26.9428 3.99319 26.9428 4.02367V4.08463C26.9742 4.08463 27.0369 4.08463 27.0683 4.08463C27.3819 4.11511 27.6643 4.17607 27.9152 4.23703C27.9779 4.23703 28.0093 4.26751 28.072 4.26751C28.0093 4.26751 27.9779 4.23703 27.9779 4.20655ZM26.2527 5.63912C26.2213 5.63912 26.1586 5.6696 26.1272 5.6696V6.7669H22.1121C21.8926 6.46209 21.673 6.03537 21.673 5.54768C21.673 4.93808 21.9867 4.48087 22.6454 4.11511C22.6454 4.08463 22.6454 4.05415 22.6454 4.02367C21.8926 4.41991 21.5789 4.93808 21.5789 5.54768C21.5789 6.12681 21.8926 6.58401 22.0494 6.82786H26.2841V5.63912H26.2527ZM22.5827 6.34017L22.614 6.37065H25.4685V5.76104C25.4371 5.76104 25.3744 5.76104 25.343 5.76104V6.30969H22.7081C22.5827 6.18777 22.4572 5.94392 22.4572 5.57816C22.4572 5.27336 22.5827 4.96856 22.865 4.75519C22.8336 4.72471 22.8336 4.69423 22.8022 4.66375C22.4886 4.90759 22.3317 5.2124 22.3317 5.57816C22.3317 5.94392 22.4258 6.18777 22.5827 6.34017ZM25.1862 5.70009C25.2176 5.70009 25.2176 5.70009 25.2489 5.70009C25.2803 5.70009 25.2803 5.70009 25.3117 5.70009C25.343 5.70009 25.4058 5.70009 25.4371 5.70009V5.5172H26.0959V5.60864C26.1272 5.60864 26.19 5.57816 26.2213 5.57816C26.2527 5.57816 26.3154 5.54768 26.3468 5.54768V5.42576H25.1862V5.70009ZM23.0845 4.72471C23.2414 4.60279 23.4296 4.51135 23.6492 4.41991C23.6805 4.38943 23.7119 4.38943 23.7433 4.38943C23.7433 4.35895 23.7119 4.35895 23.7119 4.32847C23.7119 4.29799 23.6805 4.29799 23.6805 4.26751C23.6492 4.26751 23.6178 4.29799 23.5551 4.29799C23.3355 4.38943 23.1473 4.48087 22.9904 4.57231C22.9591 4.60279 22.9277 4.60279 22.8963 4.63327C22.8963 4.66375 22.9277 4.69423 22.9277 4.72471C22.9591 4.75519 22.9591 4.78567 22.9904 4.81615C23.0218 4.75519 23.0532 4.75519 23.0845 4.72471ZM22.7709 4.05415C22.8022 4.05415 22.8022 4.02367 22.8336 4.02367C23.0218 3.93223 23.21 3.87126 23.4296 3.8103C23.461 3.8103 23.5237 3.77983 23.5551 3.77983C23.5551 3.74934 23.5551 3.71887 23.5551 3.71887V3.6579C23.5237 3.6579 23.461 3.68838 23.4296 3.68838C23.21 3.74934 22.9904 3.8103 22.8336 3.90174C22.8022 3.90174 22.7395 3.93222 22.7081 3.9627C22.7081 3.99318 22.7081 4.02367 22.7081 4.05415C22.7081 4.08463 22.7081 4.11511 22.7081 4.14559C22.7395 4.05415 22.7709 4.05415 22.7709 4.05415ZM26.0331 3.99319C26.3154 3.99319 26.5664 3.99319 26.8173 4.02367C26.8173 3.99319 26.8173 3.99318 26.8487 3.9627C26.5977 3.93222 26.3468 3.93223 26.0645 3.93223C25.1862 3.93223 24.4334 4.02367 23.8374 4.20655C23.8374 4.23703 23.8687 4.26751 23.8687 4.26751C24.402 4.08463 25.1235 3.99319 26.0331 3.99319ZM25.9704 3.47502C26.2841 3.47502 26.5664 3.47502 26.8487 3.5055V3.44454C26.5664 3.41406 26.2841 3.41406 25.9704 3.41406C25.1235 3.41406 24.3393 3.5055 23.6805 3.6579C23.6805 3.68838 23.6805 3.68839 23.6805 3.71887C24.3393 3.56646 25.1235 3.47502 25.9704 3.47502ZM30.5187 5.70009C30.5187 5.60864 30.5187 5.5172 30.4874 5.42576C30.4874 5.39528 30.4874 5.3648 30.456 5.3648C30.456 5.33432 30.456 5.30384 30.456 5.30384C30.3933 5.12096 30.2992 4.93808 30.1737 4.78568C30.1737 4.7552 30.1423 4.75519 30.1109 4.72471C30.1109 4.69423 30.0796 4.69423 30.0482 4.66375C29.6091 4.20655 28.8876 3.84078 27.9152 3.6579V3.71887C28.8249 3.93223 29.515 4.26751 29.9227 4.69423C29.9541 4.72471 29.9541 4.72471 29.9855 4.75519C29.9855 4.78567 30.0168 4.78567 30.0168 4.81615C30.1423 4.96856 30.2364 5.15144 30.2992 5.33432C30.2992 5.3648 30.2992 5.3648 30.2992 5.39528C30.2992 5.42576 30.2992 5.45624 30.2992 5.45624C30.2992 5.5172 30.3305 5.60864 30.3305 5.6696C30.3305 6.09633 30.1423 6.43161 29.9855 6.64497L29.2954 6.55353C29.515 6.27921 29.6404 6.00489 29.6404 5.6696C29.6404 5.63912 29.6404 5.60864 29.6404 5.54768C29.6404 5.5172 29.6404 5.5172 29.6404 5.48672C29.6404 5.45624 29.6404 5.45624 29.6404 5.42576C29.6091 5.2124 29.515 5.02951 29.3581 4.87711C29.3581 4.84663 29.3268 4.84663 29.2954 4.81615C29.2954 4.78567 29.264 4.78567 29.2327 4.75519C28.9503 4.51135 28.5739 4.29799 28.0407 4.17607C28.0407 4.20655 28.072 4.23703 28.1034 4.26751C28.5112 4.38943 28.8249 4.57231 29.0758 4.75519C29.1072 4.78567 29.1385 4.78567 29.1699 4.81615C29.2013 4.84663 29.2013 4.84663 29.2327 4.87711C29.3895 5.06 29.4836 5.24288 29.5463 5.42576C29.5463 5.45624 29.5463 5.45624 29.5463 5.48672C29.5463 5.5172 29.5463 5.5172 29.5463 5.54768C29.5463 5.57816 29.5463 5.60864 29.5463 5.63912C29.5463 6.06585 29.3895 6.34017 29.1699 6.55353L30.1109 6.67545C30.2992 6.55353 30.5187 6.15729 30.5187 5.70009ZM26.0331 3.99319C26.3154 3.99319 26.5664 3.99319 26.8173 4.02367C26.8173 3.99319 26.8173 3.99318 26.8487 3.9627C26.5977 3.93222 26.3468 3.93223 26.0645 3.93223C25.1862 3.93223 24.4334 4.02367 23.8374 4.20655C23.8374 4.23703 23.8687 4.26751 23.8687 4.26751C24.402 4.08463 25.1235 3.99319 26.0331 3.99319ZM25.4685 5.76104C25.4371 5.76104 25.3744 5.76104 25.343 5.76104V6.30969H22.7081C22.5827 6.18777 22.4572 5.94392 22.4572 5.57816C22.4572 5.27336 22.5827 4.96856 22.865 4.75519C22.8336 4.72471 22.8336 4.69423 22.8022 4.66375C22.4886 4.90759 22.3317 5.2124 22.3317 5.57816C22.3317 5.91344 22.4258 6.18777 22.5827 6.30969L22.614 6.34017H25.4685V5.76104ZM25.4685 5.76104C25.4371 5.76104 25.3744 5.76104 25.343 5.76104V6.30969H22.7081C22.5827 6.18777 22.4572 5.94392 22.4572 5.57816C22.4572 5.27336 22.5827 4.96856 22.865 4.75519C22.8336 4.72471 22.8336 4.69423 22.8022 4.66375C22.4886 4.90759 22.3317 5.2124 22.3317 5.57816C22.3317 5.91344 22.4258 6.18777 22.5827 6.30969L22.614 6.34017H25.4685V5.76104ZM25.3117 5.70009C25.343 5.70009 25.4058 5.70009 25.4371 5.70009V5.63912C25.4058 5.63912 25.343 5.63912 25.3117 5.63912V5.70009ZM23.0532 4.63327C23.0532 4.60279 23.0218 4.57231 23.0218 4.54183C22.9904 4.57231 22.9591 4.57231 22.9277 4.60279C22.9277 4.63327 22.9591 4.66375 22.9591 4.69423C22.9904 4.69423 23.0218 4.66375 23.0532 4.63327ZM25.4685 5.76104C25.4371 5.76104 25.3744 5.76104 25.343 5.76104V6.30969H22.7081C22.5827 6.18777 22.4572 5.94392 22.4572 5.57816C22.4572 5.27336 22.5827 4.96856 22.865 4.75519C22.8336 4.72471 22.8336 4.69423 22.8022 4.66375C22.4886 4.90759 22.3317 5.2124 22.3317 5.57816C22.3317 5.91344 22.4258 6.18777 22.5827 6.30969L22.614 6.34017H25.4685V5.76104ZM25.3117 5.70009C25.343 5.70009 25.4058 5.70009 25.4371 5.70009V5.63912C25.4058 5.63912 25.343 5.63912 25.3117 5.63912V5.70009ZM23.0532 4.63327C23.0532 4.60279 23.0218 4.57231 23.0218 4.54183C22.9904 4.57231 22.9591 4.57231 22.9277 4.60279C22.9277 4.63327 22.9591 4.66375 22.9591 4.69423C22.9904 4.69423 23.0218 4.66375 23.0532 4.63327Z" fill="#F39411"/>
<g opacity="0.5">
<path opacity="0.5" d="M34.782 8.37931L18.4962 0.600668C19.6946 0.330367 21.0466 0.120134 22.4908 0L37.609 7.20801C36.81 7.65851 35.8882 8.04894 34.782 8.37931Z" fill="white"/>
<path opacity="0.5" d="M31.4468 9.30997L15.4135 1.4563C15.8751 1.27078 16.3983 1.08526 16.9522 0.930664L33.2932 8.93894C32.7085 9.09354 32.093 9.21721 31.4468 9.30997Z" fill="white"/>
<path opacity="0.5" d="M28.0669 9.62064L13.5639 2.56758L14.1732 2.17236L29.2857 9.52943C28.8896 9.55984 28.4935 9.59024 28.0669 9.62064Z" fill="white"/>
</g>
<path d="M15.2594 27.0002C7.68239 27.0002 1.54135 24.8049 1.54135 22.0913C1.54135 21.4205 1.54135 18.585 1.54135 18.585L28.9774 18.3105V22.0913C28.9469 24.8049 22.8364 27.0002 15.2594 27.0002Z" fill="#E3B400"/>
<path d="M15.1053 23.5864V26.6899C15.0104 26.6899 14.8919 26.6899 14.797 26.6899V23.5864H15.1053Z" fill="#E0920B"/>
<path d="M16.6466 23.6157V26.6899C16.5518 26.6899 16.4332 26.6899 16.3384 26.6899V23.5864H16.6466V23.6157Z" fill="#E0920B"/>
<path d="M13.5639 23.2759V26.6897C13.4691 26.6897 13.3505 26.6897 13.2557 26.6592V23.2759H13.5639Z" fill="#E0920B"/>
<path d="M12.0226 22.9658V26.69C11.9277 26.69 11.8091 26.6592 11.7143 26.6592V22.9658H12.0226Z" fill="#E0920B"/>
<path d="M8.93986 22.375V26.0689C8.84501 26.0386 8.72644 26.0083 8.63159 25.978V22.3447H8.93986V22.375Z" fill="#E0920B"/>
<path d="M7.39851 22.0347V25.7588C7.30366 25.729 7.18509 25.6992 7.09024 25.6694V22.0347H7.39851Z" fill="#E0920B"/>
<path d="M5.85719 21.7549V25.4483C5.73862 25.4175 5.64377 25.3559 5.54892 25.2944V21.7241H5.85719V21.7549Z" fill="#E0920B"/>
<path d="M4.00752 24.5173V21.1035H3.69925V24.3095L4.00752 24.5173Z" fill="#E0920B"/>
<path d="M2.46617 23.5862V20.1724H2.1579V23.2002L2.46617 23.5862Z" fill="#E0920B"/>
<path d="M10.4812 22.6553V26.6898C10.3864 26.6587 10.2678 26.6587 10.1729 26.6277V22.6553H10.4812Z" fill="#E0920B"/>
<path d="M18.4963 23.2759V26.66C18.4014 26.66 18.2828 26.6897 18.188 26.6897V23.2759H18.4963Z" fill="#E0920B"/>
<path d="M20.0376 22.9658V26.3218C19.9428 26.3507 19.8242 26.3507 19.7293 26.3796V22.9658H20.0376Z" fill="#E0920B"/>
<path d="M21.579 22.6553V26.3198C21.4841 26.3496 21.3655 26.3794 21.2707 26.3794V22.6553H21.579Z" fill="#E0920B"/>
<path d="M23.1203 22.3447V25.6717C23.0255 25.7007 22.9069 25.7296 22.8121 25.7585V22.3447H23.1203Z" fill="#E0920B"/>
<path d="M24.6617 21.7241V25.3271C24.5668 25.3574 24.4483 25.418 24.3534 25.4483V21.7241H24.6617Z" fill="#E0920B"/>
<path d="M26.8196 24.6414V21.1035H26.5113V24.8277L26.8196 24.6414Z" fill="#E0920B"/>
<path d="M28.3609 20.1724V23.5302C28.2661 23.6523 28.1712 23.7744 28.0526 23.8965V20.1724H28.3609Z" fill="#E0920B"/>
<path opacity="0.5" d="M17.3762 26.3624C9.75086 26.3624 5.56924 24.5104 5.56924 21.8084C5.56924 21.3226 5.56924 19.7743 5.56924 18.9242L1.54135 18.6206C1.54135 18.6206 1.54135 21.4441 1.54135 22.112C1.54135 24.814 7.72154 26.9999 15.3468 26.9999C19.2517 26.9999 22.7569 26.4231 25.2782 25.5123C23.0337 26.0588 20.2971 26.3624 17.3762 26.3624Z" fill="#D67D12"/>
<path opacity="0.3" d="M3.3539 22.2334C3.3539 21.7477 3.3539 19.5921 3.3539 18.7117L1.54135 18.6206C1.54135 18.6206 1.54135 21.4441 1.54135 22.112C1.54135 24.814 7.61339 26.9999 15.1053 26.9999C9.9697 26.4231 3.3539 24.9354 3.3539 22.2334Z" fill="#844B0D"/>
<path opacity="0.3" d="M7.09024 21.9287C7.09024 21.9287 8.39739 24.6173 12.9876 25.328C25.4816 27.2749 28.9775 21.9905 28.9775 21.9905V18.9312L7.09024 21.9287Z" fill="white"/>
<path opacity="0.5" d="M9.86465 21.4085C9.86465 21.4085 11.0286 23.6071 15.0104 24.1955C25.9145 25.8057 28.9774 20.8511 28.9774 20.8511V18.9312L9.86465 21.4085Z" fill="#FFF8C3"/>
<path d="M15.2594 24.2072C7.68239 24.2072 1.54135 21.9245 1.54135 19.0865C1.54135 16.2485 7.68239 13.9658 15.2594 13.9658C22.8364 13.9658 28.9774 16.2485 28.9774 19.0865C28.9774 21.9245 22.8364 24.2072 15.2594 24.2072Z" fill="#FFEF4A"/>
<path d="M15.2594 23.5863C22.8357 23.5863 28.9774 21.3632 28.9774 18.6208C28.9774 15.8784 22.8357 13.6553 15.2594 13.6553C7.68313 13.6553 1.54135 15.8784 1.54135 18.6208C1.54135 21.3632 7.68313 23.5863 15.2594 23.5863Z" fill="#FDC800"/>
<path d="M15.4135 22.3451C8.95994 22.3451 3.69922 20.4797 3.69922 18.1555C3.69922 15.8313 8.92935 13.9658 15.4135 13.9658C21.8671 13.9658 27.1278 15.8313 27.1278 18.1555C27.1278 20.4797 21.8671 22.3451 15.4135 22.3451Z" fill="#FDC800"/>
<path d="M4.92681 18.6635C4.92681 16.3147 10.1747 14.4294 16.6809 14.4294C19.5965 14.4294 22.2971 14.8312 24.3534 15.4493C22.2051 14.553 19.0134 13.9658 15.4534 13.9658C8.97784 13.9658 3.69922 15.8511 3.69922 18.1999C3.69922 19.4979 5.26439 20.6415 7.78094 21.4141C6.00094 20.7033 4.92681 19.7452 4.92681 18.6635Z" fill="#F5A20A"/>
<path d="M10.9718 16.7632C10.9718 16.7632 8.21563 18.8789 11.4006 19.3855C15.0755 19.9516 15.4124 16.8824 19.0261 16.7632C22.7317 16.644 22.5479 18.9683 20.1286 19.8622" stroke="#F39411" stroke-width="3.4399" stroke-miterlimit="10"/>
<path d="M9.86463 18.3105H7.39847" stroke="#F39411" stroke-width="3.4399" stroke-miterlimit="10"/>
<path d="M24.3533 18.3105H21.8872" stroke="#F39411" stroke-width="3.4399" stroke-miterlimit="10"/>
<g opacity="0.5">
<path opacity="0.5" d="M24.3009 22.0346L8.01505 14.2559C9.21344 13.9856 10.5655 13.7754 12.0097 13.6553L27.1278 20.8633C26.3596 21.3138 25.4071 21.7042 24.3009 22.0346Z" fill="white"/>
<path opacity="0.5" d="M21.2739 22.9657L5.24063 15.1121C5.70224 14.9265 6.2254 14.741 6.77933 14.5864L23.1203 22.5947C22.5356 22.7493 21.9201 22.873 21.2739 22.9657Z" fill="white"/>
<path d="M17.5858 23.2759L3.0827 16.2229L3.69207 15.8276L18.8045 23.1847C18.4084 23.2151 18.0123 23.2455 17.5858 23.2759Z" fill="white"/>
</g>
<path d="M13.718 22.0344C6.14104 22.0344 0 19.8391 0 17.1255C0 16.4547 0 13.6191 0 13.6191L27.4361 13.3447V17.1255C27.4361 19.8391 21.295 22.0344 13.718 22.0344Z" fill="#E3B400"/>
<path d="M13.2556 18.6206V21.7241C13.1371 21.7241 13.0422 21.7241 12.9474 21.7241V18.6206H13.2556Z" fill="#E0920B"/>
<path d="M15.1053 18.6206V21.7241C15.0104 21.7241 14.8919 21.7241 14.797 21.7241V18.6206H15.1053Z" fill="#E0920B"/>
<path d="M12.0226 18.3101V21.7239C11.9277 21.7239 11.8091 21.7238 11.7143 21.6934V18.3101H12.0226Z" fill="#E0920B"/>
<path d="M10.4812 18V21.7241C10.3864 21.7241 10.2678 21.6934 10.1729 21.6934V18H10.4812Z" fill="#E0920B"/>
<path d="M7.09025 17.4097V21.1035C6.9954 21.0733 6.87683 21.043 6.78198 21.0127V17.3794H7.09025V17.4097Z" fill="#E0920B"/>
<path d="M5.85716 17.0688V20.793C5.76231 20.7632 5.64374 20.7334 5.54889 20.7036V17.0688H5.85716Z" fill="#E0920B"/>
<path d="M4.31581 16.7896V20.4829C4.19724 20.4521 4.10239 20.3906 4.00754 20.329V16.7588H4.31581V16.7896Z" fill="#E0920B"/>
<path d="M2.46617 19.5515V16.1377H2.1579V19.314L2.46617 19.5515Z" fill="#E0920B"/>
<path d="M0.924817 18.6208V15.207H0.616547V18.2315L0.924817 18.6208Z" fill="#E0920B"/>
<path d="M8.6316 17.3794V21.4139C8.53675 21.3828 8.41819 21.3828 8.32333 21.3518V17.3794H8.6316Z" fill="#E0920B"/>
<path d="M16.6466 18.3101V21.6942C16.5518 21.6942 16.4332 21.7239 16.3384 21.7239V18.3101H16.6466Z" fill="#E0920B"/>
<path d="M18.188 18V21.3559C18.0931 21.3849 17.9746 21.3849 17.8797 21.4138V18.0289H18.188V18Z" fill="#E0920B"/>
<path d="M19.7294 17.3794V21.0439C19.6345 21.0737 19.5159 21.1035 19.4211 21.1035V17.3794H19.7294Z" fill="#E0920B"/>
<path d="M21.2707 17.3794V20.7064C21.1759 20.7353 21.0573 20.7643 20.9624 20.7932V17.3794H21.2707Z" fill="#E0920B"/>
<path d="M22.8121 16.7588V20.3618C22.7172 20.3921 22.5986 20.4526 22.5038 20.4829V16.7588H22.8121Z" fill="#E0920B"/>
<path d="M24.97 19.6446V16.1377H24.6617V19.8618L24.97 19.6446Z" fill="#E0920B"/>
<path d="M26.5113 15.207V18.5649C26.4165 18.687 26.3216 18.8091 26.203 18.9312V15.207H26.5113Z" fill="#E0920B"/>
<path opacity="0.5" d="M15.6292 21.397C8.10289 21.397 3.97558 19.5451 3.97558 16.8431C3.97558 16.3573 3.97558 14.8089 3.97558 13.9589L0 13.6553C0 13.6553 0 16.4787 0 17.1467C0 19.8487 6.09993 22.0346 13.6262 22.0346C17.4804 22.0346 20.94 21.4577 23.4286 20.547C21.1828 21.0631 18.5122 21.397 15.6292 21.397Z" fill="#D67D12"/>
<path opacity="0.3" d="M1.81255 17.2681C1.81255 16.7823 1.81255 14.6268 1.81255 13.7464L0 13.6553C0 13.6553 0 16.4787 0 17.1467C0 19.8487 6.07204 22.0346 13.5639 22.0346C8.42836 21.4274 1.81255 19.9701 1.81255 17.2681Z" fill="#844B0D"/>
<path opacity="0.3" d="M5.54889 16.9634C5.54889 16.9634 6.85604 19.6519 11.4463 20.3627C23.9402 22.3096 27.4361 17.0252 27.4361 17.0252V13.9658L5.54889 16.9634Z" fill="white"/>
<path opacity="0.5" d="M8.32333 16.4431C8.32333 16.4431 9.48725 18.6418 13.4691 19.2301C24.3732 20.8404 27.4361 15.8857 27.4361 15.8857V13.9658L8.32333 16.4431Z" fill="#FFF8C3"/>
<path d="M13.718 19.2414C6.14104 19.2414 0 16.9587 0 14.1207C0 11.2827 6.14104 9 13.718 9C21.295 9 27.4361 11.2827 27.4361 14.1207C27.4361 16.9278 21.295 19.2414 13.718 19.2414Z" fill="#FFEF4A"/>
<path d="M13.718 18.6205C21.2943 18.6205 27.4361 16.3973 27.4361 13.655C27.4361 10.9126 21.2943 8.68945 13.718 8.68945C6.14178 8.68945 0 10.9126 0 13.655C0 16.3973 6.14178 18.6205 13.718 18.6205Z" fill="#FFDD00"/>
<path d="M13.8722 17.3793C7.41862 17.3793 2.1579 15.5138 2.1579 13.1897C2.1579 10.8655 7.38804 9 13.8722 9C20.3257 9 25.5865 10.8655 25.5865 13.1897C25.5865 15.5138 20.3257 17.3793 13.8722 17.3793Z" fill="#FDC800"/>
<path d="M3.38548 13.6977C3.38548 11.3488 8.63341 9.46359 15.1396 9.46359C18.0551 9.46359 20.7558 9.86536 22.812 10.4835C20.6638 9.58721 17.472 9 13.912 9C7.43652 9 2.1579 10.8852 2.1579 13.2341C2.1579 14.5321 3.72307 15.6756 6.23962 16.4483C4.49031 15.7065 3.38548 14.7485 3.38548 13.6977Z" fill="#F5A20A"/>
<path d="M13.385 14.5548C13.4151 14.5548 13.4755 14.5548 13.5057 14.5548C13.7471 14.5548 13.9584 14.5235 14.1395 14.4609C14.1697 14.4609 14.23 14.4296 14.2602 14.4296C14.2904 14.4296 14.3507 14.3982 14.3809 14.3982C14.9543 14.179 15.3165 13.8032 15.4372 13.4587H15.4674C15.7994 14.0224 16.5237 14.3669 17.3084 14.3669C17.3084 14.3356 17.3084 14.3356 17.3084 14.3043C17.2782 14.085 17.1575 13.8971 17.0066 13.7092C17.0066 13.6779 16.9764 13.6466 16.9462 13.6466C16.5237 13.5839 16.1917 13.396 15.9805 13.1142C15.9503 13.0828 15.9503 13.0515 15.9201 13.0202C15.9201 12.9889 15.8899 12.9576 15.8899 12.9262C15.8296 12.801 15.7994 12.6444 15.7994 12.4878V11.8614H18.5156C18.5458 11.9867 18.6062 12.1433 18.6062 12.4878C18.6062 12.9262 18.4553 13.2707 18.0931 13.4587C18.0931 13.49 18.1233 13.49 18.1535 13.5213C18.2742 13.6779 18.3647 13.8658 18.4251 14.0537C18.4251 14.085 18.4251 14.1164 18.4553 14.1164C18.6062 14.0537 18.7269 13.9598 18.8174 13.8971C19.24 13.5526 19.421 13.1142 19.421 12.4251C19.421 11.9553 19.3607 11.4542 19.24 11.1724H10.88C10.8196 11.3916 10.7895 11.7674 10.7895 12.2372C10.7895 12.3938 10.7895 12.5504 10.8196 12.707C10.8196 12.7383 10.8196 12.7696 10.8196 12.801C10.8196 12.8323 10.8196 12.8636 10.8196 12.8949C10.8498 13.1142 10.9102 13.3021 11.0007 13.4587C11.0007 13.49 11.0309 13.5213 11.0309 13.5526C11.0611 13.5839 11.0611 13.6153 11.0913 13.6466C11.212 13.8345 11.3629 13.9911 11.5741 14.1477C11.9665 14.3982 12.5097 14.5862 13.2039 14.5862C13.2341 14.5862 13.2341 14.5862 13.2642 14.5862C13.3548 14.5548 13.385 14.5548 13.385 14.5548ZM11.8759 13.1768C11.8759 13.1455 11.8458 13.1455 11.8458 13.1142C11.8458 13.0828 11.8156 13.0828 11.8156 13.0515C11.7552 12.8949 11.7251 12.7383 11.6949 12.5504C11.6949 12.5191 11.6949 12.4878 11.6949 12.4878V12.4251C11.6949 12.2059 11.6949 12.018 11.7552 11.8927H14.9845V12.4565C14.9845 12.5817 14.9845 12.6757 14.9543 12.801C14.9543 12.8323 14.9543 12.8323 14.9543 12.8636V12.9262C14.7733 13.4587 14.2904 13.8658 13.385 13.8658C12.5701 13.8345 12.1174 13.5526 11.8759 13.1768ZM17.58 14.3356C17.8215 14.3356 18.0327 14.273 18.244 14.2103C18.2742 14.2103 18.3345 14.179 18.3647 14.179C18.3647 14.1477 18.3647 14.1164 18.3647 14.1164C18.3044 13.9285 18.2138 13.7405 18.0931 13.5839C18.0931 13.5526 18.0629 13.5526 18.0327 13.5213C18.0026 13.5213 17.9724 13.5526 17.9422 13.5526C17.7611 13.6153 17.5499 13.6466 17.2782 13.6466H17.2481C17.2179 13.6466 17.1575 13.6466 17.1273 13.6466C17.1575 13.6779 17.1575 13.6779 17.1877 13.7092C17.3386 13.8971 17.4291 14.085 17.4895 14.273C17.4895 14.3043 17.4895 14.3043 17.4895 14.3356C17.4895 14.3669 17.5499 14.3356 17.58 14.3356Z" fill="#F39411"/>
<path d="M17.2782 13.7092C17.4895 13.7092 17.7309 13.6779 17.9422 13.6153C17.9724 13.6153 18.0026 13.5839 18.0629 13.5839C18.0629 13.5526 18.0327 13.5526 18.0026 13.5213C18.0026 13.49 17.9724 13.49 17.9422 13.4587C17.912 13.49 17.8818 13.49 17.8517 13.49C17.6706 13.5526 17.4593 13.5839 17.2179 13.5839H17.1877C17.1273 13.5839 17.067 13.5839 17.0368 13.5839C17.067 13.6153 17.0972 13.6153 17.1273 13.6466C17.1575 13.6779 17.1575 13.6779 17.1877 13.7092C17.2179 13.7092 17.2179 13.7092 17.2481 13.7092C17.2179 13.7092 17.2481 13.7092 17.2782 13.7092ZM16.9161 13.6466C16.4935 13.5839 16.1616 13.396 15.9503 13.1142C15.9201 13.0828 15.9201 13.0515 15.8899 13.0202C15.8899 12.9889 15.8598 12.9576 15.8598 12.9262C15.7994 12.801 15.7692 12.6444 15.7692 12.4878V11.8614H18.4854C18.5156 11.9867 18.576 12.1433 18.576 12.4878C18.576 12.9262 18.4251 13.2707 18.0629 13.4587C18.0629 13.49 18.0931 13.49 18.1233 13.5213C18.4553 13.3334 18.6967 13.0202 18.6967 12.4878C18.6967 12.2372 18.6665 12.018 18.6062 11.8614L18.576 11.7987H15.6485V12.4878C15.6485 12.6444 15.6787 12.7696 15.7089 12.8949C15.7089 12.9262 15.739 12.9576 15.739 12.9576C15.739 12.9889 15.7692 13.0202 15.7994 13.0515C16.0107 13.396 16.4332 13.6466 16.9764 13.6779C16.9764 13.6779 16.9462 13.6466 16.9161 13.6466ZM15.0147 12.9262C15.0147 12.8949 15.0147 12.8949 15.0147 12.8636C15.0147 12.8323 15.0147 12.8323 15.0449 12.801C15.0751 12.707 15.0751 12.5817 15.0751 12.4565V11.8301H11.6043V11.8927C11.5742 12.018 11.544 12.2059 11.544 12.4878C11.544 12.5191 11.544 12.5504 11.544 12.5504C11.544 12.5817 11.544 12.613 11.544 12.613C11.544 12.801 11.6043 12.9576 11.6647 13.1142C11.6647 13.1455 11.6949 13.1768 11.6949 13.1768C11.6949 13.2081 11.7251 13.2081 11.7251 13.2394C11.9967 13.6779 12.5399 13.8971 13.2944 13.8971C14.1998 13.8971 14.8034 13.5213 15.0147 12.9262ZM11.8458 13.1768C11.8458 13.1455 11.8156 13.1455 11.8156 13.1142C11.8156 13.0828 11.7854 13.0828 11.7854 13.0515C11.7251 12.8949 11.6949 12.7383 11.6647 12.5504C11.6647 12.5191 11.6647 12.4878 11.6647 12.4878V12.4251C11.6647 12.2059 11.6647 12.018 11.7251 11.8927H14.9543V12.4565C14.9543 12.5817 14.9543 12.6757 14.9242 12.801C14.9242 12.8323 14.9242 12.8323 14.9242 12.8636V12.9262C14.7431 13.4587 14.2602 13.8658 13.3548 13.8658C12.5399 13.8345 12.0872 13.5526 11.8458 13.1768ZM13.3548 14.5548V14.4922C13.3246 14.4922 13.3246 14.4922 13.2944 14.4922C13.2642 14.4922 13.2642 14.4922 13.2341 14.4922C12.6305 14.4922 12.1174 14.3356 11.6949 14.0537C11.4836 13.9284 11.3327 13.7405 11.212 13.5213C11.212 13.49 11.1818 13.4587 11.1818 13.4273C11.1516 13.4587 11.1214 13.4587 11.0913 13.49C11.1214 13.5213 11.1214 13.5526 11.1516 13.5839C11.2723 13.7719 11.4232 13.9285 11.6345 14.085C12.0269 14.3356 12.5701 14.5235 13.2643 14.5235C13.2944 14.5235 13.2944 14.5235 13.3246 14.5235C13.3246 14.5548 13.3548 14.5548 13.3548 14.5548ZM15.0147 12.9262C15.0147 12.8949 15.0147 12.8949 15.0147 12.8636C15.0147 12.8323 15.0147 12.8323 15.0449 12.801C15.0751 12.707 15.0751 12.5817 15.0751 12.4565V11.8301H11.6043V11.8927C11.5742 12.018 11.544 12.2059 11.544 12.4878C11.544 12.5191 11.544 12.5504 11.544 12.5504C11.544 12.5817 11.544 12.613 11.544 12.613C11.544 12.801 11.6043 12.9576 11.6647 13.1142C11.6647 13.1455 11.6949 13.1768 11.6949 13.1768C11.6949 13.2081 11.7251 13.2081 11.7251 13.2394C11.9967 13.6779 12.5399 13.8971 13.2944 13.8971C14.1998 13.8971 14.8034 13.5213 15.0147 12.9262ZM11.8458 13.1768C11.8458 13.1455 11.8156 13.1455 11.8156 13.1142C11.8156 13.0828 11.7854 13.0828 11.7854 13.0515C11.7251 12.8949 11.6949 12.7383 11.6647 12.5504C11.6647 12.5191 11.6647 12.4878 11.6647 12.4878V12.4251C11.6647 12.2059 11.6647 12.018 11.7251 11.8927H14.9543V12.4565C14.9543 12.5817 14.9543 12.6757 14.9242 12.801C14.9242 12.8323 14.9242 12.8323 14.9242 12.8636V12.9262C14.7431 13.4587 14.2602 13.8658 13.3548 13.8658C12.5399 13.8345 12.0872 13.5526 11.8458 13.1768ZM17.2782 13.7092C17.4895 13.7092 17.7309 13.6779 17.9422 13.6153C17.9724 13.6153 18.0026 13.5839 18.0629 13.5839C18.0629 13.5526 18.0327 13.5526 18.0026 13.5213C18.0026 13.49 17.9724 13.49 17.9422 13.4587C17.912 13.49 17.8818 13.49 17.8517 13.49C17.6706 13.5526 17.4593 13.5839 17.2179 13.5839H17.1877C17.1273 13.5839 17.067 13.5839 17.0368 13.5839C17.067 13.6153 17.0972 13.6153 17.1273 13.6466C17.1575 13.6779 17.1575 13.6779 17.1877 13.7092C17.2179 13.7092 17.2179 13.7092 17.2481 13.7092C17.2179 13.7092 17.2481 13.7092 17.2782 13.7092ZM16.9161 13.6466C16.4935 13.5839 16.1616 13.396 15.9503 13.1142C15.9201 13.0828 15.9201 13.0515 15.8899 13.0202C15.8899 12.9889 15.8598 12.9576 15.8598 12.9262C15.7994 12.801 15.7692 12.6444 15.7692 12.4878V11.8614H18.4854C18.5156 11.9867 18.576 12.1433 18.576 12.4878C18.576 12.9262 18.4251 13.2707 18.0629 13.4587C18.0629 13.49 18.0931 13.49 18.1233 13.5213C18.4553 13.3334 18.6967 13.0202 18.6967 12.4878C18.6967 12.2372 18.6665 12.018 18.6062 11.8614L18.576 11.7987H15.6485V12.4878C15.6485 12.6444 15.6787 12.7696 15.7089 12.8949C15.7089 12.9262 15.739 12.9576 15.739 12.9576C15.739 12.9889 15.7692 13.0202 15.7994 13.0515C16.0107 13.396 16.4332 13.6466 16.9764 13.6779C16.9764 13.6779 16.9462 13.6466 16.9161 13.6466ZM15.0147 12.9262C15.0147 12.8949 15.0147 12.8949 15.0147 12.8636C15.0147 12.8323 15.0147 12.8323 15.0449 12.801C15.0751 12.707 15.0751 12.5817 15.0751 12.4565V11.8301H11.6043V11.8927C11.5742 12.018 11.544 12.2059 11.544 12.4878C11.544 12.5191 11.544 12.5504 11.544 12.5504C11.544 12.5817 11.544 12.613 11.544 12.613C11.544 12.801 11.6043 12.9576 11.6647 13.1142C11.6647 13.1455 11.6949 13.1768 11.6949 13.1768C11.6949 13.2081 11.7251 13.2081 11.7251 13.2394C11.9967 13.6779 12.5399 13.8971 13.2944 13.8971C14.1998 13.8971 14.8034 13.5213 15.0147 12.9262ZM11.8458 13.1768C11.8458 13.1455 11.8156 13.1455 11.8156 13.1142C11.8156 13.0828 11.7854 13.0828 11.7854 13.0515C11.7251 12.8949 11.6949 12.7383 11.6647 12.5504C11.6647 12.5191 11.6647 12.4878 11.6647 12.4878V12.4251C11.6647 12.2059 11.6647 12.018 11.7251 11.8927H14.9543V12.4565C14.9543 12.5817 14.9543 12.6757 14.9242 12.801C14.9242 12.8323 14.9242 12.8323 14.9242 12.8636V12.9262C14.7431 13.4587 14.2602 13.8658 13.3548 13.8658C12.5399 13.8345 12.0872 13.5526 11.8458 13.1768ZM17.2782 13.7092C17.4895 13.7092 17.7309 13.6779 17.9422 13.6153C17.9724 13.6153 18.0026 13.5839 18.0629 13.5839C18.0629 13.5526 18.0327 13.5526 18.0026 13.5213C18.0026 13.49 17.9724 13.49 17.9422 13.4587C17.912 13.49 17.8818 13.49 17.8517 13.49C17.6706 13.5526 17.4593 13.5839 17.2179 13.5839H17.1877C17.1273 13.5839 17.067 13.5839 17.0368 13.5839C17.067 13.6153 17.0972 13.6153 17.1273 13.6466C17.1575 13.6779 17.1575 13.6779 17.1877 13.7092C17.2179 13.7092 17.2179 13.7092 17.2481 13.7092C17.2179 13.7092 17.2481 13.7092 17.2782 13.7092ZM16.9161 13.6466C16.4935 13.5839 16.1616 13.396 15.9503 13.1142C15.9201 13.0828 15.9201 13.0515 15.8899 13.0202C15.8899 12.9889 15.8598 12.9576 15.8598 12.9262C15.7994 12.801 15.7692 12.6444 15.7692 12.4878V11.8614H18.4854C18.5156 11.9867 18.576 12.1433 18.576 12.4878C18.576 12.9262 18.4251 13.2707 18.0629 13.4587C18.0629 13.49 18.0931 13.49 18.1233 13.5213C18.4553 13.3334 18.6967 13.0202 18.6967 12.4878C18.6967 12.2372 18.6665 12.018 18.6062 11.8614L18.576 11.7987H15.6485V12.4878C15.6485 12.6444 15.6787 12.7696 15.7089 12.8949C15.7089 12.9262 15.739 12.9576 15.739 12.9576C15.739 12.9889 15.7692 13.0202 15.7994 13.0515C16.0107 13.396 16.4332 13.6466 16.9764 13.6779C16.9764 13.6779 16.9462 13.6466 16.9161 13.6466ZM13.3548 14.5548C13.385 14.5548 13.4453 14.5548 13.4755 14.5548C13.717 14.5548 13.9282 14.5235 14.1093 14.4609C14.1395 14.4609 14.1998 14.4296 14.23 14.4296C14.2602 14.4296 14.3206 14.3982 14.3507 14.3982C14.9242 14.179 15.2863 13.8032 15.4071 13.4587H15.4372C15.7692 14.0224 16.4935 14.3669 17.2782 14.3669C17.2782 14.3356 17.2782 14.3356 17.2782 14.3043C16.5237 14.3043 15.8598 13.9598 15.558 13.4587L15.4976 13.4273H15.3165L15.2863 13.49C15.1656 13.8032 14.8638 14.1477 14.3507 14.3356C14.3206 14.3669 14.2602 14.3669 14.23 14.3982C14.1998 14.3982 14.1395 14.4296 14.1093 14.4296C13.9282 14.4922 13.717 14.5235 13.4755 14.5235C13.4453 14.5235 13.385 14.5235 13.3548 14.5235C13.3246 14.5235 13.3246 14.5235 13.2944 14.5235C13.2642 14.5235 13.2642 14.5235 13.2341 14.5235C12.6305 14.5235 12.1174 14.3669 11.6949 14.085C11.4836 13.9598 11.3327 13.7719 11.212 13.5526C11.212 13.5213 11.1818 13.49 11.1818 13.4587C11.1818 13.4273 11.1516 13.396 11.1516 13.3647C11.0913 13.2081 11.0309 13.0202 11.0007 12.801C11.0007 12.7696 11.0007 12.7383 11.0007 12.707C11.0007 12.6757 11.0007 12.6444 11.0007 12.6444C11.0007 12.5191 10.9705 12.3938 10.9705 12.2372C10.9705 11.7674 11.0309 11.4229 11.0611 11.235H19.1796C19.2701 11.5482 19.3305 12.018 19.3305 12.4251C19.3305 13.1142 19.1494 13.5213 18.7269 13.8658C18.6363 13.9285 18.5458 13.9911 18.4251 14.0537C18.4251 14.085 18.4251 14.1164 18.4553 14.1164C18.6062 14.0537 18.7269 13.9598 18.8174 13.8971C19.24 13.5526 19.421 13.1142 19.421 12.4251C19.421 11.9553 19.3607 11.4542 19.24 11.1724H10.88C10.8196 11.3916 10.7895 11.7674 10.7895 12.2372C10.7895 12.3938 10.7895 12.5504 10.8196 12.707C10.8196 12.7383 10.8196 12.7696 10.8196 12.801C10.8196 12.8323 10.8196 12.8636 10.8196 12.8949C10.8498 13.1142 10.9102 13.3021 11.0007 13.4587C11.0007 13.49 11.0309 13.5213 11.0309 13.5526C11.0611 13.5839 11.0611 13.6153 11.0913 13.6466C11.212 13.8345 11.3629 13.9911 11.5741 14.1477C11.9665 14.3982 12.5097 14.5862 13.2039 14.5862C13.2341 14.5862 13.2341 14.5862 13.2643 14.5862C13.3246 14.5548 13.3548 14.5548 13.3548 14.5548ZM17.5499 14.3982C17.7913 14.3982 18.0026 14.3356 18.2138 14.3043C18.244 14.3043 18.3044 14.273 18.3345 14.273C18.3345 14.2416 18.3345 14.2103 18.3044 14.2103C18.3044 14.179 18.3044 14.1477 18.3044 14.1477C18.2742 14.1477 18.244 14.179 18.1836 14.179C18.0026 14.2416 17.7611 14.3043 17.5197 14.3043C17.4895 14.3043 17.4291 14.3043 17.399 14.3043C17.399 14.3356 17.399 14.3356 17.399 14.3669C17.399 14.3982 17.399 14.3982 17.399 14.4296C17.4895 14.4296 17.5197 14.3982 17.5499 14.3982ZM17.2782 13.7092C17.2782 13.6779 17.2481 13.6779 17.2179 13.6466H17.1877C17.1575 13.6466 17.0972 13.6466 17.067 13.6466C17.0972 13.6779 17.0972 13.6779 17.1273 13.7092C17.1575 13.7092 17.1575 13.7092 17.1877 13.7092C17.2179 13.7092 17.2481 13.7092 17.2782 13.7092ZM15.0147 12.9262C15.0147 12.8949 15.0147 12.8949 15.0147 12.8636C15.0147 12.8323 15.0147 12.8323 15.0449 12.801C15.0147 12.801 14.9543 12.801 14.9242 12.801C14.9242 12.8323 14.9242 12.8323 14.9242 12.8636V12.9262C14.7431 13.4587 14.2602 13.8658 13.3548 13.8658C12.5701 13.8658 12.1174 13.6153 11.9061 13.2394C11.9061 13.2081 11.876 13.2081 11.876 13.1768C11.876 13.1455 11.8458 13.1455 11.8458 13.1142C11.8156 13.1142 11.7854 13.1455 11.7251 13.1455C11.7251 13.1768 11.7552 13.2081 11.7552 13.2081C11.7552 13.2394 11.7854 13.2394 11.7854 13.2707C12.057 13.7092 12.6003 13.9285 13.3548 13.9285C14.1998 13.8971 14.8034 13.5213 15.0147 12.9262ZM16.9161 13.6466C16.4935 13.5839 16.1616 13.396 15.9503 13.1142C15.9201 13.0828 15.9201 13.0515 15.8899 13.0202C15.8899 12.9889 15.8598 12.9576 15.8598 12.9262C15.8296 12.9262 15.7692 12.8949 15.7089 12.8949C15.7089 12.9262 15.739 12.9576 15.739 12.9576C15.739 12.9889 15.7692 13.0202 15.7994 13.0515C16.0107 13.396 16.4332 13.6466 16.9764 13.6779C16.9764 13.6779 16.9462 13.6466 16.9161 13.6466ZM17.2782 13.7092C17.4895 13.7092 17.7309 13.6779 17.9422 13.6153C17.9724 13.6153 18.0026 13.5839 18.0629 13.5839C18.0629 13.5526 18.0327 13.5526 18.0026 13.5213C18.0026 13.49 17.9724 13.49 17.9422 13.4587C17.912 13.49 17.8818 13.49 17.8517 13.49C17.6706 13.5526 17.4593 13.5839 17.2179 13.5839H17.1877C17.1273 13.5839 17.067 13.5839 17.0368 13.5839C17.067 13.6153 17.0972 13.6153 17.1273 13.6466C17.1575 13.6779 17.1575 13.6779 17.1877 13.7092C17.2179 13.7092 17.2179 13.7092 17.2481 13.7092C17.2179 13.7092 17.2481 13.7092 17.2782 13.7092ZM16.9161 13.6466C16.4935 13.5839 16.1616 13.396 15.9503 13.1142C15.9201 13.0828 15.9201 13.0515 15.8899 13.0202C15.8899 12.9889 15.8598 12.9576 15.8598 12.9262C15.7994 12.801 15.7692 12.6444 15.7692 12.4878V11.8614H18.4854C18.5156 11.9867 18.576 12.1433 18.576 12.4878C18.576 12.9262 18.4251 13.2707 18.0629 13.4587C18.0629 13.49 18.0931 13.49 18.1233 13.5213C18.4553 13.3334 18.6967 13.0202 18.6967 12.4878C18.6967 12.2372 18.6665 12.018 18.6062 11.8614L18.576 11.7987H15.6485V12.4878C15.6485 12.6444 15.6787 12.7696 15.7089 12.8949C15.7089 12.9262 15.739 12.9576 15.739 12.9576C15.739 12.9889 15.7692 13.0202 15.7994 13.0515C16.0107 13.396 16.4332 13.6466 16.9764 13.6779C16.9764 13.6779 16.9462 13.6466 16.9161 13.6466ZM15.0147 12.9262C15.0147 12.8949 15.0147 12.8949 15.0147 12.8636C15.0147 12.8323 15.0147 12.8323 15.0449 12.801C15.0751 12.707 15.0751 12.5817 15.0751 12.4565V11.8301H11.6043V11.8927C11.5742 12.018 11.544 12.2059 11.544 12.4878C11.544 12.5191 11.544 12.5504 11.544 12.5504C11.544 12.5817 11.544 12.613 11.544 12.613C11.544 12.801 11.6043 12.9576 11.6647 13.1142C11.6647 13.1455 11.6949 13.1768 11.6949 13.1768C11.6949 13.2081 11.7251 13.2081 11.7251 13.2394C11.9967 13.6779 12.5399 13.8971 13.2944 13.8971C14.1998 13.8971 14.8034 13.5213 15.0147 12.9262ZM11.8458 13.1768C11.8458 13.1455 11.8156 13.1455 11.8156 13.1142C11.8156 13.0828 11.7854 13.0828 11.7854 13.0515C11.7251 12.8949 11.6949 12.7383 11.6647 12.5504C11.6647 12.5191 11.6647 12.4878 11.6647 12.4878V12.4251C11.6647 12.2059 11.6647 12.018 11.7251 11.8927H14.9543V12.4565C14.9543 12.5817 14.9543 12.6757 14.9242 12.801C14.9242 12.8323 14.9242 12.8323 14.9242 12.8636V12.9262C14.7431 13.4587 14.2602 13.8658 13.3548 13.8658C12.5399 13.8345 12.0872 13.5526 11.8458 13.1768ZM13.3548 14.5548V14.4922C13.3246 14.4922 13.3246 14.4922 13.2944 14.4922C13.2642 14.4922 13.2642 14.4922 13.2341 14.4922C12.6305 14.4922 12.1174 14.3356 11.6949 14.0537C11.4836 13.9284 11.3327 13.7405 11.212 13.5213C11.212 13.49 11.1818 13.4587 11.1818 13.4273C11.1516 13.4587 11.1214 13.4587 11.0913 13.49C11.1214 13.5213 11.1214 13.5526 11.1516 13.5839C11.2723 13.7719 11.4232 13.9285 11.6345 14.085C12.0269 14.3356 12.5701 14.5235 13.2643 14.5235C13.2944 14.5235 13.2944 14.5235 13.3246 14.5235C13.3246 14.5548 13.3548 14.5548 13.3548 14.5548ZM15.0147 12.9262C15.0147 12.8949 15.0147 12.8949 15.0147 12.8636C15.0147 12.8323 15.0147 12.8323 15.0449 12.801C15.0751 12.707 15.0751 12.5817 15.0751 12.4565V11.8301H11.6043V11.8927C11.5742 12.018 11.544 12.2059 11.544 12.4878C11.544 12.5191 11.544 12.5504 11.544 12.5504C11.544 12.5817 11.544 12.613 11.544 12.613C11.544 12.801 11.6043 12.9576 11.6647 13.1142C11.6647 13.1455 11.6949 13.1768 11.6949 13.1768C11.6949 13.2081 11.7251 13.2081 11.7251 13.2394C11.9967 13.6779 12.5399 13.8971 13.2944 13.8971C14.1998 13.8971 14.8034 13.5213 15.0147 12.9262ZM11.8458 13.1768C11.8458 13.1455 11.8156 13.1455 11.8156 13.1142C11.8156 13.0828 11.7854 13.0828 11.7854 13.0515C11.7251 12.8949 11.6949 12.7383 11.6647 12.5504C11.6647 12.5191 11.6647 12.4878 11.6647 12.4878V12.4251C11.6647 12.2059 11.6647 12.018 11.7251 11.8927H14.9543V12.4565C14.9543 12.5817 14.9543 12.6757 14.9242 12.801C14.9242 12.8323 14.9242 12.8323 14.9242 12.8636V12.9262C14.7431 13.4587 14.2602 13.8658 13.3548 13.8658C12.5399 13.8345 12.0872 13.5526 11.8458 13.1768ZM17.2782 13.7092C17.4895 13.7092 17.7309 13.6779 17.9422 13.6153C17.9724 13.6153 18.0026 13.5839 18.0629 13.5839C18.0629 13.5526 18.0327 13.5526 18.0026 13.5213C18.0026 13.49 17.9724 13.49 17.9422 13.4587C17.912 13.49 17.8818 13.49 17.8517 13.49C17.6706 13.5526 17.4593 13.5839 17.2179 13.5839H17.1877C17.1273 13.5839 17.067 13.5839 17.0368 13.5839C17.067 13.6153 17.0972 13.6153 17.1273 13.6466C17.1575 13.6779 17.1575 13.6779 17.1877 13.7092C17.2179 13.7092 17.2179 13.7092 17.2481 13.7092C17.2179 13.7092 17.2481 13.7092 17.2782 13.7092ZM16.9161 13.6466C16.4935 13.5839 16.1616 13.396 15.9503 13.1142C15.9201 13.0828 15.9201 13.0515 15.8899 13.0202C15.8899 12.9889 15.8598 12.9576 15.8598 12.9262C15.7994 12.801 15.7692 12.6444 15.7692 12.4878V11.8614H18.4854C18.5156 11.9867 18.576 12.1433 18.576 12.4878C18.576 12.9262 18.4251 13.2707 18.0629 13.4587C18.0629 13.49 18.0931 13.49 18.1233 13.5213C18.4553 13.3334 18.6967 13.0202 18.6967 12.4878C18.6967 12.2372 18.6665 12.018 18.6062 11.8614L18.576 11.7987H15.6485V12.4878C15.6485 12.6444 15.6787 12.7696 15.7089 12.8949C15.7089 12.9262 15.739 12.9576 15.739 12.9576C15.739 12.9889 15.7692 13.0202 15.7994 13.0515C16.0107 13.396 16.4332 13.6466 16.9764 13.6779C16.9764 13.6779 16.9462 13.6466 16.9161 13.6466ZM17.2782 13.7092C17.4895 13.7092 17.7309 13.6779 17.9422 13.6153C17.9724 13.6153 18.0026 13.5839 18.0629 13.5839C18.0629 13.5526 18.0327 13.5526 18.0026 13.5213C18.0026 13.49 17.9724 13.49 17.9422 13.4587C17.912 13.49 17.8818 13.49 17.8517 13.49C17.6706 13.5526 17.4593 13.5839 17.2179 13.5839H17.1877C17.1273 13.5839 17.067 13.5839 17.0368 13.5839C17.067 13.6153 17.0972 13.6153 17.1273 13.6466C17.1575 13.6779 17.1575 13.6779 17.1877 13.7092C17.2179 13.7092 17.2179 13.7092 17.2481 13.7092C17.2179 13.7092 17.2481 13.7092 17.2782 13.7092ZM16.9161 13.6466C16.4935 13.5839 16.1616 13.396 15.9503 13.1142C15.9201 13.0828 15.9201 13.0515 15.8899 13.0202C15.8899 12.9889 15.8598 12.9576 15.8598 12.9262C15.7994 12.801 15.7692 12.6444 15.7692 12.4878V11.8614H18.4854C18.5156 11.9867 18.576 12.1433 18.576 12.4878C18.576 12.9262 18.4251 13.2707 18.0629 13.4587C18.0629 13.49 18.0931 13.49 18.1233 13.5213C18.4553 13.3334 18.6967 13.0202 18.6967 12.4878C18.6967 12.2372 18.6665 12.018 18.6062 11.8614L18.576 11.7987H15.6485V12.4878C15.6485 12.6444 15.6787 12.7696 15.7089 12.8949C15.7089 12.9262 15.739 12.9576 15.739 12.9576C15.739 12.9889 15.7692 13.0202 15.7994 13.0515C16.0107 13.396 16.4332 13.6466 16.9764 13.6779C16.9764 13.6779 16.9462 13.6466 16.9161 13.6466ZM15.0147 12.9262C15.0147 12.8949 15.0147 12.8949 15.0147 12.8636C15.0147 12.8323 15.0147 12.8323 15.0449 12.801C15.0751 12.707 15.0751 12.5817 15.0751 12.4565V11.8301H11.6043V11.8927C11.5742 12.018 11.544 12.2059 11.544 12.4878C11.544 12.5191 11.544 12.5504 11.544 12.5504C11.544 12.5817 11.544 12.613 11.544 12.613C11.544 12.801 11.6043 12.9576 11.6647 13.1142C11.6647 13.1455 11.6949 13.1768 11.6949 13.1768C11.6949 13.2081 11.7251 13.2081 11.7251 13.2394C11.9967 13.6779 12.5399 13.8971 13.2944 13.8971C14.1998 13.8971 14.8034 13.5213 15.0147 12.9262ZM11.8458 13.1768C11.8458 13.1455 11.8156 13.1455 11.8156 13.1142C11.8156 13.0828 11.7854 13.0828 11.7854 13.0515C11.7251 12.8949 11.6949 12.7383 11.6647 12.5504C11.6647 12.5191 11.6647 12.4878 11.6647 12.4878V12.4251C11.6647 12.2059 11.6647 12.018 11.7251 11.8927H14.9543V12.4565C14.9543 12.5817 14.9543 12.6757 14.9242 12.801C14.9242 12.8323 14.9242 12.8323 14.9242 12.8636V12.9262C14.7431 13.4587 14.2602 13.8658 13.3548 13.8658C12.5399 13.8345 12.0872 13.5526 11.8458 13.1768ZM13.3548 14.5548V14.4922C13.3246 14.4922 13.3246 14.4922 13.2944 14.4922C13.2642 14.4922 13.2642 14.4922 13.2341 14.4922C12.6305 14.4922 12.1174 14.3356 11.6949 14.0537C11.4836 13.9284 11.3327 13.7405 11.212 13.5213C11.212 13.49 11.1818 13.4587 11.1818 13.4273C11.1516 13.4587 11.1214 13.4587 11.0913 13.49C11.1214 13.5213 11.1214 13.5526 11.1516 13.5839C11.2723 13.7719 11.4232 13.9285 11.6345 14.085C12.0269 14.3356 12.5701 14.5235 13.2643 14.5235C13.2944 14.5235 13.2944 14.5235 13.3246 14.5235C13.3246 14.5548 13.3548 14.5548 13.3548 14.5548ZM15.0147 12.9262C15.0147 12.8949 15.0147 12.8949 15.0147 12.8636C15.0147 12.8323 15.0147 12.8323 15.0449 12.801C15.0751 12.707 15.0751 12.5817 15.0751 12.4565V11.8301H11.6043V11.8927C11.5742 12.018 11.544 12.2059 11.544 12.4878C11.544 12.5191 11.544 12.5504 11.544 12.5504C11.544 12.5817 11.544 12.613 11.544 12.613C11.544 12.801 11.6043 12.9576 11.6647 13.1142C11.6647 13.1455 11.6949 13.1768 11.6949 13.1768C11.6949 13.2081 11.7251 13.2081 11.7251 13.2394C11.9967 13.6779 12.5399 13.8971 13.2944 13.8971C14.1998 13.8971 14.8034 13.5213 15.0147 12.9262ZM11.8458 13.1768C11.8458 13.1455 11.8156 13.1455 11.8156 13.1142C11.8156 13.0828 11.7854 13.0828 11.7854 13.0515C11.7251 12.8949 11.6949 12.7383 11.6647 12.5504C11.6647 12.5191 11.6647 12.4878 11.6647 12.4878V12.4251C11.6647 12.2059 11.6647 12.018 11.7251 11.8927H14.9543V12.4565C14.9543 12.5817 14.9543 12.6757 14.9242 12.801C14.9242 12.8323 14.9242 12.8323 14.9242 12.8636V12.9262C14.7431 13.4587 14.2602 13.8658 13.3548 13.8658C12.5399 13.8345 12.0872 13.5526 11.8458 13.1768ZM17.2782 13.7092C17.4895 13.7092 17.7309 13.6779 17.9422 13.6153C17.9724 13.6153 18.0026 13.5839 18.0629 13.5839C18.0629 13.5526 18.0327 13.5526 18.0026 13.5213C18.0026 13.49 17.9724 13.49 17.9422 13.4587C17.912 13.49 17.8818 13.49 17.8517 13.49C17.6706 13.5526 17.4593 13.5839 17.2179 13.5839H17.1877C17.1273 13.5839 17.067 13.5839 17.0368 13.5839C17.067 13.6153 17.0972 13.6153 17.1273 13.6466C17.1575 13.6779 17.1575 13.6779 17.1877 13.7092C17.2179 13.7092 17.2179 13.7092 17.2481 13.7092C17.2179 13.7092 17.2481 13.7092 17.2782 13.7092ZM16.9161 13.6466C16.4935 13.5839 16.1616 13.396 15.9503 13.1142C15.9201 13.0828 15.9201 13.0515 15.8899 13.0202C15.8899 12.9889 15.8598 12.9576 15.8598 12.9262C15.7994 12.801 15.7692 12.6444 15.7692 12.4878V11.8614H18.4854C18.5156 11.9867 18.576 12.1433 18.576 12.4878C18.576 12.9262 18.4251 13.2707 18.0629 13.4587C18.0629 13.49 18.0931 13.49 18.1233 13.5213C18.4553 13.3334 18.6967 13.0202 18.6967 12.4878C18.6967 12.2372 18.6665 12.018 18.6062 11.8614L18.576 11.7987H15.6485V12.4878C15.6485 12.6444 15.6787 12.7696 15.7089 12.8949C15.7089 12.9262 15.739 12.9576 15.739 12.9576C15.739 12.9889 15.7692 13.0202 15.7994 13.0515C16.0107 13.396 16.4332 13.6466 16.9764 13.6779C16.9764 13.6779 16.9462 13.6466 16.9161 13.6466Z" fill="#F39411"/>
<path d="M15.9198 12.7796C15.8577 12.6566 15.8267 12.5028 15.8267 12.3491V12.226C15.7957 12.226 15.7336 12.1953 15.7025 12.1953C15.5163 12.1645 15.299 12.1338 15.1128 12.103C15.0817 12.103 15.0196 12.103 14.9886 12.103V12.2876C14.9886 12.4106 14.9886 12.5028 14.9576 12.6259C14.9576 12.6566 14.9576 12.6566 14.9576 12.6874C14.9886 12.6874 15.0507 12.6874 15.0817 12.6874C15.3611 12.7181 15.6094 12.7489 15.8577 12.8104C15.9198 12.8104 15.9509 12.8411 16.013 12.8411C15.9509 12.8411 15.9509 12.8104 15.9198 12.7796ZM14.2436 14.3174C14.2126 14.3174 14.1505 14.3481 14.1194 14.3481C13.9332 14.4096 13.7159 14.4096 13.4676 14.4404C13.4365 14.4404 13.3745 14.4404 13.3434 14.4404V14.994H10.736C10.6118 14.871 10.4876 14.6249 10.4876 14.2559C10.4876 13.9483 10.6118 13.6408 10.8912 13.4255C10.8601 13.3947 10.8601 13.364 10.8291 13.3332C10.736 13.1794 10.6739 12.9949 10.6118 12.7796C10.6118 12.7489 10.6118 12.7181 10.6118 12.6874C9.86681 13.0872 9.5564 13.61 9.5564 14.2251C9.5564 14.8095 9.86681 15.2708 10.022 15.5168H14.2126V14.3174H14.2436ZM13.3434 14.3789C13.3745 14.3789 13.4365 14.3789 13.4676 14.3789C13.7159 14.3789 13.9332 14.3481 14.1194 14.2866C14.1505 14.2866 14.2126 14.2559 14.2436 14.2559V14.1636H13.3434V14.3789ZM11.1085 13.3025C11.2637 13.1794 11.4499 13.0872 11.6672 13.0257C11.6982 13.0257 11.7293 12.9949 11.7914 12.9949C11.7914 12.9642 11.7603 12.9642 11.7603 12.9334C11.6982 12.7796 11.6672 12.6259 11.6362 12.4413C11.6362 12.4106 11.6362 12.3798 11.6362 12.3798C11.6051 12.3798 11.543 12.4106 11.512 12.4106C11.2947 12.4721 11.0774 12.5336 10.9222 12.6259C10.8912 12.6566 10.8291 12.6566 10.798 12.6874C10.798 12.7181 10.798 12.7489 10.798 12.7796C10.8291 12.9949 10.8912 13.1794 10.9843 13.3332C10.9843 13.364 11.0153 13.3947 11.0153 13.4255C11.0153 13.3332 11.0464 13.3332 11.1085 13.3025ZM14.0263 12.6566C14.3057 12.6566 14.554 12.6566 14.8024 12.6874C14.8024 12.6566 14.8023 12.6566 14.8334 12.6259C14.8644 12.5028 14.8644 12.3798 14.8644 12.3183V12.1338C14.5851 12.103 14.3057 12.103 13.9953 12.103C13.1572 12.103 12.3811 12.1953 11.7293 12.3491C11.7293 12.3798 11.7293 12.3798 11.7293 12.4106C11.7293 12.5644 11.7603 12.7181 11.8224 12.9027C11.8224 12.9334 11.8534 12.9642 11.8534 12.9642C12.4432 12.7489 13.1572 12.6566 14.0263 12.6566ZM18.4962 14.3481C18.4962 14.2559 18.4962 14.1636 18.4652 14.0713C18.4652 14.0406 18.4652 14.0098 18.4342 14.0098C18.4342 13.9791 18.4342 13.9483 18.4342 13.9483C18.3721 13.7638 18.279 13.5793 18.1548 13.4255C18.1548 13.3947 18.1238 13.3947 18.0927 13.364C18.0927 13.3332 18.0617 13.3332 18.0306 13.3025C17.5961 12.8411 16.8821 12.4721 15.9198 12.2876V12.3798C15.9198 12.5643 15.9509 12.7181 16.044 12.8411C16.044 12.8719 16.075 12.9027 16.1061 12.9334C16.5096 13.0564 16.82 13.241 17.0684 13.4255C17.0994 13.4562 17.1304 13.4562 17.1615 13.487C17.1925 13.5178 17.1925 13.5178 17.2236 13.5485C17.3788 13.733 17.4719 13.9176 17.534 14.1021C17.534 14.1329 17.534 14.1329 17.534 14.1636C17.534 14.1944 17.534 14.1944 17.534 14.2251C17.534 14.2559 17.534 14.2866 17.534 14.3174C17.534 14.7479 17.3788 15.0247 17.1615 15.24L18.0927 15.363C18.279 15.24 18.4962 14.8402 18.4962 14.3481Z" fill="#F39411"/>
<path d="M13.4324 14.4595C13.4012 14.4595 13.3386 14.4595 13.3074 14.4595V15.0032H10.6817C10.5567 14.8824 10.4316 14.6407 10.4316 14.2782C10.4316 13.9761 10.5567 13.674 10.838 13.4625C10.8067 13.4323 10.8067 13.4021 10.7755 13.3719C10.4629 13.6136 10.3066 13.9157 10.3066 14.2782C10.3066 14.6105 10.4004 14.8824 10.5567 15.0032L10.5879 15.0335H13.4324V14.4595ZM13.3074 14.399C13.3386 14.399 13.4012 14.399 13.4324 14.399V14.3386C13.4012 14.3386 13.3386 14.3386 13.3074 14.3386V14.399ZM11.0568 13.3417C11.0568 13.3115 11.0255 13.2812 11.0255 13.251C10.9943 13.2812 10.963 13.2812 10.9318 13.3114C10.9318 13.3417 10.963 13.3719 10.963 13.4021C10.963 13.3719 10.9943 13.3719 11.0568 13.3417ZM13.4324 14.4595C13.4012 14.4595 13.3386 14.4595 13.3074 14.4595V15.0032H10.6817C10.5567 14.8824 10.4316 14.6407 10.4316 14.2782C10.4316 13.9761 10.5567 13.674 10.838 13.4625C10.8067 13.4323 10.8067 13.4021 10.7755 13.3719C10.4629 13.6136 10.3066 13.9157 10.3066 14.2782C10.3066 14.6105 10.4004 14.8824 10.5567 15.0032L10.5879 15.0335H13.4324V14.4595ZM13.3074 14.399C13.3386 14.399 13.4012 14.399 13.4324 14.399V14.3386C13.4012 14.3386 13.3386 14.3386 13.3074 14.3386V14.399ZM11.0568 13.3417C11.0568 13.3115 11.0255 13.2812 11.0255 13.251C10.9943 13.2812 10.963 13.2812 10.9318 13.3114C10.9318 13.3417 10.963 13.3719 10.963 13.4021C10.963 13.3719 10.9943 13.3719 11.0568 13.3417ZM17.2459 13.4625C16.9646 13.2208 16.5895 13.0093 16.0581 12.8885C16.0581 12.9187 16.0894 12.9489 16.1206 12.9791C16.527 13.1 16.8396 13.2812 17.0896 13.4625C17.1209 13.4927 17.1521 13.4927 17.1834 13.5229C17.2147 13.5229 17.2772 13.5229 17.3084 13.5229H17.3397C17.3084 13.5229 17.2772 13.4927 17.2459 13.4625ZM13.4324 14.4595C13.4012 14.4595 13.3386 14.4595 13.3074 14.4595V15.0032H10.6817C10.5567 14.8824 10.4316 14.6407 10.4316 14.2782C10.4316 13.9761 10.5567 13.674 10.838 13.4625C10.8067 13.4323 10.8067 13.4021 10.7755 13.3719C10.4629 13.6136 10.3066 13.9157 10.3066 14.2782C10.3066 14.6105 10.4004 14.8824 10.5567 15.0032L10.5879 15.0335H13.4324V14.4595ZM13.9951 12.7072C14.2764 12.7072 14.5265 12.7072 14.7765 12.7375C14.7765 12.7072 14.7765 12.7072 14.8078 12.677C14.5577 12.6468 14.3076 12.6468 14.0263 12.6468C13.1511 12.6468 12.4009 12.7375 11.807 12.9187C11.807 12.9489 11.8382 12.9791 11.8382 12.9791C12.4009 12.7979 13.1198 12.7072 13.9951 12.7072ZM15.808 12.2239C15.7768 12.2239 15.7143 12.2239 15.683 12.1937C15.4955 12.1634 15.2767 12.1332 15.0891 12.103C15.0578 12.103 14.9953 12.103 14.9641 12.103V12.2239C14.9953 12.2239 15.0578 12.2239 15.0891 12.2239C15.3079 12.2541 15.4955 12.2843 15.683 12.3145C15.7143 12.3145 15.7768 12.3145 15.808 12.3447V12.2239ZM15.9643 12.9187C15.9643 12.8885 15.9331 12.8583 15.9331 12.8281C15.9018 12.8281 15.8393 12.7979 15.7768 12.7979C15.558 12.7374 15.3079 12.7072 15.0578 12.677C15.0266 12.677 14.9641 12.677 14.9328 12.677C14.9328 12.7072 14.9328 12.7072 14.9328 12.7375V12.7979C14.9641 12.7979 15.0266 12.7979 15.0578 12.7979C15.3704 12.8281 15.6517 12.8885 15.9018 12.9489C15.9643 12.9489 15.9956 12.9791 16.0581 12.9791C15.9956 12.9791 15.9643 12.9489 15.9643 12.9187ZM14.2139 14.3386C14.1826 14.3386 14.1201 14.3688 14.0888 14.3688V15.4564H10.0878C9.86898 15.1543 9.65017 14.7313 9.65017 14.248C9.65017 13.6438 9.96276 13.1906 10.6192 12.8281C10.6192 12.7979 10.6192 12.7677 10.6192 12.7375C9.86898 13.1302 9.5564 13.6438 9.5564 14.248C9.5564 14.822 9.86898 15.2751 10.0253 15.5168H14.2451V14.3386H14.2139ZM10.5879 15.0335L10.6192 15.0637H13.4637V14.4595C13.4324 14.4595 13.3699 14.4595 13.3386 14.4595V15.0032H10.6817C10.5567 14.8824 10.4316 14.6407 10.4316 14.2782C10.4316 13.9761 10.5567 13.674 10.838 13.4625C10.8067 13.4323 10.8067 13.4021 10.7755 13.3719C10.4629 13.6136 10.3066 13.9157 10.3066 14.2782C10.3379 14.6105 10.4316 14.8824 10.5879 15.0335ZM13.1824 14.399C13.2136 14.399 13.2136 14.399 13.2449 14.399C13.2761 14.399 13.2761 14.399 13.3074 14.399C13.3386 14.399 13.4012 14.399 13.4324 14.399V14.2178H14.0888V14.3084C14.1201 14.3084 14.1826 14.2782 14.2139 14.2782C14.2451 14.2782 14.3076 14.248 14.3389 14.248V14.0969H13.1824V14.399ZM11.0881 13.4021C11.2443 13.2812 11.4319 13.1906 11.6507 13.1C11.682 13.0698 11.7132 13.0698 11.7445 13.0698C11.7445 13.0396 11.7132 13.0396 11.7132 13.0093C11.7132 12.9791 11.682 12.9791 11.682 12.9489C11.6507 12.9489 11.6194 12.9791 11.5569 12.9791C11.3381 13.0698 11.1506 13.1604 10.9943 13.251C10.963 13.2812 10.9318 13.2812 10.9005 13.3114C10.9005 13.3417 10.9318 13.3719 10.9318 13.4021C10.963 13.4323 10.963 13.4625 10.9943 13.4927C11.0255 13.4625 11.0568 13.4323 11.0881 13.4021ZM10.7755 12.7677C10.8067 12.7677 10.8067 12.7375 10.838 12.7375C11.0255 12.6468 11.2131 12.5864 11.4319 12.526C11.4631 12.526 11.5257 12.4958 11.5569 12.4958C11.5569 12.4656 11.5569 12.4353 11.5569 12.4353V12.3749C11.5257 12.3749 11.4631 12.4051 11.4319 12.4051C11.2131 12.4656 10.9943 12.526 10.838 12.6166C10.8067 12.6166 10.7442 12.6468 10.713 12.677C10.713 12.7072 10.713 12.7375 10.713 12.7677C10.713 12.7979 10.713 12.8281 10.713 12.8583C10.7442 12.7677 10.7442 12.7677 10.7755 12.7677ZM13.9951 12.7072C14.2764 12.7072 14.5265 12.7072 14.7765 12.7375C14.7765 12.7072 14.7765 12.7072 14.8078 12.677C14.5577 12.6468 14.3076 12.6468 14.0263 12.6468C13.1511 12.6468 12.4009 12.7375 11.807 12.9187C11.807 12.9489 11.8382 12.9791 11.8382 12.9791C12.4009 12.7979 13.1198 12.7072 13.9951 12.7072ZM13.9638 12.1937C14.2764 12.1937 14.5577 12.1937 14.839 12.2239V12.1635C14.5577 12.1332 14.2764 12.1332 13.9638 12.1332C13.1198 12.1332 12.3384 12.2239 11.682 12.3749C11.682 12.4051 11.682 12.4051 11.682 12.4353C12.3384 12.2843 13.1198 12.1937 13.9638 12.1937ZM18.4962 14.3688C18.4962 14.2782 18.4962 14.1876 18.465 14.0969C18.465 14.0667 18.465 14.0365 18.4337 14.0365C18.4337 14.0063 18.4337 13.9761 18.4337 13.9761C18.3712 13.7948 18.2774 13.6136 18.1524 13.4625C18.1524 13.4323 18.1211 13.4323 18.0899 13.4021C18.0899 13.3719 18.0586 13.3719 18.0274 13.3417C17.5898 12.8885 16.8708 12.526 15.9018 12.3447V12.4051C16.8083 12.6166 17.496 12.9489 17.9023 13.3719C17.9336 13.4021 17.9336 13.4021 17.9649 13.4323C17.9649 13.4625 17.9961 13.4625 17.9961 13.4927C18.1211 13.6438 18.2149 13.825 18.2774 14.0063C18.2774 14.0365 18.2774 14.0365 18.2774 14.0667C18.2774 14.0969 18.2774 14.1271 18.2774 14.1271C18.2774 14.1876 18.3087 14.2782 18.3087 14.3386C18.3087 14.7616 18.1211 15.0939 17.9649 15.3053L17.2772 15.2147C17.496 14.9428 17.621 14.6709 17.621 14.3386C17.621 14.3084 17.621 14.2782 17.621 14.2178C17.621 14.1876 17.621 14.1876 17.621 14.1573C17.621 14.1271 17.621 14.1271 17.621 14.0969C17.5898 13.8855 17.496 13.7042 17.3397 13.5531C17.3397 13.5229 17.3084 13.5229 17.2772 13.4927C17.2772 13.4625 17.2459 13.4625 17.2147 13.4323C16.9333 13.1906 16.5582 12.9791 16.0268 12.8583C16.0268 12.8885 16.0581 12.9187 16.0894 12.9489C16.4957 13.0698 16.8083 13.251 17.0584 13.4323C17.0896 13.4625 17.1209 13.4625 17.1521 13.4927C17.1834 13.5229 17.1834 13.5229 17.2147 13.5531C17.3709 13.7344 17.4647 13.9157 17.5272 14.0969C17.5272 14.1271 17.5272 14.1271 17.5272 14.1573C17.5272 14.1876 17.5272 14.1876 17.5272 14.2178C17.5272 14.248 17.5272 14.2782 17.5272 14.3084C17.5272 14.7313 17.371 15.0032 17.1521 15.2147L18.0899 15.3356C18.2774 15.2449 18.4962 14.8522 18.4962 14.3688ZM13.9951 12.7072C14.2764 12.7072 14.5265 12.7072 14.7765 12.7375C14.7765 12.7072 14.7765 12.7072 14.8078 12.677C14.5577 12.6468 14.3076 12.6468 14.0263 12.6468C13.1511 12.6468 12.4009 12.7375 11.807 12.9187C11.807 12.9489 11.8382 12.9791 11.8382 12.9791C12.4009 12.7979 13.1198 12.7072 13.9951 12.7072ZM13.4324 14.4595C13.4012 14.4595 13.3386 14.4595 13.3074 14.4595V15.0032H10.6817C10.5567 14.8824 10.4316 14.6407 10.4316 14.2782C10.4316 13.9761 10.5567 13.674 10.838 13.4625C10.8067 13.4323 10.8067 13.4021 10.7755 13.3719C10.4629 13.6136 10.3066 13.9157 10.3066 14.2782C10.3066 14.6105 10.4004 14.8824 10.5567 15.0032L10.5879 15.0335H13.4324V14.4595ZM13.4324 14.4595C13.4012 14.4595 13.3386 14.4595 13.3074 14.4595V15.0032H10.6817C10.5567 14.8824 10.4316 14.6407 10.4316 14.2782C10.4316 13.9761 10.5567 13.674 10.838 13.4625C10.8067 13.4323 10.8067 13.4021 10.7755 13.3719C10.4629 13.6136 10.3066 13.9157 10.3066 14.2782C10.3066 14.6105 10.4004 14.8824 10.5567 15.0032L10.5879 15.0335H13.4324V14.4595ZM13.3074 14.399C13.3386 14.399 13.4012 14.399 13.4324 14.399V14.3386C13.4012 14.3386 13.3386 14.3386 13.3074 14.3386V14.399ZM11.0568 13.3417C11.0568 13.3115 11.0255 13.2812 11.0255 13.251C10.9943 13.2812 10.963 13.2812 10.9318 13.3114C10.9318 13.3417 10.963 13.3719 10.963 13.4021C10.963 13.3719 10.9943 13.3719 11.0568 13.3417ZM13.4324 14.4595C13.4012 14.4595 13.3386 14.4595 13.3074 14.4595V15.0032H10.6817C10.5567 14.8824 10.4316 14.6407 10.4316 14.2782C10.4316 13.9761 10.5567 13.674 10.838 13.4625C10.8067 13.4323 10.8067 13.4021 10.7755 13.3719C10.4629 13.6136 10.3066 13.9157 10.3066 14.2782C10.3066 14.6105 10.4004 14.8824 10.5567 15.0032L10.5879 15.0335H13.4324V14.4595ZM13.3074 14.399C13.3386 14.399 13.4012 14.399 13.4324 14.399V14.3386C13.4012 14.3386 13.3386 14.3386 13.3074 14.3386V14.399ZM11.0568 13.3417C11.0568 13.3115 11.0255 13.2812 11.0255 13.251C10.9943 13.2812 10.963 13.2812 10.9318 13.3114C10.9318 13.3417 10.963 13.3719 10.963 13.4021C10.963 13.3719 10.9943 13.3719 11.0568 13.3417Z" fill="#F39411"/>
<g opacity="0.5">
<path opacity="0.5" d="M22.7595 17.0688L6.47369 9.29012C7.67208 9.01982 9.02411 8.80959 10.4683 8.68945L25.5865 15.8975C24.7875 16.348 23.835 16.7384 22.7595 17.0688Z" fill="white"/>
<path opacity="0.5" d="M19.4242 17.9999L3.39096 10.1462C3.85257 9.96072 4.37573 9.77521 4.92966 9.62061L21.2707 17.6289C20.686 17.7526 20.0705 17.8762 19.4242 17.9999Z" fill="white"/>
<path opacity="0.5" d="M16.0444 18.3101L1.54135 11.257L2.15072 10.8618L17.2632 18.2189C16.8671 18.2493 16.4405 18.2797 16.0444 18.3101Z" fill="white"/>
</g>
</svg>
