<svg width="28" height="18" viewBox="0 0 28 18" fill="none" xmlns="http://www.w3.org/2000/svg">
<path d="M14.6451 17.9999C7.27135 17.9999 1.25845 15.7978 1.25845 13.0777C1.25845 12.3976 1.25845 9.58035 1.25845 9.58035L28 9.32129V13.1101C28 15.7978 22.0188 17.9999 14.6451 17.9999Z" fill="#E3B400"/>
<path d="M14.4719 14.7856V17.9999C14.3751 17.9999 14.2783 17.9999 14.1573 17.9999V14.7856H14.4719Z" fill="#E0920B"/>
<path d="M16.045 14.8178V17.9999C15.9482 17.9999 15.8514 17.9999 15.7304 17.9999V14.7856H16.045V14.8178Z" fill="#E0920B"/>
<path d="M12.8989 14.4982V18.0006C12.8021 18.0006 12.7053 18.0006 12.5843 17.9672V14.4648H12.8989V14.4982Z" fill="#E0920B"/>
<path d="M11.6404 14.1431V18.0002C11.5436 18.0002 11.4468 17.9664 11.3258 17.9664V14.1431H11.6404Z" fill="#E0920B"/>
<path d="M8.49442 13.8213V17.6784C8.38955 17.6449 8.28468 17.6113 8.17981 17.6113V13.8213H8.49442Z" fill="#E0920B"/>
<path d="M6.92133 13.1792V17.0363C6.82452 17.0037 6.72772 16.971 6.60672 16.9383V13.1792H6.92133Z" fill="#E0920B"/>
<path d="M5.3483 12.8574V16.7146C5.2515 16.6804 5.13049 16.6122 5.03369 16.578V12.8574H5.3483Z" fill="#E0920B"/>
<path d="M3.46063 15.7501V12.2144H3.14603V15.5209L3.46063 15.7501Z" fill="#E0920B"/>
<path d="M2.20226 14.7857V11.25H1.88765V14.3929L2.20226 14.7857Z" fill="#E0920B"/>
<path d="M9.75282 13.534V17.6786C9.65602 17.6446 9.55922 17.6446 9.43822 17.6106V13.5H9.75282V13.534Z" fill="#E0920B"/>
<path d="M17.618 14.4648V17.9678C17.5212 17.9678 17.4244 18.0006 17.3034 18.0006V14.4648H17.618Z" fill="#E0920B"/>
<path d="M19.1911 14.1431V17.6151C19.0943 17.6469 18.9975 17.6469 18.8765 17.6788V14.1749H19.1911V14.1431Z" fill="#E0920B"/>
<path d="M20.7641 13.5327V17.2918C20.6592 17.3245 20.5544 17.3571 20.4495 17.3571V13.5H20.7641V13.5327Z" fill="#E0920B"/>
<path d="M22.0225 13.5V16.9402C21.9257 16.972 21.8289 17.0039 21.7079 17.0357V13.5H22.0225Z" fill="#E0920B"/>
<path d="M23.9102 12.8574V16.5816C23.8053 16.6148 23.7004 16.6813 23.5956 16.7146V12.8574H23.9102Z" fill="#E0920B"/>
<path d="M25.7978 15.8326V12.2144H25.4832V16.0715L25.7978 15.8326Z" fill="#E0920B"/>
<path d="M27.3709 11.2835V14.7382C27.266 14.8724 27.1611 15.0065 27.0562 15.1071V11.25H27.3709V11.2835Z" fill="#E0920B"/>
<path opacity="0.5" d="M16.5798 17.3569C9.21926 17.3569 5.14408 15.4926 5.14408 12.7926C5.14408 12.3104 5.14408 10.7676 5.14408 9.93187L1.25845 9.64258C1.25845 9.64258 1.25845 12.439 1.25845 13.114C1.25845 15.814 7.22905 17.9997 14.6212 17.9997C18.4121 17.9997 21.7923 17.4211 24.2247 16.5211C22.0766 17.0354 19.423 17.3569 16.5798 17.3569Z" fill="#D67D12"/>
<path opacity="0.3" d="M3.03899 13.2104C3.03899 12.7283 3.03899 10.5747 3.03899 9.70687L1.25845 9.64258C1.25845 9.64258 1.25845 12.439 1.25845 13.114C1.25845 15.814 7.16235 17.9997 14.4719 17.9997C9.50516 17.3569 3.03899 15.9104 3.03899 13.2104Z" fill="#844B0D"/>
<path opacity="0.3" d="M6.60675 13.2717C6.60675 13.2717 7.90044 15.9328 12.381 16.6143C24.5922 18.529 28 13.3042 28 13.3042V10.2861L6.60675 13.2717Z" fill="white"/>
<path opacity="0.5" d="M9.43823 12.6999C9.43823 12.6999 10.545 14.8562 14.4344 15.4356C25.0276 17.0126 28 12.1528 28 12.1528V10.2861L9.43823 12.6999Z" fill="#FFF8C3"/>
<path d="M14.6292 15.1073C7.26424 15.1073 1.25845 12.8718 1.25845 10.1252C1.25845 7.37864 7.23263 5.14307 14.6292 5.14307C21.9942 5.14307 28 7.37864 28 10.1252C27.9684 12.8718 21.9942 15.1073 14.6292 15.1073Z" fill="#FFEF4A"/>
<path d="M14.6292 14.4646C22.0137 14.4646 28 12.306 28 9.6432C28 6.9804 22.0137 4.82178 14.6292 4.82178C7.24477 4.82178 1.25847 6.9804 1.25847 9.6432C1.25847 12.306 7.24477 14.4646 14.6292 14.4646Z" fill="#FDC800"/>
<path d="M14.4719 13.5002C8.21121 13.5002 3.14604 11.6215 3.14604 9.32163C3.14604 7.0218 8.21121 5.14307 14.4719 5.14307C20.7326 5.14307 25.7977 7.0218 25.7977 9.32163C25.7977 11.6215 20.7326 13.5002 14.4719 13.5002Z" fill="#FDC800"/>
<path d="M4.35477 9.80024C4.35477 7.48794 9.47595 5.59902 15.8059 5.59902C18.6686 5.59902 21.2769 5.98983 23.2809 6.60861C21.1815 5.72928 18.0643 5.14307 14.5971 5.14307C8.26723 5.14307 3.14604 7.03199 3.14604 9.3443C3.14604 10.6144 4.67285 11.7543 7.12211 12.5359C5.40445 11.8194 4.35477 10.8424 4.35477 9.80024Z" fill="#F5A20A"/>
<path d="M10.1993 7.71946C10.1993 7.71946 7.52584 9.91349 10.6082 10.4374C14.1623 11.0269 14.4769 7.85045 17.9995 7.71946C21.5851 7.58848 21.3964 10.0117 19.0689 10.9286" stroke="#F39411" stroke-width="3.2386" stroke-miterlimit="10"/>
<path d="M9.12359 9.32129H6.92134" stroke="#F39411" stroke-width="3.2386" stroke-miterlimit="10"/>
<path d="M23.2809 9.32129H21.0787" stroke="#F39411" stroke-width="3.2386" stroke-miterlimit="10"/>
<g opacity="0.5">
<path opacity="0.5" d="M23.3837 13.5003L7.55066 5.44874C8.72465 5.18476 10.0256 4.95377 11.4217 4.82178L26.1125 12.2794C25.3827 12.7414 24.4625 13.1374 23.3837 13.5003Z" fill="white"/>
<path opacity="0.5" d="M20.2194 14.1423L4.71916 6.30952C5.19366 6.11288 5.66816 5.94902 6.20593 5.78516L22.0225 13.7818C21.4531 13.9129 20.8521 14.044 20.2194 14.1423Z" fill="white"/>
<path d="M17.0419 14.4637L2.83151 7.45484L3.43419 7.0708L18.2472 14.3676C17.8349 14.3996 17.4543 14.4317 17.0419 14.4637Z" fill="white"/>
</g>
<path d="M13.3865 13.1786C6.01287 13.1786 0 10.9847 0 8.2747C0 7.59719 0 4.79036 0 4.79036L26.7414 4.5V8.2747C26.7731 10.9847 20.7919 13.1786 13.3865 13.1786Z" fill="#E3B400"/>
<path d="M13.212 9.96436V13.1786C13.1152 13.1786 13.0184 13.1786 12.8974 13.1786V9.96436H13.212Z" fill="#E0920B"/>
<path d="M14.7853 9.9965V13.1786C14.6885 13.1786 14.5917 13.1786 14.4707 13.1786V9.96436H14.7853V9.9965Z" fill="#E0920B"/>
<path d="M11.6393 9.67593V13.1783C11.5425 13.1783 11.4457 13.1783 11.3247 13.1449V9.64258H11.6393V9.67593Z" fill="#E0920B"/>
<path d="M10.0665 9.32129V13.1784C9.96974 13.1784 9.87294 13.1446 9.75194 13.1446V9.32129H10.0665Z" fill="#E0920B"/>
<path d="M7.23534 9V12.8571C7.13047 12.8236 7.0256 12.7901 6.92073 12.7901V9H7.23534Z" fill="#E0920B"/>
<path d="M5.66231 8.38913V12.2136C5.56551 12.1809 5.4687 12.1482 5.3477 12.1155V8.35645H5.66231V8.38913Z" fill="#E0920B"/>
<path d="M4.08957 8.03564V11.5714C3.99277 11.5401 3.87177 11.4775 3.77496 11.4462V8.03564H4.08957Z" fill="#E0920B"/>
<path d="M2.20227 10.9283V7.39258H1.88766V10.6688L2.20227 10.9283Z" fill="#E0920B"/>
<path d="M0.943818 10.2857V6.75H0.629211V9.86012L0.943818 10.2857Z" fill="#E0920B"/>
<path d="M8.49445 8.71007V12.5359C8.39764 12.5045 8.30084 12.5045 8.17984 12.4731V8.67871H8.49445V8.71007Z" fill="#E0920B"/>
<path d="M16.3596 9.64258V13.1456C16.2628 13.1456 16.166 13.1783 16.045 13.1783V9.64258H16.3596Z" fill="#E0920B"/>
<path d="M17.9327 9.32129V12.7933C17.8359 12.8251 17.7391 12.8251 17.6181 12.857V9.35314H17.9327V9.32129Z" fill="#E0920B"/>
<path d="M19.5057 8.7114V12.4705C19.4008 12.5032 19.2959 12.5359 19.1911 12.5359V8.67871H19.5057V8.7114Z" fill="#E0920B"/>
<path d="M20.7641 8.67871V12.1189C20.6673 12.1507 20.5705 12.1826 20.4495 12.2144V8.67871H20.7641Z" fill="#E0920B"/>
<path d="M22.6518 8.03564V11.7598C22.5469 11.793 22.4421 11.8595 22.3372 11.8928V8.03564H22.6518Z" fill="#E0920B"/>
<path d="M24.5394 10.7406V7.39258H24.2248V10.9283L24.5394 10.7406Z" fill="#E0920B"/>
<path d="M26.1124 6.46176V9.91642C26.0076 10.0506 25.9027 10.1847 25.7978 10.2854V6.42822H26.1124V6.46176Z" fill="#E0920B"/>
<path opacity="0.5" d="M15.3214 12.5361C7.96081 12.5361 3.88563 10.6718 3.88563 7.97178C3.88563 7.48963 3.88563 5.94678 3.88563 5.11107L0 4.82178C0 4.82178 0 7.61821 0 8.29321C0 10.9932 5.9706 13.1789 13.3628 13.1789C17.122 13.1789 20.5338 12.6003 22.9663 11.7003C20.7865 12.2146 18.1329 12.5361 15.3214 12.5361Z" fill="#D67D12"/>
<path opacity="0.3" d="M1.78054 8.38963C1.78054 7.90749 1.78054 5.75392 1.78054 4.88607L0 4.82178C0 4.82178 0 7.61821 0 8.29321C0 10.9932 5.90389 13.1789 13.2135 13.1789C8.24671 12.5361 1.78054 11.0575 1.78054 8.38963Z" fill="#844B0D"/>
<path opacity="0.3" d="M5.34836 8.12868C5.34836 8.12868 6.64205 10.7898 11.1226 11.4713C23.3338 13.386 26.7416 8.16113 26.7416 8.16113V5.14307L5.34836 8.12868Z" fill="white"/>
<path opacity="0.5" d="M8.17984 7.87815C8.17984 7.87815 9.28659 10.0345 13.176 10.6138C23.7692 12.1908 26.7416 7.33102 26.7416 7.33102V5.46436L8.17984 7.87815Z" fill="#FFF8C3"/>
<path d="M13.3708 10.2861C6.00579 10.2861 0 8.05048 0 5.30392C0 2.55735 5.97418 0.321777 13.3708 0.321777C20.7358 0.321777 26.7416 2.55735 26.7416 5.30392C26.7416 8.05048 20.7674 10.2861 13.3708 10.2861Z" fill="#FFEF4A"/>
<path d="M13.3708 9.64285C20.7553 9.64285 26.7416 7.48423 26.7416 4.82143C26.7416 2.15863 20.7553 0 13.3708 0C5.9863 0 0 2.15863 0 4.82143C0 7.48423 5.9863 9.64285 13.3708 9.64285Z" fill="#FFDD00"/>
<path d="M13.2135 8.67892C6.95283 8.67892 1.88766 6.80018 1.88766 4.50035C1.88766 2.20052 6.95283 0.321777 13.2135 0.321777C19.4742 0.321777 24.5393 2.20052 24.5393 4.50035C24.5393 6.80018 19.4742 8.67892 13.2135 8.67892Z" fill="#FDC800"/>
<path d="M3.09639 4.97895C3.09639 2.66665 8.21757 0.777727 14.5475 0.777727C17.4102 0.777727 20.0186 1.16854 22.0225 1.78732C19.9231 0.907995 16.8059 0.321777 13.3387 0.321777C7.00884 0.321777 1.88766 2.2107 1.88766 4.52301C1.88766 5.79314 3.41448 6.93301 5.86374 7.71463C4.14607 6.96558 3.09639 6.02112 3.09639 4.97895Z" fill="#F5A20A"/>
<path d="M13.1914 6.10749C13.2229 6.10749 13.2861 6.10749 13.3177 6.10749C13.5387 6.10749 13.7598 6.07349 13.9492 6.0055C13.9808 6.0055 14.044 5.9715 14.0755 5.9715C14.1071 5.9715 14.1703 5.9375 14.2018 5.9375C14.7702 5.73352 15.1176 5.32555 15.2439 4.98558H15.2755C15.5913 5.56353 16.3175 5.9035 17.107 5.9035C17.107 5.86951 17.107 5.86951 17.107 5.83551C17.0754 5.63153 16.9807 5.42754 16.7912 5.22356C16.7912 5.18956 16.7596 5.15557 16.7281 5.15557C16.3175 5.08757 15.9702 4.91758 15.7807 4.61161C15.7491 4.57761 15.7492 4.54361 15.7176 4.50962C15.7176 4.47562 15.686 4.44163 15.686 4.40763C15.6228 4.27164 15.5913 4.13565 15.5913 3.96566V3.31971H18.2754C18.3069 3.42171 18.3385 3.62569 18.3385 3.93167C18.3385 4.37363 18.1806 4.7136 17.8333 4.91759C17.8333 4.95159 17.8649 4.95158 17.8964 4.98558C18.0227 5.15557 18.1175 5.32555 18.1806 5.52953C18.1806 5.56353 18.1806 5.59753 18.2122 5.59753C18.3385 5.52954 18.4648 5.46154 18.5911 5.35955C19.0016 5.01958 19.1911 4.57761 19.1911 3.86367C19.1911 3.35371 19.128 2.87775 19.0332 2.57178H10.7915C10.7283 2.80976 10.6967 3.18373 10.6967 3.65969C10.6967 3.82967 10.6967 3.96566 10.7283 4.13565C10.7283 4.16965 10.7283 4.20364 10.7283 4.20364C10.7283 4.23764 10.7283 4.27164 10.7283 4.30564C10.7599 4.50962 10.823 4.7136 10.8862 4.88359C10.8862 4.91759 10.9178 4.95158 10.9178 4.98558C10.9494 5.01958 10.9494 5.05358 10.9809 5.08757C11.1072 5.29156 11.2651 5.46154 11.4546 5.59753C11.8651 5.86951 12.3703 6.03949 13.065 6.07349C13.0966 6.07349 13.0966 6.07349 13.1282 6.07349C13.1598 6.10749 13.1598 6.10749 13.1914 6.10749ZM11.7072 4.7136C11.7072 4.67961 11.6756 4.67961 11.6756 4.64561C11.6756 4.61161 11.6441 4.61161 11.6441 4.57762C11.5809 4.40763 11.5493 4.23764 11.5177 4.06766C11.5177 4.03366 11.5177 4.03366 11.5177 3.99966V3.93167C11.5177 3.69369 11.5178 3.5237 11.5809 3.38771H14.7702V3.96566C14.7702 4.06766 14.7702 4.20365 14.7387 4.30564C14.7387 4.33963 14.7387 4.33963 14.7387 4.37363V4.44162C14.5808 4.98558 14.0755 5.39355 13.1914 5.39355C12.3703 5.35955 11.9283 5.08757 11.7072 4.7136ZM17.328 5.9035C17.5806 5.9035 17.7701 5.83551 17.9912 5.76752C18.0227 5.76752 18.0543 5.73352 18.1175 5.73352C18.1175 5.69952 18.1175 5.66553 18.1175 5.66553C18.0543 5.46154 17.9912 5.29155 17.8648 5.12157C17.8648 5.08757 17.8333 5.08757 17.8017 5.05357C17.7701 5.05357 17.7385 5.08757 17.707 5.08757C17.5175 5.15557 17.328 5.18956 17.0438 5.18956H17.0122C16.9807 5.18956 16.9175 5.18956 16.8859 5.18956C16.9175 5.22356 16.9175 5.22356 16.9491 5.25756C17.107 5.42755 17.2017 5.63153 17.2333 5.83551C17.2333 5.86951 17.2333 5.86951 17.2333 5.9035C17.2333 5.9035 17.2649 5.9035 17.328 5.9035Z" fill="#F39411"/>
<path d="M17.0123 5.18065C17.2333 5.18065 17.4543 5.14633 17.6754 5.07767C17.707 5.07767 17.7385 5.04334 17.7701 5.04334C17.7701 5.00901 17.7385 5.00902 17.707 4.97469C17.707 4.94036 17.6754 4.94036 17.6438 4.90603C17.6122 4.94036 17.5807 4.94036 17.5491 4.94036C17.3596 5.00901 17.1701 5.04334 16.9175 5.04334H16.8859C16.8228 5.04334 16.7912 5.04334 16.7281 5.04334C16.7596 5.07767 16.7912 5.07767 16.7912 5.112C16.8228 5.14632 16.8228 5.14633 16.8544 5.18065C16.8859 5.18065 16.886 5.18065 16.9175 5.18065C16.9491 5.18065 16.9807 5.18065 17.0123 5.18065ZM16.6649 5.112C16.2544 5.04334 15.907 4.87171 15.7176 4.56276C15.686 4.52843 15.686 4.49411 15.6544 4.45978C15.6544 4.42545 15.6228 4.39112 15.6228 4.3568C15.5597 4.21949 15.5281 4.08218 15.5281 3.91054V3.25832H18.2122C18.2438 3.36131 18.2754 3.56727 18.2754 3.87622C18.2754 4.32247 18.1175 4.66574 17.7701 4.87171C17.7701 4.90603 17.8017 4.90603 17.8333 4.94036C18.1491 4.76872 18.4017 4.42545 18.4017 3.87622C18.4017 3.6016 18.3701 3.39563 18.3385 3.22399L18.3069 3.15534H15.4018V3.87622C15.4018 4.01352 15.4334 4.15083 15.465 4.28814C15.465 4.32247 15.4965 4.3568 15.4965 4.3568C15.4965 4.39112 15.5281 4.42545 15.5597 4.45978C15.7492 4.83738 16.1912 5.07767 16.7281 5.112C16.7281 5.14632 16.6965 5.112 16.6649 5.112ZM14.7702 4.3568C14.7702 4.32247 14.7702 4.32247 14.7702 4.28814C14.7702 4.25381 14.7702 4.25382 14.8018 4.21949C14.8334 4.11651 14.8334 3.9792 14.8334 3.87622V3.22399H11.423V3.29265C11.3914 3.42996 11.3599 3.60159 11.3599 3.91054C11.3599 3.94487 11.3599 3.94487 11.3599 3.9792C11.3599 4.01353 11.3599 4.01352 11.3599 4.04785C11.3599 4.21949 11.423 4.39113 11.4862 4.56276C11.4862 4.59709 11.5178 4.59709 11.5178 4.63142C11.5178 4.66574 11.5493 4.66574 11.5493 4.70007C11.8335 5.14632 12.3388 5.38661 13.0966 5.38661C13.9808 5.35229 14.5808 4.97469 14.7702 4.3568ZM11.6756 4.63142C11.6756 4.59709 11.6441 4.59709 11.6441 4.56276C11.6441 4.52843 11.6125 4.52844 11.6125 4.49411C11.5493 4.32247 11.5177 4.15084 11.4862 3.9792C11.4862 3.94487 11.4862 3.94487 11.4862 3.91054V3.84189C11.4862 3.6016 11.4862 3.42996 11.5493 3.29265H14.7387V3.87622C14.7387 3.9792 14.7387 4.11651 14.7071 4.21949C14.7071 4.25382 14.7071 4.25381 14.7071 4.28814V4.3568C14.5492 4.90603 14.044 5.31796 13.1598 5.31796C12.3388 5.28363 11.8967 5.00902 11.6756 4.63142ZM13.1598 6.03884V5.97018C13.1282 5.97018 13.1282 5.97018 13.0966 5.97018C13.0651 5.97018 13.0651 5.97018 13.0335 5.97018C12.4335 5.97018 11.9283 5.79855 11.5178 5.52393C11.3283 5.38662 11.1704 5.21498 11.0441 4.97469C11.0441 4.94036 11.0125 4.90603 11.0125 4.90603C10.9809 4.94036 10.9494 4.94036 10.9178 4.97469C10.9494 5.00902 10.9494 5.04334 10.9809 5.07767C11.1072 5.28363 11.2651 5.45527 11.4546 5.59258C11.8651 5.8672 12.3703 6.03883 13.0651 6.07316C13.0966 6.07316 13.0966 6.07316 13.1282 6.07316C13.1282 6.03883 13.1282 6.03884 13.1598 6.03884ZM14.7702 4.3568C14.7702 4.32247 14.7702 4.32247 14.7702 4.28814C14.7702 4.25381 14.7702 4.25382 14.8018 4.21949C14.8334 4.11651 14.8334 3.9792 14.8334 3.87622V3.22399H11.423V3.29265C11.3914 3.42996 11.3599 3.60159 11.3599 3.91054C11.3599 3.94487 11.3599 3.94487 11.3599 3.9792C11.3599 4.01353 11.3599 4.01352 11.3599 4.04785C11.3599 4.21949 11.423 4.39113 11.4862 4.56276C11.4862 4.59709 11.5178 4.59709 11.5178 4.63142C11.5178 4.66574 11.5493 4.66574 11.5493 4.70007C11.8335 5.14632 12.3388 5.38661 13.0966 5.38661C13.9808 5.35229 14.5808 4.97469 14.7702 4.3568ZM11.6756 4.63142C11.6756 4.59709 11.6441 4.59709 11.6441 4.56276C11.6441 4.52843 11.6125 4.52844 11.6125 4.49411C11.5493 4.32247 11.5177 4.15084 11.4862 3.9792C11.4862 3.94487 11.4862 3.94487 11.4862 3.91054V3.84189C11.4862 3.6016 11.4862 3.42996 11.5493 3.29265H14.7387V3.87622C14.7387 3.9792 14.7387 4.11651 14.7071 4.21949C14.7071 4.25382 14.7071 4.25381 14.7071 4.28814V4.3568C14.5492 4.90603 14.044 5.31796 13.1598 5.31796C12.3388 5.28363 11.8967 5.00902 11.6756 4.63142ZM17.0123 5.18065C17.2333 5.18065 17.4543 5.14633 17.6754 5.07767C17.707 5.07767 17.7385 5.04334 17.7701 5.04334C17.7701 5.00901 17.7385 5.00902 17.707 4.97469C17.707 4.94036 17.6754 4.94036 17.6438 4.90603C17.6122 4.94036 17.5807 4.94036 17.5491 4.94036C17.3596 5.00901 17.1701 5.04334 16.9175 5.04334H16.8859C16.8228 5.04334 16.7912 5.04334 16.7281 5.04334C16.7596 5.07767 16.7912 5.07767 16.7912 5.112C16.8228 5.14632 16.8228 5.14633 16.8544 5.18065C16.8859 5.18065 16.886 5.18065 16.9175 5.18065C16.9491 5.18065 16.9807 5.18065 17.0123 5.18065ZM16.6649 5.112C16.2544 5.04334 15.907 4.87171 15.7176 4.56276C15.686 4.52843 15.686 4.49411 15.6544 4.45978C15.6544 4.42545 15.6228 4.39112 15.6228 4.3568C15.5597 4.21949 15.5281 4.08218 15.5281 3.91054V3.25832H18.2122C18.2438 3.36131 18.2754 3.56727 18.2754 3.87622C18.2754 4.32247 18.1175 4.66574 17.7701 4.87171C17.7701 4.90603 17.8017 4.90603 17.8333 4.94036C18.1491 4.76872 18.4017 4.42545 18.4017 3.87622C18.4017 3.6016 18.3701 3.39563 18.3385 3.22399L18.3069 3.15534H15.4018V3.87622C15.4018 4.01352 15.4334 4.15083 15.465 4.28814C15.465 4.32247 15.4965 4.3568 15.4965 4.3568C15.4965 4.39112 15.5281 4.42545 15.5597 4.45978C15.7492 4.83738 16.1912 5.07767 16.7281 5.112C16.7281 5.14632 16.6965 5.112 16.6649 5.112ZM14.7702 4.3568C14.7702 4.32247 14.7702 4.32247 14.7702 4.28814C14.7702 4.25381 14.7702 4.25382 14.8018 4.21949C14.8334 4.11651 14.8334 3.9792 14.8334 3.87622V3.22399H11.423V3.29265C11.3914 3.42996 11.3599 3.60159 11.3599 3.91054C11.3599 3.94487 11.3599 3.94487 11.3599 3.9792C11.3599 4.01353 11.3599 4.01352 11.3599 4.04785C11.3599 4.21949 11.423 4.39113 11.4862 4.56276C11.4862 4.59709 11.5178 4.59709 11.5178 4.63142C11.5178 4.66574 11.5493 4.66574 11.5493 4.70007C11.8335 5.14632 12.3388 5.38661 13.0966 5.38661C13.9808 5.35229 14.5808 4.97469 14.7702 4.3568ZM11.6756 4.63142C11.6756 4.59709 11.6441 4.59709 11.6441 4.56276C11.6441 4.52843 11.6125 4.52844 11.6125 4.49411C11.5493 4.32247 11.5177 4.15084 11.4862 3.9792C11.4862 3.94487 11.4862 3.94487 11.4862 3.91054V3.84189C11.4862 3.6016 11.4862 3.42996 11.5493 3.29265H14.7387V3.87622C14.7387 3.9792 14.7387 4.11651 14.7071 4.21949C14.7071 4.25382 14.7071 4.25381 14.7071 4.28814V4.3568C14.5492 4.90603 14.044 5.31796 13.1598 5.31796C12.3388 5.28363 11.8967 5.00902 11.6756 4.63142ZM17.0123 5.18065C17.2333 5.18065 17.4543 5.14633 17.6754 5.07767C17.707 5.07767 17.7385 5.04334 17.7701 5.04334C17.7701 5.00901 17.7385 5.00902 17.707 4.97469C17.707 4.94036 17.6754 4.94036 17.6438 4.90603C17.6122 4.94036 17.5807 4.94036 17.5491 4.94036C17.3596 5.00901 17.1701 5.04334 16.9175 5.04334H16.8859C16.8228 5.04334 16.7912 5.04334 16.7281 5.04334C16.7596 5.07767 16.7912 5.07767 16.7912 5.112C16.8228 5.14632 16.8228 5.14633 16.8544 5.18065C16.8859 5.18065 16.886 5.18065 16.9175 5.18065C16.9491 5.18065 16.9807 5.18065 17.0123 5.18065ZM16.6649 5.112C16.2544 5.04334 15.907 4.87171 15.7176 4.56276C15.686 4.52843 15.686 4.49411 15.6544 4.45978C15.6544 4.42545 15.6228 4.39112 15.6228 4.3568C15.5597 4.21949 15.5281 4.08218 15.5281 3.91054V3.25832H18.2122C18.2438 3.36131 18.2754 3.56727 18.2754 3.87622C18.2754 4.32247 18.1175 4.66574 17.7701 4.87171C17.7701 4.90603 17.8017 4.90603 17.8333 4.94036C18.1491 4.76872 18.4017 4.42545 18.4017 3.87622C18.4017 3.6016 18.3701 3.39563 18.3385 3.22399L18.3069 3.15534H15.4018V3.87622C15.4018 4.01352 15.4334 4.15083 15.465 4.28814C15.465 4.32247 15.4965 4.3568 15.4965 4.3568C15.4965 4.39112 15.5281 4.42545 15.5597 4.45978C15.7492 4.83738 16.1912 5.07767 16.7281 5.112C16.7281 5.14632 16.6965 5.112 16.6649 5.112ZM13.1598 6.03884C13.1914 6.03884 13.2545 6.03884 13.2861 6.03884C13.5071 6.03884 13.7282 6.00451 13.9177 5.93585C13.9492 5.93585 14.0124 5.90152 14.044 5.90152C14.0755 5.90152 14.1387 5.8672 14.1703 5.8672C14.7387 5.66124 15.086 5.24931 15.2123 4.90603H15.2439C15.5597 5.4896 16.286 5.83287 17.0754 5.83287C17.0754 5.79854 17.0754 5.79854 17.0754 5.76422C16.3176 5.76422 15.686 5.42094 15.3702 4.87171L15.3071 4.83738H15.1176L15.086 4.90603C14.9597 5.21498 14.6755 5.59258 14.1703 5.79854C14.1387 5.83287 14.1071 5.83287 14.044 5.83287C14.0124 5.83287 13.9808 5.8672 13.9177 5.8672C13.7282 5.93585 13.5387 5.97018 13.2861 5.97018C13.2545 5.97018 13.2229 5.97018 13.1598 5.97018C13.1282 5.97018 13.1282 5.97018 13.0966 5.97018C13.0651 5.97018 13.0651 5.97018 13.0335 5.97018C12.4335 5.97018 11.9283 5.79855 11.5178 5.52393C11.3283 5.38662 11.1704 5.21498 11.0441 4.97469C11.0441 4.94036 11.0125 4.90603 11.0125 4.90603C11.0125 4.87171 10.9809 4.83738 10.9809 4.80305C10.9178 4.63142 10.8546 4.45978 10.823 4.21949C10.823 4.18516 10.823 4.15084 10.823 4.15084C10.823 4.11651 10.823 4.08218 10.823 4.08218C10.823 3.94487 10.7915 3.80756 10.7915 3.67025C10.7915 3.18967 10.8546 2.81207 10.8862 2.64043H18.9069C19.0016 2.9837 19.0648 3.42996 19.0648 3.87622C19.0648 4.56276 18.8753 5.00902 18.4648 5.35229C18.3701 5.42095 18.2754 5.4896 18.1806 5.55825C18.1806 5.59258 18.1806 5.6269 18.2122 5.6269C18.3385 5.55825 18.4648 5.4896 18.5911 5.38661C19.0016 5.04334 19.1911 4.59709 19.1911 3.87622C19.1911 3.36131 19.128 2.88072 19.0332 2.57178H10.7915C10.7283 2.81207 10.6967 3.18967 10.6967 3.67025C10.6967 3.84189 10.6967 3.9792 10.7283 4.15084C10.7283 4.18516 10.7283 4.21949 10.7283 4.21949C10.7283 4.25382 10.7283 4.28814 10.7283 4.32247C10.7599 4.52844 10.823 4.7344 10.8862 4.90603C10.8862 4.94036 10.9178 4.97469 10.9178 5.00902C10.9494 5.04334 10.9494 5.07767 10.9809 5.112C11.1072 5.31796 11.2651 5.4896 11.4546 5.6269C11.8651 5.90152 12.3703 6.07316 13.0651 6.10749C13.0966 6.10749 13.0966 6.10749 13.1282 6.10749C13.1282 6.03884 13.1282 6.03884 13.1598 6.03884ZM17.2965 5.90152C17.5491 5.90152 17.7701 5.83287 17.9596 5.79854C17.9912 5.79854 18.0543 5.76422 18.0859 5.76422C18.0859 5.72989 18.0859 5.72989 18.0543 5.69556C18.0543 5.66124 18.0543 5.6269 18.0543 5.6269C18.0227 5.6269 17.9912 5.66123 17.928 5.66123C17.7385 5.72989 17.5175 5.76421 17.2965 5.79854C17.2649 5.79854 17.2333 5.79854 17.1701 5.79854C17.1701 5.83287 17.1701 5.83287 17.1701 5.8672C17.1701 5.90153 17.1701 5.90153 17.1701 5.93585C17.2017 5.90153 17.2649 5.90152 17.2965 5.90152ZM17.0123 5.18065C17.0123 5.14633 16.9807 5.14632 16.9491 5.112H16.9175C16.886 5.112 16.8228 5.112 16.7912 5.112C16.8228 5.14632 16.8228 5.14633 16.8544 5.18065C16.8859 5.18065 16.886 5.18065 16.9175 5.18065C16.9491 5.18065 16.9807 5.18065 17.0123 5.18065ZM14.7702 4.3568C14.7702 4.32247 14.7702 4.32247 14.7702 4.28814C14.7702 4.25381 14.7702 4.25382 14.8018 4.21949C14.7702 4.21949 14.7387 4.21949 14.6755 4.21949C14.6755 4.25382 14.6755 4.25381 14.6755 4.28814V4.3568C14.5176 4.90603 14.0124 5.31796 13.1282 5.31796C12.3703 5.31796 11.8967 5.04334 11.6756 4.66574C11.6756 4.63142 11.6441 4.63141 11.6441 4.59709C11.6441 4.56276 11.6125 4.56276 11.6125 4.52843C11.5809 4.52843 11.5493 4.56276 11.5178 4.56276C11.5178 4.59709 11.5493 4.59709 11.5493 4.63142C11.5493 4.66574 11.5809 4.66574 11.5809 4.70007C11.8651 5.14632 12.3703 5.38661 13.1282 5.38661C13.9808 5.35229 14.5808 4.97469 14.7702 4.3568ZM16.6649 5.112C16.2544 5.04334 15.907 4.87171 15.7176 4.56276C15.686 4.52843 15.686 4.49411 15.6544 4.45978C15.6544 4.42545 15.6228 4.39112 15.6228 4.3568C15.5913 4.3568 15.5281 4.32247 15.4965 4.32247C15.4965 4.3568 15.5281 4.39113 15.5281 4.39113C15.5281 4.42545 15.5597 4.45978 15.5913 4.49411C15.7807 4.87171 16.2228 5.112 16.7596 5.14632C16.7281 5.14632 16.6965 5.112 16.6649 5.112ZM17.0123 5.18065C17.2333 5.18065 17.4543 5.14633 17.6754 5.07767C17.707 5.07767 17.7385 5.04334 17.7701 5.04334C17.7701 5.00901 17.7385 5.00902 17.707 4.97469C17.707 4.94036 17.6754 4.94036 17.6438 4.90603C17.6122 4.94036 17.5807 4.94036 17.5491 4.94036C17.3596 5.00901 17.1701 5.04334 16.9175 5.04334H16.8859C16.8228 5.04334 16.7912 5.04334 16.7281 5.04334C16.7596 5.07767 16.7912 5.07767 16.7912 5.112C16.8228 5.14632 16.8228 5.14633 16.8544 5.18065C16.8859 5.18065 16.886 5.18065 16.9175 5.18065C16.9491 5.18065 16.9807 5.18065 17.0123 5.18065ZM16.6649 5.112C16.2544 5.04334 15.907 4.87171 15.7176 4.56276C15.686 4.52843 15.686 4.49411 15.6544 4.45978C15.6544 4.42545 15.6228 4.39112 15.6228 4.3568C15.5597 4.21949 15.5281 4.08218 15.5281 3.91054V3.25832H18.2122C18.2438 3.36131 18.2754 3.56727 18.2754 3.87622C18.2754 4.32247 18.1175 4.66574 17.7701 4.87171C17.7701 4.90603 17.8017 4.90603 17.8333 4.94036C18.1491 4.76872 18.4017 4.42545 18.4017 3.87622C18.4017 3.6016 18.3701 3.39563 18.3385 3.22399L18.3069 3.15534H15.4018V3.87622C15.4018 4.01352 15.4334 4.15083 15.465 4.28814C15.465 4.32247 15.4965 4.3568 15.4965 4.3568C15.4965 4.39112 15.5281 4.42545 15.5597 4.45978C15.7492 4.83738 16.1912 5.07767 16.7281 5.112C16.7281 5.14632 16.6965 5.112 16.6649 5.112ZM14.7702 4.3568C14.7702 4.32247 14.7702 4.32247 14.7702 4.28814C14.7702 4.25381 14.7702 4.25382 14.8018 4.21949C14.8334 4.11651 14.8334 3.9792 14.8334 3.87622V3.22399H11.423V3.29265C11.3914 3.42996 11.3599 3.60159 11.3599 3.91054C11.3599 3.94487 11.3599 3.94487 11.3599 3.9792C11.3599 4.01353 11.3599 4.01352 11.3599 4.04785C11.3599 4.21949 11.423 4.39113 11.4862 4.56276C11.4862 4.59709 11.5178 4.59709 11.5178 4.63142C11.5178 4.66574 11.5493 4.66574 11.5493 4.70007C11.8335 5.14632 12.3388 5.38661 13.0966 5.38661C13.9808 5.35229 14.5808 4.97469 14.7702 4.3568ZM11.6756 4.63142C11.6756 4.59709 11.6441 4.59709 11.6441 4.56276C11.6441 4.52843 11.6125 4.52844 11.6125 4.49411C11.5493 4.32247 11.5177 4.15084 11.4862 3.9792C11.4862 3.94487 11.4862 3.94487 11.4862 3.91054V3.84189C11.4862 3.6016 11.4862 3.42996 11.5493 3.29265H14.7387V3.87622C14.7387 3.9792 14.7387 4.11651 14.7071 4.21949C14.7071 4.25382 14.7071 4.25381 14.7071 4.28814V4.3568C14.5492 4.90603 14.044 5.31796 13.1598 5.31796C12.3388 5.28363 11.8967 5.00902 11.6756 4.63142ZM13.1598 6.03884V5.97018C13.1282 5.97018 13.1282 5.97018 13.0966 5.97018C13.0651 5.97018 13.0651 5.97018 13.0335 5.97018C12.4335 5.97018 11.9283 5.79855 11.5178 5.52393C11.3283 5.38662 11.1704 5.21498 11.0441 4.97469C11.0441 4.94036 11.0125 4.90603 11.0125 4.90603C10.9809 4.94036 10.9494 4.94036 10.9178 4.97469C10.9494 5.00902 10.9494 5.04334 10.9809 5.07767C11.1072 5.28363 11.2651 5.45527 11.4546 5.59258C11.8651 5.8672 12.3703 6.03883 13.0651 6.07316C13.0966 6.07316 13.0966 6.07316 13.1282 6.07316C13.1282 6.03883 13.1282 6.03884 13.1598 6.03884ZM14.7702 4.3568C14.7702 4.32247 14.7702 4.32247 14.7702 4.28814C14.7702 4.25381 14.7702 4.25382 14.8018 4.21949C14.8334 4.11651 14.8334 3.9792 14.8334 3.87622V3.22399H11.423V3.29265C11.3914 3.42996 11.3599 3.60159 11.3599 3.91054C11.3599 3.94487 11.3599 3.94487 11.3599 3.9792C11.3599 4.01353 11.3599 4.01352 11.3599 4.04785C11.3599 4.21949 11.423 4.39113 11.4862 4.56276C11.4862 4.59709 11.5178 4.59709 11.5178 4.63142C11.5178 4.66574 11.5493 4.66574 11.5493 4.70007C11.8335 5.14632 12.3388 5.38661 13.0966 5.38661C13.9808 5.35229 14.5808 4.97469 14.7702 4.3568ZM11.6756 4.63142C11.6756 4.59709 11.6441 4.59709 11.6441 4.56276C11.6441 4.52843 11.6125 4.52844 11.6125 4.49411C11.5493 4.32247 11.5177 4.15084 11.4862 3.9792C11.4862 3.94487 11.4862 3.94487 11.4862 3.91054V3.84189C11.4862 3.6016 11.4862 3.42996 11.5493 3.29265H14.7387V3.87622C14.7387 3.9792 14.7387 4.11651 14.7071 4.21949C14.7071 4.25382 14.7071 4.25381 14.7071 4.28814V4.3568C14.5492 4.90603 14.044 5.31796 13.1598 5.31796C12.3388 5.28363 11.8967 5.00902 11.6756 4.63142ZM17.0123 5.18065C17.2333 5.18065 17.4543 5.14633 17.6754 5.07767C17.707 5.07767 17.7385 5.04334 17.7701 5.04334C17.7701 5.00901 17.7385 5.00902 17.707 4.97469C17.707 4.94036 17.6754 4.94036 17.6438 4.90603C17.6122 4.94036 17.5807 4.94036 17.5491 4.94036C17.3596 5.00901 17.1701 5.04334 16.9175 5.04334H16.8859C16.8228 5.04334 16.7912 5.04334 16.7281 5.04334C16.7596 5.07767 16.7912 5.07767 16.7912 5.112C16.8228 5.14632 16.8228 5.14633 16.8544 5.18065C16.8859 5.18065 16.886 5.18065 16.9175 5.18065C16.9491 5.18065 16.9807 5.18065 17.0123 5.18065ZM16.6649 5.112C16.2544 5.04334 15.907 4.87171 15.7176 4.56276C15.686 4.52843 15.686 4.49411 15.6544 4.45978C15.6544 4.42545 15.6228 4.39112 15.6228 4.3568C15.5597 4.21949 15.5281 4.08218 15.5281 3.91054V3.25832H18.2122C18.2438 3.36131 18.2754 3.56727 18.2754 3.87622C18.2754 4.32247 18.1175 4.66574 17.7701 4.87171C17.7701 4.90603 17.8017 4.90603 17.8333 4.94036C18.1491 4.76872 18.4017 4.42545 18.4017 3.87622C18.4017 3.6016 18.3701 3.39563 18.3385 3.22399L18.3069 3.15534H15.4018V3.87622C15.4018 4.01352 15.4334 4.15083 15.465 4.28814C15.465 4.32247 15.4965 4.3568 15.4965 4.3568C15.4965 4.39112 15.5281 4.42545 15.5597 4.45978C15.7492 4.83738 16.1912 5.07767 16.7281 5.112C16.7281 5.14632 16.6965 5.112 16.6649 5.112ZM17.0123 5.18065C17.2333 5.18065 17.4543 5.14633 17.6754 5.07767C17.707 5.07767 17.7385 5.04334 17.7701 5.04334C17.7701 5.00901 17.7385 5.00902 17.707 4.97469C17.707 4.94036 17.6754 4.94036 17.6438 4.90603C17.6122 4.94036 17.5807 4.94036 17.5491 4.94036C17.3596 5.00901 17.1701 5.04334 16.9175 5.04334H16.8859C16.8228 5.04334 16.7912 5.04334 16.7281 5.04334C16.7596 5.07767 16.7912 5.07767 16.7912 5.112C16.8228 5.14632 16.8228 5.14633 16.8544 5.18065C16.8859 5.18065 16.886 5.18065 16.9175 5.18065C16.9491 5.18065 16.9807 5.18065 17.0123 5.18065ZM16.6649 5.112C16.2544 5.04334 15.907 4.87171 15.7176 4.56276C15.686 4.52843 15.686 4.49411 15.6544 4.45978C15.6544 4.42545 15.6228 4.39112 15.6228 4.3568C15.5597 4.21949 15.5281 4.08218 15.5281 3.91054V3.25832H18.2122C18.2438 3.36131 18.2754 3.56727 18.2754 3.87622C18.2754 4.32247 18.1175 4.66574 17.7701 4.87171C17.7701 4.90603 17.8017 4.90603 17.8333 4.94036C18.1491 4.76872 18.4017 4.42545 18.4017 3.87622C18.4017 3.6016 18.3701 3.39563 18.3385 3.22399L18.3069 3.15534H15.4018V3.87622C15.4018 4.01352 15.4334 4.15083 15.465 4.28814C15.465 4.32247 15.4965 4.3568 15.4965 4.3568C15.4965 4.39112 15.5281 4.42545 15.5597 4.45978C15.7492 4.83738 16.1912 5.07767 16.7281 5.112C16.7281 5.14632 16.6965 5.112 16.6649 5.112ZM14.7702 4.3568C14.7702 4.32247 14.7702 4.32247 14.7702 4.28814C14.7702 4.25381 14.7702 4.25382 14.8018 4.21949C14.8334 4.11651 14.8334 3.9792 14.8334 3.87622V3.22399H11.423V3.29265C11.3914 3.42996 11.3599 3.60159 11.3599 3.91054C11.3599 3.94487 11.3599 3.94487 11.3599 3.9792C11.3599 4.01353 11.3599 4.01352 11.3599 4.04785C11.3599 4.21949 11.423 4.39113 11.4862 4.56276C11.4862 4.59709 11.5178 4.59709 11.5178 4.63142C11.5178 4.66574 11.5493 4.66574 11.5493 4.70007C11.8335 5.14632 12.3388 5.38661 13.0966 5.38661C13.9808 5.35229 14.5808 4.97469 14.7702 4.3568ZM11.6756 4.63142C11.6756 4.59709 11.6441 4.59709 11.6441 4.56276C11.6441 4.52843 11.6125 4.52844 11.6125 4.49411C11.5493 4.32247 11.5177 4.15084 11.4862 3.9792C11.4862 3.94487 11.4862 3.94487 11.4862 3.91054V3.84189C11.4862 3.6016 11.4862 3.42996 11.5493 3.29265H14.7387V3.87622C14.7387 3.9792 14.7387 4.11651 14.7071 4.21949C14.7071 4.25382 14.7071 4.25381 14.7071 4.28814V4.3568C14.5492 4.90603 14.044 5.31796 13.1598 5.31796C12.3388 5.28363 11.8967 5.00902 11.6756 4.63142ZM13.1598 6.03884V5.97018C13.1282 5.97018 13.1282 5.97018 13.0966 5.97018C13.0651 5.97018 13.0651 5.97018 13.0335 5.97018C12.4335 5.97018 11.9283 5.79855 11.5178 5.52393C11.3283 5.38662 11.1704 5.21498 11.0441 4.97469C11.0441 4.94036 11.0125 4.90603 11.0125 4.90603C10.9809 4.94036 10.9494 4.94036 10.9178 4.97469C10.9494 5.00902 10.9494 5.04334 10.9809 5.07767C11.1072 5.28363 11.2651 5.45527 11.4546 5.59258C11.8651 5.8672 12.3703 6.03883 13.0651 6.07316C13.0966 6.07316 13.0966 6.07316 13.1282 6.07316C13.1282 6.03883 13.1282 6.03884 13.1598 6.03884ZM14.7702 4.3568C14.7702 4.32247 14.7702 4.32247 14.7702 4.28814C14.7702 4.25381 14.7702 4.25382 14.8018 4.21949C14.8334 4.11651 14.8334 3.9792 14.8334 3.87622V3.22399H11.423V3.29265C11.3914 3.42996 11.3599 3.60159 11.3599 3.91054C11.3599 3.94487 11.3599 3.94487 11.3599 3.9792C11.3599 4.01353 11.3599 4.01352 11.3599 4.04785C11.3599 4.21949 11.423 4.39113 11.4862 4.56276C11.4862 4.59709 11.5178 4.59709 11.5178 4.63142C11.5178 4.66574 11.5493 4.66574 11.5493 4.70007C11.8335 5.14632 12.3388 5.38661 13.0966 5.38661C13.9808 5.35229 14.5808 4.97469 14.7702 4.3568ZM11.6756 4.63142C11.6756 4.59709 11.6441 4.59709 11.6441 4.56276C11.6441 4.52843 11.6125 4.52844 11.6125 4.49411C11.5493 4.32247 11.5177 4.15084 11.4862 3.9792C11.4862 3.94487 11.4862 3.94487 11.4862 3.91054V3.84189C11.4862 3.6016 11.4862 3.42996 11.5493 3.29265H14.7387V3.87622C14.7387 3.9792 14.7387 4.11651 14.7071 4.21949C14.7071 4.25382 14.7071 4.25381 14.7071 4.28814V4.3568C14.5492 4.90603 14.044 5.31796 13.1598 5.31796C12.3388 5.28363 11.8967 5.00902 11.6756 4.63142ZM17.0123 5.18065C17.2333 5.18065 17.4543 5.14633 17.6754 5.07767C17.707 5.07767 17.7385 5.04334 17.7701 5.04334C17.7701 5.00901 17.7385 5.00902 17.707 4.97469C17.707 4.94036 17.6754 4.94036 17.6438 4.90603C17.6122 4.94036 17.5807 4.94036 17.5491 4.94036C17.3596 5.00901 17.1701 5.04334 16.9175 5.04334H16.8859C16.8228 5.04334 16.7912 5.04334 16.7281 5.04334C16.7596 5.07767 16.7912 5.07767 16.7912 5.112C16.8228 5.14632 16.8228 5.14633 16.8544 5.18065C16.8859 5.18065 16.886 5.18065 16.9175 5.18065C16.9491 5.18065 16.9807 5.18065 17.0123 5.18065ZM16.6649 5.112C16.2544 5.04334 15.907 4.87171 15.7176 4.56276C15.686 4.52843 15.686 4.49411 15.6544 4.45978C15.6544 4.42545 15.6228 4.39112 15.6228 4.3568C15.5597 4.21949 15.5281 4.08218 15.5281 3.91054V3.25832H18.2122C18.2438 3.36131 18.2754 3.56727 18.2754 3.87622C18.2754 4.32247 18.1175 4.66574 17.7701 4.87171C17.7701 4.90603 17.8017 4.90603 17.8333 4.94036C18.1491 4.76872 18.4017 4.42545 18.4017 3.87622C18.4017 3.6016 18.3701 3.39563 18.3385 3.22399L18.3069 3.15534H15.4018V3.87622C15.4018 4.01352 15.4334 4.15083 15.465 4.28814C15.465 4.32247 15.4965 4.3568 15.4965 4.3568C15.4965 4.39112 15.5281 4.42545 15.5597 4.45978C15.7492 4.83738 16.1912 5.07767 16.7281 5.112C16.7281 5.14632 16.6965 5.112 16.6649 5.112Z" fill="#F39411"/>
<path d="M15.4878 4.30332C15.4251 4.16989 15.3938 4.03647 15.3938 3.86969V3.73627C15.3624 3.73627 15.3311 3.70291 15.2684 3.70291C15.0803 3.66956 14.8923 3.6362 14.7042 3.60284C14.6728 3.60284 14.6102 3.60284 14.5788 3.60284V3.80298C14.5788 3.90305 14.5788 4.03647 14.5475 4.13654C14.5475 4.16989 14.5475 4.16989 14.5475 4.20325C14.5788 4.20325 14.6101 4.20325 14.6728 4.20325C14.9236 4.2366 15.1744 4.26996 15.3938 4.33667C15.4565 4.33667 15.4878 4.37003 15.5505 4.37003C15.5191 4.33667 15.5191 4.33667 15.4878 4.30332ZM13.8892 5.83768C13.8579 5.83768 13.8265 5.87104 13.7638 5.87104C13.5758 5.90439 13.3877 5.93775 13.137 5.9711C13.1056 5.9711 13.0743 5.9711 13.0116 5.9711V6.53815H10.5354C10.41 6.40473 10.3159 6.17124 10.3159 5.80433C10.3159 5.47077 10.4413 5.20392 10.6921 4.93707C10.6607 4.90372 10.6607 4.87036 10.6294 4.83701C10.5354 4.67023 10.4727 4.47009 10.4413 4.26996C10.4413 4.2366 10.4413 4.20325 10.4413 4.16989C9.72039 4.57016 9.43829 5.10386 9.43829 5.73762C9.43829 6.30466 9.7204 6.805 9.87712 7.07185H13.8579V5.83768H13.8892ZM13.0429 5.90439C13.0743 5.90439 13.137 5.90439 13.1683 5.90439C13.3877 5.90439 13.6071 5.87104 13.7952 5.80433C13.8265 5.80433 13.8892 5.77097 13.9206 5.77097V5.6709H13.0743V5.90439H13.0429ZM10.9115 4.80365C11.0682 4.70359 11.2249 4.60352 11.4443 4.50345C11.4757 4.50345 11.507 4.4701 11.5384 4.4701C11.5384 4.43674 11.507 4.43674 11.507 4.40338C11.4443 4.23661 11.413 4.06983 11.3817 3.90305C11.3817 3.86969 11.3817 3.86969 11.3817 3.83633C11.3503 3.83633 11.319 3.86969 11.2563 3.86969C11.0369 3.9364 10.8488 4.00312 10.6921 4.06983C10.6607 4.10318 10.6294 4.10318 10.5667 4.13654C10.5667 4.16989 10.5667 4.20325 10.5667 4.23661C10.598 4.43674 10.6607 4.63687 10.7234 4.80365C10.7234 4.83701 10.7548 4.87037 10.7548 4.90372C10.8488 4.83701 10.8488 4.83701 10.9115 4.80365ZM13.7012 4.13654C13.9519 4.13654 14.2027 4.13653 14.4221 4.16989C14.4221 4.13653 14.4221 4.13654 14.4534 4.10318C14.4848 3.96976 14.4848 3.86969 14.4848 3.76962V3.56949C14.234 3.53613 13.9519 3.53613 13.6698 3.53613C12.8549 3.53613 12.1339 3.6362 11.5384 3.76962C11.5384 3.80298 11.5384 3.80298 11.5384 3.83633C11.5384 4.00311 11.5697 4.16989 11.6324 4.33667C11.6324 4.37002 11.6638 4.37003 11.6638 4.40338C12.1653 4.23661 12.8549 4.13654 13.7012 4.13654ZM17.9327 5.90439C17.9327 5.80433 17.9327 5.73761 17.9013 5.63755C17.9013 5.60419 17.9013 5.60419 17.87 5.57084C17.87 5.53748 17.87 5.50412 17.87 5.50412C17.8073 5.30399 17.7446 5.13721 17.6192 4.97043C17.6192 4.93708 17.5879 4.93708 17.5565 4.90372C17.5565 4.87037 17.5252 4.87036 17.4939 4.83701C17.0864 4.33667 16.3968 4.00311 15.4878 3.80298V3.90305C15.4878 4.06983 15.5191 4.23661 15.6132 4.40338C15.6132 4.43674 15.6445 4.47009 15.6759 4.50345C16.052 4.63687 16.3654 4.80365 16.5849 5.00378C16.6162 5.03714 16.6476 5.03714 16.6476 5.0705C16.6789 5.10386 16.6789 5.10385 16.7102 5.13721C16.867 5.30399 16.961 5.50412 16.9923 5.70426C16.9923 5.73761 16.9923 5.73761 16.9923 5.77097C16.9923 5.80432 16.9923 5.80432 16.9923 5.83768C16.9923 5.87103 16.9923 5.90439 16.9923 5.93775C16.9923 6.37137 16.8356 6.67157 16.6476 6.87171L17.5252 7.00513C17.7133 6.77164 17.9327 6.37137 17.9327 5.90439Z" fill="#F39411"/>
<path d="M13.1507 5.9711C13.1192 5.9711 13.0877 5.9711 13.0248 5.9711V6.53815H10.5394C10.4136 6.40473 10.3192 6.17124 10.3192 5.80433C10.3192 5.47077 10.445 5.20392 10.6967 4.93707C10.6653 4.90372 10.6653 4.87036 10.6338 4.83701C10.3192 5.10385 10.1933 5.40405 10.1933 5.77097C10.1933 6.10453 10.2877 6.37137 10.4136 6.53815L10.445 6.57151H13.1192V5.9711H13.1507ZM13.0248 5.90439C13.0563 5.90439 13.1192 5.90439 13.1507 5.90439V5.83768C13.1192 5.83768 13.0877 5.83768 13.0248 5.83768V5.90439ZM10.8855 4.80365C10.8855 4.7703 10.854 4.73694 10.854 4.70358C10.8226 4.73694 10.7911 4.73694 10.7596 4.77029C10.7596 4.80365 10.7911 4.83701 10.7911 4.87036C10.8226 4.83701 10.8226 4.83701 10.8855 4.80365ZM13.1507 5.9711C13.1192 5.9711 13.0877 5.9711 13.0248 5.9711V6.53815H10.5394C10.4136 6.40473 10.3192 6.17124 10.3192 5.80433C10.3192 5.47077 10.445 5.20392 10.6967 4.93707C10.6653 4.90372 10.6653 4.87036 10.6338 4.83701C10.3192 5.10385 10.1933 5.40405 10.1933 5.77097C10.1933 6.10453 10.2877 6.37137 10.4136 6.53815L10.445 6.57151H13.1192V5.9711H13.1507ZM13.0248 5.90439C13.0563 5.90439 13.1192 5.90439 13.1507 5.90439V5.83768C13.1192 5.83768 13.0877 5.83768 13.0248 5.83768V5.90439ZM10.8855 4.80365C10.8855 4.7703 10.854 4.73694 10.854 4.70358C10.8226 4.73694 10.7911 4.73694 10.7596 4.77029C10.7596 4.80365 10.7911 4.83701 10.7911 4.87036C10.8226 4.83701 10.8226 4.83701 10.8855 4.80365ZM16.7372 4.93707C16.4855 4.67023 16.108 4.47009 15.6046 4.33667C15.6046 4.37002 15.636 4.40338 15.6675 4.43674C16.045 4.57016 16.3596 4.73694 16.5799 4.93707C16.6113 4.97043 16.6428 4.97043 16.6428 5.00378C16.6743 5.00378 16.7057 5.00378 16.7686 5.00378H16.8001C16.8001 5.00378 16.7686 4.97043 16.7372 4.93707ZM13.1507 5.9711C13.1192 5.9711 13.0877 5.9711 13.0248 5.9711V6.53815H10.5394C10.4136 6.40473 10.3192 6.17124 10.3192 5.80433C10.3192 5.47077 10.445 5.20392 10.6967 4.93707C10.6653 4.90372 10.6653 4.87036 10.6338 4.83701C10.3192 5.10385 10.1933 5.40405 10.1933 5.77097C10.1933 6.10453 10.2877 6.37137 10.4136 6.53815L10.445 6.57151H13.1192V5.9711H13.1507ZM13.6855 4.13654C13.9372 4.13654 14.1889 4.13653 14.4091 4.16989C14.4091 4.13653 14.4091 4.13654 14.4405 4.10318C14.1889 4.06982 13.9686 4.06983 13.6855 4.06983C12.8675 4.06983 12.1439 4.16989 11.5776 4.33667C11.5776 4.37002 11.6091 4.37003 11.6091 4.40338C12.1439 4.23661 12.836 4.13654 13.6855 4.13654ZM15.3844 3.66955C15.3529 3.66955 15.3214 3.66956 15.2585 3.6362C15.0698 3.60285 14.881 3.56949 14.6922 3.53613C14.6608 3.53613 14.5978 3.53613 14.5664 3.53613V3.66955C14.5978 3.66955 14.6608 3.66955 14.6922 3.66955C14.881 3.70291 15.0698 3.73627 15.2585 3.76962C15.29 3.76962 15.3529 3.76962 15.3844 3.80298V3.66955ZM15.5102 4.37003C15.5102 4.33667 15.4787 4.30331 15.4787 4.26996C15.4473 4.26996 15.3844 4.23661 15.3529 4.23661C15.1327 4.16989 14.9124 4.13654 14.6608 4.10318C14.6293 4.10318 14.5978 4.10318 14.5349 4.10318C14.5349 4.13654 14.5349 4.13653 14.5349 4.16989V4.23661C14.5664 4.23661 14.5978 4.23661 14.6608 4.23661C14.9439 4.26996 15.2271 4.33667 15.4473 4.40338C15.5102 4.40338 15.5417 4.43674 15.6046 4.43674C15.5731 4.43674 15.5417 4.40338 15.5102 4.37003ZM13.8742 5.83768C13.8428 5.83768 13.8113 5.87104 13.7484 5.87104V7.00513H9.94166C9.7529 6.70493 9.53268 6.27131 9.53268 5.73762C9.53268 5.13721 9.81582 4.63687 10.445 4.26996C10.445 4.2366 10.445 4.20325 10.445 4.16989C9.72144 4.57016 9.43829 5.10386 9.43829 5.73762C9.43829 6.30466 9.72144 6.805 9.87874 7.07185H13.8742V5.83768ZM10.4136 6.57151L10.445 6.60486H13.1192V5.9711C13.0877 5.9711 13.0563 5.9711 12.9934 5.9711V6.53815H10.508C10.3821 6.40473 10.2877 6.17124 10.2877 5.80433C10.2877 5.47077 10.4136 5.20392 10.6653 4.93707C10.6338 4.90372 10.6338 4.87036 10.6023 4.83701C10.2877 5.10385 10.1619 5.40405 10.1619 5.77097C10.1934 6.13788 10.2877 6.40473 10.4136 6.57151ZM12.899 5.90439C12.9304 5.90439 12.9304 5.90439 12.9619 5.90439C12.9933 5.90439 12.9934 5.90439 13.0248 5.90439C13.0563 5.90439 13.1192 5.90439 13.1507 5.90439V5.73762H13.7799V5.80433C13.8113 5.80433 13.8742 5.77097 13.9057 5.77097C13.9372 5.77097 14.0001 5.73762 14.0316 5.73762V5.60419H12.9304V5.90439H12.899ZM10.9169 4.90372C11.0428 4.7703 11.2316 4.67023 11.4518 4.60352C11.4832 4.57016 11.5147 4.57016 11.5462 4.57016C11.5462 4.53681 11.5147 4.5368 11.5147 4.50345C11.5147 4.47009 11.4832 4.47009 11.4832 4.43674C11.4518 4.43674 11.4203 4.4701 11.3889 4.4701C11.2001 4.53681 11.0113 4.63687 10.854 4.73694C10.8226 4.7703 10.7911 4.7703 10.7596 4.80365C10.7596 4.83701 10.7911 4.87037 10.7911 4.90372C10.8226 4.93708 10.8226 4.97043 10.854 5.00378C10.854 4.93707 10.8855 4.90372 10.9169 4.90372ZM10.6023 4.20325C10.6338 4.20325 10.6338 4.16989 10.6653 4.16989C10.8226 4.06982 11.0113 4.00311 11.2316 3.9364C11.263 3.9364 11.2945 3.90305 11.3574 3.90305C11.3574 3.86969 11.3574 3.86969 11.3574 3.83633V3.76962C11.3259 3.76962 11.263 3.80298 11.2316 3.80298C11.0113 3.86969 10.8226 3.9364 10.6653 4.00311C10.6338 4.00311 10.6023 4.03647 10.5394 4.06983C10.5394 4.10318 10.5394 4.13654 10.5394 4.13654C10.5394 4.16989 10.5394 4.20325 10.5394 4.23661C10.5709 4.20325 10.6023 4.20325 10.6023 4.20325ZM13.6855 4.13654C13.9372 4.13654 14.1889 4.13653 14.4091 4.16989C14.4091 4.13653 14.4091 4.13654 14.4405 4.10318C14.1889 4.06982 13.9686 4.06983 13.6855 4.06983C12.8675 4.06983 12.1439 4.16989 11.5776 4.33667C11.5776 4.37002 11.6091 4.37003 11.6091 4.40338C12.1439 4.23661 12.836 4.13654 13.6855 4.13654ZM13.6226 3.6362C13.9057 3.6362 14.1889 3.6362 14.472 3.66955V3.60284C14.2203 3.56949 13.9372 3.56949 13.654 3.56949C12.8361 3.56949 12.1124 3.66956 11.5147 3.80298C11.5147 3.83634 11.5147 3.83633 11.5147 3.86969C12.081 3.70291 12.836 3.6362 13.6226 3.6362ZM17.9327 5.90439C17.9327 5.80433 17.9327 5.73761 17.9012 5.63755C17.9012 5.60419 17.9012 5.60419 17.8698 5.57084C17.8698 5.53748 17.8698 5.50412 17.8698 5.50412C17.8068 5.30399 17.7439 5.13721 17.6181 4.97043C17.6181 4.93708 17.5866 4.93708 17.5552 4.90372C17.5552 4.87037 17.5237 4.87036 17.4922 4.83701C17.0832 4.33667 16.3911 4.00311 15.4787 3.80298V3.86969C16.3282 4.06982 16.9889 4.43674 17.3664 4.90372C17.3978 4.93708 17.3978 4.93708 17.4293 4.97043C17.4293 5.00379 17.4608 5.00379 17.4608 5.03714C17.5866 5.20392 17.681 5.40406 17.7125 5.57084C17.7125 5.60419 17.7125 5.60419 17.7125 5.63755C17.7125 5.6709 17.7125 5.6709 17.7125 5.70426C17.7125 5.77097 17.7439 5.87104 17.7439 5.93775C17.7439 6.37137 17.5866 6.73828 17.4293 6.93842L16.7686 6.83835C16.9889 6.57151 17.0832 6.2713 17.0832 5.93775C17.0832 5.90439 17.0832 5.87103 17.0832 5.83768C17.0832 5.80432 17.0832 5.80432 17.0832 5.77097C17.0832 5.73761 17.0832 5.73761 17.0832 5.70426C17.0518 5.50412 16.9574 5.30399 16.8315 5.13721C16.8315 5.10385 16.8001 5.10386 16.7686 5.0705C16.7686 5.03714 16.7372 5.03714 16.7057 5.00378C16.454 4.73694 16.0765 4.53681 15.5731 4.40338C15.5731 4.43674 15.6046 4.47009 15.636 4.50345C16.0136 4.63687 16.3282 4.80365 16.5484 5.00378C16.5799 5.03714 16.6113 5.03714 16.6113 5.0705C16.6428 5.10386 16.6428 5.10385 16.6742 5.13721C16.8315 5.30399 16.9259 5.50412 16.9574 5.70426C16.9574 5.73761 16.9574 5.73761 16.9574 5.77097C16.9574 5.80432 16.9574 5.80432 16.9574 5.83768C16.9574 5.87103 16.9574 5.90439 16.9574 5.93775C16.9574 6.37137 16.8001 6.67157 16.6113 6.87171L17.4922 7.00513C17.7125 6.77164 17.9327 6.37137 17.9327 5.90439ZM13.6855 4.13654C13.9372 4.13654 14.1889 4.13653 14.4091 4.16989C14.4091 4.13653 14.4091 4.13654 14.4405 4.10318C14.1889 4.06982 13.9686 4.06983 13.6855 4.06983C12.8675 4.06983 12.1439 4.16989 11.5776 4.33667C11.5776 4.37002 11.6091 4.37003 11.6091 4.40338C12.1439 4.23661 12.836 4.13654 13.6855 4.13654ZM13.1507 5.9711C13.1192 5.9711 13.0877 5.9711 13.0248 5.9711V6.53815H10.5394C10.4136 6.40473 10.3192 6.17124 10.3192 5.80433C10.3192 5.47077 10.445 5.20392 10.6967 4.93707C10.6653 4.90372 10.6653 4.87036 10.6338 4.83701C10.3192 5.10385 10.1933 5.40405 10.1933 5.77097C10.1933 6.10453 10.2877 6.37137 10.4136 6.53815L10.445 6.57151H13.1192V5.9711H13.1507ZM13.1507 5.9711C13.1192 5.9711 13.0877 5.9711 13.0248 5.9711V6.53815H10.5394C10.4136 6.40473 10.3192 6.17124 10.3192 5.80433C10.3192 5.47077 10.445 5.20392 10.6967 4.93707C10.6653 4.90372 10.6653 4.87036 10.6338 4.83701C10.3192 5.10385 10.1933 5.40405 10.1933 5.77097C10.1933 6.10453 10.2877 6.37137 10.4136 6.53815L10.445 6.57151H13.1192V5.9711H13.1507ZM13.0248 5.90439C13.0563 5.90439 13.1192 5.90439 13.1507 5.90439V5.83768C13.1192 5.83768 13.0877 5.83768 13.0248 5.83768V5.90439ZM10.8855 4.80365C10.8855 4.7703 10.854 4.73694 10.854 4.70358C10.8226 4.73694 10.7911 4.73694 10.7596 4.77029C10.7596 4.80365 10.7911 4.83701 10.7911 4.87036C10.8226 4.83701 10.8226 4.83701 10.8855 4.80365ZM13.1507 5.9711C13.1192 5.9711 13.0877 5.9711 13.0248 5.9711V6.53815H10.5394C10.4136 6.40473 10.3192 6.17124 10.3192 5.80433C10.3192 5.47077 10.445 5.20392 10.6967 4.93707C10.6653 4.90372 10.6653 4.87036 10.6338 4.83701C10.3192 5.10385 10.1933 5.40405 10.1933 5.77097C10.1933 6.10453 10.2877 6.37137 10.4136 6.53815L10.445 6.57151H13.1192V5.9711H13.1507ZM13.0248 5.90439C13.0563 5.90439 13.1192 5.90439 13.1507 5.90439V5.83768C13.1192 5.83768 13.0877 5.83768 13.0248 5.83768V5.90439ZM10.8855 4.80365C10.8855 4.7703 10.854 4.73694 10.854 4.70358C10.8226 4.73694 10.7911 4.73694 10.7596 4.77029C10.7596 4.80365 10.7911 4.83701 10.7911 4.87036C10.8226 4.83701 10.8226 4.83701 10.8855 4.80365Z" fill="#F39411"/>
<g opacity="0.5">
<path opacity="0.5" d="M22.1569 8.35714L6.29216 0.60605C7.46615 0.35087 8.76706 0.12759 10.1632 0L24.854 7.20883C24.1242 7.65539 23.204 8.03816 22.1569 8.35714Z" fill="white"/>
<path opacity="0.5" d="M18.961 9.00007L3.46074 1.46855C3.93524 1.27948 4.40973 1.12192 4.9475 0.964355L20.7641 8.65343C20.1947 8.77948 19.5937 8.90553 18.961 9.00007Z" fill="white"/>
<path opacity="0.5" d="M15.7834 9.32108L1.57306 2.31227L2.17573 1.92822L16.9888 9.22506C16.6082 9.25707 16.1958 9.28907 15.7834 9.32108Z" fill="white"/>
</g>
</svg>
